<svg width="149" height="149" viewBox="0 0 149 149" fill="none" xmlns="http://www.w3.org/2000/svg">
<path d="M70.8846 60.082C66.9638 61.865 63.6599 64.7708 61.3907 68.4317C59.1215 72.0926 57.9889 76.3442 58.1362 80.6489C58.2835 84.9535 59.7041 89.1178 62.2183 92.615C64.7325 96.1122 68.2274 98.7853 72.2609 100.296C76.2943 101.807 80.6853 102.088 84.8783 101.103C89.0714 100.118 92.8782 97.9116 95.8172 94.763C98.7563 91.6144 100.696 87.6649 101.39 83.4141C102.084 79.1632 101.502 74.802 99.7176 70.8819C97.3254 65.627 92.9441 61.5374 87.5372 59.5121C82.1303 57.4868 76.1404 57.6918 70.8846 60.082ZM98.5151 71.4288C100.19 75.1114 100.735 79.2079 100.081 83.2003C99.428 87.1927 97.6053 90.9017 94.8439 93.8582C92.0825 96.8147 88.5064 98.886 84.5679 99.8101C80.6293 100.734 76.5052 100.47 72.7169 99.0498C68.9287 97.6301 65.6466 95.1188 63.2856 91.8337C60.9246 88.5486 59.5908 84.6371 59.4529 80.5939C59.3149 76.5508 60.3789 72.5575 62.5105 69.1191C64.642 65.6806 67.7453 62.9515 71.4279 61.2768C76.368 59.045 81.9907 58.8602 87.0667 60.7626C92.1426 62.665 96.2588 66.4999 98.5151 71.4288Z" fill="#706A75"/>
<path d="M105.002 63.4979C101.503 58.1479 96.3897 54.0523 90.4048 51.8057C84.4198 49.5592 77.8746 49.2785 71.7194 51.0046L64.3722 45.7603L63.4957 54.7445C58.1492 58.249 54.0588 63.3663 51.8184 69.3536C49.5779 75.3408 49.3039 81.8863 51.0362 88.0398L45.7602 95.4201L54.7824 96.298C58.2825 101.649 63.3972 105.745 69.3837 107.991C75.3702 110.237 81.9168 110.516 88.0728 108.788L95.42 114.032L96.2929 105.04C101.639 101.537 105.729 96.4208 107.97 90.4351C110.211 84.4495 110.486 77.9054 108.756 71.7526L114.032 64.3723L105.002 63.4979ZM91.5884 105.607C86.5071 107.918 80.8547 108.67 75.3458 107.769C69.8369 106.867 64.719 104.353 60.6389 100.543C56.5589 96.7338 53.7 91.8 52.4236 86.3658C51.1473 80.9316 51.5109 75.2409 53.4683 70.0133C55.4258 64.7857 58.8893 60.2558 63.4209 56.9963C67.9526 53.7369 73.3489 51.8942 78.9277 51.7013C84.5064 51.5084 90.0172 52.9739 94.7631 55.9125C99.5091 58.8512 103.277 63.131 105.591 68.211C107.128 71.5857 107.985 75.2302 108.114 78.9362C108.242 82.6423 107.638 86.3373 106.338 89.8101C105.038 93.283 103.066 96.4655 100.535 99.176C98.0041 101.886 94.964 104.072 91.5884 105.607Z" fill="#706A75"/>
<path d="M61.023 24.8811L50.8081 29.5265L56.8295 42.7671L58.8208 41.8616L53.5756 30.3278L59.808 27.4935L65.0532 39.0273L67.0444 38.1217L61.023 24.8811Z" fill="#706A75"/>
</svg>
