<svg width="27" height="26" viewBox="0 0 27 26" fill="none" xmlns="http://www.w3.org/2000/svg">
<circle cx="13.5738" cy="13" r="12.2385" stroke="#9A959E" stroke-width="0.927408"/>
<path d="M18.4845 16.1052L17.0602 17.518C16.85 17.7336 16.5713 17.8067 16.2999 17.807C15.0997 17.771 13.9653 17.1815 13.0338 16.5761C11.5049 15.4638 10.102 14.0846 9.22153 12.4179C8.88384 11.719 8.48761 10.8272 8.52547 10.0471C8.52884 9.75365 8.60792 9.46564 8.8146 9.27648L10.2389 7.85294C10.5346 7.60138 10.8206 7.68836 11.0099 7.98138L12.1557 10.1542C12.2763 10.4116 12.2071 10.6874 12.0272 10.8713L11.5025 11.3957C11.4701 11.4401 11.4494 11.4906 11.4489 11.5456C11.6501 12.3245 12.2597 13.0424 12.7982 13.5364C13.3367 14.0305 13.9155 14.6998 14.6669 14.8582C14.7597 14.8842 14.8735 14.8933 14.9399 14.8315L15.5503 14.2107C15.7608 14.0512 16.0646 13.9733 16.2892 14.1037H16.2999L18.3667 15.3238C18.6701 15.514 18.7017 15.8816 18.4845 16.1052Z" fill="#CE8163"/>
</svg>
