<svg width="241" height="104" viewBox="0 0 241 104" fill="none" xmlns="http://www.w3.org/2000/svg">
<rect y="0.812195" width="240.48" height="93.6" fill="#2F2536"/>
<path d="M120.24 103.052L110.887 93.3322L129.593 93.3322L120.24 103.052Z" fill="#2F2536"/>
<g clip-path="url(#clip0)">
<path d="M76.6787 70.9724H77.303V75.6225H76.6787V70.9724ZM76.9245 70.9724H81.0785V71.4896H76.9245V70.9724ZM80.6902 73.0313C80.9261 73.1408 81.108 73.2999 81.2358 73.5088C81.3637 73.7177 81.4276 73.9664 81.4276 74.2548C81.4276 74.4736 81.3932 74.6676 81.3194 74.8367C81.2457 75.0058 81.1424 75.15 81.0097 75.2644C80.8721 75.3788 80.7098 75.4683 80.5181 75.528C80.3264 75.5877 80.1101 75.6225 79.8692 75.6225H77.072V75.1252H79.7856C80.0019 75.1252 80.1838 75.0903 80.3362 75.0257C80.4886 74.961 80.6017 74.8616 80.6803 74.7323C80.7541 74.6029 80.7934 74.4438 80.7934 74.2548C80.7934 74.0658 80.7541 73.9017 80.6705 73.7724C80.5918 73.6381 80.4739 73.5386 80.3215 73.469C80.1691 73.3994 79.9921 73.3646 79.7905 73.3646H77.072V72.8672H79.8692C80.174 72.8672 80.4542 72.9219 80.6902 73.0313Z" fill="#CE8163"/>
<path d="M84.1176 70.9724H83.4736V75.6225H84.1176V70.9724Z" fill="#CE8163"/>
<path d="M91.0332 74.9113C90.9201 75.0854 90.7579 75.2296 90.5367 75.344C90.3155 75.4584 90.05 75.5429 89.7304 75.6026C89.4109 75.6623 89.0471 75.6872 88.6391 75.6872C88.1082 75.6872 87.6657 75.6325 87.3069 75.528C86.9529 75.4236 86.6727 75.2595 86.4761 75.0456C86.2794 74.8268 86.1565 74.5632 86.1172 74.2499L86.7759 74.1305C86.8005 74.3593 86.8841 74.5582 87.0266 74.7174C87.1692 74.8815 87.3708 75.0008 87.6362 75.0804C87.9017 75.16 88.2409 75.2048 88.6391 75.2048C88.939 75.2048 89.2093 75.1849 89.4355 75.1401C89.6665 75.0953 89.8583 75.0357 90.0205 74.9611C90.1778 74.8815 90.3007 74.787 90.3794 74.6776C90.458 74.5682 90.4973 74.4388 90.4973 74.2946C90.4973 74.1106 90.4433 73.9564 90.34 73.8371C90.2368 73.7177 90.0746 73.6282 89.8632 73.5635C89.6518 73.4989 89.3814 73.469 89.052 73.469H87.6117V72.9767H89.0225C89.2339 72.9767 89.4207 72.9617 89.583 72.9319C89.7452 72.9021 89.8878 72.8573 90.0107 72.7976C90.1336 72.7379 90.222 72.6534 90.2909 72.5539C90.3548 72.4544 90.3892 72.3401 90.3892 72.2058C90.3892 72.0765 90.3548 71.9621 90.281 71.8626C90.2073 71.7582 90.0991 71.6736 89.9566 71.604C89.814 71.5344 89.6321 71.4846 89.4109 71.4498C89.1897 71.415 88.9341 71.3951 88.644 71.3951C88.2704 71.3951 87.9558 71.4299 87.7001 71.5095C87.4445 71.5841 87.243 71.6985 87.1004 71.8527C86.9578 72.0068 86.8644 72.1909 86.8251 72.4147L86.2008 72.2754C86.2598 71.977 86.3876 71.7283 86.5842 71.5244C86.7858 71.3205 87.0561 71.1663 87.3953 71.0619C87.7346 70.9574 88.1524 70.9077 88.6342 70.9077C89.0324 70.9077 89.3863 70.9326 89.6862 70.9873C89.991 71.042 90.2466 71.1216 90.4482 71.226C90.6497 71.3305 90.8021 71.4598 90.9054 71.6139C91.0037 71.7681 91.0578 71.9472 91.0578 72.1511C91.0578 72.3052 91.0283 72.4445 90.9742 72.5688C90.9152 72.6932 90.8316 72.8026 90.7186 72.8971C90.6055 72.9916 90.4629 73.0712 90.286 73.1358C90.1139 73.2005 89.9123 73.2452 89.6764 73.2701L89.578 73.1507C89.9222 73.1607 90.2171 73.2104 90.4629 73.2999C90.7038 73.3895 90.8857 73.5188 91.0086 73.6829C91.1315 73.847 91.1905 74.0609 91.1905 74.3195C91.2003 74.5433 91.1463 74.7422 91.0332 74.9113Z" fill="#CE8163"/>
<path d="M93.3105 70.9724H93.9545V75.6225H93.3105V70.9724ZM93.753 72.9518H97.9463V73.4839H93.753V72.9518ZM97.7841 70.9724H98.433V75.6225H97.7841V70.9724Z" fill="#CE8163"/>
<path d="M100.856 70.9724H101.496V75.6225H100.856V70.9724ZM101.274 70.9724H105.173V71.4896H101.274V70.9724ZM101.274 72.9816H104.814V73.4989H101.274V72.9816ZM101.274 75.1053H105.212V75.6225H101.274V75.1053Z" fill="#CE8163"/>
<path d="M106.972 72.4942C107.055 72.2456 107.178 72.0218 107.335 71.8278C107.493 71.6289 107.684 71.4647 107.915 71.3305C108.146 71.1962 108.407 71.0917 108.702 71.0171C108.997 70.9425 109.316 70.9077 109.666 70.9077C110.157 70.9077 110.585 70.9674 110.949 71.0917C111.312 71.2111 111.612 71.3901 111.843 71.6189C112.074 71.8477 112.232 72.1362 112.32 72.4743L111.652 72.6086C111.588 72.355 111.47 72.1461 111.298 71.972C111.126 71.798 110.909 71.6687 110.639 71.5791C110.369 71.4896 110.049 71.4448 109.67 71.4448C109.395 71.4448 109.144 71.4697 108.913 71.5294C108.687 71.5841 108.486 71.6637 108.314 71.7681C108.142 71.8726 107.994 72.0019 107.871 72.1511C107.748 72.3003 107.66 72.4793 107.601 72.6733C107.537 72.8672 107.507 73.0811 107.507 73.3099C107.507 73.5387 107.537 73.7525 107.601 73.9465C107.665 74.1405 107.753 74.3145 107.871 74.4588C107.989 74.608 108.137 74.7323 108.314 74.8417C108.486 74.9461 108.687 75.0307 108.913 75.0854C109.14 75.1401 109.395 75.17 109.67 75.17C110.054 75.17 110.388 75.1252 110.663 75.0307C110.939 74.9362 111.165 74.8019 111.342 74.6229C111.519 74.4438 111.632 74.22 111.681 73.9564L112.345 74.0957C112.266 74.4389 112.109 74.7323 111.878 74.971C111.647 75.2097 111.347 75.3888 110.973 75.5131C110.6 75.6375 110.167 75.6971 109.67 75.6971C109.371 75.6971 109.095 75.6723 108.84 75.6225C108.584 75.5728 108.353 75.5032 108.142 75.4037C107.93 75.3042 107.748 75.1898 107.586 75.0506C107.424 74.9113 107.291 74.7572 107.183 74.5781C107.075 74.3991 106.991 74.2051 106.932 73.9912C106.873 73.7774 106.844 73.5486 106.844 73.3099C106.844 73.0115 106.883 72.7429 106.972 72.4942Z" fill="#CE8163"/>
<path d="M117.408 70.9724H118.047V75.6225H117.408V70.9724ZM121.311 70.9724H122.246L118.922 73.29L118.903 73.096L122.354 75.6225H121.39L118.096 73.2502L121.311 70.9724Z" fill="#CE8163"/>
<path d="M124.129 75.0307C124.252 74.9809 124.355 74.9014 124.443 74.787C124.502 74.7173 124.552 74.6278 124.596 74.5234C124.64 74.4189 124.674 74.2946 124.699 74.1454C124.724 73.9962 124.748 73.8172 124.768 73.5983C124.787 73.3845 124.802 73.1308 124.817 72.8374C124.832 72.544 124.842 72.2058 124.851 71.8228L124.871 70.9724H125.515L125.49 71.8825C125.476 72.3052 125.466 72.6733 125.446 72.9965C125.431 73.3198 125.407 73.5983 125.382 73.8321C125.353 74.0708 125.318 74.2747 125.279 74.4438C125.24 74.6129 125.186 74.7621 125.127 74.8815C125.068 75.0058 124.999 75.1152 124.92 75.2097C124.822 75.3142 124.724 75.3937 124.615 75.4634C124.507 75.528 124.384 75.5778 124.252 75.6126C124.114 75.6474 123.957 75.6673 123.78 75.6772L123.721 75.1252C123.868 75.1152 124.006 75.0804 124.129 75.0307ZM125.195 70.9724H128.691V71.5045H125.146L125.195 70.9724ZM128.533 70.9724H129.168V75.6225H128.533V70.9724Z" fill="#CE8163"/>
<path d="M133.744 71.3851H133.96L131.67 75.6225H130.991L133.538 70.9724H134.201L136.763 75.6225H136.045L133.744 71.3851ZM132.26 73.852H135.47L135.612 74.3692H132.127L132.26 73.852Z" fill="#CE8163"/>
<path d="M138.144 72.4942C138.227 72.2456 138.35 72.0218 138.508 71.8278C138.665 71.6289 138.857 71.4647 139.088 71.3305C139.319 71.1962 139.579 71.0917 139.874 71.0171C140.169 70.9425 140.489 70.9077 140.838 70.9077C141.329 70.9077 141.757 70.9674 142.121 71.0917C142.485 71.2111 142.784 71.3901 143.016 71.6189C143.247 71.8477 143.404 72.1362 143.492 72.4743L142.824 72.6086C142.76 72.355 142.642 72.1461 142.47 71.972C142.298 71.798 142.081 71.6687 141.811 71.5791C141.541 71.4896 141.221 71.4448 140.843 71.4448C140.567 71.4448 140.317 71.4697 140.086 71.5294C139.859 71.5841 139.658 71.6637 139.486 71.7681C139.314 71.8726 139.166 72.0019 139.043 72.1511C138.921 72.3003 138.832 72.4793 138.773 72.6733C138.709 72.8672 138.68 73.0811 138.68 73.3099C138.68 73.5387 138.709 73.7525 138.773 73.9465C138.837 74.1405 138.925 74.3145 139.043 74.4588C139.161 74.608 139.309 74.7323 139.486 74.8417C139.658 74.9461 139.859 75.0307 140.086 75.0854C140.312 75.1401 140.567 75.17 140.843 75.17C141.226 75.17 141.56 75.1252 141.836 75.0307C142.111 74.9362 142.337 74.8019 142.514 74.6229C142.691 74.4438 142.804 74.22 142.853 73.9564L143.517 74.0957C143.438 74.4389 143.281 74.7323 143.05 74.971C142.819 75.2097 142.519 75.3888 142.145 75.5131C141.777 75.6325 141.339 75.6971 140.843 75.6971C140.543 75.6971 140.267 75.6723 140.012 75.6225C139.756 75.5728 139.525 75.5032 139.314 75.4037C139.102 75.3042 138.921 75.1898 138.758 75.0506C138.601 74.9113 138.463 74.7572 138.36 74.5781C138.252 74.3991 138.168 74.2051 138.109 73.9912C138.05 73.7774 138.021 73.5486 138.021 73.3099C138.016 73.0115 138.06 72.7429 138.144 72.4942Z" fill="#CE8163"/>
<path d="M145.508 70.9724H146.137V75.6225H145.508V70.9724ZM146.117 74.8218L149.927 70.9773L149.947 71.783L146.137 75.6275L146.117 74.8218ZM149.927 70.9724H150.557V75.6225H149.927V70.9724Z" fill="#CE8163"/>
<path d="M152.986 70.9724H153.625V75.6225H152.986V70.9724ZM156.895 70.9724H157.829L154.505 73.29L154.486 73.096L157.942 75.6225H156.978L153.679 73.2502L156.895 70.9724Z" fill="#CE8163"/>
<path d="M162.06 71.3851H162.276L159.985 75.6225H159.307L161.853 70.9724H162.517L165.078 75.6225H164.36L162.06 71.3851ZM160.575 73.852H163.785L163.928 74.3692H160.442L160.575 73.852Z" fill="#CE8163"/>
<path d="M177.073 37.8842L181.011 41.286L185.888 36.9591L180.107 32.299L176.184 36.0092L171.749 32.299L167.222 36.5911L170.614 39.5403V55.6692L167.807 58.2554L175.8 63.3979L179.875 58.7676L176.321 56.4948V38.66L177.073 37.8842Z" fill="#CE8163"/>
<path d="M145.882 19.5322L141.197 23.8491L141.227 23.869L146.069 26.8481L150.734 22.4814L145.882 19.5322Z" fill="#CE8163"/>
<path d="M145.612 37.9239L148.267 33.1842H141.129V23.9536L135.422 28.9817V33.0599L131.857 37.9239H135.422V55.7537L132.742 58.2205L140.844 63.4426L144.978 58.7427L141.129 56.2759V37.9239H145.612Z" fill="#CE8163"/>
<path d="M154.976 32.299L150.449 36.5911L152.208 38.1229L147.681 42.1066V56.6191L145.921 58.2404L155.335 63.4576L165.403 53.2372V41.1517L154.976 32.299ZM159.695 58.9864L153.388 55.5448V39.1524L159.695 44.6431V58.9864Z" fill="#CE8163"/>
<path d="M106.794 58.4593L102.881 55.9527V41.1467L92.4542 32.299L87.9265 36.5911L89.6865 38.1229L90.8663 39.1524L92.7196 40.7688L92.754 40.7986L90.8614 42.4796L90.8024 42.5343L85.3948 47.3387L85.1539 47.5873V56.5793L83.3301 58.2603L83.6742 58.4841L84.5099 59.0262L91.3186 63.4128L95.2809 58.9118L95.6594 58.5438L103.191 63.4128L107.237 58.8174L106.794 58.4593ZM97.1784 56.4401L95.2219 58.2454L94.9613 58.4841L90.8712 55.8631V45.4537L94.1797 42.037L97.1784 44.648V56.4401Z" fill="#CE8163"/>
<path d="M81.6694 58.5239L82.0529 58.7676L77.9775 63.3979L69.9841 58.2504L71.6949 56.6788V37.9886H66.9854L69.6056 33.244L71.7244 33.1843L71.6949 30.1953L77.4024 25.1671V33.2489H82.7067L80.0521 37.9886H77.4024V55.7885L77.5892 55.9079L81.6694 58.5239Z" fill="#CE8163"/>
<path d="M128.523 56.0919V38.287L121.459 32.299L116.543 36.5662L111.519 32.299L106.986 36.5911L110.378 39.5453V56.0919L108.392 58.2355L114.66 63.3979L119.153 58.7726L116.086 56.1914V39.9183L118.45 37.909L122.816 41.7137V56.256L120.977 58.2355L126.97 63.3929L131.743 58.7726L128.523 56.0919Z" fill="#CE8163"/>
<path d="M203.041 53.0631L203.021 39.6647L185.736 24.64V33.1545L197.333 43.0864V58.8671L203.041 53.0631Z" fill="#CE8163"/>
<path d="M197.205 58.9964L192.819 63.4576L185.519 59.4142L185.372 59.3346L183.4 58.2404L185.372 56.4251V43.4494L191.025 38.4263V55.6294L197.205 58.9964Z" fill="#CE8163"/>
<path d="M52.4038 28.3401L61.287 34.3828L66.5471 28.6634L65.1952 27.6687L63.6074 29.3248L56.725 24.4708L46.6668 33.3135L46.657 39.6497L59.8171 50.7056L59.8614 59.2699C59.8614 59.2699 53.2494 53.9185 52.9003 53.6449C51.165 52.2872 48.6578 50.268 47.3895 51.5163C46.6324 52.2573 40.3399 58.5636 38.8799 60.0209L39.927 60.8713C42.1343 58.5537 45.2756 54.7739 47.3108 56.3405C49.2625 57.8425 49.5378 58.0663 56.1891 63.2984L65.4607 55.5V47.0651L52.4038 36.4368V28.3401Z" fill="#CE8163"/>
</g>
<defs>
<clipPath id="clip0">
<rect width="164.16" height="56.16" fill="white" transform="translate(38.8799 19.5322)"/>
</clipPath>
</defs>
</svg>
