<svg width="189" height="63" viewBox="0 0 189 63" fill="none" xmlns="http://www.w3.org/2000/svg">
<rect y="0.119995" width="188.64" height="53.28" fill="#2F2536"/>
<path d="M94.0005 62.04L84.0239 49.08L103.977 49.08L94.0005 62.04Z" fill="#2F2536"/>
<path d="M29.1186 30.76H33.0213C35.3878 30.76 36.4567 29.5817 36.4567 28.0207C36.4567 26.4447 35.353 25.5548 34.3438 25.5001V25.4006C35.2784 25.162 36.0589 24.5256 36.0589 23.2529C36.0589 21.7465 35.0149 20.5782 32.8473 20.5782H29.1186V30.76ZM30.6548 29.4425V26.1812H32.9268C34.1598 26.1812 34.9304 26.9766 34.9304 27.9461C34.9304 28.8012 34.3487 29.4425 32.8722 29.4425H30.6548ZM30.6548 24.983V21.8857H32.7528C33.9709 21.8857 34.5526 22.5271 34.5526 23.3722C34.5526 24.3566 33.7472 24.983 32.7131 24.983H30.6548ZM39.815 20.5782H38.2788V30.76H39.815V20.5782ZM41.2816 33.2209H42.7532V30.76H49.5891V33.206H51.0607V29.4575H49.9073V20.5782H43.6282L43.3896 24.8786C43.2354 27.7124 42.6339 28.8807 41.9528 29.4575H41.2816V33.2209ZM43.7624 29.4575C44.3441 28.5278 44.7369 27.0313 44.8612 24.8786L45.0202 21.9006H48.4357V29.4575H43.7624ZM52.4515 33.2209H53.9231V30.76H60.7591V33.206H62.2306V29.4575H61.0772V20.5782H54.7981L54.5595 24.8786C54.4054 27.7124 53.8038 28.8807 53.1227 29.4575H52.4515V33.2209ZM54.9324 29.4575C55.514 28.5278 55.9068 27.0313 56.0311 24.8786L56.1902 21.9006H59.6056V29.4575H54.9324ZM65.4498 20.5782H63.9135V30.76H65.4498V20.5782ZM66.9164 30.76H67.3539C69.6706 30.76 70.2275 29.0398 70.3617 25.7685L70.5208 21.8807H73.9959V30.76H75.5123V20.5782H69.074L68.9 25.3609C68.7907 28.309 68.4327 29.3879 67.2147 29.4177L66.9164 29.4276V30.76ZM89.4141 20.5782H81.5589V30.76H83.0902V21.8907H87.8828V30.76H89.4141V20.5782ZM91.7631 30.76H93.2994V27.1805H95.3874C97.7489 27.1805 98.9173 25.7536 98.9173 23.8744C98.9173 22.0001 97.7589 20.5782 95.3924 20.5782H91.7631V30.76ZM93.2994 25.8779V21.8957H95.2283C96.7496 21.8957 97.3711 22.7209 97.3711 23.8744C97.3711 25.0278 96.7496 25.8779 95.2482 25.8779H93.2994ZM109.563 25.6691C109.563 22.4127 107.614 20.439 104.979 20.439C102.334 20.439 100.39 22.4127 100.39 25.6691C100.39 28.9205 102.334 30.8992 104.979 30.8992C107.614 30.8992 109.563 28.9255 109.563 25.6691ZM108.041 25.6691C108.041 28.1499 106.729 29.4972 104.979 29.4972C103.224 29.4972 101.916 28.1499 101.916 25.6691C101.916 23.1883 103.224 21.841 104.979 21.841C106.729 21.841 108.041 23.1883 108.041 25.6691ZM110.707 33.2209H112.179V30.76H119.015V33.206H120.487V29.4575H119.333V20.5782H113.054L112.815 24.8786C112.661 27.7124 112.06 28.8807 111.379 29.4575H110.707V33.2209ZM113.188 29.4575C113.77 28.5278 114.163 27.0313 114.287 24.8786L114.446 21.9006H117.862V29.4575H113.188ZM123.029 30.76L123.964 28.0654H127.941L128.871 30.76H130.502L126.838 20.5782H125.063L121.399 30.76H123.029ZM124.412 26.7728L125.913 22.4276H125.993L127.494 26.7728H124.412ZM138.574 20.5782H137.053V24.983H135.875L133.349 20.5782H131.47L134.503 25.4305L131.241 30.76H133.016L135.611 26.4148H137.053V30.76H138.574V26.4148H140.031L142.591 30.76H144.386L141.145 25.4404L144.167 20.5782H142.293L139.787 24.983H138.574V20.5782ZM147.426 20.5782H145.89V30.76H147.426V20.5782ZM149.664 30.76H153.566C155.933 30.76 157.002 29.5817 157.002 28.0207C157.002 26.4447 155.898 25.5548 154.889 25.5001V25.4006C155.823 25.162 156.604 24.5256 156.604 23.2529C156.604 21.7465 155.56 20.5782 153.392 20.5782H149.664V30.76ZM151.2 29.4425V26.1812H153.472C154.705 26.1812 155.475 26.9766 155.475 27.9461C155.475 28.8012 154.894 29.4425 153.417 29.4425H151.2ZM151.2 24.983V21.8857H153.298C154.516 21.8857 155.097 22.5271 155.097 23.3722C155.097 24.3566 154.292 24.983 153.258 24.983H151.2Z" fill="#FFF0E0"/>
</svg>
