<svg class="logo-site" width="220" height="75" viewBox="0 0 220 75" fill="none" xmlns="http://www.w3.org/2000/svg">





<path class="logo-letter--big" d="M18.1259 11.7697L30.0296 19.8323L37.0742 12.1845L35.2487 10.8624L33.1148 13.066L23.9107 6.61072L10.4901 18.3805V26.8838L27.9985 41.6608V53.0936C27.9985 53.0936 19.2829 45.9384 18.7944 45.5755C16.4805 43.7607 13.1125 41.0646 11.4156 42.7238C10.4129 43.7089 1.98008 52.1344 0.026123 54.0787L1.44017 55.2194C4.39681 52.1344 8.61325 47.0791 11.3385 49.179C13.9609 51.1752 14.3209 51.4863 23.2422 58.4859L35.6601 48.0642V36.787L18.1259 22.5803V11.7697Z" fill="#CE8163"/>
<path class="logo-letter--big" d="M57.3331 52.0827L57.8473 52.4197L52.3968 58.5897L41.6758 51.7197L43.964 49.6198V24.6544H37.665L41.1873 18.3288L44.0154 18.2251L43.964 14.2327L51.6255 7.51819V18.3288H58.7472L55.1735 24.6544H51.6255V48.4273L51.8826 48.5828L57.3331 52.0827Z" fill="#CE8163"/>
<path class="logo-letter--big" d="M91.0131 52.0048L85.7683 48.6605V28.88L71.7821 17.0583L65.7145 22.7877L68.0798 24.8357L69.6738 26.2097L72.1677 28.3615L72.2191 28.4133L69.6738 30.6688L69.5967 30.7466L62.3465 37.1759L62.0123 37.5129V49.516L59.5698 51.7715L60.0326 52.0566L61.1638 52.7825L70.2909 58.6415L75.6128 52.627L76.127 52.1344L86.231 58.6415L91.6558 52.4973L91.0131 52.0048ZM78.1324 49.3086L75.51 51.7196L75.1501 52.0307L69.6738 48.5309V34.6353L74.1217 30.0725L78.1324 33.5723V49.3086Z" fill="#CE8163"/>
<path class="logo-letter--big" d="M120.143 48.842V25.0432L110.681 17.0325L104.1 22.7359L97.3635 17.0325L91.2703 22.7877L95.8209 26.7283V48.842L93.1471 51.6937L101.554 58.5897L107.57 52.4196L103.457 48.9716V27.2209L106.619 24.5506L112.455 29.6318V49.0494L109.987 51.6937L118.009 58.5897L124.41 52.4196L120.143 48.842Z" fill="#CE8163"/>


<g class="logo-letter--big">
<path d="M143.41 0L137.111 5.75527L137.163 5.7812L143.641 9.77359L149.915 3.94055L143.41 0Z" fill="#CE8163"/>
<path d="M143.05 24.5765L146.598 18.225H137.034V5.91077L129.372 12.6253V18.0694L124.59 24.5765H129.372V48.3753L125.799 51.6937L136.648 58.6415L142.202 52.3677L137.034 49.0753V24.5765H143.05Z" fill="#CE8163"/>
</g>

<g class="logo-letter--big">
<path d="M155.597 17.0583L149.529 22.7877L151.894 24.8357L145.827 30.1503V49.5419L143.461 51.7196L156.085 58.6933L169.583 45.031V28.88L155.597 17.0583ZM161.921 52.7047L153.463 48.1161V26.2097L161.921 33.5464V52.7047Z" fill="#CE8163"/>
<path d="M185.214 24.5246L190.485 29.0615L197.015 23.2803L189.277 17.0583L184.006 22.01L178.067 17.0583L172 22.7877L176.55 26.7282V48.2716L172.797 51.7196L183.492 58.5896L188.968 52.4196L184.186 49.3605V25.5616L185.214 24.5246Z" fill="#CE8163"/>
</g>

<g class="logo-letter--big">
<path d="M220 44.7978L219.974 26.9098L196.81 6.84412V18.225L212.364 31.4985V52.5752L220 44.7978Z" fill="#CE8163"/>
<path d="M212.184 52.7048L206.297 58.6675L196.527 53.2752L196.321 53.1715L193.673 51.7197L196.321 49.2828V31.9392L203.906 25.2506V48.2198L212.184 52.7048Z" fill="#CE8163"/>
</g>


<g class="word-small">
<path class="logo-letter-small" d="M61.1639 71.4483C60.8554 71.2928 60.4697 71.215 60.0584 71.215H56.639V69.3744H61.7038V68.7003H56.639H56.1248H55.7905V74.9222H56.3047H56.6132H60.0327C60.3669 74.9222 60.6497 74.8704 60.9068 74.7926C61.1639 74.7148 61.3953 74.5852 61.5753 74.4297C61.7552 74.2741 61.8838 74.0926 61.9866 73.8593C62.0895 73.626 62.1409 73.3668 62.1409 73.0816C62.1409 72.6927 62.0637 72.3557 61.8838 72.0964C61.7295 71.8113 61.4724 71.6039 61.1639 71.4483ZM61.1382 73.7297C61.0353 73.9112 60.8811 74.0408 60.6754 74.1186C60.4697 74.1963 60.2383 74.2482 59.9298 74.2482H56.6132V71.889H59.9298C60.1869 71.889 60.444 71.9409 60.6497 72.0187C60.8554 72.1224 61.0096 72.252 61.1125 72.4335C61.2153 72.6149 61.2667 72.8223 61.2667 73.0816C61.2924 73.3408 61.241 73.5482 61.1382 73.7297Z" fill="#CE8163"/>
<path class="logo-letter-small" d="M65.766 68.7003H64.8918V74.8963H65.766V68.7003Z" fill="#CE8163"/>
<path class="logo-letter-small" d="M74.2761 71.8113C74.1218 71.7594 73.9419 71.7076 73.7619 71.6817C73.8647 71.6557 73.9676 71.6298 74.0447 71.6039C74.2761 71.5261 74.4561 71.4224 74.6103 71.2928C74.7646 71.1632 74.8674 71.0076 74.9446 70.8521C75.0217 70.6965 75.0474 70.4891 75.0474 70.2817C75.0474 70.0225 74.9703 69.7632 74.8417 69.5558C74.7132 69.3484 74.5075 69.167 74.2247 69.0373C73.9419 68.9077 73.6077 68.804 73.1963 68.7263C72.7849 68.6485 72.3222 68.6226 71.7822 68.6226C71.1395 68.6226 70.5739 68.7003 70.1111 68.83C69.6483 68.9596 69.2884 69.167 69.0313 69.4521C68.7742 69.7114 68.5942 70.0484 68.5171 70.4632L69.3398 70.6447C69.3912 70.3595 69.5198 70.1003 69.6997 69.8929C69.9054 69.6855 70.1625 69.5299 70.4967 69.4262C70.831 69.3225 71.268 69.2707 71.7565 69.2707C72.1422 69.2707 72.5021 69.2966 72.7849 69.3484C73.0677 69.4003 73.3248 69.4781 73.5048 69.5558C73.7105 69.6595 73.839 69.7632 73.9419 69.8929C74.0447 70.0225 74.0961 70.178 74.0961 70.3595C74.0961 70.541 74.0447 70.6965 73.9676 70.8262C73.8905 70.9558 73.7619 71.0595 73.5819 71.1372C73.4277 71.215 73.222 71.2928 73.0163 71.3187C72.7849 71.3446 72.5535 71.3706 72.2707 71.3706H70.4453V72.0187H72.3736C72.8106 72.0187 73.1706 72.0705 73.4534 72.1483C73.7362 72.2261 73.9419 72.3557 74.0961 72.5113C74.2247 72.6668 74.3018 72.8742 74.3018 73.1334C74.3018 73.3408 74.2504 73.4964 74.1476 73.6519C74.0447 73.8075 73.8905 73.9371 73.6591 74.0408C73.4534 74.1445 73.1963 74.2223 72.8878 74.2741C72.5792 74.326 72.2193 74.3519 71.8079 74.3519C71.268 74.3519 70.831 74.3 70.471 74.1964C70.1111 74.0927 69.8283 73.9371 69.6483 73.7038C69.4683 73.4964 69.3398 73.2371 69.3141 72.926L68.4399 73.0816C68.4914 73.4964 68.6713 73.8593 68.9284 74.1445C69.1855 74.4297 69.5712 74.6371 70.034 74.7926C70.5224 74.9222 71.1138 75 71.8079 75C72.3479 75 72.8363 74.9741 73.2734 74.8963C73.7105 74.8185 74.0704 74.7148 74.3532 74.5593C74.6361 74.4037 74.8674 74.2223 75.0217 73.9889C75.176 73.7556 75.2531 73.4964 75.2531 73.2112C75.2531 72.8742 75.176 72.589 74.996 72.3557C74.8417 72.0965 74.5846 71.9409 74.2761 71.8113Z" fill="#CE8163"/>
<path class="logo-letter-small" d="M84.0715 71.3446H78.9295V68.7003H78.0811V74.9222H78.9295V72.0705H84.0715V74.9222H84.9199V68.7003H84.0715V71.3446Z" fill="#CE8163"/>
<path class="logo-letter-small" d="M89.0335 72.0705H93.4813V71.3965H89.0335V69.4003H93.9698V68.7003H89.0335H88.7507H88.1851V74.9222H88.7507H89.0335H94.0212V74.2223H89.0335V72.0705Z" fill="#CE8163"/>
<path class="logo-letter-small" d="M102.223 73.5742C101.991 73.8075 101.683 73.9889 101.323 74.1186C100.963 74.2482 100.5 74.3 99.9858 74.3C99.6259 74.3 99.2916 74.2741 98.9831 74.1964C98.6746 74.1186 98.4175 74.0149 98.1861 73.8853C97.9547 73.7556 97.7491 73.5742 97.5948 73.3668C97.4405 73.1594 97.312 72.952 97.2349 72.6668C97.1577 72.4075 97.1063 72.1224 97.1063 71.8113C97.1063 71.5002 97.1577 71.215 97.2349 70.9558C97.312 70.6965 97.4405 70.4632 97.5948 70.2558C97.7491 70.0484 97.9547 69.8929 98.1861 69.7373C98.4175 69.6077 98.6746 69.504 98.9831 69.4262C99.2916 69.3484 99.6259 69.3225 99.9858 69.3225C100.5 69.3225 100.911 69.3744 101.271 69.504C101.631 69.6336 101.914 69.7892 102.145 70.0225C102.377 70.2558 102.531 70.541 102.608 70.878L103.508 70.6965C103.38 70.2299 103.174 69.8669 102.865 69.5558C102.557 69.2447 102.171 69.0114 101.657 68.8559C101.168 68.7003 100.603 68.6226 99.9344 68.6226C99.4716 68.6226 99.0346 68.6744 98.6489 68.7781C98.2633 68.8818 97.9033 69.0114 97.5948 69.1929C97.2863 69.3744 97.0292 69.6077 96.8235 69.8669C96.6178 70.1262 96.4378 70.4373 96.335 70.7484C96.2322 71.0854 96.155 71.4483 96.155 71.8372C96.155 72.1483 96.2064 72.4594 96.2836 72.7446C96.3607 73.0297 96.4635 73.289 96.6178 73.5223C96.7721 73.7556 96.952 73.963 97.1577 74.1445C97.3634 74.326 97.6205 74.4815 97.9033 74.6111C98.1861 74.7408 98.4946 74.8445 98.8289 74.8963C99.1631 74.9741 99.5488 75 99.9344 75C100.603 75 101.194 74.9222 101.683 74.7667C102.171 74.6111 102.583 74.3519 102.891 74.0408C103.2 73.7297 103.405 73.3408 103.508 72.8742L102.608 72.6927C102.608 73.0297 102.454 73.3408 102.223 73.5742Z" fill="#CE8163"/>
<path class="logo-letter-small" d="M117.546 68.7003H116.312L111.992 71.7594L116.415 74.9222H117.7L113.278 71.6817L117.546 68.7003Z" fill="#CE8163"/>

</g>
<g class="word-small">

<path class="logo-letter-small" d="M111.915 68.7003H111.067V74.8963H111.915V68.7003Z" fill="#CE8163"/>
<path class="logo-letter-small" d="M125.979 68.7003H121.942H121.531H121.094L121.068 69.841C121.068 70.3595 121.043 70.8002 121.017 71.1891C120.991 71.578 120.965 71.915 120.94 72.2001C120.914 72.4853 120.888 72.7186 120.837 72.926C120.811 73.1334 120.76 73.289 120.708 73.4186C120.657 73.5482 120.58 73.6779 120.503 73.7815C120.374 73.9371 120.246 74.0408 120.091 74.0926C119.937 74.1704 119.731 74.1963 119.526 74.2223L119.603 74.9482C119.834 74.9482 120.066 74.8963 120.246 74.8704C120.425 74.8185 120.58 74.7667 120.734 74.663C120.888 74.5852 121.017 74.4556 121.145 74.326C121.248 74.1963 121.351 74.0408 121.428 73.8852C121.505 73.7297 121.582 73.5223 121.634 73.289C121.685 73.0557 121.737 72.7964 121.762 72.4853C121.788 72.1742 121.84 71.7853 121.84 71.3706C121.865 70.9298 121.891 70.4373 121.891 69.8929L121.917 69.3744H125.979V74.9222H126.827V68.7003H126.185H125.979Z" fill="#CE8163"/>
<path class="logo-letter-small" d="M132.689 68.7003L129.27 74.9222H130.169L131.069 73.2371H135.106L136.031 74.9222H136.983L133.563 68.7003H132.689ZM131.455 72.5372L133.1 69.504L134.746 72.5372H131.455Z" fill="#CE8163"/>
<path class="logo-letter-small" d="M144.695 73.5742C144.464 73.8075 144.156 73.9889 143.796 74.1186C143.436 74.2482 142.973 74.3 142.459 74.3C142.099 74.3 141.765 74.2741 141.456 74.1964C141.148 74.1186 140.89 74.0149 140.659 73.8853C140.428 73.7556 140.222 73.5742 140.068 73.3668C139.913 73.1594 139.785 72.952 139.708 72.6668C139.631 72.4075 139.579 72.1224 139.579 71.8113C139.579 71.5002 139.631 71.215 139.708 70.9558C139.785 70.6965 139.913 70.4632 140.068 70.2558C140.222 70.0484 140.428 69.8929 140.659 69.7373C140.89 69.6077 141.148 69.504 141.456 69.4262C141.765 69.3484 142.099 69.3225 142.459 69.3225C142.973 69.3225 143.384 69.3744 143.744 69.504C144.104 69.6336 144.387 69.7892 144.618 70.0225C144.85 70.2558 145.004 70.541 145.081 70.878L145.981 70.6965C145.852 70.2299 145.647 69.8669 145.338 69.5558C145.03 69.2447 144.644 69.0114 144.13 68.8559C143.641 68.7003 143.076 68.6226 142.407 68.6226C141.945 68.6226 141.507 68.6744 141.122 68.7781C140.736 68.8818 140.376 69.0114 140.068 69.1929C139.759 69.3744 139.502 69.6077 139.296 69.8669C139.091 70.1262 138.911 70.4373 138.808 70.7484C138.705 71.0854 138.628 71.4483 138.628 71.8372C138.628 72.1483 138.679 72.4594 138.756 72.7446C138.834 73.0297 138.936 73.289 139.091 73.5223C139.245 73.7556 139.425 73.963 139.631 74.1445C139.836 74.326 140.093 74.4815 140.376 74.6111C140.659 74.7408 140.968 74.8445 141.302 74.8963C141.636 74.9741 142.022 75 142.407 75C143.076 75 143.667 74.9222 144.156 74.7667C144.644 74.6111 145.055 74.3519 145.364 74.0408C145.672 73.7297 145.878 73.3408 145.981 72.8742L145.081 72.6927C145.081 73.0297 144.927 73.3408 144.695 73.5742Z" fill="#CE8163"/>
<path class="logo-letter-small" d="M149.555 73.8075V68.7003H148.706V74.9222H149.555L154.645 69.8151V74.9222H155.494V68.7003H154.645L149.555 73.8075Z" fill="#CE8163"/>
<path class="logo-letter-small" d="M165.212 68.7003H163.978L159.659 71.7594L164.081 74.9222H165.366L160.944 71.6817L165.212 68.7003Z" fill="#CE8163"/>
<path class="logo-letter-small" d="M159.582 68.7003H158.733V74.8963H159.582V68.7003Z" fill="#CE8163"/>
<path class="logo-letter-small" d="M173.979 74.9222H174.93L171.511 68.7003H170.611L167.218 74.9222H168.117L169.017 73.2371H173.054L173.979 74.9222ZM169.403 72.5372L171.048 69.504L172.694 72.5372H169.403Z" fill="#CE8163"/>
<path class="logo-letter-small" d="M105.436 71.3706H109.061V72.1743H105.436V71.3706Z" fill="#CE8163"/>
</g>



</svg>
