<svg class="logo-site" width="220" height="75" viewBox="0 0 213 73" fill="none" xmlns="http://www.w3.org/2000/svg">
<g class="word-small">
<path class="logo-letter-small" d="M49.0449 66.8649H49.855V72.9095H49.0449V66.8649ZM49.3639 66.8649H54.7538V67.5373H49.3639V66.8649ZM54.2498 69.5413C54.556 69.6836 54.792 69.8904 54.9579 70.162C55.1237 70.4335 55.2066 70.7567 55.2066 71.1317C55.2066 71.4161 55.162 71.6682 55.0663 71.888C54.9706 72.1078 54.8367 72.2953 54.6645 72.444C54.4859 72.5927 54.2754 72.7091 54.0266 72.7866C53.7778 72.8642 53.4972 72.9095 53.1846 72.9095H49.5552V72.263H53.0762C53.3568 72.263 53.5929 72.2177 53.7906 72.1337C53.9883 72.0497 54.135 71.9204 54.2371 71.7523C54.3328 71.5842 54.3838 71.3773 54.3838 71.1317C54.3838 70.886 54.3328 70.6727 54.2243 70.5046C54.1223 70.33 53.9692 70.2007 53.7715 70.1102C53.5737 70.0197 53.3441 69.9745 53.0826 69.9745H49.5552V69.328H53.1846C53.5801 69.328 53.9437 69.3991 54.2498 69.5413Z" fill="#CE8163"/>
<path class="logo-letter-small" d="M58.6957 66.8649H57.8601V72.9095H58.6957V66.8649Z" fill="#CE8163"/>
<path class="logo-letter-small" d="M67.6703 71.9849C67.5236 72.2112 67.3131 72.3987 67.0261 72.5474C66.7391 72.6961 66.3946 72.806 65.98 72.8835C65.5654 72.9611 65.0934 72.9934 64.564 72.9934C63.8751 72.9934 63.301 72.9223 62.8354 72.7866C62.3761 72.6508 62.0125 72.4375 61.7574 72.1595C61.5022 71.875 61.3428 71.5324 61.2917 71.1251L62.1465 70.97C62.1784 71.2674 62.2868 71.5259 62.4718 71.7328C62.6568 71.9462 62.9183 72.1013 63.2627 72.2047C63.6072 72.3082 64.0473 72.3664 64.564 72.3664C64.9531 72.3664 65.3039 72.3405 65.5973 72.2823C65.8971 72.2241 66.1458 72.1466 66.3563 72.0496C66.5605 71.9462 66.7199 71.8233 66.822 71.6811C66.924 71.5389 66.9751 71.3708 66.9751 71.1833C66.9751 70.9441 66.9049 70.7437 66.7709 70.5886C66.637 70.4334 66.4265 70.317 66.1522 70.233C65.8779 70.149 65.5271 70.1102 65.0998 70.1102H63.2308V69.4702H65.0615C65.3358 69.4702 65.5782 69.4508 65.7886 69.412C65.9991 69.3732 66.1841 69.315 66.3436 69.2374C66.503 69.1598 66.6179 69.0499 66.7072 68.9207C66.7901 68.7914 66.8347 68.6427 66.8347 68.4681C66.8347 68.3 66.7901 68.1513 66.6944 68.0221C66.5987 67.8863 66.4584 67.7764 66.2734 67.6859C66.0884 67.5954 65.8524 67.5307 65.5654 67.4855C65.2784 67.4402 64.9467 67.4144 64.5703 67.4144C64.0856 67.4144 63.6773 67.4596 63.3456 67.5631C63.014 67.66 62.7524 67.8087 62.5675 68.0091C62.3825 68.2095 62.2613 68.4487 62.2103 68.7396L61.4002 68.5586C61.4767 68.1707 61.6426 67.8475 61.8977 67.5825C62.1592 67.3174 62.5101 67.117 62.9502 66.9812C63.3903 66.8455 63.9325 66.7808 64.5576 66.7808C65.0742 66.7808 65.5335 66.8131 65.9226 66.8843C66.3181 66.9554 66.6498 67.0588 66.9113 67.1946C67.1728 67.3303 67.3705 67.4984 67.5045 67.6988C67.6321 67.8992 67.7022 68.132 67.7022 68.397C67.7022 68.5974 67.6639 68.7784 67.5938 68.94C67.5172 69.1017 67.4088 69.2439 67.2621 69.3667C67.1154 69.4896 66.9304 69.593 66.7008 69.677C66.4775 69.7611 66.216 69.8193 65.9098 69.8516L65.7823 69.6964C66.2288 69.7094 66.6115 69.774 66.9304 69.8904C67.243 70.0067 67.479 70.1748 67.6384 70.3881C67.7979 70.6015 67.8744 70.8795 67.8744 71.2156C67.8872 71.5066 67.817 71.7651 67.6703 71.9849Z" fill="#CE8163"/>
<path class="logo-letter-small" d="M70.6235 66.8649H71.4591V72.9095H70.6235V66.8649ZM71.1976 69.4379H76.6385V70.1296H71.1976V69.4379ZM76.428 66.8649H77.27V72.9095H76.428V66.8649Z" fill="#CE8163"/>
<path class="logo-letter-small" d="M80.4148 66.8649H81.244V72.9095H80.4148V66.8649ZM80.957 66.8649H86.0152V67.5373H80.957V66.8649ZM80.957 69.4767H85.5496V70.149H80.957V69.4767ZM80.957 72.2371H86.0662V72.9095H80.957V72.2371Z" fill="#CE8163"/>
<path class="logo-letter-small" d="M88.3497 68.8431C88.4581 68.5198 88.6176 68.2289 88.8217 67.9768C89.0258 67.7182 89.2746 67.5049 89.5744 67.3303C89.8742 67.1558 90.2122 67.02 90.5949 66.923C90.9776 66.8261 91.3923 66.7808 91.8451 66.7808C92.483 66.7808 93.0379 66.8584 93.5099 67.02C93.982 67.1752 94.371 67.4079 94.6708 67.7053C94.9706 68.0027 95.1747 68.3776 95.2896 68.8172L94.4221 68.9918C94.3392 68.6621 94.1861 68.3905 93.9628 68.1643C93.7396 67.938 93.4589 67.7699 93.1081 67.6536C92.7573 67.5372 92.3427 67.479 91.8515 67.479C91.4943 67.479 91.169 67.5113 90.8692 67.5889C90.5758 67.66 90.3143 67.7635 90.091 67.8992C89.8678 68.035 89.6764 68.2031 89.517 68.397C89.3575 68.591 89.2427 68.8237 89.1661 69.0758C89.0832 69.3279 89.0449 69.6059 89.0449 69.9033C89.0449 70.2007 89.0832 70.4787 89.1661 70.7308C89.2491 70.9829 89.3639 71.2092 89.517 71.3967C89.67 71.5906 89.8614 71.7522 90.091 71.8944C90.3143 72.0302 90.5758 72.1401 90.8692 72.2112C91.1626 72.2823 91.4943 72.3211 91.8515 72.3211C92.349 72.3211 92.7828 72.2629 93.14 72.1401C93.4972 72.0173 93.7906 71.8427 94.0202 71.61C94.2499 71.3773 94.3966 71.0864 94.4603 70.7437L95.3215 70.9247C95.2194 71.3708 95.0153 71.7522 94.7155 72.0625C94.4157 72.3728 94.0266 72.6056 93.5418 72.7672C93.0571 72.9288 92.4957 73.0064 91.8515 73.0064C91.4624 73.0064 91.1052 72.9741 90.7735 72.9094C90.4418 72.8448 90.1421 72.7543 89.8678 72.625C89.5935 72.4957 89.3575 72.347 89.147 72.166C88.9365 71.985 88.7643 71.7845 88.624 71.5518C88.4836 71.3191 88.3752 71.067 88.2986 70.789C88.2221 70.511 88.1838 70.2136 88.1838 69.9033C88.1838 69.5154 88.2349 69.1663 88.3497 68.8431Z" fill="#CE8163"/>
</g>
<g class="word-small">

<path class="logo-letter-small" d="M101.891 66.8649H102.721V72.9095H101.891V66.8649ZM106.956 66.8649H108.168L103.856 69.8775L103.83 69.6254L108.308 72.9095H107.058L102.784 69.8258L106.956 66.8649Z" fill="#CE8163"/>
<path class="logo-letter-small" d="M110.611 72.1402C110.77 72.0755 110.904 71.9721 111.019 71.8234C111.096 71.7329 111.16 71.6165 111.217 71.4808C111.274 71.345 111.319 71.1834 111.351 70.9894C111.383 70.7955 111.415 70.5628 111.44 70.2783C111.466 70.0003 111.485 69.6706 111.504 69.2892C111.523 68.9078 111.536 68.4682 111.549 67.9704L111.574 66.8649H112.41L112.378 68.048C112.359 68.5975 112.346 69.0759 112.32 69.4961C112.301 69.9163 112.269 70.2783 112.238 70.5822C112.199 70.8925 112.155 71.1575 112.104 71.3773C112.053 71.5971 111.982 71.7911 111.906 71.9462C111.829 72.1078 111.74 72.2501 111.638 72.3729C111.51 72.5087 111.383 72.6121 111.242 72.7026C111.102 72.7866 110.943 72.8513 110.77 72.8966C110.592 72.9418 110.388 72.9677 110.158 72.9806L110.082 72.263C110.273 72.2501 110.452 72.2048 110.611 72.1402ZM111.995 66.8649H116.53V67.5567H111.931L111.995 66.8649ZM116.326 66.8649H117.149V72.9095H116.326V66.8649Z" fill="#CE8163"/>
<path class="logo-letter-small" d="M123.088 67.4015H123.368L120.396 72.9095H119.516L122.82 66.8649H123.681L127.004 72.9095H126.073L123.088 67.4015ZM121.161 70.608H125.326L125.511 71.2804H120.989L121.161 70.608Z" fill="#CE8163"/>
<path class="logo-letter-small" d="M128.796 68.8431C128.905 68.5198 129.064 68.2289 129.268 67.9768C129.473 67.7182 129.721 67.5049 130.021 67.3303C130.321 67.1558 130.659 67.02 131.042 66.923C131.424 66.8261 131.839 66.7808 132.292 66.7808C132.93 66.7808 133.485 66.8584 133.957 67.02C134.429 67.1752 134.818 67.4079 135.118 67.7053C135.417 68.0027 135.621 68.3776 135.736 68.8172L134.869 68.9918C134.786 68.6621 134.633 68.3905 134.41 68.1643C134.186 67.938 133.906 67.7699 133.555 67.6536C133.204 67.5372 132.789 67.479 132.298 67.479C131.941 67.479 131.616 67.5113 131.316 67.5889C131.023 67.66 130.761 67.7635 130.538 67.8992C130.315 68.035 130.123 68.2031 129.964 68.397C129.804 68.591 129.689 68.8237 129.613 69.0758C129.53 69.3279 129.492 69.6059 129.492 69.9033C129.492 70.2007 129.53 70.4787 129.613 70.7308C129.696 70.9829 129.811 71.2092 129.964 71.3967C130.117 71.5906 130.308 71.7522 130.538 71.8944C130.761 72.0302 131.023 72.1401 131.316 72.2112C131.609 72.2823 131.941 72.3211 132.298 72.3211C132.796 72.3211 133.23 72.2629 133.587 72.1401C133.944 72.0173 134.237 71.8427 134.467 71.61C134.697 71.3773 134.843 71.0864 134.907 70.7437L135.768 70.9247C135.666 71.3708 135.462 71.7522 135.162 72.0625C134.862 72.3728 134.473 72.6056 133.989 72.7672C133.51 72.9223 132.942 73.0064 132.298 73.0064C131.909 73.0064 131.552 72.9741 131.22 72.9094C130.889 72.8448 130.589 72.7543 130.315 72.625C130.04 72.4957 129.804 72.347 129.594 72.166C129.39 71.985 129.211 71.7845 129.077 71.5518C128.937 71.3191 128.828 71.067 128.752 70.789C128.675 70.511 128.637 70.2136 128.637 69.9033C128.631 69.5154 128.688 69.1663 128.796 68.8431Z" fill="#CE8163"/>
<path class="logo-letter-small" d="M138.352 66.8649H139.168V72.9095H138.352V66.8649ZM139.143 71.8686L144.086 66.8714L144.111 67.9187L139.168 72.9159L139.143 71.8686ZM144.086 66.8649H144.902V72.9095H144.086V66.8649Z" fill="#CE8163"/>
<path class="logo-letter-small" d="M148.053 66.8649H148.882V72.9095H148.053V66.8649ZM153.124 66.8649H154.336L150.024 69.8775L149.999 69.6254L154.483 72.9095H153.233L148.953 69.8258L153.124 66.8649Z" fill="#CE8163"/>
<path class="logo-letter-small" d="M159.828 67.4015H160.109L157.137 72.9095H156.256L159.56 66.8649H160.422L163.745 72.9095H162.814L159.828 67.4015ZM157.902 70.608H162.067L162.252 71.2804H157.73L157.902 70.608Z" fill="#CE8163"/>
</g>

<path class="logo-letter--big" d="M17.5475 11.449L29.0736 19.3037L35.8987 11.8692L34.1446 10.5763L32.0843 12.729L23.1543 6.41943L10.1037 17.9138L10.0909 26.1499L27.1664 40.521L27.2238 51.6533C27.2238 51.6533 18.6446 44.6972 18.1917 44.3417C15.9401 42.5768 12.687 39.9521 11.0413 41.5748C10.059 42.538 1.89444 50.7353 0 52.6295L1.35864 53.735C4.22262 50.7224 8.29854 45.8092 10.9393 47.8456C13.4716 49.7979 13.8288 50.0888 22.459 56.8898L34.489 46.753V35.7888L17.5475 21.9736V11.449Z" fill="#CE8163"/>
<path class="logo-letter--big" d="M55.5191 50.6837L56.0167 51.0005L50.7288 57.0191L40.3572 50.3281L42.577 48.2853V23.9907H36.4663L39.8661 17.8233L42.6153 17.7458L42.577 13.8605L49.9825 7.32458V17.8298H56.865L53.4206 23.9907H49.9825V47.1281L50.2249 47.2832L55.5191 50.6837Z" fill="#CE8163"/>
<path class="logo-letter--big" d="M88.12 50.5996L83.0427 47.3414V28.0958L69.5137 16.595L63.639 22.1741L65.9226 24.1653L67.4534 25.5035L69.8581 27.6045L69.9028 27.6433L67.447 29.8284L67.3705 29.8995L60.3541 36.1444L60.0415 36.4677V48.156L57.675 50.341L58.1216 50.632L59.2059 51.3366L68.0402 57.0385L73.1814 51.1879L73.6725 50.7095L83.4445 57.0385L88.6941 51.0651L88.12 50.5996ZM75.6435 47.9749L73.1048 50.3217L72.7668 50.632L67.4598 47.225V33.6943L71.7526 29.253L75.6435 32.647V47.9749Z" fill="#CE8163"/>
<path class="logo-letter--big" d="M116.313 47.5224V24.3786L107.147 16.595L100.769 22.1418L94.2499 16.595L88.3689 22.1741L92.7701 26.0142V47.5224L90.1932 50.3087L98.3259 57.0191L104.156 51.0069L100.176 47.6517V26.499L103.244 23.8873L108.908 28.8328V47.7358L106.522 50.3087L114.298 57.0127L120.491 51.0069L116.313 47.5224Z" fill="#CE8163"/>
<g class="logo-letter--big">
<path d="M138.836 0L132.758 5.61141L132.796 5.63727L139.079 9.50965L145.132 3.8336L138.836 0Z" fill="#CE8163"/>
<path d="M138.485 23.9066L141.93 17.7457H132.668V5.74713L125.263 12.283V17.5841L120.638 23.9066H125.263V47.0828L121.786 50.2893L132.298 57.0773L137.663 50.9681L132.668 47.7616V23.9066H138.485Z" fill="#CE8163"/>
</g>
<path class="logo-letter--big" d="M150.637 16.595L144.762 22.1741L147.045 24.1653L141.171 29.3435V48.2077L138.887 50.3152L151.102 57.0967L164.165 43.8116V28.1023L150.637 16.595ZM156.76 51.2849L148.576 46.8113V25.5035L156.76 32.6406V51.2849Z" fill="#CE8163"/>
<path class="logo-letter--big" d="M179.308 23.855L184.418 28.2768L190.745 22.6525L183.244 16.595L178.154 21.4177L172.4 16.595L166.526 22.1741L170.927 26.0077V46.9729L167.285 50.3346L177.656 57.0191L182.944 51.0005L178.332 48.0461V24.8635L179.308 23.855Z" fill="#CE8163"/>

<g class="logo-letter--big">
<path d="M213 43.5854L212.974 26.1694L190.547 6.63934V17.707L205.594 30.6171V51.1298L213 43.5854Z" fill="#CE8163"/>
<path d="M205.429 51.2978L199.739 57.0967L190.267 51.8409L190.075 51.7374L187.518 50.3152L190.075 47.9556V31.089L197.411 24.5596V46.9212L205.429 51.2978Z" fill="#CE8163"/>
</g>



</svg>
