<svg width="155" height="27" viewBox="0 0 155 27" fill="none" xmlns="http://www.w3.org/2000/svg">
<g clip-path="url(#clip0)">
<path d="M55.2682 16.517C55.4727 16.5436 55.6517 16.5596 55.8047 16.5649C55.9581 16.5703 56.1371 16.5731 56.3416 16.5731C56.8094 16.5731 57.2522 16.5038 57.6692 16.3649C58.0862 16.226 58.4491 16.0247 58.7588 15.7604C59.0681 15.4961 59.313 15.1747 59.4933 14.7956C59.6735 14.4166 59.7638 13.987 59.7638 13.5067C59.7638 12.989 59.6801 12.5488 59.5135 12.1858C59.3465 11.8227 59.1126 11.528 58.8112 11.301C58.5097 11.0743 58.1493 10.9103 57.7298 10.8087C57.31 10.7071 56.8473 10.6563 56.3416 10.6563C56.0456 10.6563 55.8237 10.703 55.6756 10.7965C55.5276 10.8902 55.4228 11.0222 55.361 11.1928C55.2991 11.3637 55.2682 11.5678 55.2682 11.8054V12.6021V16.517ZM55.8574 17.2064H55.603C55.4875 17.2064 55.3758 17.2039 55.2682 17.1983V19.5764C55.2682 19.8765 55.2641 20.1339 55.2558 20.3481C55.248 20.5622 55.2331 20.739 55.2117 20.8783L56.7368 20.798V21.5276H52.6853V20.9905C52.9975 20.9798 53.2317 20.9237 53.3876 20.8221C53.5435 20.7205 53.654 20.5813 53.7184 20.4051C53.7831 20.2283 53.8165 20.0182 53.8194 19.7749C53.8219 19.5316 53.8235 19.2654 53.8235 18.9763V11.876C53.8235 11.6512 53.8276 11.4386 53.8355 11.2382C53.8437 11.0376 53.8585 10.8542 53.88 10.6886L52.6853 10.7607V10.0311C53.2667 10.0205 53.8639 10.0136 54.4772 10.0111C55.0905 10.0086 55.7227 10.007 56.3738 10.007C57.9773 10.007 59.1959 10.2744 60.0298 10.8087C60.9231 11.3913 61.3697 12.2438 61.3697 13.3662C61.3697 13.596 61.3441 13.85 61.293 14.1278C61.2419 14.4059 61.1384 14.6928 60.9821 14.9897C60.8262 15.2863 60.6122 15.5698 60.3407 15.8394C60.069 16.1094 59.7271 16.3445 59.3156 16.5452C58.904 16.7455 58.4132 16.9057 57.8428 17.0261C57.2724 17.1462 56.6106 17.2064 55.8574 17.2064Z" fill="#C2BFC4"/>
<path d="M65.5687 13.7029C64.9229 13.7029 64.3904 13.8907 63.9709 14.2663C63.5511 14.642 63.2737 15.2505 63.1395 16.0921H67.3523C67.3523 15.8046 67.3201 15.5183 67.2554 15.233C67.1911 14.948 67.0872 14.6924 66.9449 14.4661C66.8022 14.24 66.6179 14.056 66.3919 13.9149C66.1659 13.7735 65.8916 13.7029 65.5687 13.7029ZM68.91 16.6853L63.0909 16.7815C63.0856 17.4136 63.1339 17.9865 63.2364 18.5007C63.3384 19.0145 63.5 19.4538 63.7206 19.8181C63.9413 20.1822 64.225 20.4634 64.5719 20.6616C64.9191 20.8594 65.3348 20.9585 65.819 20.9585C66.0772 20.9585 66.3407 20.9237 66.61 20.8538C66.8789 20.7838 67.1387 20.6885 67.3886 20.5675C67.6389 20.4465 67.869 20.3013 68.0789 20.132C68.2885 19.9627 68.4634 19.7815 68.6035 19.5877L69.0069 19.9163C68.7809 20.2583 68.5186 20.5484 68.22 20.786C67.9214 21.024 67.6118 21.2181 67.2917 21.3673C66.9717 21.5172 66.6504 21.6254 66.3275 21.6921C66.0046 21.7589 65.7031 21.7925 65.4235 21.7925C64.8531 21.7925 64.3219 21.6906 63.8295 21.4877C63.3371 21.2846 62.9107 20.9933 62.5502 20.6139C62.1898 20.2345 61.9057 19.7774 61.6986 19.2428C61.4916 18.7085 61.3881 18.1072 61.3881 17.439C61.3881 16.8615 61.4875 16.31 61.6867 15.7835C61.8855 15.2571 62.168 14.7906 62.5341 14.3845C62.9 13.9785 63.3384 13.6549 63.8497 13.4145C64.3607 13.174 64.9286 13.0536 65.5526 13.0536C66.0099 13.0536 66.4417 13.1285 66.848 13.2781C67.2542 13.4279 67.6105 13.6524 67.9173 13.9516C68.2241 14.251 68.4662 14.6291 68.6436 15.0859C68.8213 15.5431 68.91 16.0761 68.91 16.6853Z" fill="#C2BFC4"/>
<path d="M74.508 13.9516C74.2981 13.9463 74.0854 13.9848 73.8704 14.0676C73.6551 14.1507 73.444 14.2723 73.2369 14.4326C73.0296 14.5928 72.8345 14.7853 72.6517 15.0098C72.4687 15.2343 72.3045 15.4829 72.1593 15.7554L72.1754 19.7881C72.1754 20.0072 72.1729 20.2007 72.1675 20.3691C72.1622 20.5378 72.1432 20.7155 72.111 20.9024L73.152 20.8544V21.5276H69.7624V21.0388C70.0152 21.0388 70.2074 20.9892 70.3394 20.8905C70.4713 20.7917 70.5666 20.6541 70.626 20.4776C70.685 20.301 70.7188 20.09 70.727 19.8439C70.7349 19.5984 70.739 19.3284 70.739 19.0343V15.2822C70.739 15.1114 70.7415 14.9389 70.7469 14.7655C70.7522 14.5915 70.7712 14.4112 70.8034 14.2241L69.6333 14.2723V13.5986H70.1418C70.3782 13.5986 70.5748 13.587 70.7308 13.5625C70.8867 13.5387 71.0174 13.5051 71.1222 13.4625C71.2273 13.4198 71.3147 13.3731 71.3848 13.3223C71.4545 13.2715 71.5218 13.2167 71.5865 13.158H72.0624C72.0789 13.3289 72.0934 13.5415 72.1069 13.7951C72.1202 14.0491 72.1322 14.3764 72.1432 14.7771C72.267 14.5743 72.4257 14.3699 72.6192 14.1639C72.813 13.9582 73.0311 13.7738 73.2732 13.6108C73.5153 13.4477 73.7763 13.3142 74.056 13.2101C74.3357 13.1057 74.6235 13.0536 74.9196 13.0536C75.0701 13.0536 75.2169 13.0737 75.3596 13.1138C75.5019 13.154 75.6257 13.2167 75.7308 13.3023C75.8356 13.3879 75.9205 13.4945 75.9849 13.6227C76.0496 13.7513 76.0818 13.9061 76.0818 14.088C76.0818 14.1626 76.0669 14.2454 76.0376 14.3363C76.0079 14.4272 75.9593 14.5128 75.8924 14.5928C75.8248 14.673 75.7402 14.7401 75.638 14.7934C75.5357 14.8467 75.4091 14.8734 75.2586 14.8734C75.1348 14.8734 75.0231 14.8467 74.9237 14.7934C74.8239 14.7401 74.7406 14.6718 74.6734 14.5887C74.6062 14.5059 74.5575 14.41 74.5282 14.3003C74.4985 14.1905 74.4919 14.0745 74.508 13.9516Z" fill="#C2BFC4"/>
<path d="M81.7086 9.92704C81.6281 9.82013 81.5189 9.74519 81.3816 9.70224C81.2446 9.6596 81.1167 9.63827 80.9984 9.63827C80.7402 9.63827 80.5275 9.69597 80.3608 9.81072C80.1938 9.92579 80.0622 10.0766 79.9653 10.2635C79.8684 10.4506 79.7999 10.6604 79.7595 10.893C79.7191 11.1257 79.6989 11.3593 79.6989 11.5944V13.3179H81.9267V13.9594L79.6989 13.9996L79.715 19.7881C79.715 20.0072 79.7125 20.2007 79.7071 20.3691C79.7017 20.5378 79.68 20.7155 79.6424 20.9024L80.6837 20.8544V21.5276H77.3181V21.0388C77.5709 21.0388 77.7631 20.9892 77.895 20.8902C78.027 20.7917 78.1226 20.6538 78.1816 20.4776C78.241 20.301 78.2732 20.09 78.2785 19.8439C78.2839 19.5984 78.2867 19.3284 78.2867 19.0343L78.2703 14.0319L76.9147 14.0557V13.3179H78.2703V12.9734C78.2703 12.3642 78.3227 11.8177 78.4278 11.3339C78.5326 10.8504 78.7034 10.44 78.9404 10.1032C79.1772 9.76651 79.4852 9.50753 79.8646 9.32568C80.2437 9.14383 80.7052 9.0529 81.2487 9.0529C81.4261 9.0529 81.6186 9.07579 81.8257 9.12125C82.0327 9.16672 82.2237 9.23883 82.3985 9.33759C82.5734 9.43667 82.7202 9.5624 82.8385 9.71446C82.9569 9.86684 83.0159 10.0499 83.0159 10.2635C83.0159 10.4829 82.9515 10.662 82.8224 10.8009C82.6934 10.9398 82.5289 11.0094 82.3301 11.0094C82.1902 11.0094 82.0772 10.9865 81.9911 10.941C81.9049 10.8956 81.8336 10.8382 81.7774 10.7686C81.7209 10.6993 81.6805 10.6243 81.6562 10.5441C81.6319 10.4638 81.6199 10.392 81.6199 10.3277C81.6199 10.2635 81.6265 10.1983 81.6401 10.1315C81.6533 10.0644 81.6764 9.99633 81.7086 9.92704Z" fill="#C2BFC4"/>
<path d="M86.5737 13.7029C85.9279 13.7029 85.3954 13.8907 84.9756 14.2663C84.5561 14.642 84.2787 15.2505 84.1442 16.0921H88.3573C88.3573 15.8046 88.3251 15.5183 88.2604 15.233C88.1957 14.948 88.0922 14.6924 87.9498 14.4661C87.8072 14.24 87.6228 14.056 87.3968 13.9149C87.1708 13.7735 86.8966 13.7029 86.5737 13.7029ZM89.915 16.6853L84.0959 16.7815C84.0906 17.4136 84.1388 17.9865 84.2411 18.5007C84.3434 19.0145 84.5047 19.4538 84.7253 19.8181C84.9459 20.1822 85.23 20.4634 85.5769 20.6616C85.9241 20.8594 86.3398 20.9585 86.824 20.9585C87.0822 20.9585 87.3457 20.9237 87.6146 20.8538C87.8839 20.7838 88.1436 20.6885 88.3936 20.5675C88.6439 20.4465 88.8737 20.3013 89.0836 20.132C89.2935 19.9627 89.4684 19.7815 89.6082 19.5877L90.0119 19.9163C89.7859 20.2583 89.5236 20.5484 89.225 20.786C88.9264 21.024 88.6168 21.2181 88.2967 21.3673C87.9767 21.5172 87.655 21.6254 87.3325 21.6921C87.0096 21.7589 86.7081 21.7925 86.4285 21.7925C85.8581 21.7925 85.3269 21.6906 84.8345 21.4877C84.3421 21.2846 83.9154 20.9933 83.5552 20.6139C83.1945 20.2345 82.9107 19.7774 82.7037 19.2428C82.4966 18.7085 82.3931 18.1072 82.3931 17.439C82.3931 16.8615 82.4925 16.31 82.6917 15.7835C82.8905 15.2571 83.173 14.7906 83.5391 14.3845C83.905 13.9785 84.3434 13.6549 84.8547 13.4145C85.3657 13.174 85.9332 13.0536 86.5576 13.0536C87.0149 13.0536 87.4464 13.1285 87.8529 13.2781C88.2592 13.4279 88.6155 13.6524 88.9223 13.9516C89.2288 14.251 89.4712 14.6291 89.6486 15.0859C89.8263 15.5431 89.915 16.0761 89.915 16.6853Z" fill="#C2BFC4"/>
<path d="M96.7235 14.5754C96.648 14.3828 96.5379 14.2292 96.3927 14.1141C96.2475 13.9994 96.09 13.91 95.9205 13.8458C95.751 13.7818 95.5815 13.7404 95.412 13.7216C95.2425 13.7028 95.1014 13.6934 94.9884 13.6934C94.6115 13.6934 94.2606 13.7696 93.9351 13.9216C93.6094 14.0743 93.3285 14.2976 93.0914 14.5913C92.8547 14.8854 92.6678 15.2517 92.5305 15.6897C92.3936 16.128 92.3248 16.6303 92.3248 17.1968C92.3248 17.7421 92.3936 18.2459 92.5305 18.7081C92.6678 19.1705 92.8604 19.5687 93.1078 19.9027C93.3553 20.2369 93.6539 20.4974 94.0036 20.6843C94.3533 20.8715 94.7406 20.9649 95.1658 20.9649C95.4243 20.9649 95.6797 20.9289 95.9328 20.8567C96.1856 20.7846 96.4249 20.6843 96.6509 20.5561C96.8769 20.4278 97.0855 20.2783 97.2765 20.1071C97.4674 19.9359 97.6303 19.7515 97.7648 19.554L98.1924 19.8826C97.9718 20.2247 97.7202 20.5175 97.4378 20.7605C97.1553 21.0038 96.8592 21.2041 96.5502 21.3619C96.2405 21.5196 95.9287 21.6356 95.614 21.7105C95.299 21.7854 95.0017 21.8228 94.722 21.8228C94.1624 21.8228 93.635 21.7278 93.14 21.5381C92.6451 21.3484 92.2121 21.0731 91.8406 20.7125C91.4694 20.3516 91.1762 19.9096 90.9609 19.3853C90.7456 18.862 90.6383 18.266 90.6383 17.5978C90.6383 17.2182 90.6853 16.8441 90.7794 16.4754C90.8735 16.1067 91.0095 15.7552 91.1869 15.4213C91.3646 15.087 91.5798 14.777 91.8327 14.491C92.0855 14.2051 92.3721 13.958 92.6922 13.7495C93.0122 13.541 93.3623 13.378 93.7413 13.2604C94.1207 13.1431 94.5228 13.0842 94.948 13.0842C95.4054 13.0842 95.8223 13.1403 96.1989 13.2525C96.5754 13.3648 96.8983 13.5143 97.1676 13.7015C97.4365 13.8884 97.6435 14.1035 97.7891 14.3468C97.9342 14.5901 98.0068 14.8453 98.0068 15.1124C98.0068 15.3476 97.9409 15.5492 97.8093 15.7176C97.677 15.8863 97.4873 15.9731 97.2402 15.9781C97.0947 15.9838 96.9738 15.9609 96.8769 15.9101C96.78 15.8593 96.702 15.7966 96.643 15.7216C96.5836 15.647 96.5404 15.5655 96.5136 15.4771C96.4867 15.389 96.4735 15.3103 96.4735 15.2407C96.4735 15.1338 96.4908 15.0215 96.5259 14.9039C96.5609 14.7864 96.6269 14.6769 96.7235 14.5754Z" fill="#C2BFC4"/>
<path d="M98.715 13.3182C99.0057 13.3132 99.2692 13.2339 99.5059 13.0818C99.7427 12.9294 99.9513 12.7397 100.132 12.5124C100.312 12.2854 100.464 12.0384 100.587 11.7709C100.711 11.5038 100.808 11.2526 100.878 11.0172H101.443C101.443 11.4555 101.442 11.8647 101.439 12.2437C101.436 12.6237 101.435 12.9818 101.435 13.3182H104.219V13.9597L101.435 13.9917C101.429 14.7025 101.427 15.3092 101.427 15.8115C101.427 16.3141 101.425 16.7336 101.423 17.0703C101.42 17.407 101.419 17.6729 101.419 17.8679C101.419 18.063 101.417 18.2116 101.415 18.3128C101.412 18.4144 101.41 18.48 101.41 18.5091V18.5615C101.41 18.9358 101.431 19.2657 101.471 19.5516C101.512 19.8376 101.58 20.0781 101.677 20.2731C101.774 20.4681 101.902 20.6152 102.06 20.7142C102.219 20.813 102.42 20.8625 102.662 20.8625C102.947 20.8625 103.229 20.7769 103.509 20.6057C103.789 20.4349 104.036 20.1919 104.252 19.8761L104.695 20.237C104.453 20.6007 104.212 20.8851 103.973 21.0908C103.734 21.2968 103.506 21.4517 103.291 21.5558C103.076 21.6602 102.875 21.7254 102.69 21.752C102.504 21.779 102.341 21.7925 102.201 21.7925C102.035 21.7925 101.864 21.779 101.689 21.752C101.514 21.7254 101.342 21.6733 101.173 21.5959C101.003 21.5184 100.844 21.4087 100.696 21.2673C100.548 21.1256 100.418 20.9425 100.305 20.7183C100.192 20.4935 100.103 20.221 100.039 19.9003C99.974 19.5795 99.9444 19.2002 99.9497 18.7618L99.9822 14.0158L98.715 14.024V13.3182Z" fill="#C2BFC4"/>
<path d="M33.3986 13.8647C33.0293 13.8647 32.7295 13.5672 32.7295 13.2C32.7295 12.8335 33.0293 12.5357 33.3986 12.5357C33.7683 12.5357 34.0678 12.8335 34.0678 13.2C34.0678 13.5672 33.7683 13.8647 33.3986 13.8647Z" fill="#C2BFC4"/>
<path d="M13.9353 13.8647C13.566 13.8647 13.2661 13.5672 13.2661 13.2C13.2661 12.8335 13.566 12.5357 13.9353 12.5357C14.3046 12.5357 14.6044 12.8335 14.6044 13.2C14.6044 13.5672 14.3046 13.8647 13.9353 13.8647Z" fill="#C2BFC4"/>
<path d="M23.667 12.6516C23.2977 12.6516 22.9978 12.3544 22.9978 11.9869C22.9978 11.6204 23.2977 11.3225 23.667 11.3225C24.0366 11.3225 24.3361 11.6204 24.3361 11.9869C24.3361 12.3544 24.0366 12.6516 23.667 12.6516Z" fill="#C2BFC4"/>
<path d="M38.8427 16.5672C38.8427 16.5672 37.3529 15.9386 34.6933 15.2488C31.7049 14.4734 27.4652 14.1332 23.6669 14.1263C19.8685 14.1332 15.6548 14.5857 12.6404 15.2488C10.1475 15.7969 8.49108 16.5672 8.49108 16.5672L5.49821 13.4228C5.49821 13.4228 8.75747 13.8702 10.3868 13.1998C12.0161 12.5295 12.7935 9.56782 12.7935 9.56782C12.7935 9.56782 16.4154 12.3367 18.546 12.2097C20.6768 12.0818 23.6669 8.04058 23.6669 8.04058C23.6669 8.04058 26.6569 12.0818 28.7878 12.2097C30.9183 12.3367 34.5405 9.56782 34.5405 9.56782C34.5405 9.56782 35.318 12.5295 36.947 13.1998C38.5766 13.8702 41.8355 13.4228 41.8355 13.4228L38.8427 16.5672ZM38.0088 18.2274C37.8247 18.8404 37.5353 22.298 37.1995 23.0878C36.3769 22.4294 30.5203 20.9661 23.6858 20.9661C23.6795 20.9661 23.6735 20.9664 23.6669 20.9664C23.6602 20.9664 23.6542 20.9661 23.6476 20.9661C16.8135 20.9661 10.9568 22.4294 10.1343 23.0878C9.79876 22.298 9.53457 18.8319 9.32499 18.2274C9.22556 17.9405 9.40737 17.6868 9.40737 17.6868C10.3546 16.4079 16.3252 14.8945 23.5684 14.8945H23.7653C31.0089 14.8945 36.9792 16.4079 37.9264 17.6868C37.9264 17.6868 38.0864 17.9687 38.0088 18.2274ZM23.7537 25.3324C23.7243 25.3324 23.6962 25.3321 23.6669 25.3321C23.6375 25.3321 23.6094 25.3324 23.5801 25.3324C16.9157 25.3324 11.9142 24.4828 10.8625 23.9322C11.5177 23.3104 16.7342 21.9995 23.5801 21.9995C23.6094 21.9995 23.6378 22.0002 23.6669 22.0002C23.6959 22.0002 23.7246 21.9995 23.7537 21.9995C30.5995 21.9995 35.816 23.3104 36.4713 23.9322C35.4199 24.4828 30.418 25.3324 23.7537 25.3324ZM47.1793 9.93685C47.0214 9.72584 44.8922 10.2128 44.2599 10.1149C43.7328 9.92556 43.4352 9.33517 42.9649 9.3195C42.3424 9.29849 41.8848 9.7064 41.8848 10.3018C41.8848 10.3739 41.893 10.4438 41.9069 10.5122C41.506 11.603 39.6703 12.5251 38.4993 12.3454C36.7667 12.0796 36.4066 10.7138 36.0872 9.58004C35.9338 9.03418 36.7901 9.18468 36.9204 8.40742C37.0271 7.7678 36.6626 7.24765 35.8211 7.01876C36.2481 6.89241 36.5568 6.55128 36.5568 6.1465C36.5568 5.6345 36.4602 4.95977 35.7254 4.82181C35.0582 4.69734 34.3676 5.6345 34.3676 6.1465C34.3676 6.45847 34.5513 6.73376 34.8303 6.9015C33.5662 6.9269 32.613 7.31286 32.7118 8.12367C32.748 8.41808 32.9579 8.65292 32.8721 8.86769C32.7856 9.08246 30.6961 10.9251 29.3199 10.9251C27.8254 10.9251 25.7154 9.05738 25.5503 8.36258C25.5168 8.36164 26.4808 7.82894 26.5512 7.27022C26.6799 6.24433 25.7621 5.43916 24.6659 5.13347C24.7811 4.95412 24.8489 4.73998 24.8489 4.50859C24.8489 3.88402 24.3278 2.61138 23.7234 2.61138C23.7044 2.61138 23.6858 2.61577 23.6669 2.61828C23.6479 2.61577 23.6293 2.61138 23.6101 2.61138C23.0056 2.61138 22.4848 3.88402 22.4848 4.50859C22.4848 4.73998 22.5527 4.95412 22.6682 5.13347C21.5714 5.43916 20.6535 6.24433 20.7826 7.27022C20.853 7.82894 21.8166 8.36164 21.7835 8.36258C21.6184 9.05738 19.5087 10.9251 18.0138 10.9251C16.6377 10.9251 14.5481 9.08246 14.462 8.86769C14.3755 8.65292 14.5857 8.41808 14.6217 8.12367C14.7205 7.31286 13.7676 6.9269 12.5034 6.9015C12.7828 6.73376 12.9662 6.45847 12.9662 6.1465C12.9662 5.6345 12.2756 4.69734 11.6083 4.82181C10.8735 4.95977 10.7769 5.6345 10.7769 6.1465C10.7769 6.55128 11.0853 6.89241 11.5127 7.01876C10.6712 7.24765 10.3063 7.7678 10.4133 8.40742C10.5433 9.18468 11.4 9.03418 11.2466 9.58004C10.9272 10.7138 10.567 12.0796 8.83449 12.3454C7.66348 12.5251 5.82774 11.603 5.42688 10.5122C5.44077 10.4438 5.44866 10.3739 5.44866 10.3018C5.44866 9.7064 4.9913 9.29849 4.36887 9.3195C3.89857 9.33517 3.60092 9.92556 3.07381 10.1149C2.44159 10.2128 0.312307 9.72584 0.154804 9.93685C0.154804 9.93685 0.0124512 10.0892 0.0124512 10.3084C0.0124512 10.4799 7.7165 16.8111 8.30674 17.5922C8.87899 18.35 9.58949 23.053 9.90765 24.0244C9.92375 24.1379 9.96825 24.2482 10.0468 24.347C10.9227 25.4434 17.7512 26.1799 23.5801 26.1799C23.6091 26.1799 23.6381 26.1796 23.6669 26.1796C23.6959 26.1796 23.7246 26.1799 23.7537 26.1799C29.5825 26.1799 36.4113 25.4434 37.2866 24.347C37.3655 24.2482 37.4103 24.1379 37.4258 24.0244C37.7443 23.053 38.4548 18.35 39.027 17.5922C39.6172 16.8111 47.321 10.4799 47.321 10.3084C47.321 10.0892 47.1793 9.93685 47.1793 9.93685Z" fill="#C2BFC4"/>
<path d="M23.6669 15.8114C22.6631 15.8114 21.8491 16.7448 21.8491 17.8948C21.8491 19.0455 22.6631 19.9783 23.6669 19.9783C24.6709 19.9783 25.4846 19.0455 25.4846 17.8948C25.4846 16.7448 24.6709 15.8114 23.6669 15.8114Z" fill="#C2BFC4"/>
<path d="M31.7634 20.8701C32.5941 21.1024 33.4934 20.496 33.7711 19.5153C34.0489 18.5343 33.6004 17.5497 32.7696 17.3184C31.9379 17.0867 31.039 17.693 30.7609 18.6741C30.4829 19.6548 30.932 20.6381 31.7634 20.8701Z" fill="#C2BFC4"/>
<path d="M15.5709 20.8701C14.7401 21.1024 13.8409 20.496 13.5631 19.5153C13.285 18.5343 13.7338 17.5497 14.5646 17.3184C15.3963 17.0867 16.2949 17.693 16.573 18.6741C16.8514 19.6548 16.4022 20.6381 15.5709 20.8701Z" fill="#C2BFC4"/>
<path d="M120.468 20.9649H120.016C119.833 20.9649 119.591 20.9969 119.29 21.0612C118.988 21.1254 118.636 21.2349 118.232 21.3898C118.06 21.454 117.872 21.5127 117.668 21.566C117.463 21.6196 117.254 21.665 117.042 21.7024C116.829 21.7397 116.618 21.7691 116.408 21.7908C116.199 21.8121 116.002 21.8228 115.819 21.8228C114.99 21.8228 114.232 21.6904 113.543 21.4261C112.854 21.1615 112.263 20.7818 111.768 20.2874C111.272 19.7932 110.888 19.189 110.613 18.4757C110.339 17.7621 110.202 16.9564 110.202 16.0584C110.202 15.5454 110.254 15.0337 110.359 14.5233C110.464 14.0126 110.623 13.5263 110.835 13.0641C111.048 12.602 111.313 12.1715 111.63 11.7733C111.948 11.3751 112.32 11.0293 112.748 10.7352C113.176 10.4411 113.657 10.2112 114.193 10.0457C114.728 9.87983 115.316 9.79705 115.956 9.79705C116.252 9.79705 116.554 9.81837 116.86 9.86133C117.167 9.90428 117.468 9.96417 117.764 10.0416C118.06 10.1191 118.345 10.2137 118.62 10.326C118.894 10.4382 119.147 10.564 119.378 10.7029L119.306 9.91714H120.218V13.6774H119.62C119.583 13.1629 119.467 12.7048 119.273 12.3032C119.08 11.9012 118.826 11.5635 118.511 11.2904C118.196 11.0173 117.83 10.8082 117.413 10.6634C116.996 10.5188 116.548 10.4464 116.069 10.4464C115.483 10.4464 114.931 10.5762 114.415 10.8358C113.898 11.0951 113.449 11.456 113.067 11.9188C112.685 12.3815 112.382 12.9324 112.159 13.5714C111.936 14.2107 111.824 14.9127 111.824 15.6774C111.824 16.4531 111.931 17.1686 112.147 17.8239C112.362 18.4792 112.665 19.0433 113.055 19.5167C113.445 19.9901 113.912 20.3604 114.455 20.6279C114.999 20.8953 115.596 21.0289 116.247 21.0289C116.467 21.0289 116.699 21.0129 116.941 20.9809C117.183 20.9489 117.426 20.9006 117.671 20.8367C117.916 20.7724 118.158 20.6881 118.398 20.584C118.637 20.4799 118.864 20.3557 119.08 20.2112V16.6196L117.918 16.6839V15.9624H121.654V16.4992C121.45 16.4992 121.277 16.5381 121.138 16.6155C120.998 16.693 120.885 16.7921 120.799 16.9125C120.713 17.0325 120.647 17.1661 120.601 17.3132C120.555 17.4602 120.523 17.6057 120.504 17.7499C120.485 17.8941 120.475 18.0293 120.472 18.1547C120.469 18.2804 120.468 18.3807 120.468 18.4557V20.9649Z" fill="#C2BFC4"/>
<path d="M127.173 13.9816C126.963 13.9762 126.75 14.0148 126.536 14.0976C126.32 14.1807 126.109 14.3023 125.902 14.4625C125.695 14.6227 125.5 14.8153 125.317 15.0398C125.134 15.2642 124.97 15.5129 124.824 15.7857L124.841 19.818C124.841 20.0372 124.838 20.2307 124.833 20.3993C124.827 20.5677 124.808 20.7455 124.776 20.9324L125.817 20.8844V21.5579H122.428V21.0687C122.68 21.0687 122.873 21.0192 123.004 20.9204C123.136 20.8217 123.231 20.684 123.291 20.5075C123.35 20.3313 123.384 20.12 123.392 19.8742C123.4 19.6284 123.404 19.3584 123.404 19.0643V15.3122C123.404 15.1413 123.407 14.9692 123.412 14.7952C123.417 14.6215 123.436 14.4412 123.468 14.254L122.298 14.3023V13.6288H122.807C123.043 13.6288 123.24 13.6169 123.396 13.5928C123.552 13.5686 123.682 13.5354 123.787 13.4928C123.892 13.4498 123.979 13.4031 124.05 13.352C124.119 13.3015 124.187 13.2466 124.251 13.188H124.728C124.744 13.3589 124.758 13.5715 124.772 13.8251C124.785 14.0791 124.797 14.4064 124.808 14.8071C124.932 14.6042 125.091 14.3998 125.284 14.1938C125.478 13.9881 125.696 13.8038 125.938 13.6408C126.18 13.478 126.441 13.3441 126.721 13.2401C127.001 13.1356 127.289 13.0836 127.584 13.0836C127.735 13.0836 127.882 13.1037 128.025 13.1438C128.167 13.1839 128.291 13.2466 128.396 13.3322C128.501 13.4178 128.585 13.5244 128.65 13.6527C128.714 13.7812 128.747 13.9361 128.747 14.118C128.747 14.1929 128.732 14.2753 128.702 14.3666C128.673 14.4575 128.624 14.5428 128.557 14.6227C128.49 14.703 128.405 14.7701 128.303 14.8234C128.201 14.8767 128.074 14.9034 127.924 14.9034C127.8 14.9034 127.688 14.8767 127.588 14.8234C127.489 14.7701 127.406 14.7018 127.338 14.6187C127.271 14.5359 127.223 14.44 127.193 14.3302C127.164 14.2208 127.157 14.1045 127.173 13.9816Z" fill="#C2BFC4"/>
<path d="M132.64 13.7094C132.204 13.7094 131.831 13.8056 131.522 13.9981C131.212 14.191 130.958 14.4477 130.759 14.7688C130.56 15.0899 130.413 15.4589 130.319 15.8765C130.225 16.2935 130.178 16.7268 130.178 17.1765C130.178 17.685 130.231 18.1798 130.336 18.6614C130.44 19.1426 130.6 19.5694 130.816 19.9415C131.031 20.3131 131.301 20.6112 131.627 20.8361C131.952 21.0609 132.333 21.1731 132.769 21.1731C133.205 21.1731 133.572 21.0756 133.87 20.8806C134.169 20.6849 134.411 20.4269 134.597 20.1058C134.783 19.7848 134.916 19.4182 134.997 19.0063C135.077 18.5943 135.118 18.1716 135.118 17.738C135.118 17.2461 135.072 16.7591 134.98 16.2775C134.889 15.7959 134.743 15.3651 134.545 14.9855C134.345 14.6054 134.089 14.2979 133.774 14.0624C133.459 13.8269 133.081 13.7094 132.64 13.7094ZM132.64 13.0842C133.221 13.0842 133.764 13.1895 134.27 13.4005C134.776 13.6119 135.216 13.9031 135.59 14.2747C135.964 14.6459 136.259 15.087 136.478 15.5975C136.695 16.1079 136.804 16.6594 136.804 17.253C136.804 17.8891 136.698 18.4848 136.485 19.0407C136.273 19.5966 135.98 20.0804 135.606 20.4918C135.232 20.9035 134.791 21.228 134.282 21.4659C133.774 21.7036 133.226 21.8228 132.64 21.8228C132.059 21.8228 131.516 21.7196 131.014 21.5139C130.51 21.3082 130.072 21.021 129.698 20.652C129.324 20.2833 129.029 19.8437 128.814 19.3333C128.599 18.8228 128.491 18.2629 128.491 17.6537C128.491 17.0071 128.597 16.4045 128.81 15.8458C129.023 15.2874 129.315 14.8036 129.686 14.3948C130.057 13.9859 130.496 13.6652 131.001 13.4325C131.507 13.2002 132.053 13.0842 132.64 13.0842Z" fill="#C2BFC4"/>
<path d="M143.725 15.5066C143.725 15.2388 143.731 15.0102 143.742 14.8202C143.752 14.6302 143.774 14.4418 143.806 14.2543L142.62 14.3026V13.6291H143.128C143.365 13.6291 143.566 13.6172 143.733 13.593C143.9 13.5689 144.042 13.5357 144.161 13.493C144.279 13.4501 144.378 13.4034 144.456 13.3526C144.534 13.3018 144.605 13.2469 144.67 13.1883H145.146L145.13 19.3935C145.13 19.4788 145.128 19.5872 145.126 19.718C145.123 19.849 145.119 19.9854 145.113 20.1268C145.108 20.2686 145.101 20.4103 145.093 20.5517C145.085 20.6934 145.076 20.8204 145.065 20.9326L146.252 20.8687V21.5581H143.887C143.86 21.3709 143.837 21.1985 143.818 21.0408C143.799 20.8834 143.785 20.7269 143.774 20.5721C143.601 20.7429 143.411 20.9047 143.201 21.0571C142.991 21.2092 142.769 21.3415 142.535 21.4537C142.301 21.566 142.06 21.6556 141.812 21.7224C141.565 21.7892 141.32 21.8228 141.078 21.8228C140.626 21.8228 140.23 21.7622 139.892 21.6422C139.552 21.5218 139.27 21.323 139.044 21.0449C138.818 20.7671 138.649 20.3996 138.536 19.9425C138.423 19.4857 138.366 18.9178 138.366 18.239V15.3206C138.366 15.1498 138.369 14.9761 138.374 14.7995C138.38 14.623 138.399 14.4415 138.431 14.2543L137.293 14.3026V13.6291H137.809C138.041 13.6291 138.24 13.6172 138.406 13.593C138.573 13.5689 138.716 13.5357 138.834 13.493C138.952 13.4501 139.051 13.4034 139.129 13.3526C139.207 13.3018 139.278 13.2469 139.343 13.1883H139.819V18.1961C139.819 18.6723 139.851 19.0856 139.916 19.4361C139.98 19.7863 140.084 20.0779 140.227 20.3106C140.369 20.5435 140.554 20.7147 140.779 20.8245C141.005 20.9342 141.282 20.9891 141.611 20.9891C141.821 20.9891 142.026 20.9539 142.228 20.8843C142.43 20.815 142.622 20.7213 142.805 20.6034C142.988 20.4858 143.159 20.352 143.318 20.2024C143.476 20.0525 143.612 19.8917 143.725 19.7205V19.0382V15.5066Z" fill="#C2BFC4"/>
<path d="M150.758 13.8858C150.564 13.8858 150.376 13.9112 150.193 13.962C150.01 14.0128 149.835 14.0799 149.668 14.1627C149.501 14.2455 149.344 14.3436 149.196 14.4555C149.048 14.5681 148.918 14.6857 148.805 14.8086C148.805 14.8515 148.806 14.9011 148.809 14.9572C148.812 15.0133 148.813 15.1083 148.813 15.2422V15.8081C148.813 16.0514 148.812 16.3778 148.809 16.7873C148.806 17.1965 148.803 17.7063 148.801 18.3161C148.798 18.9262 148.797 19.6643 148.797 20.5312C149.071 20.7347 149.372 20.8924 149.701 21.0047C150.029 21.1172 150.373 21.1734 150.734 21.1734C151.126 21.1734 151.479 21.0796 151.791 20.8924C152.103 20.7053 152.369 20.4444 152.59 20.1098C152.811 19.7753 152.98 19.3793 153.098 18.9219C153.217 18.4644 153.276 17.9631 153.276 17.4172C153.276 16.9732 153.229 16.5396 153.135 16.117C153.04 15.6943 152.893 15.3171 152.691 14.9854C152.489 14.6537 152.23 14.3875 151.912 14.1868C151.594 13.9862 151.21 13.8858 150.758 13.8858ZM147.392 15.3209C147.392 15.15 147.395 14.976 147.401 14.7998C147.406 14.6233 147.425 14.4417 147.457 14.2545L146.287 14.3188V13.6294C146.647 13.6294 146.94 13.6171 147.166 13.5933C147.392 13.5692 147.574 13.5359 147.711 13.493C147.849 13.4503 147.955 13.4033 148.03 13.3525C148.105 13.302 148.173 13.2472 148.232 13.1882H148.716C148.727 13.2951 148.737 13.4205 148.748 13.5651C148.759 13.7096 148.77 13.8777 148.781 14.0702C148.947 13.9256 149.132 13.7924 149.333 13.6695C149.535 13.5463 149.748 13.4422 149.971 13.3566C150.194 13.2713 150.422 13.2042 150.653 13.1562C150.884 13.1079 151.116 13.0841 151.347 13.0841C151.826 13.0841 152.284 13.1775 152.723 13.3647C153.162 13.5519 153.548 13.8203 153.881 14.1705C154.215 14.5204 154.481 14.9481 154.68 15.4532C154.879 15.9583 154.979 16.5286 154.979 17.1648C154.979 17.6298 154.927 18.0681 154.822 18.4795C154.717 18.8914 154.57 19.2693 154.382 19.6138C154.193 19.9587 153.969 20.2672 153.708 20.54C153.447 20.8125 153.16 21.0439 152.849 21.2336C152.536 21.4233 152.204 21.5687 151.851 21.6703C151.499 21.7719 151.137 21.8227 150.766 21.8227C150.002 21.8227 149.343 21.6437 148.788 21.2856L148.781 24.0033C148.781 24.2225 148.778 24.4163 148.773 24.5846C148.767 24.753 148.748 24.9308 148.716 25.118L149.757 25.0697V25.7432H146.384V25.254C146.636 25.254 146.829 25.2045 146.961 25.1057C147.093 25.0067 147.187 24.8693 147.243 24.6928C147.3 24.5163 147.332 24.3053 147.34 24.0595C147.348 23.8137 147.355 23.5437 147.36 23.2499L147.392 15.3209Z" fill="#C2BFC4"/>
</g>
<defs>
<clipPath id="clip0">
<rect width="155" height="26.303" fill="white"/>
</clipPath>
</defs>
</svg>
