<svg width="230" height="224" viewBox="0 0 230 224"  xmlns="http://www.w3.org/2000/svg">

<path d="M21.08 146.7L20.76 145.71L18.89 139.93L18.62 139.09L16 139.88C14.87 140.22 13.91 140.49 13.11 140.68C12.31 140.87 11.63 141.01 11.08 141.09C10.53 141.17 10.06 141.2 9.67997 141.19C9.29997 141.18 8.96997 141.12 8.66997 141.03C8.47997 140.97 8.28997 140.9 8.09997 140.82L7.83997 140L7.78997 139.84L3.90997 141.1L4.38997 142.59L6.96997 141.75L9.69997 150.18L7.11997 151.02L7.59997 152.51L11.48 151.25L11.06 149.96L21.08 146.7ZM8.63997 142.45C8.77997 142.49 8.91997 142.54 9.06997 142.57C9.48997 142.67 9.95997 142.71 10.47 142.7C10.79 142.69 11.14 142.66 11.51 142.61C11.89 142.56 12.32 142.48 12.8 142.37C13.28 142.26 13.83 142.13 14.44 141.96C15.05 141.8 15.74 141.6 16.52 141.36L17.79 140.98L19.28 145.58L10.57 148.4L8.63997 142.45Z" />
<path d="M24.35 163.03C24.83 162.6 25.23 162.14 25.54 161.63C25.85 161.12 26.06 160.58 26.17 160.01C26.29 159.44 26.29 158.85 26.2 158.23C26.11 157.61 25.9 156.98 25.57 156.33C25.25 155.69 24.87 155.15 24.43 154.7C23.99 154.25 23.51 153.91 22.99 153.66C22.47 153.41 21.91 153.26 21.32 153.2C20.73 153.14 20.11 153.18 19.48 153.32C18.85 153.45 18.2 153.68 17.56 154.01C16.91 154.33 16.35 154.71 15.86 155.14C15.38 155.56 14.98 156.03 14.67 156.54C14.36 157.05 14.15 157.59 14.04 158.15C13.93 158.72 13.92 159.31 14.02 159.93C14.11 160.55 14.32 161.17 14.64 161.81C14.96 162.46 15.35 163 15.78 163.45C16.22 163.9 16.7 164.24 17.22 164.49C17.74 164.74 18.3 164.89 18.9 164.95C19.49 165.01 20.1 164.97 20.73 164.84C21.36 164.71 22 164.48 22.65 164.16C23.3 163.83 23.86 163.46 24.35 163.03ZM20.39 163.21C19.91 163.33 19.44 163.38 19 163.36C18.56 163.34 18.15 163.25 17.76 163.09C17.38 162.93 17.02 162.69 16.7 162.38C16.38 162.07 16.1 161.67 15.86 161.2C15.63 160.73 15.48 160.28 15.42 159.84C15.36 159.4 15.37 158.97 15.47 158.57C15.57 158.17 15.75 157.78 16 157.41C16.25 157.04 16.57 156.7 16.95 156.39C17.33 156.08 17.78 155.79 18.3 155.53C18.82 155.27 19.32 155.08 19.8 154.96C20.28 154.84 20.75 154.79 21.19 154.8C21.64 154.82 22.05 154.91 22.44 155.07C22.82 155.23 23.18 155.47 23.5 155.78C23.82 156.09 24.1 156.48 24.33 156.95C24.57 157.43 24.72 157.89 24.78 158.33C24.84 158.78 24.82 159.2 24.72 159.61C24.62 160.01 24.44 160.4 24.19 160.77C23.94 161.14 23.62 161.48 23.23 161.79C22.84 162.1 22.4 162.39 21.89 162.64C21.37 162.89 20.87 163.09 20.39 163.21Z" />
<path d="M31.42 175.44C31.76 175.47 32.09 175.45 32.43 175.35C32.77 175.26 33.09 175.11 33.39 174.89C33.78 174.62 34.08 174.31 34.28 173.96C34.49 173.61 34.61 173.24 34.64 172.83C34.67 172.43 34.62 172 34.47 171.57C34.33 171.13 34.09 170.68 33.78 170.23L31.4 166.86L30.69 165.85L20.98 172.7L21.92 174.03L24.19 177.25C24.66 177.92 25.16 178.4 25.7 178.72C26.24 179.03 26.79 179.17 27.35 179.15C27.91 179.12 28.46 178.92 28.98 178.55C29.47 178.2 29.82 177.79 30.02 177.32C30.23 176.84 30.29 176.33 30.23 175.77C30.2 175.49 30.13 175.2 30.03 174.91C30.16 175 30.29 175.09 30.43 175.16C30.76 175.31 31.09 175.41 31.42 175.44ZM28.84 176.18C28.71 176.53 28.46 176.83 28.09 177.09C27.76 177.33 27.42 177.45 27.08 177.48C26.74 177.5 26.41 177.42 26.09 177.23C25.77 177.04 25.45 176.74 25.15 176.31L23 173.26L26.29 170.94L28.37 173.9C28.64 174.28 28.81 174.67 28.9 175.06C28.99 175.47 28.97 175.84 28.84 176.18ZM30.02 173.65C29.79 173.48 29.57 173.25 29.38 172.99L27.39 170.17L30.54 167.95L32.54 170.78C32.81 171.16 32.98 171.53 33.05 171.89C33.12 172.25 33.09 172.58 32.96 172.89C32.83 173.2 32.6 173.47 32.26 173.7C32.02 173.87 31.77 173.98 31.51 174.03C31.25 174.08 31 174.07 30.74 174.01C30.5 173.94 30.25 173.82 30.02 173.65Z" />
<path d="M35.85 183.12L39.67 187.22L40.68 186.28L36.86 182.18L39.59 179.64L43.91 184.27L44.92 183.33L40.23 178.3L39.46 177.48L30.77 185.59L31.53 186.41L36.28 191.5L37.29 190.56L32.91 185.87L35.85 183.12Z" />
<path d="M48.81 200.51L55.45 192.34L54.2 191.32L49.99 187.9L49.24 187.29L47.48 189.38C46.72 190.28 46.06 191.03 45.49 191.62C44.92 192.22 44.43 192.7 44.01 193.06C43.59 193.43 43.22 193.71 42.89 193.9C42.56 194.09 42.25 194.23 41.96 194.32C41.77 194.37 41.57 194.42 41.37 194.45L40.69 193.9L40.56 193.79L37.99 196.95L39.2 197.94L40.91 195.83L47.79 201.42L46.08 203.53L47.29 204.52L49.86 201.36L49.73 201.25L48.81 200.51ZM47.56 199.49L42.7 195.54C42.84 195.5 42.99 195.46 43.13 195.41C43.54 195.26 43.95 195.04 44.37 194.76C44.63 194.58 44.91 194.37 45.2 194.12C45.49 193.87 45.81 193.57 46.15 193.22C46.5 192.87 46.88 192.46 47.3 191.99C47.72 191.52 48.2 190.98 48.72 190.35L49.58 189.34L53.33 192.39L47.56 199.49Z" />
<path d="M66.55 201.08L67.26 199.9L61.84 196.62L60.42 195.76L54.26 205.93L55.68 206.79L61.17 210.11L61.89 208.94L56.4 205.61L58.48 202.17L63.28 205.07L63.99 203.9L59.19 200.99L61.13 197.8L66.55 201.08Z" />
<path d="M77.5 210.14L71.24 207.5L73.2 202.85L71.67 202.2L67.05 213.15L68.58 213.8L70.71 208.76L76.96 211.41L74.84 216.44L76.37 217.09L81 206.14L79.46 205.49L77.5 210.14Z" />
<path d="M94.57 210.92C94.21 210.46 93.76 210.07 93.23 209.74C92.7 209.41 92.08 209.16 91.38 208.99C90.69 208.82 90.03 208.76 89.41 208.8C88.79 208.84 88.21 208.99 87.68 209.22C87.15 209.46 86.67 209.78 86.24 210.2C85.81 210.61 85.44 211.1 85.13 211.68C84.82 212.25 84.58 212.89 84.41 213.59C84.24 214.29 84.16 214.97 84.17 215.61C84.18 216.26 84.28 216.86 84.47 217.42C84.66 217.98 84.93 218.49 85.29 218.94C85.65 219.39 86.1 219.78 86.63 220.11C87.16 220.44 87.77 220.69 88.47 220.86C89.17 221.03 89.84 221.1 90.46 221.05C91.08 221 91.66 220.86 92.19 220.63C92.72 220.39 93.2 220.07 93.63 219.66C94.06 219.25 94.43 218.76 94.73 218.19C95.04 217.62 95.28 216.99 95.45 216.29C95.62 215.59 95.7 214.91 95.69 214.27C95.68 213.63 95.58 213.02 95.39 212.46C95.21 211.89 94.93 211.37 94.57 210.92ZM93.8 215.88C93.66 216.44 93.48 216.95 93.26 217.39C93.04 217.83 92.78 218.22 92.48 218.54C92.18 218.86 91.84 219.12 91.47 219.31C91.1 219.5 90.69 219.61 90.24 219.66C89.79 219.7 89.31 219.66 88.79 219.53C88.28 219.4 87.84 219.22 87.46 218.99C87.08 218.75 86.77 218.46 86.53 218.12C86.29 217.78 86.11 217.39 85.99 216.96C85.87 216.53 85.82 216.07 85.83 215.57C85.84 215.08 85.92 214.55 86.05 213.99C86.19 213.43 86.37 212.92 86.59 212.48C86.81 212.03 87.07 211.65 87.37 211.32C87.67 210.99 88.01 210.73 88.38 210.55C88.75 210.36 89.16 210.25 89.61 210.2C90.06 210.16 90.54 210.2 91.04 210.32C91.56 210.45 92 210.63 92.38 210.88C92.76 211.12 93.07 211.42 93.31 211.76C93.55 212.1 93.73 212.48 93.85 212.92C93.97 213.35 94.02 213.82 94.01 214.31C94.01 214.81 93.93 215.33 93.8 215.88Z" />
<path d="M106.99 213.21L111.15 213.35L110.8 223.86L112.47 223.91L112.82 213.41L117.01 213.54L117.05 212.17L107.04 211.84L106.99 213.21Z" />
<path d="M130.45 213.43C130.2 212.96 129.88 212.57 129.49 212.26C129.09 211.95 128.64 211.72 128.11 211.59C127.58 211.45 127.01 211.42 126.38 211.48L123.17 211.8L121.67 211.95L122.84 223.78L124.5 223.62L124.11 219.67L127.08 219.38C127.94 219.29 128.66 219.06 129.26 218.68C129.86 218.3 130.3 217.8 130.6 217.17C130.89 216.55 131 215.85 130.92 215.06C130.85 214.43 130.69 213.9 130.45 213.43ZM129.03 216.61C128.84 217.02 128.55 217.34 128.15 217.58C127.75 217.82 127.27 217.97 126.69 218.02L123.95 218.29L123.44 213.15L126.18 212.88C126.75 212.82 127.26 212.88 127.7 213.04C128.14 213.2 128.49 213.47 128.75 213.83C129.01 214.2 129.17 214.66 129.23 215.21C129.29 215.74 129.22 216.2 129.03 216.61Z" />
<path d="M137.56 209.63L135.56 222.3L137.15 221.93L137.66 218.53L142.99 217.29L144.94 220.11L146.59 219.73L139.2 209.25L137.56 209.63ZM137.87 217.08L138.75 211.18L142.15 216.09L137.87 217.08Z" />
<path d="M160.2 213.31L156.35 203.51L154.85 204.1L150.38 205.86L150.17 205.94L149.74 206.11L148.92 206.43L149.87 208.99C150.28 210.09 150.6 211.04 150.85 211.83C151.1 212.62 151.27 213.28 151.38 213.83C151.49 214.38 151.55 214.84 151.56 215.22C151.57 215.6 151.54 215.94 151.46 216.23C151.41 216.43 151.35 216.62 151.28 216.81L150.47 217.13L150.31 217.19L151.8 220.98L153.25 220.41L152.26 217.88L160.51 214.64L161.5 217.17L162.95 216.6L161.46 212.81L160.2 213.31ZM152.87 216.19C152.9 216.05 152.94 215.9 152.96 215.75C153.03 215.32 153.04 214.85 153 214.35C152.97 214.03 152.92 213.69 152.85 213.32C152.78 212.95 152.67 212.52 152.53 212.05C152.39 211.58 152.22 211.04 152.03 210.44C151.83 209.84 151.59 209.16 151.3 208.4L150.85 207.15L155.36 205.38L158.71 213.9L152.87 216.19Z" />
<path d="M169.05 196.69L167.89 208.35L163.11 200.15L161.75 200.95L167.74 211.22L169.1 210.42L170.27 198.77L175.04 206.96L176.41 206.16L170.41 195.89L169.05 196.69Z" />
<path d="M190.45 193.7L189.65 194.35L182.98 186.2L181.7 187.26L188.37 195.41L183.27 199.58L176.6 191.43L175.31 192.49L182.84 201.68L184.13 200.63L190.36 195.53L192.08 197.63L193.3 196.63L190.72 193.48L190.45 193.7Z" />
<path d="M188.466 180.682L187.314 181.877L195.874 190.129L197.026 188.934L188.466 180.682Z" />
<path d="M196.66 170.93L194.59 173.62C194.23 174.09 193.97 174.56 193.81 175.05C193.65 175.54 193.59 176.01 193.64 176.48C193.68 176.95 193.83 177.4 194.07 177.82C194.31 178.24 194.65 178.62 195.09 178.96C195.52 179.29 195.97 179.51 196.43 179.63C196.89 179.74 197.36 179.76 197.83 179.67C198.3 179.58 198.75 179.39 199.18 179.1C199.49 178.89 199.79 178.63 200.07 178.32L201.43 184.23L202.59 182.72L201.23 176.95L202.44 175.38L206.08 178.19L207.1 176.87L197.69 169.61L196.66 170.93ZM201.37 174.57L199.45 177.06C199.14 177.46 198.8 177.75 198.42 177.93C198.05 178.11 197.67 178.17 197.28 178.12C196.89 178.07 196.5 177.89 196.12 177.6C195.74 177.31 195.48 176.98 195.33 176.61C195.18 176.24 195.14 175.86 195.22 175.45C195.3 175.04 195.49 174.64 195.8 174.24L197.72 171.75L201.37 174.57Z" />
<path d="M206.79 154.13L206.67 154.36L206.23 155.18L206.07 155.48L211.11 163.1L201.95 163.08L201.59 163.75L201.06 164.72L211.51 170.38L212.23 169.07L203.78 164.49H212.12L212.8 163.22L208.24 156.27L216.68 160.84L217.39 159.52L206.94 153.86L206.79 154.13Z" />
<path d="M209.716 146.894L209.211 148.391L220.477 152.193L220.982 150.696L209.716 146.894Z" />
<path d="M211.92 140.39L218.71 149.94L220.98 150.71L214.21 141.16L223.18 144.19L223.69 142.69L212.43 138.89L211.92 140.39Z" />
<path d="M20.17 81.69L16.41 80.41L17.37 77.58C17.65 76.77 17.73 76.01 17.63 75.3C17.53 74.6 17.25 73.98 16.81 73.46C16.36 72.94 15.77 72.55 15.02 72.3C14.44 72.1 13.89 72.02 13.37 72.05C12.84 72.08 12.36 72.21 11.91 72.44C11.46 72.67 11.07 73 10.73 73.42C10.39 73.84 10.12 74.35 9.91001 74.95L8.87001 78L8.38 79.44L19.64 83.26L20.17 81.69ZM15.99 77.37L15.1 79.98L10.21 78.32L11.1 75.72C11.28 75.17 11.54 74.73 11.87 74.4C12.2 74.07 12.58 73.86 13.02 73.77C13.46 73.68 13.95 73.73 14.47 73.9C14.97 74.07 15.37 74.33 15.66 74.67C15.95 75.01 16.12 75.41 16.18 75.87C16.24 76.32 16.18 76.82 15.99 77.37Z" />
<path d="M25.28 68.71L21.09 66.57L22.03 64.72L27.92 63.53L28.83 61.75L22.8 62.94C23.01 62.41 23.12 61.9 23.14 61.43C23.16 60.78 23.01 60.2 22.69 59.68C22.37 59.16 21.89 58.74 21.24 58.41C20.74 58.15 20.24 58 19.76 57.96C19.28 57.91 18.83 57.97 18.4 58.12C17.97 58.28 17.57 58.54 17.21 58.9C16.85 59.26 16.52 59.73 16.23 60.29L14.56 63.57L13.94 64.79L24.53 70.19L25.28 68.71ZM15.92 63.94L17.34 61.16C17.53 60.78 17.75 60.47 17.98 60.23C18.21 59.99 18.46 59.82 18.72 59.71C18.98 59.6 19.26 59.57 19.56 59.6C19.86 59.63 20.17 59.73 20.49 59.89C20.8 60.05 21.06 60.24 21.25 60.47C21.44 60.7 21.58 60.95 21.64 61.23C21.71 61.51 21.71 61.82 21.65 62.14C21.59 62.47 21.47 62.81 21.29 63.17L19.87 65.95L15.92 63.94Z" />
<path d="M24.49 53.61C24.91 54.11 25.41 54.57 26 54.99C26.59 55.41 27.19 55.74 27.79 55.96C28.39 56.19 28.99 56.32 29.58 56.35C30.17 56.39 30.75 56.32 31.3 56.15C31.85 55.98 32.38 55.71 32.88 55.34C33.38 54.97 33.84 54.49 34.26 53.91C34.68 53.32 34.99 52.73 35.18 52.13C35.37 51.53 35.45 50.95 35.43 50.37C35.41 49.79 35.28 49.22 35.06 48.67C34.84 48.12 34.52 47.6 34.11 47.1C33.7 46.61 33.2 46.15 32.61 45.72C32.02 45.3 31.42 44.98 30.82 44.75C30.22 44.52 29.62 44.39 29.03 44.36C28.43 44.32 27.86 44.39 27.3 44.56C26.74 44.73 26.21 44.99 25.71 45.37C25.21 45.74 24.75 46.22 24.33 46.81C23.92 47.39 23.61 47.98 23.43 48.57C23.24 49.17 23.16 49.75 23.18 50.33C23.2 50.91 23.33 51.47 23.55 52.03C23.75 52.59 24.07 53.11 24.49 53.61ZM24.78 48.89C24.91 48.46 25.12 48.03 25.42 47.61C25.73 47.18 26.07 46.83 26.43 46.57C26.8 46.31 27.18 46.13 27.59 46.03C28 45.93 28.42 45.91 28.86 45.96C29.3 46.01 29.75 46.14 30.21 46.33C30.67 46.53 31.13 46.79 31.59 47.12C32.06 47.46 32.46 47.81 32.8 48.18C33.13 48.55 33.39 48.93 33.58 49.33C33.77 49.73 33.88 50.14 33.92 50.55C33.96 50.97 33.91 51.39 33.78 51.82C33.65 52.25 33.44 52.68 33.13 53.12C32.83 53.54 32.5 53.89 32.13 54.15C31.77 54.41 31.39 54.6 30.98 54.7C30.57 54.8 30.15 54.83 29.71 54.77C29.27 54.72 28.82 54.6 28.36 54.4C27.91 54.21 27.44 53.94 26.97 53.61C26.5 53.27 26.1 52.92 25.77 52.55C25.44 52.18 25.17 51.79 24.98 51.39C24.79 50.99 24.67 50.58 24.64 50.16C24.6 49.75 24.65 49.32 24.78 48.89Z" />
<path d="M44.02 41.99L38.68 30.39L37.51 31.6L42.03 41.2L32.28 37.04L31.05 38.32L42.84 43.21L44.02 41.99Z" />
<path d="M52.15 34.52L57.18 30.55L56.33 29.47L51.29 33.44L48.8 30.29L53.2 26.81L52.35 25.73L47.95 29.21L45.63 26.27L50.6 22.35L49.75 21.27L44.78 25.19L43.47 26.23L50.84 35.56L52.15 34.52Z" />
<path d="M62.71 26.91L57.87 18.47L68.66 23.49L68.82 23.4L70.12 22.66L64.21 12.34L62.91 13.09L67.75 21.53L56.97 16.49L56.49 16.77L55.5 17.34L61.41 27.65L62.71 26.91Z" />
<path d="M83.53 17.13L87.3 15.98C88.08 15.74 88.7 15.41 89.17 15C89.64 14.58 89.94 14.11 90.09 13.56C90.24 13.02 90.22 12.44 90.03 11.82C89.85 11.25 89.57 10.79 89.18 10.44C88.79 10.1 88.32 9.86998 87.77 9.75998C87.48 9.70998 87.19 9.67998 86.89 9.68998C87.02 9.58998 87.14 9.48998 87.25 9.37998C87.5 9.11998 87.7 8.83998 87.83 8.52998C87.97 8.21998 88.04 7.88998 88.06 7.54998C88.08 7.19998 88.03 6.84998 87.92 6.48998C87.78 6.02998 87.58 5.65998 87.31 5.34998C87.04 5.04998 86.73 4.81998 86.35 4.65998C85.98 4.49998 85.56 4.41998 85.1 4.41998C84.64 4.41998 84.14 4.49998 83.61 4.65998L79.66 5.86998L78.48 6.22998L81.96 17.6L83.53 17.13ZM80.44 7.02998L83.75 6.01998C84.19 5.87998 84.6 5.83998 84.96 5.87998C85.32 5.91998 85.63 6.04998 85.88 6.26998C86.13 6.48998 86.32 6.78998 86.43 7.17998C86.52 7.45998 86.54 7.72998 86.51 7.98998C86.48 8.24998 86.39 8.48998 86.25 8.71998C86.11 8.94998 85.92 9.13998 85.68 9.30998C85.44 9.47998 85.16 9.60998 84.85 9.70998L81.56 10.72L80.44 7.02998ZM85.42 10.95C85.86 10.81 86.29 10.77 86.69 10.81C87.09 10.85 87.44 10.99 87.73 11.22C88.02 11.45 88.23 11.78 88.36 12.22C88.48 12.61 88.5 12.97 88.42 13.3C88.34 13.63 88.16 13.92 87.88 14.17C87.6 14.42 87.21 14.62 86.72 14.78L83.15 15.88L81.97 12.03L85.42 10.95Z" />
<path d="M98.54 13.4L100.18 13.13L99.42 8.37001L102.64 0.700012L100.85 0.990012L98.4 6.99001L94.24 2.05001L92.4 2.34001L97.76 8.56001L98.54 13.4Z" />
<path d="M118.48 12.04L120.15 12.11L120.57 1.61L124.76 1.77L124.81 0.4L114.8 0L114.74 1.37L118.9 1.54L118.48 12.04Z" />
<path d="M131.57 8.52999L133.61 8.89999L136.45 14.19L138.42 14.55L135.54 9.11999C136.11 9.16999 136.62 9.12999 137.09 9.00999C137.71 8.83999 138.23 8.52999 138.63 8.06999C139.03 7.60999 139.3 7.02999 139.43 6.31999C139.53 5.75999 139.53 5.24999 139.44 4.77999C139.35 4.30999 139.16 3.88999 138.89 3.51999C138.62 3.14999 138.25 2.84999 137.8 2.60999C137.35 2.36999 136.81 2.18999 136.19 2.07999L132.56 1.41999L131.21 1.17999L129.09 12.88L130.73 13.18L131.57 8.52999ZM132.61 2.80999L135.68 3.36999C136.1 3.44999 136.46 3.55999 136.76 3.70999C137.05 3.85999 137.29 4.04999 137.47 4.26999C137.65 4.48999 137.77 4.74999 137.82 5.03999C137.88 5.32999 137.87 5.65999 137.81 6.00999C137.75 6.35999 137.64 6.64999 137.47 6.90999C137.31 7.15999 137.1 7.35999 136.85 7.50999C136.6 7.65999 136.31 7.74999 135.98 7.77999C135.65 7.81999 135.29 7.79999 134.89 7.72999L131.81 7.16999L132.61 2.80999Z" />
<path d="M145.57 13.29L150.76 15.04L150.94 18.47L152.55 19.01L151.78 6.19997L150.19 5.65997L141.82 15.38L143.37 15.9L145.57 13.29ZM150.38 7.59997L150.68 13.56L146.52 12.16L150.38 7.59997Z" />
<path d="M157.69 21.35L158.29 21.66L160.6 22.85C161.29 23.21 161.97 23.45 162.62 23.59C163.27 23.72 163.89 23.75 164.48 23.67C165.07 23.59 165.62 23.41 166.13 23.14C166.64 22.86 167.11 22.49 167.55 22.03C167.98 21.57 168.36 21.01 168.69 20.38C169.02 19.74 169.26 19.1 169.39 18.48C169.52 17.85 169.56 17.25 169.49 16.67C169.42 16.09 169.25 15.53 168.98 15C168.7 14.47 168.33 13.98 167.84 13.52C167.36 13.07 166.77 12.66 166.07 12.3L163.76 11.11L162.28 10.35L156.82 20.91L157.6 21.31L157.69 21.35ZM163.12 12.33L165.43 13.52C165.94 13.79 166.37 14.09 166.71 14.42C167.05 14.76 167.32 15.12 167.5 15.52C167.68 15.91 167.79 16.33 167.83 16.77C167.87 17.21 167.83 17.67 167.71 18.14C167.6 18.62 167.41 19.1 167.16 19.6C166.91 20.08 166.62 20.5 166.3 20.87C165.98 21.23 165.63 21.52 165.26 21.74C164.88 21.96 164.48 22.11 164.05 22.19C163.62 22.27 163.17 22.26 162.7 22.17C162.23 22.08 161.74 21.9 161.23 21.64L158.92 20.45L163.12 12.33Z" />
<path d="M177.19 18.8387L170.511 28.6753L171.885 29.6077L178.563 19.7711L177.19 18.8387Z" />
<path d="M180.38 36.17L187.18 28.15L190.38 30.86L191.27 29.81L183.63 23.33L182.74 24.38L185.91 27.07L179.11 35.09L180.38 36.17Z" />
<path d="M195.598 34.218L186.981 42.4102L188.125 43.6132L196.741 35.421L195.598 34.218Z" />
<path d="M195.16 45.47C194.76 45.97 194.45 46.5 194.24 47.06C194.03 47.61 193.91 48.18 193.91 48.76C193.9 49.34 194 49.92 194.2 50.51C194.4 51.1 194.72 51.68 195.14 52.26C195.57 52.84 196.04 53.31 196.55 53.67C197.06 54.03 197.59 54.29 198.15 54.44C198.71 54.59 199.29 54.65 199.88 54.6C200.47 54.55 201.07 54.41 201.67 54.17C202.27 53.93 202.86 53.59 203.44 53.16C204.02 52.73 204.51 52.26 204.91 51.75C205.31 51.25 205.62 50.72 205.83 50.16C206.04 49.6 206.16 49.04 206.17 48.46C206.18 47.88 206.09 47.29 205.89 46.7C205.69 46.11 205.37 45.52 204.94 44.94C204.51 44.37 204.05 43.9 203.54 43.54C203.03 43.18 202.49 42.92 201.93 42.77C201.37 42.62 200.79 42.56 200.2 42.61C199.61 42.66 199.01 42.8 198.41 43.05C197.81 43.29 197.22 43.63 196.64 44.07C196.05 44.5 195.56 44.97 195.16 45.47ZM197.65 45.43C198.11 45.09 198.57 44.81 199.03 44.61C199.48 44.4 199.93 44.27 200.37 44.21C200.81 44.15 201.24 44.16 201.64 44.26C202.05 44.35 202.44 44.52 202.81 44.78C203.18 45.03 203.52 45.37 203.83 45.79C204.15 46.22 204.37 46.64 204.51 47.07C204.65 47.5 204.7 47.92 204.67 48.34C204.64 48.76 204.54 49.17 204.35 49.57C204.16 49.97 203.91 50.37 203.58 50.74C203.25 51.12 202.86 51.48 202.41 51.81C201.95 52.16 201.49 52.43 201.03 52.64C200.58 52.84 200.13 52.98 199.69 53.03C199.25 53.09 198.83 53.07 198.42 52.98C198.01 52.89 197.62 52.72 197.25 52.46C196.88 52.21 196.53 51.87 196.22 51.44C195.91 51.02 195.68 50.6 195.54 50.18C195.4 49.75 195.34 49.33 195.37 48.92C195.4 48.5 195.5 48.09 195.69 47.69C195.88 47.29 196.13 46.89 196.45 46.52C196.79 46.13 197.19 45.77 197.65 45.43Z" />
<path d="M202.17 62.62L210.8 58.13L205.34 68.7L205.53 69.08L206.11 70.2L216.66 64.71L215.97 63.38L207.33 67.88L212.81 57.31L212.72 57.13L212.03 55.81L201.48 61.29L202.17 62.62Z" />
<path d="M215.28 73.23C214.99 73.53 214.78 73.89 214.65 74.29C214.52 74.7 214.46 75.15 214.47 75.65C214.47 76.15 214.51 76.68 214.6 77.24L214.79 78.48C214.88 79.06 214.92 79.56 214.9 79.99C214.88 80.42 214.79 80.77 214.6 81.05C214.42 81.33 214.13 81.53 213.72 81.67C213.44 81.77 213.17 81.79 212.9 81.75C212.64 81.71 212.38 81.59 212.15 81.4C211.91 81.21 211.69 80.95 211.48 80.62C211.27 80.29 211.09 79.88 210.92 79.4C210.7 78.75 210.6 78.15 210.64 77.61C210.67 77.07 210.83 76.6 211.12 76.19C211.41 75.78 211.82 75.43 212.35 75.14L211.6 73.67C211.01 73.98 210.53 74.33 210.16 74.73C209.79 75.13 209.52 75.58 209.36 76.09C209.2 76.59 209.13 77.15 209.18 77.77C209.22 78.38 209.36 79.06 209.61 79.79C209.85 80.49 210.13 81.09 210.46 81.6C210.79 82.11 211.16 82.51 211.57 82.81C211.98 83.11 212.43 83.29 212.9 83.36C213.38 83.43 213.88 83.38 214.41 83.2C215.1 82.97 215.59 82.63 215.91 82.2C216.23 81.77 216.4 81.25 216.45 80.65C216.5 80.05 216.47 79.37 216.37 78.61L216.2 77.36C216.12 76.78 216.08 76.26 216.07 75.82C216.06 75.37 216.14 75 216.29 74.7C216.44 74.4 216.74 74.17 217.16 74.03C217.42 73.94 217.67 73.92 217.92 73.96C218.17 74 218.41 74.1 218.64 74.27C218.87 74.44 219.08 74.67 219.28 74.97C219.48 75.27 219.65 75.63 219.79 76.06C220.1 76.98 220.15 77.74 219.93 78.35C219.71 78.95 219.23 79.45 218.5 79.86L219.24 81.31C219.94 80.95 220.48 80.51 220.87 79.97C221.25 79.43 221.46 78.81 221.51 78.1C221.55 77.39 221.42 76.57 221.11 75.66C220.88 74.99 220.6 74.43 220.27 73.95C219.94 73.48 219.57 73.11 219.16 72.84C218.75 72.57 218.32 72.41 217.87 72.36C217.41 72.31 216.95 72.36 216.48 72.52C215.97 72.69 215.58 72.93 215.28 73.23Z" />
<path d="M56.75 53.78C56.73 53.57 56.67 53.36 56.57 53.17C56.47 52.97 56.34 52.79 56.17 52.63C55.95 52.42 55.72 52.28 55.48 52.19C55.24 52.11 54.99 52.08 54.74 52.11C54.48 52.14 54.23 52.22 53.98 52.37C53.73 52.52 53.48 52.71 53.24 52.97L51.44 54.86L50.9 55.43L56.34 60.6L57 59.91L58.77 58.05C59.12 57.68 59.37 57.31 59.49 56.93C59.62 56.56 59.64 56.2 59.55 55.86C59.46 55.51 59.27 55.2 58.98 54.92C58.71 54.66 58.41 54.49 58.09 54.43C57.77 54.36 57.44 54.38 57.11 54.49C56.94 54.55 56.77 54.62 56.6 54.72C56.64 54.63 56.68 54.53 56.7 54.44C56.75 54.2 56.77 53.99 56.75 53.78ZM52.22 55.24L53.73 53.66C53.93 53.45 54.14 53.3 54.35 53.21C54.56 53.12 54.77 53.1 54.98 53.14C55.19 53.18 55.38 53.29 55.57 53.47C55.71 53.6 55.8 53.74 55.86 53.89C55.92 54.04 55.95 54.2 55.94 54.37C55.93 54.54 55.89 54.7 55.81 54.87C55.73 55.04 55.62 55.19 55.48 55.35L53.98 56.93L52.22 55.24ZM56.83 55.38C57.06 55.28 57.3 55.25 57.53 55.28C57.76 55.32 57.98 55.43 58.19 55.63C58.38 55.81 58.5 56 58.55 56.2C58.61 56.41 58.6 56.62 58.52 56.85C58.45 57.07 58.29 57.31 58.07 57.54L56.44 59.25L54.6 57.5L56.17 55.85C56.38 55.64 56.6 55.48 56.83 55.38Z" />
<path d="M64.41 51.78C64.1 52.04 63.78 52.21 63.45 52.28C63.12 52.35 62.8 52.32 62.49 52.19C62.17 52.06 61.88 51.83 61.6 51.49L58.58 47.85L57.77 48.52L60.77 52.14C61.07 52.5 61.38 52.77 61.72 52.96C62.06 53.15 62.41 53.25 62.77 53.28C63.13 53.3 63.5 53.25 63.87 53.11C64.24 52.97 64.6 52.75 64.97 52.45C65.33 52.15 65.62 51.83 65.82 51.49C66.02 51.15 66.15 50.81 66.19 50.44C66.23 50.08 66.19 49.71 66.07 49.35C65.95 48.98 65.74 48.62 65.44 48.26L62.44 44.64L61.63 45.31L64.65 48.95C64.86 49.2 65.01 49.46 65.1 49.71C65.19 49.96 65.22 50.21 65.2 50.45C65.18 50.69 65.1 50.92 64.97 51.14C64.83 51.38 64.65 51.59 64.41 51.78Z" />
<path d="M69.28 40.12C68.84 40.21 68.36 40.41 67.85 40.75C67.48 40.99 67.18 41.25 66.94 41.53C66.7 41.81 66.53 42.09 66.43 42.38C66.33 42.67 66.3 42.96 66.34 43.25C66.38 43.54 66.48 43.81 66.66 44.08C66.84 44.36 67.05 44.57 67.28 44.7C67.51 44.83 67.76 44.9 68.03 44.92C68.3 44.93 68.59 44.9 68.89 44.82C69.2 44.74 69.51 44.63 69.84 44.49L70.57 44.18C70.91 44.04 71.21 43.93 71.48 43.88C71.75 43.82 71.98 43.83 72.17 43.89C72.37 43.96 72.54 44.11 72.69 44.33C72.79 44.49 72.85 44.65 72.87 44.82C72.89 44.99 72.86 45.16 72.78 45.33C72.7 45.51 72.58 45.68 72.41 45.86C72.24 46.04 72.02 46.22 71.75 46.39C71.39 46.63 71.04 46.78 70.7 46.84C70.37 46.9 70.05 46.88 69.76 46.77C69.47 46.66 69.19 46.46 68.93 46.18L68.15 46.87C68.43 47.18 68.72 47.42 69.03 47.59C69.33 47.75 69.65 47.85 69.99 47.87C70.32 47.89 70.67 47.84 71.05 47.72C71.42 47.6 71.81 47.4 72.21 47.14C72.6 46.89 72.92 46.62 73.19 46.34C73.45 46.06 73.64 45.77 73.76 45.47C73.88 45.17 73.92 44.87 73.89 44.57C73.86 44.27 73.75 43.97 73.56 43.67C73.31 43.29 73.03 43.03 72.71 42.91C72.4 42.79 72.05 42.76 71.68 42.82C71.3 42.89 70.89 43.01 70.45 43.19L69.71 43.49C69.37 43.63 69.06 43.74 68.79 43.81C68.52 43.88 68.28 43.9 68.07 43.85C67.86 43.8 67.68 43.66 67.52 43.42C67.43 43.28 67.37 43.12 67.36 42.96C67.34 42.8 67.37 42.64 67.44 42.47C67.51 42.3 67.62 42.14 67.77 41.97C67.92 41.8 68.12 41.64 68.36 41.48C68.88 41.15 69.33 41 69.74 41.04C70.14 41.08 70.52 41.3 70.89 41.68L71.6 41C71.27 40.63 70.91 40.37 70.52 40.22C70.14 40.06 69.73 40.03 69.28 40.12Z" />
<path d="M74.6734 36.8442L73.7482 37.3407L77.2997 43.9578L78.2249 43.4612L74.6734 36.8442Z" />
<path d="M79.18 34.59L78.52 34.87L81.43 41.79L82.3 41.42L79.92 35.76L86.29 39.74L86.4 39.7L86.54 39.64L87.27 39.33L84.36 32.41L83.49 32.78L85.88 38.44L79.51 34.45L79.18 34.59Z" />
<path d="M93.43 29.58L89.26 30.79L88.58 30.98L90.66 38.19L91.67 37.9L95.57 36.77L95.32 35.94L91.43 37.07L90.72 34.63L94.12 33.64L93.88 32.81L90.48 33.79L89.83 31.52L93.67 30.41L93.43 29.58Z" />
<path d="M98.3 29.64C98.43 29.51 98.59 29.4 98.8 29.31C99 29.22 99.25 29.14 99.53 29.1C100.14 28.99 100.62 29.04 100.97 29.23C101.32 29.43 101.59 29.77 101.77 30.27L102.75 29.94C102.59 29.47 102.37 29.09 102.07 28.8C101.77 28.51 101.4 28.32 100.96 28.22C100.52 28.12 100 28.13 99.4 28.24C98.96 28.32 98.58 28.44 98.26 28.6C97.93 28.76 97.67 28.96 97.46 29.19C97.25 29.42 97.11 29.67 97.03 29.95C96.95 30.23 96.94 30.52 96.99 30.83C97.05 31.16 97.16 31.43 97.32 31.64C97.48 31.85 97.68 32.02 97.92 32.13C98.16 32.25 98.44 32.33 98.75 32.37C99.06 32.42 99.4 32.44 99.75 32.44H100.54C100.91 32.44 101.23 32.46 101.5 32.52C101.77 32.57 101.98 32.67 102.13 32.81C102.29 32.95 102.39 33.15 102.43 33.42C102.46 33.6 102.45 33.78 102.4 33.94C102.35 34.1 102.25 34.25 102.11 34.38C101.97 34.51 101.79 34.62 101.56 34.72C101.33 34.82 101.06 34.89 100.75 34.95C100.32 35.03 99.94 35.03 99.61 34.96C99.28 34.89 99 34.74 98.77 34.53C98.54 34.31 98.37 34.02 98.24 33.66L97.25 33.99C97.39 34.39 97.56 34.72 97.77 34.99C97.99 35.26 98.24 35.47 98.54 35.62C98.84 35.77 99.18 35.86 99.57 35.9C99.96 35.93 100.39 35.91 100.87 35.82C101.33 35.74 101.73 35.62 102.08 35.47C102.43 35.31 102.72 35.12 102.94 34.89C103.16 34.66 103.32 34.4 103.41 34.11C103.5 33.82 103.51 33.5 103.45 33.16C103.37 32.71 103.21 32.36 102.97 32.13C102.73 31.89 102.42 31.73 102.05 31.65C101.68 31.56 101.25 31.51 100.77 31.51L99.97 31.5C99.6 31.49 99.27 31.47 99 31.43C98.72 31.39 98.49 31.31 98.32 31.19C98.15 31.06 98.03 30.86 97.98 30.58C97.95 30.41 97.96 30.25 98.01 30.1C98.09 29.91 98.17 29.77 98.3 29.64Z" />
<path d="M110.71 33.51C110.56 33.62 110.36 33.72 110.13 33.79C109.89 33.86 109.62 33.91 109.29 33.93C108.86 33.96 108.48 33.92 108.15 33.81C107.83 33.7 107.57 33.53 107.36 33.29C107.15 33.05 107.01 32.74 106.92 32.37L105.9 32.59C105.99 33 106.13 33.35 106.31 33.64C106.49 33.93 106.73 34.17 107.01 34.35C107.29 34.53 107.62 34.66 108 34.74C108.38 34.82 108.81 34.84 109.3 34.81C109.76 34.78 110.18 34.71 110.54 34.59C110.9 34.47 111.21 34.31 111.46 34.11C111.71 33.91 111.89 33.67 112.01 33.39C112.13 33.11 112.18 32.79 112.16 32.44C112.13 31.98 112.01 31.62 111.79 31.36C111.58 31.1 111.29 30.9 110.93 30.78C110.57 30.65 110.15 30.56 109.67 30.5L108.88 30.4C108.51 30.35 108.19 30.29 107.92 30.23C107.65 30.16 107.43 30.06 107.27 29.91C107.11 29.77 107.02 29.55 107 29.27C106.99 29.1 107.02 28.94 107.08 28.79C107.15 28.64 107.25 28.51 107.39 28.4C107.53 28.29 107.71 28.19 107.92 28.12C108.13 28.05 108.38 28 108.67 27.98C109.28 27.94 109.76 28.04 110.09 28.27C110.42 28.5 110.65 28.88 110.77 29.39L111.78 29.17C111.68 28.68 111.49 28.28 111.23 27.96C110.96 27.64 110.62 27.41 110.19 27.26C109.76 27.12 109.25 27.06 108.64 27.1C108.2 27.13 107.81 27.21 107.46 27.33C107.12 27.46 106.83 27.62 106.6 27.83C106.37 28.04 106.2 28.27 106.09 28.54C105.98 28.81 105.94 29.1 105.96 29.41C105.98 29.74 106.06 30.03 106.2 30.25C106.34 30.48 106.52 30.66 106.75 30.81C106.98 30.95 107.24 31.06 107.55 31.14C107.86 31.22 108.19 31.28 108.54 31.32L109.33 31.41C109.7 31.45 110.01 31.51 110.27 31.59C110.53 31.67 110.73 31.79 110.87 31.94C111.01 32.1 111.09 32.31 111.1 32.58C111.11 32.76 111.08 32.94 111.02 33.09C110.98 33.26 110.87 33.4 110.71 33.51Z" />
<path d="M122.78 27.33C122.35 27.29 121.95 27.31 121.58 27.4C121.21 27.49 120.86 27.63 120.55 27.82C120.24 28.02 119.97 28.26 119.74 28.56C119.51 28.86 119.32 29.2 119.17 29.58C119.02 29.97 118.93 30.39 118.89 30.84C118.85 31.22 118.86 31.58 118.89 31.92C118.93 32.27 119 32.59 119.11 32.88C119.22 33.18 119.36 33.45 119.54 33.69C119.72 33.93 119.93 34.15 120.18 34.33C120.43 34.52 120.71 34.66 121.02 34.78C121.33 34.89 121.67 34.97 122.04 35C122.65 35.06 123.2 35.01 123.68 34.85C124.16 34.69 124.57 34.43 124.9 34.07C125.23 33.71 125.47 33.26 125.61 32.71L124.59 32.41C124.49 32.82 124.32 33.16 124.1 33.43C123.88 33.7 123.6 33.9 123.27 34.02C122.94 34.14 122.56 34.18 122.12 34.14C121.81 34.11 121.53 34.04 121.28 33.92C121.03 33.81 120.82 33.66 120.63 33.46C120.45 33.27 120.3 33.05 120.19 32.79C120.08 32.53 120 32.25 119.96 31.93C119.92 31.61 119.92 31.28 119.95 30.91C119.98 30.55 120.05 30.22 120.15 29.91C120.25 29.6 120.38 29.34 120.54 29.11C120.7 28.88 120.88 28.69 121.1 28.53C121.32 28.38 121.56 28.27 121.83 28.21C122.1 28.15 122.39 28.13 122.69 28.16C123.12 28.2 123.48 28.31 123.77 28.49C124.06 28.67 124.28 28.91 124.44 29.21C124.6 29.51 124.71 29.86 124.75 30.26L125.83 30.16C125.75 29.61 125.59 29.13 125.34 28.72C125.09 28.32 124.75 27.99 124.32 27.75C123.91 27.54 123.39 27.39 122.78 27.33Z" />
<path d="M133.05 36.74L133.22 35.89L129.43 35.1L130.78 28.6L129.75 28.39L128.23 35.74L128.48 35.79L133.05 36.74Z" />
<path d="M135.76 37.47L137.14 35.8L140.43 36.86L140.57 39.02L141.59 39.35L141 31.27L139.99 30.94L134.79 37.15L135.76 37.47ZM140.12 32.17L140.36 35.93L137.72 35.08L140.12 32.17Z" />
<path d="M144.18 37.88C144.07 38.29 144.02 38.66 144.05 39C144.08 39.34 144.17 39.66 144.33 39.95C144.49 40.24 144.72 40.51 145.03 40.76C145.33 41 145.7 41.23 146.15 41.43C146.57 41.62 146.98 41.75 147.35 41.82C147.73 41.89 148.07 41.89 148.39 41.83C148.7 41.77 148.98 41.64 149.22 41.45C149.46 41.26 149.65 41 149.79 40.68C149.98 40.26 150.04 39.89 149.97 39.56C149.9 39.23 149.74 38.92 149.48 38.64C149.22 38.36 148.9 38.08 148.51 37.8L147.86 37.34C147.56 37.12 147.3 36.92 147.09 36.73C146.88 36.54 146.74 36.35 146.66 36.15C146.59 35.95 146.61 35.72 146.73 35.46C146.8 35.3 146.9 35.18 147.03 35.08C147.16 34.98 147.31 34.91 147.49 34.88C147.67 34.85 147.87 34.85 148.09 34.88C148.31 34.92 148.55 35 148.82 35.11C149.38 35.36 149.75 35.67 149.93 36.03C150.11 36.39 150.14 36.83 150.01 37.34L151 37.62C151.14 37.14 151.16 36.7 151.08 36.29C151 35.88 150.8 35.52 150.49 35.19C150.18 34.86 149.75 34.57 149.19 34.32C148.79 34.14 148.4 34.02 148.04 33.97C147.68 33.92 147.35 33.93 147.05 34.01C146.75 34.08 146.49 34.21 146.27 34.4C146.05 34.59 145.87 34.82 145.74 35.11C145.6 35.42 145.54 35.7 145.56 35.97C145.57 36.24 145.65 36.48 145.78 36.72C145.91 36.95 146.1 37.18 146.33 37.39C146.56 37.61 146.82 37.81 147.12 38.02L147.78 38.47C148.09 38.68 148.33 38.88 148.53 39.07C148.72 39.26 148.84 39.46 148.89 39.66C148.94 39.86 148.91 40.09 148.8 40.34C148.72 40.51 148.62 40.65 148.49 40.75C148.36 40.85 148.2 40.92 148.01 40.95C147.82 40.98 147.61 40.97 147.36 40.92C147.12 40.87 146.85 40.79 146.56 40.65C146.16 40.47 145.85 40.26 145.61 40.01C145.38 39.76 145.23 39.49 145.16 39.18C145.09 38.87 145.11 38.53 145.21 38.16L144.18 37.88Z" />
<path d="M152.11 41.59C151.95 41.98 151.87 42.35 151.86 42.69C151.85 43.04 151.9 43.36 152.03 43.67C152.16 43.98 152.36 44.27 152.63 44.55C152.9 44.83 153.25 45.09 153.67 45.33C154.07 45.57 154.46 45.74 154.82 45.85C155.19 45.96 155.53 46 155.85 45.97C156.17 45.94 156.46 45.85 156.72 45.68C156.98 45.52 157.19 45.28 157.37 44.98C157.6 44.59 157.7 44.22 157.67 43.88C157.64 43.54 157.51 43.22 157.29 42.91C157.06 42.6 156.77 42.29 156.41 41.97L155.81 41.44C155.53 41.19 155.3 40.96 155.11 40.76C154.92 40.55 154.8 40.34 154.75 40.13C154.7 39.92 154.75 39.69 154.89 39.45C154.98 39.3 155.09 39.19 155.23 39.1C155.37 39.02 155.53 38.97 155.71 38.95C155.89 38.94 156.09 38.96 156.3 39.02C156.52 39.08 156.75 39.19 156.99 39.33C157.52 39.64 157.86 39.99 158 40.37C158.14 40.75 158.12 41.19 157.94 41.68L158.9 42.07C159.09 41.61 159.16 41.17 159.12 40.76C159.08 40.35 158.92 39.96 158.65 39.6C158.38 39.24 157.98 38.91 157.45 38.6C157.07 38.37 156.7 38.22 156.35 38.13C156 38.04 155.67 38.02 155.36 38.06C155.05 38.1 154.78 38.2 154.54 38.36C154.3 38.52 154.1 38.74 153.94 39.01C153.77 39.3 153.68 39.58 153.66 39.84C153.64 40.1 153.69 40.36 153.8 40.61C153.91 40.86 154.07 41.1 154.27 41.34C154.48 41.58 154.72 41.82 154.99 42.05L155.59 42.57C155.87 42.81 156.1 43.04 156.27 43.25C156.44 43.46 156.54 43.67 156.57 43.88C156.6 44.09 156.54 44.31 156.4 44.54C156.31 44.7 156.19 44.83 156.04 44.91C155.9 45 155.73 45.05 155.54 45.06C155.35 45.07 155.14 45.04 154.9 44.96C154.67 44.89 154.41 44.77 154.13 44.61C153.75 44.39 153.46 44.14 153.26 43.87C153.05 43.6 152.94 43.31 152.91 42.99C152.88 42.68 152.93 42.34 153.07 41.98L152.11 41.59Z" />
<path d="M163.132 42.3712L158.782 48.4933L159.638 49.1015L163.988 42.9793L163.132 42.3712Z" />
<path d="M167.68 46.54C167.31 46.52 166.95 46.57 166.59 46.68C166.23 46.79 165.88 46.96 165.54 47.19C165.2 47.42 164.88 47.71 164.58 48.06C164.33 48.35 164.13 48.64 163.96 48.95C163.79 49.26 163.67 49.56 163.59 49.87C163.51 50.18 163.47 50.48 163.48 50.78C163.49 51.08 163.54 51.38 163.63 51.67C163.73 51.96 163.87 52.25 164.06 52.52C164.25 52.79 164.49 53.05 164.77 53.29C165.24 53.69 165.71 53.96 166.2 54.11C166.69 54.26 167.17 54.28 167.64 54.17C168.12 54.06 168.57 53.83 169 53.47L168.34 52.64C168.02 52.91 167.69 53.1 167.35 53.19C167.01 53.29 166.67 53.29 166.33 53.2C165.99 53.11 165.65 52.92 165.32 52.64C165.08 52.44 164.89 52.22 164.75 51.98C164.61 51.74 164.52 51.5 164.48 51.24C164.44 50.98 164.45 50.71 164.5 50.44C164.55 50.17 164.66 49.89 164.8 49.61C164.95 49.33 165.14 49.05 165.38 48.77C165.62 48.49 165.86 48.26 166.12 48.07C166.38 47.88 166.64 47.73 166.9 47.64C167.16 47.54 167.43 47.49 167.69 47.49C167.95 47.49 168.21 47.54 168.47 47.64C168.73 47.74 168.97 47.89 169.2 48.09C169.53 48.37 169.76 48.67 169.9 48.98C170.03 49.29 170.08 49.62 170.04 49.95C170 50.29 169.89 50.63 169.7 50.99L170.64 51.53C170.9 51.03 171.04 50.55 171.06 50.07C171.09 49.6 171 49.14 170.78 48.69C170.57 48.25 170.23 47.82 169.76 47.42C169.43 47.14 169.09 46.93 168.74 46.79C168.41 46.64 168.05 46.56 167.68 46.54Z" />
<path d="M171.45 55.95L170.64 55.3C170.38 55.63 170.2 55.96 170.09 56.29C169.98 56.62 169.94 56.95 169.98 57.28C170.02 57.61 170.12 57.95 170.31 58.29C170.49 58.63 170.75 58.98 171.08 59.34C171.4 59.68 171.72 59.95 172.04 60.16C172.36 60.37 172.68 60.51 172.99 60.57C173.3 60.63 173.61 60.63 173.9 60.54C174.19 60.46 174.47 60.3 174.73 60.06C175.06 59.75 175.26 59.43 175.33 59.1C175.4 58.77 175.37 58.42 175.24 58.06C175.11 57.7 174.92 57.32 174.67 56.91L174.25 56.24C174.05 55.92 173.9 55.64 173.78 55.38C173.66 55.12 173.61 54.89 173.61 54.68C173.62 54.47 173.73 54.26 173.94 54.07C174.07 53.95 174.21 53.87 174.36 53.83C174.51 53.79 174.68 53.79 174.86 53.82C175.03 53.86 175.22 53.94 175.41 54.06C175.6 54.18 175.79 54.35 175.99 54.55C176.41 55 176.63 55.43 176.66 55.83C176.69 56.23 176.55 56.65 176.23 57.07L177.03 57.71C177.34 57.32 177.54 56.92 177.62 56.52C177.7 56.11 177.66 55.7 177.5 55.28C177.34 54.86 177.05 54.42 176.64 53.98C176.34 53.66 176.03 53.4 175.72 53.22C175.4 53.04 175.1 52.92 174.79 52.87C174.49 52.82 174.2 52.84 173.92 52.93C173.64 53.02 173.39 53.17 173.16 53.38C172.91 53.61 172.75 53.85 172.66 54.1C172.57 54.35 172.54 54.61 172.58 54.87C172.61 55.14 172.7 55.41 172.83 55.7C172.96 55.99 173.12 56.28 173.31 56.58L173.74 57.25C173.94 57.56 174.09 57.84 174.2 58.09C174.3 58.34 174.34 58.57 174.31 58.78C174.28 58.99 174.16 59.18 173.96 59.37C173.82 59.5 173.67 59.58 173.51 59.63C173.35 59.68 173.17 59.67 172.99 59.63C172.81 59.58 172.61 59.49 172.4 59.36C172.19 59.22 171.98 59.04 171.76 58.8C171.46 58.48 171.25 58.16 171.13 57.85C171.01 57.53 170.98 57.22 171.04 56.91C171.07 56.56 171.21 56.25 171.45 55.95Z" />
<path d="M221.61 102.91H220.39C220.39 107.27 216.84 110.82 212.48 110.82V112.04C216.84 112.04 220.39 115.59 220.39 119.95H221.61C221.61 115.59 225.16 112.04 229.53 112.04V110.82C225.16 110.83 221.61 107.28 221.61 102.91ZM221 116.68C220.07 114.28 218.16 112.36 215.76 111.44C218.16 110.51 220.08 108.6 221 106.2C221.93 108.6 223.84 110.52 226.24 111.44C223.84 112.36 221.93 114.28 221 116.68Z" />
<path d="M8.39998 119.96H9.61998C9.61998 115.6 13.17 112.04 17.54 112.04V110.82C13.18 110.82 9.61998 107.27 9.61998 102.91H8.39998C8.39998 107.27 4.84998 110.82 0.47998 110.82V112.04C4.83998 112.05 8.39998 115.6 8.39998 119.96ZM8.99998 106.19C9.92998 108.59 11.84 110.51 14.24 111.43C11.84 112.36 9.91998 114.27 8.99998 116.67C8.06998 114.27 6.15998 112.35 3.75998 111.43C6.15998 110.51 8.07998 108.6 8.99998 106.19Z" />
<path d="M66.4 173.3L66.93 172.61L63.55 169.98L62.74 169.35L58.13 175.27L58.76 175.76L60.82 177.37C61.11 177.59 61.4 177.76 61.7 177.86C62 177.96 62.29 178 62.57 177.98C62.85 177.96 63.12 177.88 63.38 177.73C63.64 177.58 63.88 177.37 64.09 177.1C64.38 176.73 64.55 176.35 64.6 175.96C64.65 175.57 64.59 175.18 64.41 174.81C64.23 174.44 63.95 174.1 63.57 173.8L61.71 172.35L63.02 170.67L66.4 173.3ZM62.99 174.42C63.22 174.6 63.38 174.8 63.49 175.02C63.6 175.24 63.64 175.48 63.61 175.72C63.58 175.97 63.47 176.21 63.28 176.46C63.1 176.7 62.89 176.86 62.68 176.95C62.46 177.04 62.23 177.06 61.99 177.01C61.75 176.96 61.51 176.84 61.26 176.65L59.47 175.25L61.2 173.02L62.99 174.42Z" />
<path d="M69.7827 174.517L65.6718 180.803L66.5505 181.377L70.6615 175.092L69.7827 174.517Z" />
<path d="M76.34 182.02C76.57 181.97 76.77 181.87 76.94 181.73C77.12 181.59 77.27 181.41 77.39 181.19C77.54 180.91 77.62 180.63 77.63 180.34C77.64 180.06 77.57 179.79 77.44 179.52C77.3 179.26 77.1 179 76.84 178.76C76.58 178.52 76.26 178.29 75.88 178.09C75.38 177.82 74.91 177.66 74.46 177.61C74.01 177.56 73.61 177.62 73.23 177.79C72.85 177.96 72.52 178.23 72.22 178.61L72.99 179.26C73.2 178.98 73.43 178.78 73.69 178.65C73.95 178.52 74.23 178.47 74.53 178.49C74.83 178.51 75.15 178.62 75.5 178.81C75.74 178.94 75.94 179.08 76.09 179.23C76.25 179.38 76.37 179.54 76.45 179.71C76.53 179.88 76.57 180.05 76.56 180.23C76.55 180.41 76.5 180.58 76.41 180.75C76.31 180.95 76.17 181.09 76.01 181.19C75.85 181.29 75.67 181.34 75.48 181.35C75.28 181.36 75.08 181.33 74.87 181.27C74.65 181.21 74.43 181.12 74.21 180.99L73.39 180.54L72.99 181.27L73.81 181.72C74.19 181.93 74.49 182.15 74.69 182.37C74.9 182.6 75.02 182.83 75.05 183.08C75.08 183.33 75.03 183.59 74.89 183.85C74.79 184.03 74.66 184.18 74.51 184.28C74.35 184.39 74.17 184.45 73.97 184.48C73.77 184.51 73.55 184.49 73.31 184.44C73.08 184.39 72.83 184.29 72.57 184.15C72.17 183.93 71.87 183.69 71.68 183.43C71.49 183.17 71.39 182.89 71.38 182.6C71.37 182.31 71.44 181.99 71.58 181.66L70.57 181.33C70.37 181.81 70.3 182.26 70.36 182.69C70.41 183.11 70.59 183.51 70.89 183.87C71.19 184.23 71.62 184.57 72.17 184.87C72.56 185.08 72.95 185.24 73.31 185.33C73.68 185.42 74.02 185.45 74.34 185.41C74.66 185.38 74.94 185.28 75.2 185.11C75.45 184.94 75.66 184.71 75.82 184.41C76.02 184.04 76.1 183.69 76.08 183.36C76.05 183.02 75.92 182.7 75.68 182.4C75.58 182.27 75.46 182.15 75.33 182.03C75.41 182.04 75.49 182.07 75.56 182.07C75.86 182.09 76.11 182.07 76.34 182.02Z" />
<path d="M86.01 182.87L84.81 185.82L80.84 184.2L82.04 181.25L81.07 180.86L78.24 187.81L79.21 188.2L80.51 185.01L84.49 186.62L83.19 189.82L84.16 190.22L86.99 183.26L86.01 182.87Z" />
<path d="M94.9 186.55L95.14 185.71L91.19 184.59L90.28 184.34L88.23 191.56L88.91 191.75L89.13 191.81L89.24 191.85L93.14 192.95L93.38 192.11L89.48 191.01L90.17 188.56L93.58 189.53L93.81 188.69L90.41 187.73L91.05 185.46L94.9 186.55Z" />
<path d="M98.06 189.16C98.18 188.87 98.33 188.61 98.51 188.39C98.68 188.17 98.89 187.99 99.11 187.86C99.34 187.72 99.59 187.64 99.86 187.59C100.13 187.55 100.42 187.55 100.72 187.6C101.15 187.67 101.5 187.81 101.77 188.01C102.04 188.21 102.25 188.47 102.39 188.77C102.53 189.08 102.61 189.44 102.62 189.84L103.7 189.82C103.67 189.26 103.54 188.77 103.32 188.35C103.1 187.93 102.79 187.58 102.38 187.31C101.97 187.04 101.46 186.85 100.86 186.74C100.44 186.67 100.03 186.66 99.65 186.72C99.27 186.78 98.92 186.89 98.6 187.07C98.28 187.24 97.99 187.47 97.73 187.75C97.47 188.03 97.26 188.35 97.09 188.73C96.92 189.1 96.79 189.52 96.71 189.97C96.65 190.34 96.62 190.7 96.63 191.05C96.64 191.4 96.69 191.72 96.78 192.03C96.86 192.34 96.99 192.62 97.15 192.87C97.31 193.13 97.5 193.36 97.74 193.56C97.97 193.76 98.24 193.93 98.55 194.07C98.85 194.21 99.19 194.31 99.55 194.37C100.16 194.47 100.71 194.47 101.2 194.34C101.69 194.22 102.12 193.99 102.47 193.66C102.82 193.33 103.1 192.89 103.28 192.36L102.29 191.98C102.16 192.38 101.97 192.71 101.72 192.96C101.48 193.22 101.18 193.39 100.84 193.49C100.5 193.59 100.12 193.6 99.69 193.53C99.38 193.48 99.11 193.38 98.87 193.25C98.63 193.12 98.43 192.95 98.26 192.75C98.09 192.55 97.96 192.31 97.87 192.05C97.78 191.79 97.72 191.5 97.7 191.18C97.68 190.86 97.7 190.52 97.77 190.16C97.84 189.78 97.93 189.45 98.06 189.16Z" />
<path d="M110.63 187.94L110.5 195.45L111.53 195.47L111.6 191.72L115.35 195.53L116.66 195.55L112.76 191.57L116.61 188.05L115.38 188.03L111.6 191.56L111.66 187.96L110.63 187.94Z" />
<path d="M120.78 189.24L120.74 188.65L124.08 188.34L124.69 194.95L125.72 194.85L125.03 187.38L123.99 187.48L120.3 187.82L119.66 187.88L119.76 189.2C119.81 189.84 119.84 190.41 119.87 190.9C119.9 191.39 119.92 191.81 119.93 192.18C119.94 192.54 119.94 192.85 119.92 193.1C119.91 193.35 119.88 193.56 119.84 193.73C119.8 193.9 119.74 194.04 119.67 194.14C119.57 194.31 119.44 194.43 119.29 194.52C119.13 194.6 118.96 194.66 118.77 194.7L118.95 195.59C119.19 195.55 119.4 195.49 119.59 195.43C119.77 195.37 119.94 195.29 120.08 195.19C120.22 195.09 120.35 194.95 120.46 194.79C120.56 194.64 120.65 194.48 120.72 194.29C120.79 194.1 120.84 193.87 120.88 193.59C120.91 193.31 120.93 192.98 120.94 192.58C120.94 192.18 120.93 191.71 120.91 191.17C120.87 190.62 120.83 189.98 120.78 189.24Z" />
<path d="M131.5 186.23L130.46 186.44L128.99 194.4L130 194.19L130.37 192.06L133.76 191.36L134.95 193.18L136 192.96L131.5 186.23ZM130.53 191.15L131.18 187.44L133.24 190.59L130.53 191.15Z" />
<path d="M138.34 185.81C138.48 185.59 138.66 185.39 138.88 185.23C139.1 185.07 139.36 184.94 139.65 184.84C140.07 184.71 140.44 184.67 140.78 184.72C141.12 184.77 141.42 184.9 141.68 185.11C141.95 185.32 142.18 185.6 142.38 185.95L143.33 185.43C143.04 184.95 142.7 184.58 142.32 184.3C141.93 184.03 141.49 183.86 141 183.81C140.51 183.76 139.97 183.82 139.39 184.01C138.98 184.14 138.62 184.32 138.31 184.55C138 184.78 137.74 185.04 137.53 185.34C137.32 185.64 137.17 185.98 137.07 186.34C136.97 186.71 136.93 187.09 136.95 187.5C136.97 187.91 137.05 188.33 137.19 188.77C137.31 189.13 137.45 189.46 137.62 189.76C137.79 190.06 137.98 190.33 138.2 190.56C138.42 190.79 138.65 190.98 138.91 191.14C139.17 191.29 139.45 191.41 139.75 191.48C140.05 191.55 140.37 191.58 140.7 191.56C141.03 191.54 141.38 191.47 141.73 191.36C142.31 191.17 142.8 190.91 143.18 190.58C143.56 190.24 143.83 189.85 143.99 189.39C144.15 188.93 144.19 188.42 144.11 187.86L143.06 187.98C143.12 188.39 143.11 188.77 143.01 189.11C142.91 189.45 142.73 189.74 142.48 189.98C142.23 190.22 141.89 190.41 141.47 190.54C141.17 190.64 140.88 190.68 140.61 190.67C140.34 190.66 140.08 190.61 139.84 190.51C139.6 190.41 139.37 190.26 139.17 190.07C138.97 189.88 138.78 189.65 138.62 189.37C138.46 189.09 138.32 188.78 138.21 188.44C138.1 188.09 138.03 187.76 138 187.44C137.97 187.12 137.99 186.82 138.04 186.55C138.11 186.29 138.21 186.04 138.34 185.81Z" />
<path d="M146.071 181.692L145.161 182.106L148.27 188.943L149.18 188.529L146.071 181.692Z" />
<path d="M153.13 186.72L154.04 186.31L150.94 179.47L150.03 179.89L148.55 187.14L149.18 188.52L150.66 181.27L153.13 186.72Z" />
<path d="M163.11 181.12L157.7 179.79L159.11 174.77L158.05 175.4L156.71 180.39L154.86 177.31L153.98 177.84L157.83 184.28L158.71 183.75L156.79 180.54L161.99 181.79L163.11 181.12Z" />
<path d="M169.81 176.22L170.67 175.57L163.72 171.41L162.87 172.05L164.95 179.88L165.77 179.26L165.19 177.17L167.95 175.09L169.81 176.22ZM164.95 176.27L163.95 172.64L167.16 174.61L164.95 176.27Z" />
<path d="M157.56 70.09L156.52 69.04L125.07 101.03L124.03 102.08L69.67 157.36L70.66 158.33L70.64 158.34L70.78 158.42C71 158.15 71.26 157.86 71.52 157.56L81.58 147.3C81.78 147.1 81.98 146.91 82.17 146.72C84.34 144.56 89.6 144.25 93.9 147.56C99.43 151.82 120.11 167.87 120.11 167.87L147.45 146.35L148.01 145.91V119.56L126.15 101.91L144.05 83.65L157.56 70.09ZM120.11 166.01C120.11 166.01 102.01 151.99 95.61 147.02C93.2 145.16 89.99 142.49 86.36 142.49H86.31L86.74 142.06L91.62 137.1C94.12 137.09 97.58 139.11 99.87 140.97C100.23 141.26 125.56 161.73 125.56 161.73L120.11 166.01ZM104.09 131.67C102.42 130.33 100.54 129.8 98.94 129.62L111.32 116.99L128.98 131.22L129.08 151.59C129.08 151.59 106.35 133.47 104.09 131.67ZM137.7 152.15L133.58 155.4L130.56 152.91L130.45 131.38L137.7 126.76V152.15ZM145.94 119.77L138.61 124.44L119.31 108.87L119.35 108.83L125.01 103.06L125.11 102.96L145.94 119.77Z" />
<path d="M68.03 155.72L141.27 81.2L154.88 67.4L153.83 66.35L149.66 70.6C147.99 72.3 145.33 72.5 143.42 71.07L121.63 54.76L91.49 77.46L91.47 100.28V101L92.02 101.44L107.29 113.72L66.99 154.7L68.03 155.72ZM122.07 98.68L110.8 89.63V70.42L133.37 87.19L122.07 98.68ZM110.75 64.78L114.64 61.87L139.91 80.52L134.4 86.12L110.74 68.55V64.78H110.75ZM100.65 94.75L92.94 99.43L92.96 78.18L100.65 72.4V94.75ZM102.67 95.26L109.96 90.84L121.03 99.74L115.35 105.51L102.67 95.26Z" />
<path d="M31.53 107.59V115.16H32.57V111.38L36.42 115.16H37.74L33.74 111.2L37.56 107.59H36.32L32.57 111.21V107.59H31.53Z" />
<path d="M46.77 115.16V107.59H45.76L41.38 113.63V107.59H40.38V115.16H41.38L45.76 109.12V115.16H46.77Z" />
<path d="M51.64 108.28H50.58V115.16H51.64V108.28Z" />
<path d="M52.72 106.26H51.69V107.39H52.72V106.26Z" />
<path d="M50.55 106.26H49.52V107.39H50.55V106.26Z" />
<path d="M60.72 110.73C60.86 110.57 60.97 110.38 61.04 110.17C61.12 109.96 61.1499 109.74 61.1499 109.5C61.1499 109.2 61.0999 108.93 60.9899 108.7C60.8899 108.46 60.73 108.27 60.54 108.1C60.34 107.94 60.1 107.81 59.82 107.72C59.5399 107.63 59.2199 107.59 58.8699 107.59H56.4899H56.2399H55.45V115.16H56.41H56.4899H59C59.52 115.16 59.9599 115.08 60.32 114.91C60.68 114.74 60.9599 114.51 61.1499 114.21C61.3399 113.91 61.4399 113.55 61.4399 113.14C61.4399 112.76 61.35 112.43 61.18 112.15C61.01 111.87 60.76 111.64 60.45 111.47C60.29 111.38 60.11 111.31 59.93 111.26C60.03 111.23 60.1199 111.19 60.2099 111.14C60.4099 111.03 60.58 110.89 60.72 110.73ZM60.16 112.35C60.29 112.54 60.36 112.79 60.36 113.07C60.36 113.33 60.2999 113.55 60.1899 113.74C60.0799 113.92 59.91 114.07 59.7 114.17C59.48 114.27 59.21 114.32 58.88 114.32H56.5V111.76H58.7999C59.0999 111.76 59.3599 111.81 59.5999 111.91C59.8399 112 60.03 112.15 60.16 112.35ZM60.02 110.15C59.95 110.3 59.8499 110.43 59.7299 110.55C59.61 110.67 59.4499 110.75 59.2799 110.8C59.0999 110.86 58.91 110.89 58.7 110.89H56.5V108.43H58.7099C59.0099 108.43 59.26 108.48 59.47 108.57C59.68 108.66 59.8399 108.8 59.9599 108.98C60.0699 109.16 60.13 109.38 60.13 109.64C60.12 109.83 60.09 110 60.02 110.15Z" />
<path d="M63.23 118.6H30.81V119.55H63.23V118.6Z" />
<path d="M63.23 102.66H30.81V103.61H63.23V102.66Z" />
<path d="M169.03 107.59V115.16H170.07V112.41L170.82 111.69L173.97 115.16H175.29L171.55 110.98L175.06 107.59H173.8L170.07 111.13V107.59H169.03Z" />
<path d="M180.65 115.16V112.08L183.45 107.59H182.29L180.14 111.12L178.03 107.59H176.84L179.59 112.04V115.16H180.65Z" />
<path d="M187.25 107.59H186.19V115.16H187.25V107.59Z" />
<path d="M197.09 107.59H196.02L193.61 113.9L191.22 107.59H190.09L193.05 115.16H194.13L197.09 107.59Z" />
<path d="M199.2 118.6H166.78V119.55H199.2V118.6Z" />
<path d="M199.2 102.66H166.78V103.61H199.2V102.66Z" />

</svg>
