<svg width="22" height="12" viewBox="0 0 22 12" fill="none" xmlns="http://www.w3.org/2000/svg">
<path d="M21.8045 5.42299C21.8045 5.42299 17.2291 0 11 0C4.7713 0 0.195535 5.42299 0.195535 5.42299C-0.0651784 5.73196 -0.0651784 6.23767 0.195535 6.54701C0.195535 6.54664 4.7713 11.9696 11 11.9696C17.2287 11.9696 21.8041 6.54664 21.8041 6.54664C22.0652 6.23767 22.0652 5.73196 21.8045 5.42299ZM11 10.592C8.4557 10.592 6.39281 8.52948 6.39281 5.98481C6.39281 3.44015 8.4557 1.37763 11 1.37763C13.5443 1.37763 15.6072 3.44052 15.6072 5.98481C15.6072 8.52911 13.5447 10.592 11 10.592Z" />
<path d="M13.1725 5.02092C12.6312 5.02092 12.1921 4.58216 12.1921 4.04053C12.1921 3.89914 12.2224 3.76448 12.2763 3.64329C11.897 3.43606 11.4619 3.31824 10.9996 3.31824C9.52698 3.31824 8.33301 4.51221 8.33301 5.98485C8.33301 7.45748 9.52698 8.65183 10.9996 8.65183C12.4723 8.65183 13.6662 7.45786 13.6662 5.98522C13.6662 5.628 13.5955 5.28724 13.468 4.97566C13.3748 5.00483 13.2753 5.02092 13.1725 5.02092Z" />
</svg>
