<svg width="21" height="16" viewBox="0 0 21 16" fill="none" xmlns="http://www.w3.org/2000/svg">
<line y1="1.37646" x2="20.6285" y2="1.37646" stroke="#CE8163"/>
<line y1="7.89111" x2="20.6285" y2="7.89111" stroke="#CE8163"/>
<line y1="14.4058" x2="20.6285" y2="14.4058" stroke="#CE8163"/>
<path d="M5.85156 1.5C5.85156 2.32843 5.17999 3 4.35156 3C3.52314 3 2.85156 2.32843 2.85156 1.5C2.85156 0.671573 3.52314 0 4.35156 0C5.17999 0 5.85156 0.671573 5.85156 1.5Z" fill="#CE8163"/>
<path d="M16.5352 7.8252C16.5352 8.65362 15.8636 9.3252 15.0352 9.3252C14.2067 9.3252 13.5352 8.65362 13.5352 7.8252C13.5352 6.99677 14.2067 6.3252 15.0352 6.3252C15.8636 6.3252 16.5352 6.99677 16.5352 7.8252Z" fill="#CE8163"/>
<path d="M9.5293 14.2944C9.5293 15.1229 8.85772 15.7944 8.0293 15.7944C7.20087 15.7944 6.5293 15.1229 6.5293 14.2944C6.5293 13.466 7.20087 12.7944 8.0293 12.7944C8.85772 12.7944 9.5293 13.466 9.5293 14.2944Z" fill="#CE8163"/>
</svg>
