<svg width="12" height="13" viewBox="0 0 12 13" xmlns="http://www.w3.org/2000/svg" fill="#706A75">

<path d="M9.84654 0.787354H1.68991C0.758171 0.787354 0 1.54552 0 2.47726V10.6339C0 11.5656 0.758171 12.3238 1.68991 12.3238H9.84654C10.7783 12.3238 11.5365 11.5656 11.5365 10.6339V2.47726C11.5365 1.54552 10.7783 0.787354 9.84654 0.787354ZM5.79076 9.57488C4.11343 9.57488 2.74892 8.21037 2.74892 6.53305C2.74892 4.85572 4.11343 3.49121 5.79076 3.49121C7.46808 3.49121 8.83259 4.85572 8.83259 6.53305C8.83259 8.21037 7.46808 9.57488 5.79076 9.57488ZM9.17058 4.16717C8.6115 4.16717 8.15663 3.71231 8.15663 3.15323C8.15663 2.59415 8.6115 2.13928 9.17058 2.13928C9.72966 2.13928 10.1845 2.59415 10.1845 3.15323C10.1845 3.71231 9.72966 4.16717 9.17058 4.16717Z" />
<path d="M9.1705 2.81519C8.984 2.81519 8.83252 2.96666 8.83252 3.15317C8.83252 3.33967 8.984 3.49115 9.1705 3.49115C9.35701 3.49115 9.50848 3.33967 9.50848 3.15317C9.50848 2.96666 9.35701 2.81519 9.1705 2.81519Z" />
<path d="M5.79068 4.16724C4.48628 4.16724 3.4248 5.22871 3.4248 6.53311C3.4248 7.83751 4.48628 8.89898 5.79068 8.89898C7.09508 8.89898 8.15655 7.83751 8.15655 6.53311C8.15655 5.22871 7.09508 4.16724 5.79068 4.16724Z" />

</svg>
