<svg width="23" height="23" viewBox="0 0 31 31" fill="none" xmlns="http://www.w3.org/2000/svg">
<path fill-rule="evenodd" clip-rule="evenodd" d="M18.3821 12.7675C17.672 14.6214 15.9513 15.7696 14.1419 15.8064L13.8917 16.2082L13.1769 16.4149L14.1693 16.9615L13.7425 18.0754L12.2741 18.6126L13.0296 19.574L12.6729 20.5546L11.48 21.0236L12.0987 21.8315L11.6339 23.0465L10.5488 23.0637L10.2337 23.6737L10.7133 24.1084L10.6745 24.1756L7.89073 25.6177L7.21234 24.6804L11.0323 14.4917C9.69532 13.2625 9.25277 11.3957 9.96269 9.54319C10.8848 7.13679 13.5204 5.91311 15.8408 6.8024C18.174 7.69584 19.3039 10.3623 18.3821 12.7675ZM16.1778 9.79857C16.4729 9.03245 16.106 8.19367 15.3658 7.91046C14.621 7.62639 13.7894 8.00464 13.4969 8.77098C13.2029 9.53932 13.5632 10.3879 14.3065 10.674C15.0479 10.958 15.8864 10.5668 16.1778 9.79857Z" />
<path d="M19.4342 13.171C19.9862 11.7332 19.9627 10.1726 19.3691 8.77779C19.1808 8.33442 18.9249 7.93759 18.6422 7.56624C19.9916 8.24081 20.9913 9.57184 21.1729 11.2242C21.3925 13.1958 20.3873 15.0059 18.7966 15.8679L18.7594 16.3376L18.2187 16.8492L19.3503 16.8827L19.4818 18.066L18.4228 19.2164L19.5346 19.7261L19.6656 20.7598L18.8209 21.7232L19.7424 22.1574L19.8846 23.4514L18.9262 23.9648L18.9265 24.6518L19.5519 24.8166L19.5485 24.8924L17.736 27.4514L16.703 26.9311L15.5021 16.739C15.7887 16.6627 16.0706 16.5664 16.3465 16.4437C17.7722 15.8093 18.869 14.6463 19.4342 13.171Z" />
<path d="M16.5186 2.28958C19.0066 1.18252 21.9309 2.30581 23.038 4.79379C23.897 6.72439 23.3817 8.88955 21.9579 10.2901C21.9133 10.1417 21.8701 9.99435 21.8181 9.84292C21.7591 9.67338 21.6878 9.51805 21.6178 9.3619C22.5683 8.21632 22.8704 6.60471 22.2256 5.15555C21.318 3.11578 18.92 2.19468 16.8802 3.1023C14.8404 4.00993 13.9192 6.40769 14.827 8.44768C14.9363 8.69349 15.0728 8.91665 15.2243 9.12725C15.2637 9.2997 15.2391 9.49792 15.0101 9.65764C14.8032 9.80197 14.6149 9.72872 14.4727 9.61316C14.2986 9.36433 14.1428 9.09755 14.0145 8.80922C12.9073 6.32101 14.0304 3.39675 16.5186 2.28958Z" />
</svg>
