<svg class="hover-logo"  version="1.1" viewBox="0 0 156.12 156.12" xmlns="http://www.w3.org/2000/svg">
      <g id="layer1" transform="translate(43.252 41.387)">
        <path class="hover-logo__r" d="m60.18 10.955-0.69-0.69-20.86 21.21-0.69 0.7-36.05 36.66 0.65 0.64-0.01 0.01 0.09 0.05c0.15-0.18 0.32-0.37 0.49-0.57l6.68-6.81c0.13-0.13 0.26999-0.26 0.38999-0.39 1.44-1.43 4.93-1.64 7.78 0.56 3.68 2.84 17.39 13.48 17.39 13.48l18.13-14.27 0.37-0.29v-17.48l-14.5-11.71 11.87-12.1zm-24.84 63.61s-12.01-9.3-16.25-12.59c-1.6-1.23-3.73-3-6.13-3h-0.03l0.28-0.29 3.24-3.29c1.66-0.01 3.95 1.33 5.47 2.57 0.24 0.19 17.04 13.76 17.04 13.76zm-10.62-22.77c-1.11-0.89-2.36-1.24-3.41-1.36l8.21-8.38 11.71 9.44 0.07 13.51s-15.08-12.01-16.58-13.21zm22.29 13.59-2.73 2.15-2-1.65-0.08-14.28 4.81-3.06zm5.46-21.48-4.86 3.1-12.8-10.33 0.03-0.03 3.76-3.83 0.06-0.06z"></path>
        <path class="hover-logo__l" d="m0.81 67.745 48.57-49.42 9.03-9.15-0.69-0.69-2.77 2.82c-1.11 1.13-2.87 1.26-4.14 0.31l-14.45-10.81-20 15.04-0.01 15.13v0.48l0.36 0.29 10.13 8.14-26.72 27.18zm35.83-37.82-7.47-6v-12.75l14.96 11.13zm-7.5-22.48 2.58-1.93 16.76 12.37-3.65 3.72-15.69-11.66zm-6.7 19.87-5.11 3.11 0.01-14.09 5.1-3.83zm1.34 0.33 4.84-2.93 7.34 5.9-3.77 3.83z"></path>
      </g>
    </svg>
