<svg width="8" height="10" viewBox="0 0 8 10" fill="none" xmlns="http://www.w3.org/2000/svg">
<path d="M3.9552 10C1.6217 6.955 0.4552 4.7885 0.4552 3.5C0.4552 3.04037 0.54573 2.58525 0.721622 2.16061C0.897513 1.73597 1.15532 1.35013 1.48033 1.02513C1.80533 0.700121 2.19117 0.442313 2.61581 0.266422C3.04045 0.0905302 3.49557 0 3.9552 0C4.41483 0 4.86995 0.0905302 5.29459 0.266422C5.71923 0.442313 6.10507 0.700121 6.43007 1.02513C6.75508 1.35013 7.01289 1.73597 7.18878 2.16061C7.36467 2.58525 7.4552 3.04037 7.4552 3.5C7.4552 4.7885 6.2887 6.955 3.9552 10ZM3.9552 5.5C4.48563 5.5 4.99434 5.28929 5.36941 4.91421C5.74449 4.53914 5.9552 4.03043 5.9552 3.5C5.9552 2.96957 5.74449 2.46086 5.36941 2.08579C4.99434 1.71071 4.48563 1.5 3.9552 1.5C3.42477 1.5 2.91606 1.71071 2.54099 2.08579C2.16591 2.46086 1.9552 2.96957 1.9552 3.5C1.9552 4.03043 2.16591 4.53914 2.54099 4.91421C2.91606 5.28929 3.42477 5.5 3.9552 5.5Z" fill="#CE8163"/>
</svg>
