<svg width="18" height="26" viewBox="0 0 18 26" fill="none" xmlns="http://www.w3.org/2000/svg">
<path opacity="0.5" d="M8.66667 0C3.9 0 0 3.9 0 8.66667V17.3333C0 22.1 3.9 26 8.66667 26C13.4333 26 17.3333 22.1 17.3333 17.3333V8.66667C17.3333 3.9 13.4333 0 8.66667 0ZM16.0952 17.3333C16.0952 21.4191 12.7524 24.7619 8.66667 24.7619C4.58095 24.7619 1.2381 21.4191 1.2381 17.3333V8.66667C1.2381 4.58095 4.58095 1.2381 8.66667 1.2381C12.7524 1.2381 16.0952 4.58095 16.0952 8.66667V17.3333Z" fill="#9A959E"/>
<path d="M8.66592 5.57153C8.32545 5.57153 8.04688 5.8501 8.04688 6.19058V9.28582C8.04688 9.6263 8.32545 9.90487 8.66592 9.90487C9.0064 9.90487 9.28497 9.6263 9.28497 9.28582V6.19058C9.28497 5.8501 9.0064 5.57153 8.66592 5.57153Z" fill="#9A959E"/>
</svg>
