<svg width="31" height="43" viewBox="0 0 31 43" fill="none" xmlns="http://www.w3.org/2000/svg">
<path d="M17.1352 35.2457V28.8274H13.0879V35.2457H8.61719L15.188 43L21.7586 35.2457H17.1352Z" fill="#CE8163"/>
<path d="M8.75738 17.4661C8.46735 17.4661 8.27088 17.4941 8.16797 17.5222V19.3838C8.28959 19.4118 8.43929 19.4212 8.64512 19.4212C9.4027 19.4212 9.87049 19.0376 9.87049 18.3923C9.87049 17.8122 9.46819 17.4661 8.75738 17.4661Z" fill="#CE8163"/>
<path d="M14.7373 17.4849C14.4195 17.4849 14.2137 17.5129 14.0918 17.541V21.6662C14.2137 21.6943 14.4099 21.6943 14.5877 21.6943C15.8788 21.7036 16.7203 20.9928 16.7203 19.4868C16.7299 18.1772 15.9627 17.4849 14.7373 17.4849Z" fill="#CE8163"/>
<path d="M28.0777 12.6591V9.21056C28.0777 9.02976 28.0019 8.84615 27.8752 8.71727L19.4732 0.208401C19.3637 0.071572 19.1422 0 18.974 0H2.90615C2.51858 0 2.20446 0.314121 2.20446 0.701686V12.6591H0V26.5922H2.20446V32.4939C2.20446 32.8817 2.51858 33.1956 2.90615 33.1956H11.9193V31.7922H3.60783V26.5922H26.6743V31.7922H18.3056V33.1956H27.376C27.7636 33.1956 28.0777 32.8817 28.0777 32.4939V26.5922H30.208V12.6591H28.0777ZM19.6757 2.40982L25.6957 8.50887H19.6757V2.40982ZM10.7044 19.8516C10.2179 20.3098 9.49778 20.5156 8.65599 20.5156C8.46888 20.5156 8.30047 20.5063 8.16949 20.4876V22.7419H6.757V16.5214C7.19649 16.4466 7.81397 16.3904 8.68406 16.3904C9.56327 16.3904 10.1899 16.5588 10.6109 16.8957C11.0132 17.2135 11.2843 17.7374 11.2843 18.3549C11.2843 18.9724 11.0787 19.4961 10.7044 19.8516ZM17.188 21.9936C16.5238 22.5454 15.5136 22.8074 14.2788 22.8074C13.5397 22.8074 13.0158 22.7608 12.6605 22.714V16.5214C13.1844 16.4372 13.8672 16.3904 14.5876 16.3904C15.7849 16.3904 16.5612 16.6056 17.1693 17.0638C17.8242 17.5503 18.2359 18.3266 18.2359 19.4397C18.2356 20.6466 17.7959 21.4793 17.188 21.9936ZM23.4938 17.6065H21.0711V19.047H23.335V20.2069H21.0711V22.7419H19.6402V16.4372H23.4941V17.6065H23.4938ZM26.6743 12.6591H3.60783V1.40337H18.2724V9.21033C18.2724 9.59789 18.5865 9.91201 18.974 9.91201H26.6743V12.6591Z" fill="#CE8163"/>
</svg>
