<svg width="9" height="9" viewBox="0 0 9 9" fill="none" xmlns="http://www.w3.org/2000/svg">
<path d="M8.72086 2.92971C8.48067 2.32923 8.12038 1.79426 7.66183 1.33571C7.20329 0.877161 6.66831 0.527791 6.06783 0.27668C5.77305 0.156584 5.46735 0.0692415 5.16165 0.00373453C5.05247 -0.0181011 4.94329 0.0583237 4.92146 0.167502C4.89962 0.27668 4.97605 0.385859 5.08523 0.407694C5.36909 0.462284 5.65295 0.538708 5.91498 0.647887C6.46087 0.866243 6.95218 1.19378 7.36705 1.61957C7.78193 2.03445 8.10947 2.52575 8.33874 3.07165C8.44792 3.34459 8.53526 3.61754 8.57893 3.9014C8.60077 3.99966 8.67719 4.06517 8.77545 4.06517C8.78637 4.06517 8.79729 4.06517 8.80821 4.06517C8.91739 4.04333 8.99381 3.93415 8.97197 3.82498C8.9283 3.53019 8.84096 3.2245 8.72086 2.92971Z" fill="#CE8163"/>
<path d="M7.08308 3.58477C7.17043 3.80313 7.23593 4.02148 7.26869 4.25076C7.27961 4.34902 7.36695 4.42544 7.46521 4.42544C7.47613 4.42544 7.48704 4.42544 7.49796 4.42544C7.60714 4.40361 7.68356 4.30535 7.66173 4.19617C7.61806 3.93414 7.55255 3.68303 7.45429 3.43192C7.2796 3.00613 7.02849 2.61308 6.70096 2.28555C6.37342 1.95801 5.9913 1.69599 5.55459 1.53222C5.3144 1.43396 5.05237 1.35753 4.80126 1.32478C4.69208 1.30294 4.5829 1.37937 4.57198 1.48855C4.56106 1.59773 4.62657 1.7069 4.73575 1.71782C4.96502 1.75057 5.1943 1.81608 5.40174 1.90342C5.78386 2.05627 6.12231 2.28555 6.40618 2.56941C6.69004 2.85328 6.93023 3.21356 7.08308 3.58477Z" fill="#CE8163"/>
<path d="M4.21162 2.83166C4.2007 2.94084 4.28804 3.0391 4.39722 3.05001C4.80118 3.08277 5.17239 3.25745 5.45625 3.54132C5.74011 3.82518 5.9148 4.19639 5.94755 4.60035C5.95847 4.70952 6.04581 4.78595 6.15499 4.78595C6.16591 4.78595 6.16591 4.78595 6.17683 4.78595C6.28601 4.77503 6.37335 4.67677 6.36243 4.56759C6.31876 4.07629 6.11132 3.60682 5.75103 3.25745C5.40166 2.90808 4.93219 2.68973 4.44089 2.64605C4.32079 2.63514 4.22253 2.71156 4.21162 2.83166Z" fill="#CE8163"/>
<path d="M8.61161 6.58723C8.45876 6.46713 8.27315 6.37979 8.10939 6.31428C7.57441 6.09593 7.02852 5.95399 6.55905 5.84482C6.39529 5.81206 6.16601 5.74655 5.93674 5.8339C5.76205 5.8994 5.65287 6.03042 5.55461 6.15051C5.52186 6.19419 5.47819 6.23786 5.44544 6.28153C5.35809 6.36887 5.1179 6.3252 4.82312 6.16143C4.48467 5.98675 4.08071 5.67013 3.69858 5.28801C3.32738 4.9168 2.99984 4.50192 2.82516 4.16347C2.66139 3.86869 2.61772 3.6285 2.70506 3.54115C2.73781 3.5084 2.78148 3.47565 2.83607 3.43197C2.95617 3.33371 3.08718 3.22454 3.15269 3.04985C3.24003 2.82058 3.18544 2.58038 3.14177 2.42753C3.03259 1.95807 2.89066 1.41217 2.67231 0.877201C2.6068 0.702516 2.51946 0.52783 2.39936 0.374981C2.24651 0.189378 2.06091 0.0583637 1.85347 0.0256102C1.5696 -0.028979 1.25299 0.0801993 0.93637 0.353145C0.696178 0.560584 0.488739 0.811694 0.335889 1.10648C0.18304 1.39034 0.0738614 1.69604 0.0301901 2.02357C-0.0789883 2.76599 0.106615 3.58482 0.608835 4.53468C1.03463 5.35351 1.58052 6.10684 2.23559 6.76191C2.89066 7.40607 3.64399 7.95196 4.46283 8.38867C5.238 8.79263 5.92582 9.00007 6.55905 9.00007C6.70099 9.00007 6.84292 8.98915 6.97393 8.96732C7.29055 8.92365 7.59625 8.81447 7.89103 8.66162C8.17489 8.50877 8.426 8.30133 8.64436 8.06114C8.91731 7.75544 9.02648 7.43882 8.9719 7.14404C8.92822 6.9366 8.79721 6.74008 8.61161 6.58723Z" fill="#CE8163"/>
</svg>
