<svg width="19" height="20" viewBox="0 0 19 20" fill="none" xmlns="http://www.w3.org/2000/svg">
<path d="M18.4402 6.19385C17.9324 4.92435 17.1707 3.79333 16.2012 2.82389C15.2318 1.85445 14.1008 1.11583 12.8313 0.584944C12.2081 0.331042 11.5618 0.146387 10.9155 0.00789536C10.6847 -0.0382685 10.4538 0.123305 10.4077 0.354124C10.3615 0.584944 10.5231 0.815763 10.7539 0.861927C11.354 0.977336 11.9542 1.13891 12.5081 1.36973C13.6622 1.83137 14.7009 2.52383 15.578 3.42402C16.4551 4.30113 17.1476 5.33982 17.6323 6.49392C17.8631 7.07097 18.0478 7.64801 18.1401 8.24814C18.1863 8.45588 18.3479 8.59437 18.5556 8.59437C18.5787 8.59437 18.6018 8.59437 18.6248 8.59437C18.8557 8.54821 19.0172 8.31739 18.9711 8.08657C18.8787 7.46336 18.6941 6.81706 18.4402 6.19385Z" />
<path d="M14.9778 7.57882C15.1625 8.04046 15.301 8.5021 15.3702 8.98682C15.3933 9.19456 15.578 9.35613 15.7857 9.35613C15.8088 9.35613 15.8319 9.35613 15.855 9.35613C16.0858 9.30997 16.2474 9.10223 16.2012 8.87141C16.1089 8.31744 15.9704 7.78656 15.7626 7.25568C15.3933 6.35548 14.8624 5.52453 14.17 4.83207C13.4775 4.13962 12.6697 3.58565 11.7464 3.23942C11.2386 3.03168 10.6846 2.87011 10.1537 2.80086C9.9229 2.7547 9.69208 2.91627 9.669 3.14709C9.64592 3.37791 9.78441 3.60873 10.0152 3.63181C10.5 3.70106 10.9847 3.83955 11.4232 4.02421C12.2311 4.34735 12.9466 4.83207 13.5468 5.4322C14.1469 6.03233 14.6547 6.79404 14.9778 7.57882Z" />
<path d="M8.90723 5.98638C8.88414 6.2172 9.0688 6.42493 9.29962 6.44802C10.1536 6.51726 10.9384 6.88657 11.5386 7.4867C12.1387 8.08683 12.508 8.87162 12.5773 9.72565C12.6003 9.95647 12.785 10.118 13.0158 10.118C13.0389 10.118 13.0389 10.118 13.062 10.118C13.2928 10.095 13.4774 9.88722 13.4544 9.6564C13.362 8.61772 12.9235 7.62519 12.1618 6.88657C11.4232 6.14795 10.4306 5.68631 9.39195 5.59398C9.13804 5.5709 8.93031 5.73248 8.90723 5.98638Z" />
<path d="M18.2093 13.9262C17.8861 13.6723 17.4937 13.4877 17.1475 13.3492C16.0165 12.8876 14.8624 12.5875 13.8699 12.3567C13.5236 12.2874 13.0389 12.1489 12.5542 12.3336C12.1849 12.4721 11.9541 12.7491 11.7463 13.003C11.6771 13.0953 11.5848 13.1876 11.5155 13.2799C11.3309 13.4646 10.8231 13.3723 10.1998 13.026C9.4843 12.6567 8.63027 11.9874 7.82241 11.1795C7.03762 10.3947 6.34516 9.51759 5.97585 8.80205C5.62962 8.17884 5.53729 7.67104 5.72195 7.48638C5.7912 7.41713 5.88352 7.34789 5.99893 7.25556C6.25283 7.04782 6.52982 6.817 6.66831 6.44769C6.85296 5.96297 6.73755 5.45517 6.64523 5.13202C6.41441 4.1395 6.11434 2.9854 5.6527 1.85439C5.51421 1.48508 5.32956 1.11577 5.07566 0.792621C4.75251 0.400228 4.36012 0.123245 3.92156 0.0539989C3.32143 -0.0614107 2.65205 0.169409 1.98268 0.746457C1.47488 1.18501 1.03632 1.7159 0.713172 2.33911C0.390025 2.93924 0.159206 3.58553 0.066878 4.27799C-0.163941 5.84756 0.228451 7.57871 1.29022 9.58683C2.19042 11.318 3.34451 12.9106 4.72943 14.2955C6.11434 15.6574 7.707 16.8115 9.43814 17.7348C11.077 18.5888 12.5311 19.0273 13.8699 19.0273C14.1699 19.0273 14.47 19.0043 14.747 18.9581C15.4164 18.8658 16.0627 18.635 16.6859 18.3118C17.286 17.9887 17.8169 17.5501 18.2785 17.0423C18.8556 16.396 19.0864 15.7266 18.971 15.1034C18.8786 14.6649 18.6017 14.2494 18.2093 13.9262Z" />
</svg>
