<svg width="150" height="151" viewBox="0 0 150 151" fill="none" xmlns="http://www.w3.org/2000/svg">

<path d="M126.551 79.8795L127.303 79.8605C127.267 78.5137 127.733 77.2968 128.675 76.3104C129.553 75.3612 130.821 74.7801 132.162 74.7534L132.138 73.9982C130.797 74.0249 129.581 73.5493 128.592 72.5973C127.603 71.6453 127.053 70.4327 127.017 69.0858L126.264 69.1048C126.3 70.4516 125.835 71.6685 124.893 72.6549C124.014 73.6041 122.747 74.1852 121.405 74.2119L121.429 74.9672C124.175 74.8765 126.504 77.0853 126.551 79.8795ZM123.524 74.4936C124.289 74.2104 124.942 73.7376 125.456 73.1755C126.034 72.5762 126.411 71.9249 126.713 71.1472C127 71.9172 127.476 72.5755 128.039 73.0961C128.64 73.6799 129.292 74.0628 130.069 74.3713C129.304 74.6544 128.651 75.1272 128.136 75.6893C127.559 76.2886 127.119 76.9771 126.88 77.7177C126.555 76.8844 126.079 76.2261 125.415 75.6795C124.852 75.1589 124.201 74.776 123.524 74.4936Z" />
<path d="M128.17 87.8964L127.313 90.8845C126.948 92.1273 126.17 92.6746 125.067 92.3887C124.365 92.2067 123.927 91.6117 123.84 90.8936C123.4 91.5822 122.673 91.9285 121.871 91.7206C120.768 91.4347 120.368 90.4749 120.721 89.0684L121.603 85.9799L128.17 87.8964ZM124.258 87.7384L122.015 87.1033L121.448 89.1499C121.183 89.9909 121.521 90.5599 122.16 90.7791C122.9 91.0243 123.452 90.5255 123.691 89.785L124.258 87.7384ZM127.141 88.5927L124.998 87.9836L124.456 89.9297C124.217 90.6702 124.492 91.2765 125.194 91.4585C125.895 91.6404 126.36 91.2793 126.599 90.5388L127.141 88.5927Z" />
<path d="M117.513 96.9578C118.28 95.391 119.622 94.9364 121.088 95.691L124.872 97.6349L124.444 98.4872L120.56 96.5172C119.47 95.9671 118.642 96.2875 118.127 97.2774C117.612 98.2673 117.911 99.2011 118.964 99.6879L122.848 101.658L122.42 102.51L118.637 100.566C117.108 99.8488 116.746 98.5245 117.513 96.9578Z" />
<path d="M115.785 104.482C114.896 103.984 113.993 104.177 113.277 105.115C112.561 106.053 112.547 106.745 113.073 107.203C113.662 107.623 114.201 107.388 114.904 106.714L115.457 106.216C116.436 105.292 117.352 104.834 118.329 105.623C119.231 106.284 119.292 107.531 118.312 108.882C117.295 110.17 116.203 110.475 115.038 109.799L115.503 109.01C116.355 109.445 117.032 109.299 117.723 108.462C118.351 107.661 118.365 106.969 117.876 106.575C117.25 106.092 116.723 106.49 115.957 107.201L115.405 107.7C114.451 108.523 113.597 108.944 112.558 108.193C111.581 107.404 111.62 106.184 112.663 104.796C113.705 103.407 114.859 103.065 116.225 103.793L115.785 104.482Z" />
<path d="M113.226 114.465L112.523 115.139L107.791 110.167L108.494 109.493L113.226 114.465Z" />
<path d="M108.594 118.668L107.816 119.215L101.412 116.86L104.578 121.479L103.863 121.989L99.9335 116.369L100.712 115.822L107.115 118.178L103.949 113.558L104.665 113.048L108.594 118.668Z" />
<path d="M99.0072 124.529L94.8546 126.395L94.5045 125.662L97.8039 124.217L96.9038 122.272L93.9556 123.594L93.6056 122.861L96.5538 121.539L95.6413 119.43L92.2792 120.912L91.9291 120.179L96.1444 118.276L99.0072 124.529Z" />
<path d="M88.903 123.515C88.5031 122.555 87.6886 122.183 86.5347 122.526C85.4059 122.768 84.9914 123.357 85.1409 124.037C85.328 124.781 85.8921 124.874 86.9329 124.769L87.6476 124.687C88.9517 124.597 89.9169 124.794 90.3039 126.018C90.5531 127.152 89.8747 128.154 88.2945 128.493C86.6515 128.87 85.6992 128.409 85.1117 127.133L86.0023 126.775C86.3647 127.672 87.0414 127.954 88.1074 127.749C89.1359 127.481 89.5252 126.993 89.3757 126.312C89.1886 125.568 88.4991 125.55 87.521 125.617L86.7687 125.636C85.4646 125.726 84.5622 125.492 84.2755 124.294C83.9512 123.033 84.7674 122.121 86.4731 121.708C88.1788 121.294 89.2941 121.743 89.894 123.183L88.903 123.515Z" />
<path d="M79.9862 125.216C79.7118 124.182 79.0228 123.735 77.8442 123.751C76.7031 123.83 76.1133 124.265 76.1625 124.92C76.1866 125.675 76.7254 125.868 77.7533 126.028L78.4804 126.109C79.7716 126.284 80.7491 126.644 80.8101 127.89C80.8963 129.036 79.9798 129.922 78.4125 129.997C76.7824 130.11 75.8806 129.448 75.5815 128.087L76.4845 127.893C76.7214 128.864 77.2726 129.22 78.3509 129.179C79.3917 129.074 79.9188 128.676 79.8696 128.021C79.8455 127.266 79.1436 127.084 78.1533 126.988L77.4262 126.906C76.135 126.732 75.2203 126.334 75.1593 125.088C75.0607 123.778 76.0898 123.082 77.7826 122.932C79.513 122.846 80.5778 123.497 80.8517 124.959L79.9862 125.216Z" />
<path d="M25.8351 50.5596L28.1728 46.3504L28.8243 46.7333L26.9515 50.1535L28.6303 51.1237L29.6359 49.2443C30.302 48.0794 31.4184 47.6733 32.4832 48.3239C33.6108 48.9372 33.8601 50.0719 33.194 51.2367L31.6607 53.9424L25.8351 50.5596ZM29.3445 51.4693L31.5997 52.696L32.58 50.9171C32.9823 50.1653 32.8327 49.4845 32.1185 49.1389C31.3668 48.73 30.7019 49.0391 30.3249 49.6904L29.3445 51.4693Z" />
<path d="M31.0625 42.0702L31.6277 41.3072L37.0511 45.4418L36.4858 46.2048L31.0625 42.0702Z" />
<path d="M41.4832 40.7591C40.2278 41.9317 39.0615 42.1109 38.0095 41.1961L38.5748 40.4331C39.3136 41.1062 40.1035 41.1504 41.0199 40.2645C41.7857 39.5535 41.8871 38.7237 41.3864 38.1659C40.7853 37.5821 40.1081 37.7275 39.2168 38.513L38.6393 39.1123L38.1385 38.5545L38.7161 37.9552C39.3564 37.3186 39.6583 36.5409 39.0573 35.957C38.594 35.4624 37.8165 35.5819 37.1135 36.2556C36.3477 36.9667 36.309 37.7592 36.8596 38.5439L36.1068 38.9908C35.3685 37.8899 35.4828 36.7959 36.6127 35.6978C37.7426 34.5997 38.9089 34.4205 39.7228 35.22C40.2236 35.7779 40.2728 36.4327 39.9081 37.2476C40.7237 36.7636 41.4508 36.845 42.0894 37.4921C42.9033 38.2916 42.6383 39.5605 41.4832 40.7591Z" />
<path d="M42.4623 30.6869L43.2404 30.1396L44.867 32.5943L48.1172 30.4943L46.4905 28.0395L47.3062 27.5554L51.0473 33.287L50.2692 33.8343L48.53 31.1898L45.2798 33.2899L47.019 35.9343L46.2409 36.4817L42.4623 30.6869Z" />
<path d="M52.1993 25.079L56.427 23.3393L56.7143 24.1094L53.3774 25.4914L54.2147 27.474L57.1377 26.2522L57.4251 27.0222L54.5021 28.244L55.3517 30.3904L58.7515 28.9711L59.0388 29.7412L54.7484 31.518L52.1993 25.079Z" />
<path d="M63.7769 21.2855C65.4199 20.9089 66.5851 21.5855 67.2101 22.9246L66.3195 23.2822C65.882 22.2593 65.0928 21.7872 63.964 22.0296C62.6095 22.3204 61.981 23.5485 62.3299 25.1371C62.7163 26.7888 63.7308 27.6403 65.0853 27.3494C66.214 27.107 66.842 26.3068 66.7558 25.1609L67.7086 25.1939C67.7942 26.7677 66.8901 27.8173 65.2096 28.1307C63.2154 28.6302 61.75 27.4478 61.3014 25.4055C60.9155 23.3258 61.8079 21.6846 63.7769 21.2855Z" />
<path d="M70.9459 23.3581L73.5916 23.2414L73.6532 24.0599L71.0075 24.1766L70.9459 23.3581Z" />
<path d="M78.1968 20.4226L79.1244 20.5561L78.7814 23.8378L82.4966 20.9488L83.5872 21.071L79.8721 23.96L83.0514 27.8874L81.8605 27.7391L78.7562 23.9383L78.3881 27.3204L77.4604 27.187L78.1968 20.4226Z" />
<path d="M86.4875 27.3872C86.9519 27.026 87.3043 26.0473 88.2735 23.249L88.6136 22.1066L93.3133 23.5925L91.3485 30.1454L90.4086 29.8482L92.1717 24.099L89.2516 23.1815L89.0628 23.7211C88.0555 26.8841 87.5401 27.874 86.9127 28.2464C86.4735 28.5071 85.9845 28.5408 85.3828 28.3848L85.4843 27.5551C85.8853 27.6591 86.2114 27.6366 86.4875 27.3872Z" />
<path d="M99.4833 31.9868L96.7145 30.4665L95.2081 31.788L94.3561 31.3531L99.9669 26.6549L100.819 27.0898L100.094 34.4458L99.2424 34.0109L99.4833 31.9868ZM99.5847 31.157L99.9529 27.7748L97.3671 29.9936L99.5847 31.157Z" />
<path d="M109.024 32.4805C110.314 33.5104 110.576 34.8088 109.959 36.2006L109.107 35.7657C109.623 34.7758 109.524 33.894 108.547 33.1058C107.432 32.2283 106.14 32.4819 105.06 33.807C104.043 35.0948 104.016 36.4789 105.131 37.3564C106.07 38.0814 107.048 38.014 107.877 37.2657L108.49 38.0132C107.322 39.0481 105.943 39.0116 104.653 37.9817C103.05 36.71 103.04 34.8349 104.296 33.2344C105.615 31.5967 107.521 31.2348 109.024 32.4805Z" />
<path d="M114.909 37.9654L115.485 38.6497L111.293 42.164L118.014 41.7663L118.59 42.4506L113.38 46.8249L112.805 46.1406L116.934 42.6635L110.213 43.0612L109.638 42.3769L114.909 37.9654Z" />
<path d="M121.655 47.0439L122.08 47.9032L119.182 49.4524L123.618 50.9235L124.119 51.9092L119.745 50.4009L118.309 55.2718L117.734 54.1597L119.119 49.4896L116.158 51.0761L115.67 50.2541L121.655 47.0439Z" />
<path d="M122.538 61.3977L121.527 58.4068L119.584 58.2776L119.322 57.4071L126.668 57.9206L126.968 58.8543L121.357 63.5525L121.057 62.6188L122.538 61.3977ZM123.154 60.8616L125.777 58.7061L122.354 58.5143L123.154 60.8616Z" />

</svg>
