<svg width="14" height="18" viewBox="0 0 14 18" fill="none" xmlns="http://www.w3.org/2000/svg">
<path d="M4.56205 0.642414C4.48839 0.650807 4.41879 0.68057 4.36183 0.728033C4.30487 0.775497 4.26305 0.838588 4.24151 0.909531L3.82006 2.27479L0.584978 2.27479C0.484225 2.2748 0.387602 2.31483 0.316359 2.38608C0.245116 2.45732 0.205088 2.55394 0.205078 2.65469L0.205078 4.91628C0.205088 5.01704 0.245116 5.11366 0.316359 5.1849C0.387602 5.25614 0.484225 5.29617 0.584978 5.29618L13.1217 5.29618C13.2224 5.29617 13.319 5.25614 13.3903 5.1849C13.4615 5.11366 13.5016 5.01704 13.5016 4.91628V2.65469C13.5016 2.55394 13.4615 2.45732 13.3903 2.38608C13.319 2.31483 13.2224 2.2748 13.1217 2.27479H9.88658L9.46513 0.909531C9.4411 0.832245 9.39301 0.764654 9.32788 0.716606C9.26275 0.668558 9.18397 0.642565 9.10304 0.642414L4.6036 0.642414C4.58976 0.641656 4.57589 0.641656 4.56205 0.642414ZM4.88259 1.40221L8.82405 1.40221L9.09116 2.27479L4.61547 2.27479L4.88259 1.40221ZM0.964877 3.03459L12.7418 3.03459V4.53638L0.964877 4.53638L0.964877 3.03459ZM12.3381 5.75325C12.2405 5.75784 12.1484 5.79988 12.0809 5.87063C12.0135 5.94139 11.9759 6.03541 11.976 6.13315L11.0619 16.5982H2.64475L1.73061 6.13315C1.72456 6.03657 1.68187 5.94594 1.61127 5.87975C1.54068 5.81357 1.44748 5.77681 1.35071 5.77699C1.29763 5.77751 1.24524 5.78914 1.19693 5.81115C1.14862 5.83315 1.10545 5.86504 1.07022 5.90474C1.03499 5.94445 1.00846 5.9911 0.992365 6.04169C0.976266 6.09228 0.970946 6.14568 0.976749 6.19844L2.0096 17.358H2.10458C2.19955 17.358 2.19871 17.3583 2.29453 17.358L11.4121 17.358C11.4121 17.358 11.6021 17.358 11.697 17.358L12.7299 6.19844C12.7397 6.14237 12.7368 6.08479 12.7214 6.02998C12.706 5.97517 12.6785 5.92453 12.6409 5.88178C12.6033 5.83904 12.5565 5.8053 12.5041 5.78305C12.4517 5.7608 12.395 5.75062 12.3381 5.75325ZM6.81177 7.0176C6.71838 7.02789 6.63211 7.07241 6.56963 7.14257C6.50714 7.21273 6.47287 7.30355 6.47342 7.3975L6.47342 14.1823C6.47271 14.2326 6.48201 14.2826 6.50078 14.3293C6.51956 14.376 6.54742 14.4185 6.58277 14.4544C6.61812 14.4902 6.66024 14.5187 6.70669 14.5381C6.75313 14.5576 6.80297 14.5676 6.85332 14.5676C6.90367 14.5676 6.95351 14.5576 6.99995 14.5381C7.0464 14.5187 7.08852 14.4902 7.12387 14.4544C7.15921 14.4185 7.18708 14.376 7.20586 14.3293C7.22463 14.2826 7.23393 14.2326 7.23322 14.1823L7.23322 7.3975C7.23353 7.34392 7.22251 7.29087 7.20087 7.24185C7.17924 7.19283 7.14747 7.14893 7.10767 7.11306C7.06787 7.07718 7.02093 7.05013 6.96993 7.03367C6.91893 7.01722 6.86503 7.01175 6.81177 7.0176ZM3.71915 7.39157C3.61922 7.40347 3.5281 7.45453 3.46578 7.53355C3.40346 7.61256 3.37503 7.71307 3.38674 7.81302L4.00407 13.8439C4.00914 13.8938 4.02398 13.9422 4.04776 13.9864C4.07153 14.0305 4.10377 14.0696 4.14263 14.1012C4.18149 14.1329 4.22621 14.1567 4.27424 14.1711C4.32227 14.1855 4.37267 14.1903 4.42256 14.1852C4.47245 14.1802 4.52085 14.1653 4.565 14.1416C4.60915 14.1178 4.64819 14.0855 4.67988 14.0467C4.71158 14.0078 4.73531 13.9631 4.74972 13.9151C4.76413 13.867 4.76894 13.8166 4.76387 13.7668L4.14654 7.73585C4.14215 7.68476 4.12747 7.63509 4.10337 7.58982C4.07928 7.54456 4.04627 7.50464 4.00634 7.47247C3.9664 7.44031 3.92037 7.41655 3.87102 7.40265C3.82166 7.38874 3.77 7.38497 3.71915 7.39157ZM9.89845 7.39157C9.8109 7.40086 9.72929 7.44027 9.66758 7.50307C9.60586 7.56587 9.56787 7.64815 9.5601 7.73585L8.94277 13.7668C8.9377 13.8166 8.94251 13.867 8.95692 13.9151C8.97133 13.9631 8.99506 14.0078 9.02675 14.0467C9.05845 14.0855 9.09749 14.1178 9.14164 14.1416C9.18579 14.1653 9.23419 14.1802 9.28408 14.1852C9.33397 14.1903 9.38437 14.1855 9.4324 14.1711C9.48043 14.1567 9.52515 14.1329 9.56401 14.1012C9.60287 14.0696 9.63511 14.0305 9.65888 13.9864C9.68266 13.9422 9.6975 13.8938 9.70257 13.8439L10.3199 7.81302C10.3266 7.75606 10.3202 7.69835 10.3014 7.64418C10.2826 7.59002 10.2517 7.54083 10.2112 7.50028C10.1706 7.45974 10.1214 7.42889 10.0673 7.41007C10.0131 7.39124 9.9554 7.38491 9.89845 7.39157Z" fill="#706A75"/>
</svg>
