<svg class="arr_logo_svg" width="11" height="73" fill="none" xmlns="http://www.w3.org/2000/svg"><g class="arr"><path d="M5.053 71.785l3.416-3.37H1.637l3.416 3.37z" fill="#9A959E"/><path d="M5.053 28.914v42.871m0 0l3.416-3.37H1.637l3.416 3.37z" stroke="#9A959E" stroke-width=".683"/></g><path d="M4.404 2.65l2.648 1.883a.92.92 0 001.204-.127l1.85-1.942-.42-.351-.5.547a.413.413 0 01-.543.059L6.204.996 2.01 4.775l-.004 2.151 5.484 4.472.018 3.83s-3.843-3.182-4.002-3.31c-.434-.346-.953-.255-1.24.041C2.019 12.219 0 14.252 0 14.252l.438.365.574-.584c.32-.333.834-.405 1.272-.054.802.647 3.697 2.972 3.697 2.972l3.865-3.333v-3.19L4.404 5.886V2.65z" fill="#706A75"/></svg>