<svg version="1.1" id="Слой_1" xmlns="http://www.w3.org/2000/svg" xmlns:xlink="http://www.w3.org/1999/xlink" x="0px" y="0px" viewBox="0 0 269.9 385.3" style="enable-background:new 0 0 269.9 385.3;" xml:space="preserve">
                            <style type="text/css">
                                .st0{fill:#bb8064;}
                                .st1{
                                    fill:#ffffff;
                                    transition: all 0.5s;
                                }
                                .st2{fill:#bb8064;}
                                a:hover .st1{
                                    fill: #bb8064;
                                    opacity: 0.8;
                                }
																a.active:not(#ghj) .text polygon,
																a.active:not(#ghj) .text path{
																	fill: #fff;
                                    opacity: 1;
																}
                            </style>
                           <!-- <a href="/floor/z">-->
                                <path class="st0" d="M260.8,240.2v-230h-77v-2h-2H61.4v2h-46v220.3h3v67.7h-3v71.7h72v-0.3v-3.1h57.5v3.1v0.3h79.9v-69.7h0.4v-2
                                    h-0.4v-58H260.8z M258.8,158.9h-43.4V82.2h43.4V158.9z M183.8,12.2h30.6h0.1h44.3v68h-43.4V52.9h-0.9h-0.1h-30.6V12.2z M63.4,10.2
                                    h118.4v1v41.7H63.4V10.2z M62.4,230.5h1v67.7h-43v-67.7H62.4z M17.4,12.2h44v41.9v34.8h-44V12.2z M17.4,228.5V90.9h44v137.6H17.4z
                                     M85.4,367.9h-23h-45v-67.7h1h1h42v26h1h23V367.9z M85.4,318.2v0.2v5.8h-22v-24h2v-71.7h-2V54.9h118.4h1h30.6v183.3h-36v86.3h-30.5
                                    v-6.1v-0.2H85.4z M144.9,364.5H87.4v-39.3v-1v-4h57.5V364.5z M222.8,325.5v42.4h-75.9v-1.4v-1v-39h32.5v-1v-25.3h43.4V325.5z
                                     M222.8,298.2h-43.4v-58h43.4V298.2z M223.8,238.2h-8.4v-77.3h43.4v77.3h-34H223.8z"></path>
                                <path class="st0" d="M148.1,323.5h28.3v-87h35.7V56.2H64.4v170.3h3.7v73.4h-2.3v23.6h19.3v-6.6h63V323.5z M83.1,314.9v6.6H67.8
                                    v-19.6h2.3v-77.4h-3.7V58.2h143.7v176.3h-35.7v87h-24.3v-6.6H83.1z"></path>
                           <!-- </a> -->
                           <!-- <a href="/floor/?dom=1&floor=6&section=104">-->
                                <polygon class="st1" points="17.4,12.2 17.4,88.9 61.4,88.9 61.4,54.1 61.4,12.2  "></polygon>
                                <g class="text">
                                    <polygon class="st2" points="33.3,45.4 33.5,45.9 34.4,45.4 34.4,45.4 34.4,50 35.1,50 35.1,44.8 34.5,44.8        "></polygon>
                                    <path class="st2" d="M38.7,44.7c-1.1,0-1.8,1-1.8,2.7c0,1.7,0.7,2.7,1.7,2.7c1.1,0,1.8-1,1.8-2.7C40.4,45.7,39.8,44.7,38.7,44.7z
                                         M38.7,49.5c-0.6,0-1.1-0.8-1.1-2.1c0-1.4,0.4-2.2,1.1-2.2c0.7,0,1.1,0.8,1.1,2.1C39.7,48.7,39.4,49.5,38.7,49.5z"></path>
                                    <path class="st2" d="M43.9,44.8h-0.8l-2.3,3.3v0.5h2.4V50h0.7v-1.4h0.7V48h-0.7V44.8z M43.3,46.3V48h-1.7v0l1.3-1.8
                                        c0.1-0.2,0.3-0.5,0.4-0.8h0C43.3,45.7,43.3,46,43.3,46.3z"></path>
                                </g>
                           <!-- </a>-->
                            <!--<a href="/floor/">-->
                                <rect x="17.4" y="90.9" class="st1" width="44" height="137.6"></rect>
                                <g class="text">
                                    <polygon class="st2" points="33.5,158.6 34.4,158.1 34.4,158.1 34.4,162.7 35.1,162.7 35.1,157.5 34.5,157.5 33.3,158.1        "></polygon>
                                    <path class="st2" d="M38.6,162.8c1.1,0,1.8-1,1.8-2.7c0-1.7-0.6-2.6-1.7-2.6c-1.1,0-1.8,1-1.8,2.7
                                        C36.9,161.8,37.6,162.8,38.6,162.8z M38.7,157.9c0.7,0,1.1,0.8,1.1,2.1c0,1.3-0.3,2.2-1.1,2.2c-0.6,0-1.1-0.8-1.1-2.1
                                        C37.6,158.7,38.1,157.9,38.7,157.9z"></path>
                                    <path class="st2" d="M44.3,161.2c0-0.7-0.5-1.2-1.2-1.3v0c0.6-0.2,1-0.7,1-1.2c0-0.6-0.5-1.2-1.5-1.2c-0.6,0-1.1,0.2-1.4,0.4
                                        l0.2,0.5c0.2-0.2,0.6-0.3,1-0.3c0.6,0,0.9,0.4,0.9,0.8c0,0.6-0.6,0.9-1.2,0.9h-0.4v0.5h0.4c0.7,0,1.3,0.3,1.3,1c0,0.4-0.3,1-1.2,1
                                        c-0.5,0-1-0.2-1.2-0.3l-0.2,0.5c0.3,0.2,0.8,0.4,1.4,0.4C43.6,162.8,44.3,162,44.3,161.2z"></path>
                                </g>
                           <!-- </a>-->
                            <!--<a href="/floor/">-->
                                <polygon class="st1" points="62.4,230.5 20.4,230.5 20.4,298.2 63.4,298.2 63.4,230.5     "></polygon>
                                <g class="text">
                                    <polygon class="st2" points="36,262.4 36.1,263 37,262.5 37.1,262.5 37.1,267 37.7,267 37.7,261.8 37.1,261.8      "></polygon>
                                    <path class="st2" d="M41.4,261.7c-1.1,0-1.8,1-1.8,2.7c0,1.7,0.7,2.7,1.7,2.7c1.1,0,1.8-1,1.8-2.7
                                        C43.1,262.7,42.5,261.7,41.4,261.7z M41.3,266.6c-0.6,0-1.1-0.8-1.1-2.1c0-1.4,0.4-2.2,1.1-2.2c0.7,0,1.1,0.8,1.1,2.1
                                        C42.4,265.7,42,266.6,41.3,266.6z"></path>
                                    <path class="st2" d="M44.7,266.4l0.4-0.4c1.1-1.1,1.8-1.8,1.8-2.8c0-0.7-0.5-1.5-1.6-1.5c-0.6,0-1.1,0.2-1.5,0.5l0.2,0.5
                                        c0.2-0.2,0.6-0.4,1.1-0.4c0.8,0,1,0.5,1,1c0,0.8-0.6,1.5-1.9,2.7l-0.6,0.5v0.4h3.3v-0.6L44.7,266.4L44.7,266.4z"></path>
                                </g>
                           <!-- </a>-->
                            <!--<a href="/floor/">-->
                                <polygon class="st1" points="62.4,326.2 61.4,326.2 61.4,300.2 19.4,300.2 18.4,300.2 17.4,300.2 17.4,367.9 62.4,367.9 
                                    85.4,367.9 85.4,326.2   "></polygon>
                                <g class="text">
                                    <polygon class="st2" points="40.3,345.1 40.4,345.6 41.3,345.1 41.3,345.1 41.3,349.7 42,349.7 42,344.5 41.4,344.5        "></polygon>
                                    <path class="st2" d="M45.6,344.4c-1.1,0-1.8,1-1.8,2.7c0,1.7,0.7,2.7,1.7,2.7c1.1,0,1.8-1,1.8-2.7
                                        C47.3,345.4,46.7,344.4,45.6,344.4z M45.6,349.2c-0.6,0-1.1-0.8-1.1-2.1c0-1.4,0.4-2.2,1.1-2.2c0.7,0,1.1,0.8,1.1,2.1
                                        C46.6,348.4,46.3,349.2,45.6,349.2z"></path>
                                    <polygon class="st2" points="48.5,345.1 48.6,345.6 49.5,345.1 49.5,345.1 49.5,349.7 50.2,349.7 50.2,344.5 49.6,344.5        "></polygon>
                                </g>
                            <!--</a>-->
                            <!--<a href="/floor1/">-->
                                <polygon class="st1" points="87.4,320.2 87.4,324.2 87.4,325.2 87.4,364.5 144.9,364.5 144.9,320.2    "></polygon>
                                <g class="text">
                                    <polygon class="st2" points="110.9,340.5 110.9,340.5 110.9,345 111.6,345 111.6,339.8 111,339.8 109.8,340.4 110,341      "></polygon>
                                    <polygon class="st2" points="115,340.5 115,340.5 115,345 115.7,345 115.7,339.8 115.1,339.8 113.9,340.4 114.1,341        "></polygon>
                                    <polygon class="st2" points="119.1,340.5 119.1,340.5 119.1,345 119.8,345 119.8,339.8 119.2,339.8 118,340.4 118.2,341        "></polygon>
                                </g>
                            <!--</a>-->
                            <!--<a href="/floor/">-->
                                <polygon class="st1" points="179.4,300.2 179.4,325.5 179.4,326.5 146.9,326.5 146.9,365.5 146.9,366.5 146.9,367.9 222.8,367.9 
                                    222.8,325.5 222.8,300.2     "></polygon>
                                <g class="text">
                                    <polygon class="st2" points="190.5,345.6 191.4,345.1 191.4,345.1 191.4,349.7 192.1,349.7 192.1,344.5 191.5,344.5 190.3,345.1 
                                                "></polygon>
                                    <polygon class="st2" points="195.5,345.1 195.5,345.1 195.5,349.7 196.2,349.7 196.2,344.5 195.6,344.5 194.4,345.1 194.6,345.6 
                                                "></polygon>
                                    <path class="st2" d="M199.7,349.8c1.1,0,1.8-1,1.8-2.7c0-1.7-0.6-2.6-1.7-2.6c-1.1,0-1.8,1-1.8,2.7
                                        C198,348.8,198.7,349.8,199.7,349.8z M199.8,344.9c0.7,0,1.1,0.8,1.1,2.1c0,1.3-0.3,2.2-1.1,2.2c-0.6,0-1.1-0.8-1.1-2.1
                                        C198.7,345.7,199.2,344.9,199.8,344.9z"></path>
                                </g>
                            <!--</a>-->
                           <a class="active" href="/floor/?dom=1&amp;floor=5&amp;section=105">
                                <polygon class="st1" points="63.4,10.2 63.4,52.9 181.8,52.9 181.8,11.2 181.8,10.2   "></polygon>
                                <g class="text">
                                    <polygon class="st2" points="117,30.7 117.1,31.2 118,30.8 118.1,30.8 118.1,35.3 118.7,35.3 118.7,30.1 118.1,30.1        "></polygon>
                                    <path class="st2" d="M122.4,30c-1.1,0-1.8,1-1.8,2.7c0,1.7,0.7,2.7,1.7,2.7c1.1,0,1.8-1,1.8-2.7C124.1,31,123.5,30,122.4,30z
                                         M122.3,34.8c-0.6,0-1.1-0.8-1.1-2.1c0-1.4,0.4-2.2,1.1-2.2c0.7,0,1.1,0.8,1.1,2.1C123.4,34,123,34.8,122.3,34.8z"></path>
                                    <path class="st2" d="M127.2,32.3c-0.3-0.2-0.7-0.3-1.1-0.3c-0.2,0-0.3,0-0.4,0l0.2-1.3h2v-0.6h-2.5l-0.3,2.5c0.2,0,0.4,0,0.7,0
                                        c1,0,1.5,0.5,1.5,1.1c0,0.7-0.6,1.1-1.2,1.1c-0.5,0-0.9-0.2-1.1-0.3l-0.2,0.5c0.3,0.2,0.7,0.3,1.3,0.3c1.1,0,1.9-0.8,1.9-1.8
                                        C127.9,33,127.6,32.5,127.2,32.3z"></path>
                                </g>
                            </a>
                         <a href="/floor/?dom=1&amp;floor=5&amp;section=106">
                                <polygon class="st1" points="215.1,12.2 214.5,12.2 214.4,12.2 212.1,12.2 183.8,12.2 183.8,52.9 212.1,52.9 214.4,52.9 
                                    214.5,52.9 215.1,52.9 215.4,52.9 215.4,80.2 258.8,80.2 258.8,12.2   "></polygon>
                                <g class="text">
                                    <polygon class="st2" points="225.6,30.8 225.6,30.8 225.6,35.3 226.3,35.3 226.3,30.1 225.7,30.1 224.6,30.7 224.7,31.2        "></polygon>
                                    <path class="st2" d="M229.9,35.4c1.1,0,1.8-1,1.8-2.7c0-1.7-0.6-2.6-1.7-2.6c-1.1,0-1.8,1-1.8,2.7
                                        C228.2,34.4,228.9,35.4,229.9,35.4z M229.9,30.6c0.7,0,1.1,0.8,1.1,2.1c0,1.3-0.3,2.2-1.1,2.2c-0.6,0-1.1-0.8-1.1-2.1
                                        C228.9,31.3,229.3,30.6,229.9,30.6z"></path>
                                    <path class="st2" d="M234.1,35.4c1.1,0,1.7-0.9,1.7-1.8c0-1-0.6-1.7-1.6-1.7c-0.6,0-1,0.3-1.3,0.6h0c0.1-0.9,0.7-1.7,1.8-1.8
                                        c0.2,0,0.4,0,0.5,0V30c-0.1,0-0.3,0-0.5,0c-0.7,0.1-1.2,0.3-1.7,0.8c-0.5,0.5-0.9,1.3-0.9,2.3C232.2,34.5,233,35.4,234.1,35.4z
                                         M233,33c0.2-0.4,0.6-0.6,1-0.6c0.6,0,1.1,0.4,1.1,1.2c0,0.7-0.4,1.2-1,1.2c-0.7,0-1.1-0.6-1.2-1.5C232.9,33.2,233,33.1,233,33z"></path>
                                </g>
                           </a>
                            <!--<a href="/floor/">-->
                                <rect x="215.4" y="82.2" class="st1" width="43.4" height="76.7"></rect>
                                <g class="text">
                                    <polygon class="st2" points="232.9,119.1 233.8,118.6 233.8,118.6 233.8,123.2 234.5,123.2 234.5,118 233.9,118 232.8,118.6        "></polygon>
                                    <path class="st2" d="M238,123.3c1.1,0,1.8-1,1.8-2.7c0-1.7-0.6-2.6-1.7-2.6c-1.1,0-1.8,1-1.8,2.7C236.3,122.3,237,123.3,238,123.3
                                        z M238.1,118.4c0.7,0,1.1,0.8,1.1,2.1c0,1.3-0.3,2.2-1.1,2.2c-0.6,0-1.1-0.8-1.1-2.1C237,119.2,237.5,118.4,238.1,118.4z"></path>
                                    <polygon class="st2" points="243.1,118.6 240.9,123.2 241.6,123.2 243.9,118.5 243.9,118 240.6,118 240.6,118.6 243.1,118.6        "></polygon>
                                </g>
                           <!-- </a>-->
                           <!-- <a href="/floor/">-->
                                <polygon class="st1" points="215.4,160.9 215.4,238.2 223.8,238.2 224.8,238.2 258.8,238.2 258.8,160.9    "></polygon>
                                <g class="text">
                                    <polygon class="st2" points="232.8,196.6 232.9,197.1 233.8,196.6 233.8,196.6 233.8,201.2 234.5,201.2 234.5,196 233.9,196        "></polygon>
                                    <path class="st2" d="M238.1,195.9c-1.1,0-1.8,1-1.8,2.7c0,1.7,0.7,2.7,1.7,2.7c1.1,0,1.8-1,1.8-2.7
                                        C239.9,196.9,239.2,195.9,238.1,195.9z M238.1,200.7c-0.6,0-1.1-0.8-1.1-2.1c0-1.4,0.4-2.2,1.1-2.2c0.7,0,1.1,0.8,1.1,2.1
                                        C239.1,199.9,238.8,200.7,238.1,200.7z"></path>
                                    <path class="st2" d="M242.9,198.4L242.9,198.4c0.6-0.3,0.9-0.8,0.9-1.2c0-0.7-0.5-1.3-1.5-1.3c-0.9,0-1.6,0.6-1.6,1.4
                                        c0,0.4,0.2,0.9,0.8,1.2l0,0c-0.6,0.3-1,0.7-1,1.4c0,0.8,0.7,1.4,1.7,1.4c1,0,1.8-0.6,1.8-1.5C243.9,199.1,243.5,198.7,242.9,198.4
                                        z M241.3,197.2c0-0.4,0.3-0.8,0.9-0.8c0.6,0,0.9,0.4,0.9,0.8c0,0.5-0.3,0.8-0.8,0.9C241.7,198,241.3,197.8,241.3,197.2z
                                         M242.2,200.8c-0.7,0-1.1-0.5-1-1c0-0.5,0.3-0.9,0.9-1.1c0.7,0.2,1.1,0.5,1.1,1.1C243.2,200.4,242.8,200.8,242.2,200.8z"></path>
                                </g>
                            <!--</a>-->
                            <!--<a href="/floor/">-->
                                <rect x="179.4" y="240.2" class="st1" width="43.4" height="58"></rect>
                                <g class="text">
                                    <polygon class="st2" points="194.9,265.9 195.1,266.5 196,266 196,266 196,270.5 196.7,270.5 196.7,265.3 196.1,265.3      "></polygon>
                                    <path class="st2" d="M200.3,265.2c-1.1,0-1.8,1-1.8,2.7c0,1.7,0.7,2.7,1.7,2.7c1.1,0,1.8-1,1.8-2.7
                                        C202,266.2,201.4,265.2,200.3,265.2z M200.3,270.1c-0.6,0-1.1-0.8-1.1-2.1c0-1.4,0.4-2.2,1.1-2.2c0.7,0,1.1,0.8,1.1,2.1
                                        C201.3,269.2,201,270.1,200.3,270.1z"></path>
                                    <path class="st2" d="M204.4,265.2c-1.1,0-1.8,0.9-1.8,1.8c0,0.9,0.6,1.6,1.5,1.6c0.5,0,0.9-0.2,1.2-0.6h0
                                        c-0.1,0.6-0.3,1.1-0.7,1.4c-0.3,0.3-0.7,0.4-1.1,0.5c-0.2,0-0.4,0-0.6,0v0.6c0.2,0,0.4,0,0.6,0c0.6-0.1,1.1-0.3,1.5-0.7
                                        c0.5-0.5,0.9-1.3,0.9-2.4C206.1,266.1,205.5,265.2,204.4,265.2z M205.3,267.6c-0.2,0.3-0.6,0.5-1,0.5c-0.6,0-1-0.5-1-1.1
                                        c0-0.7,0.4-1.3,1-1.3c0.7,0,1.1,0.7,1.1,1.6C205.4,267.5,205.4,267.5,205.3,267.6z"></path>
                                </g>
                            <!--</a>-->
                            </svg>