<svg xmlns="http://www.w3.org/2000/svg" width="30" height="37" viewBox="0 0 30 37"><g><g><path fill="#bb8064" d="M14.465.008C6.995.266.79 5.998.072 13.316a14.601 14.601 0 0 0 .2 4.239s.023.16.1.462a14.625 14.625 0 0 0 1.01 2.927c1.504 3.504 4.98 9.365 12.783 15.742a1.32 1.32 0 0 0 1.665 0c7.802-6.37 11.279-12.23 12.79-15.75.44-.924.779-1.902 1.01-2.926a14.6 14.6 0 0 0 .37-3.26C30 6.422 22.992-.289 14.465.007z"/></g><g><path fill="#fff" d="M18.927 15.744c.715.549 1.073 1.341 1.073 2.378 0 1.077-.42 1.972-1.262 2.683-.652.528-1.525.864-2.618 1.006V23h-2.24v-1.22c-1.03-.142-1.872-.457-2.524-.945C10.452 20.145 10 19.2 10 18h2.397c.064.488.221.874.474 1.159.231.264.567.457 1.01.579v-3.171c-1.2-.264-2.02-.549-2.461-.854-.82-.548-1.23-1.392-1.23-2.53 0-1.057.399-1.931 1.198-2.622.61-.529 1.44-.854 2.492-.976V8h2.24v1.646c.799.143 1.493.427 2.082.854.904.65 1.377 1.585 1.42 2.805h-2.43c-.042-.691-.368-1.179-.978-1.464 0-.02-.01-.03-.031-.03-.021 0-.042-.01-.063-.03v2.957l.725.152c.926.224 1.62.508 2.082.854zM13.88 14.22v-2.592a3.216 3.216 0 0 0-.757.305c-.4.244-.6.6-.6 1.067 0 .427.2.742.6.945.147.081.4.173.757.275zm3.69 4.115c0-.386-.178-.69-.535-.914-.21-.122-.516-.244-.915-.366v2.713c.147-.02.273-.05.378-.091.715-.244 1.073-.691 1.073-1.342z"/></g></g></svg>