<svg xmlns="http://www.w3.org/2000/svg" width="30" height="37" viewBox="0 0 30 37"><g><g><path fill="#bb8064" d="M14.465.008C6.995.266.788 5.998.072 13.316a14.604 14.604 0 0 0 .2 4.239s.023.159.1.462a14.625 14.625 0 0 0 1.01 2.927c1.503 3.504 4.98 9.365 12.783 15.742a1.32 1.32 0 0 0 1.665 0c7.802-6.37 11.279-12.23 12.79-15.75.44-.924.779-1.903 1.01-2.926a14.6 14.6 0 0 0 .37-3.26C30 6.422 22.992-.289 14.465.007z"/></g><g><path fill="#fff" d="M11.186 15.598c0-2.666 2.085-4.835 4.647-4.835 2.562 0 4.646 2.17 4.646 4.835 0 2.666-2.084 4.834-4.646 4.834-2.563 0-4.647-2.168-4.647-4.834zm-1.247 0c0-3.387 2.639-6.132 5.894-6.132 3.255 0 5.893 2.745 5.893 6.132 0 3.386-2.638 6.132-5.893 6.132s-5.894-2.746-5.894-6.132zm.903 0c0 2.863 2.239 5.192 4.991 5.192s4.99-2.329 4.99-5.192-2.238-5.192-4.99-5.192c-2.752 0-4.99 2.33-4.99 5.192zm13.3 7.239c-.285 0-.86-.24-.86-.537l.343-5.903c-.43-1.005-1.695-2.102-1.542-4.811.1-1.776 1.304-3.09 1.681-3.412a.533.533 0 0 1 .132-.106l.033-.023v.005a.49.49 0 0 1 .213-.05c.284 0 .515.241.515.538l.344 13.762c0 .297-.575.537-.86.537zM4.998 12.4V8.85c0-.297.232-.538.516-.538.285 0 .516.24.516.537v3.134h.286v-3.25c0-.296.231-.537.516-.537.284 0 .515.24.515.537v3.25h.288v-3.25c0-.296.231-.537.516-.537.284 0 .515.24.515.537v3.25h.287v-3.25c0-.296.231-.537.516-.537.284 0 .515.24.515.537v3.607c0 .58-.358 1.245-.834 1.547l-.66.418a1.506 1.506 0 0 1-.34.153l.344 8.092c0 .249-.574.45-.86.45-.284 0-.859-.202-.859-.45l.344-8.051a1.466 1.466 0 0 1-.33-.12l-.89-.463c-.513-.267-.9-.919-.9-1.516z"/></g></g></svg>