<svg xmlns="http://www.w3.org/2000/svg" width="30" height="36.98" viewBox="0 0 30 36.98">
  <defs>
    <style>
      .a {
        fill: #bb8064;
      }

      .b {
        fill: #fff;
      }
    </style>
  </defs>
  <title>Asset 3</title>
  <g>
    <path class="a" d="M14.46,0A14.94,14.94,0,0,0,.07,13.32a14.72,14.72,0,0,0,.2,4.24,3.87,3.87,0,0,0,.1.46,14.51,14.51,0,0,0,1,2.93c1.51,3.5,5,9.36,12.78,15.74a1.34,1.34,0,0,0,1.67,0c7.8-6.37,11.28-12.23,12.79-15.75a13.9,13.9,0,0,0,1-2.93A14.88,14.88,0,0,0,30,14.75,14.88,14.88,0,0,0,14.46,0Z"/>
    <g>
      <path class="b" d="M19.52,14.58V13.31l1.8,1.13.54-.87-6.38-4V7.1H16.6v-1H15.48V5h-1v1.1H13.4v1h1.06V9.59l-6.33,4,.55.87,1.79-1.13v1.27L6.22,17.1v5.44H23.78V17.1ZM7.24,21.52V17.68l3.23-1.92v5.76Zm7.25,0V18a.51.51,0,1,1,1,0v3.52Zm2,0V18a1.54,1.54,0,1,0-3.07,0v3.52h-2V12.66l3.5-2.2,3.5,2.2v8.86Zm6.23,0H19.52V15.76l3.24,1.92Z"/>
      <path class="b" d="M14.49,13h1v2h-1Z"/>
      <path class="b" d="M8.38,18.31h1v1.93h-1Z"/>
      <path class="b" d="M20.6,18.31h1v1.93h-1Z"/>
    </g>
  </g>
</svg>
