<svg xmlns="http://www.w3.org/2000/svg" width="30" height="37" viewBox="0 0 30 37"><g><g><path fill="#bb8064" d="M14.465.008C6.995.266.788 5.998.071 13.316a14.601 14.601 0 0 0 .201 4.239s.023.16.1.462a14.625 14.625 0 0 0 1.01 2.927c1.503 3.504 4.98 9.365 12.782 15.742a1.32 1.32 0 0 0 1.666 0c7.802-6.37 11.279-12.23 12.79-15.75.44-.924.779-1.902 1.01-2.926a14.6 14.6 0 0 0 .37-3.26C30 6.422 22.992-.289 14.465.007z"/></g><g><path fill="#fff" d="M19.128 8.997c-1.65 0-1.959 1.567-3.628 1.567-1.67 0-1.978-1.567-3.627-1.567-2.02 0-2.873 2-2.873 3.954 0 1.955 1.712 9.046 3.731 9.046.854 0 1.05-4.535 2.769-4.535 1.718 0 1.914 4.535 2.768 4.535 2.02 0 3.732-7.09 3.732-9.046 0-1.955-.853-3.954-2.872-3.954z"/></g></g></svg>