<svg xmlns="http://www.w3.org/2000/svg" width="30" height="37" viewBox="0 0 30 37"><g><g><path fill="#bb8064" d="M14.465.008C6.995.266.79 5.998.072 13.316a14.599 14.599 0 0 0 .2 4.239s.023.16.1.462a14.62 14.62 0 0 0 1.01 2.927c1.503 3.504 4.98 9.365 12.783 15.742a1.32 1.32 0 0 0 1.665 0c7.802-6.37 11.279-12.23 12.79-15.75.44-.924.779-1.902 1.01-2.926a14.6 14.6 0 0 0 .37-3.26C30 6.422 22.992-.289 14.465.007z"/></g><g><path fill="#fff" d="M14.217 11.164c.82-.007 1.726-.088 2.472-.47a1.8 1.8 0 0 1 .313 1.01c0 1.082-.985 1.963-2.196 1.963-1.21 0-2.195-.88-2.195-1.964 0-.127.014-.252.04-.372.508-.142 1.018-.163 1.566-.167zM25 19.656a6.58 6.58 0 0 1-1.184.732c-1.356.668-2.863 1.032-4.35 1.27-1.86.3-3.756.39-5.638.318-1.761-.067-3.531-.275-5.239-.722-1.255-.329-2.562-.784-3.59-1.598l1.005-1.245c.268.212.629.425 1.074.629.426-1.354 1.634-4.704 3.665-6.571-.072.005-1.221.202-2.197 1.263l-1.294-1.347c.177-.14 2.279-2.105 4.71-1.002a2.432 2.432 0 0 0-.021.32c0 1.45 1.285 2.629 2.865 2.629 1.58 0 2.866-1.18 2.866-2.629 0-.506-.157-.98-.429-1.38.52-.453.79-1.085 1.025-1.716.236-.632.475-1.285.982-1.758.73-.68 1.801-.83 2.761-.849l.307 1.421c1.212 1.126 1.941 3.282 1.122 5.202-.417.056-.82-.01-1.176-.24-.226-.146-.434-.373-.708-.427-.675-.134-1.051.607-1.105 1.148-.094.932.222 1.907.553 2.766a16.638 16.638 0 0 0 1.72 3.257c.537-.23.965-.473 1.272-.716zm-4.26.115a8.004 8.004 0 0 0-.052-.074c-1.34-1.877-3.427-3.384-5.796-3.526-2.574-.154-4.818 1.383-6.182 3.455 1.919.544 3.935.75 5.925.775 2.045.025 4.116-.14 6.105-.63z"/></g></g></svg>