<svg width="67" height="85" viewBox="0 0 67 85" fill="none" xmlns="http://www.w3.org/2000/svg">
<g clip-path="url(#clip0)">
<path d="M32.3113 -0.013005C15.6223 0.579995 1.76128 13.76 0.158278 30.582C-0.154266 33.8352 -0.00342798 37.1162 0.606278 40.327C0.606278 40.327 0.658278 40.693 0.830278 41.39C1.34737 43.7053 2.10343 45.9608 3.08628 48.12C6.44528 56.172 14.2113 69.648 31.6393 84.31C32.1596 84.7491 32.8185 84.9899 33.4993 84.9899C34.1801 84.9899 34.839 84.7491 35.3593 84.31C52.7863 69.666 60.5533 56.19 63.9293 48.102C64.9219 45.9467 65.678 43.6902 66.1843 41.372C66.3393 40.692 66.4083 40.309 66.4083 40.309C66.81 38.1886 67.0118 36.0351 67.0113 33.877C67.0113 14.735 51.3573 -0.693005 32.3113 -0.013005Z" fill="#bb8064"/>
<path d="M32.3374 16.1363L43.6651 23.9744L46.5641 20.4312L50 16.2437L48.0673 14.9552L46.242 17.1564L37.7597 11.3046L24.7678 22.5786V30.6314L41.7324 44.6971L41.7861 55.5952L41.3566 55.1657C41.3029 55.1121 37.9744 52.1057 34.0554 49.3677C33.6796 49.0993 33.2501 48.7772 32.8206 48.455C30.5658 46.7371 27.1836 44.1065 25.7878 45.8781C24.9825 46.8982 24.2309 47.8645 23.4256 48.8308C21.2245 51.5688 19.2919 53.931 17.5739 56.7763L18.3792 57.2058C20.6877 53.8773 21.9761 52.1593 25.251 52.1593C25.3583 52.1593 25.412 52.1593 25.5194 52.1593C26.1099 52.1593 29.0089 54.3605 35.9344 59.8364C36.4176 60.2122 36.7934 60.5343 37.0081 60.6954L48.98 50.7635V40.0264L32.1764 26.4976L32.3374 16.1363Z" fill="white"/>
</g>
<defs>
<clipPath id="clip0">
<rect width="67" height="85" fill="white"/>
</clipPath>
</defs>
</svg>
