<svg xmlns="http://www.w3.org/2000/svg" width="30" height="37" viewBox="0 0 30 37"><g><g><path fill="#bb8064" d="M14.465.008C6.995.266.788 5.998.071 13.316a14.604 14.604 0 0 0 .2 4.239s.024.159.101.462a14.62 14.62 0 0 0 1.01 2.927c1.503 3.504 4.98 9.365 12.782 15.742a1.32 1.32 0 0 0 1.666 0c7.802-6.37 11.279-12.23 12.79-15.75.44-.924.778-1.902 1.01-2.926a14.6 14.6 0 0 0 .37-3.26C30 6.422 22.992-.289 14.465.007z"/></g><g><path fill="#fff" d="M14 22.5c0 .825-.675 1.5-1.5 1.5s-1.5-.675-1.5-1.5.675-1.5 1.5-1.5 1.5.675 1.5 1.5zM10.475 9l.675 1.5h11.1c.45 0 .75.3.75.75 0 .15 0 .225-.15.375l-2.7 4.875c-.225.45-.675.75-1.275.75h-5.55l-.675 1.275v.075c0 .075.075.15.15.15h8.7v1.5h-9c-.825 0-1.5-.675-1.5-1.5 0-.225.075-.525.15-.75l1.05-1.8-2.7-5.7H8V9zM21.5 22.5c0 .825-.675 1.5-1.5 1.5s-1.5-.675-1.5-1.5.675-1.5 1.5-1.5 1.5.675 1.5 1.5z"/></g></g></svg>