<svg xmlns="http://www.w3.org/2000/svg" width="30" height="36.98" viewBox="0 0 30 36.98">
  <defs>
    <style>
      .a {
        fill: #bb8064;
      }

      .b {
        fill: #fff;
      }
    </style>
  </defs>
  <title>Asset 2</title>
  <g>
    <path class="a" d="M14.46,0A14.94,14.94,0,0,0,.07,13.32a14.72,14.72,0,0,0,.2,4.24,3.87,3.87,0,0,0,.1.46,14.51,14.51,0,0,0,1,2.93c1.51,3.5,5,9.36,12.78,15.74a1.34,1.34,0,0,0,1.67,0c7.8-6.37,11.28-12.23,12.79-15.75a13.9,13.9,0,0,0,1-2.93A14.88,14.88,0,0,0,30,14.75,14.88,14.88,0,0,0,14.46,0Z"/>
    <path class="b" d="M18.77,9.93,15,14.62,11.23,9.93,5.7,20.07H9.47l2.1-3.78L15,20.07l3.43-3.78,2.1,3.78H24.3Z"/>
  </g>
</svg>
