<svg xmlns="http://www.w3.org/2000/svg" width="30" height="36.98" viewBox="0 0 30 36.98">
  <defs>
    <style>
      .a {
        fill: #bb8064;
      }

      .b {
        fill: #fff;
      }
    </style>
  </defs>
  <title>Asset 1</title>
  <g>
    <path class="a" d="M14.46,0A14.94,14.94,0,0,0,.07,13.32a14.72,14.72,0,0,0,.2,4.24,3.87,3.87,0,0,0,.1.46,14.51,14.51,0,0,0,1,2.93c1.51,3.5,5,9.36,12.78,15.74a1.34,1.34,0,0,0,1.67,0c7.8-6.37,11.28-12.23,12.79-15.75a13.9,13.9,0,0,0,1-2.93A14.88,14.88,0,0,0,30,14.75,14.88,14.88,0,0,0,14.46,0Z"/>
    <path class="b" d="M23.08,17.28H21.54V9.67a.5.5,0,0,0-.5-.5h-.51V6.65a.5.5,0,1,0-1,0v.5h-1V5.65a.5.5,0,0,0-.5-.51.51.51,0,0,0-.51.51v1.5h-1v-.5a.51.51,0,0,0-1,0V9.17H15a.5.5,0,0,0-.5.5v7.61H6.92a.5.5,0,0,0-.5.5v4a.5.5,0,0,0,.5.5H23.08a.5.5,0,0,0,.5-.5v-4A.5.5,0,0,0,23.08,17.28ZM16.51,8.16h3v1h-3Zm-1,2h5v7.11h-5Zm-5,11.13h-1v-.08a.52.52,0,0,1,.14-.36l.36-.35.36.35a.52.52,0,0,1,.14.36Zm5,0h-1v-.08a.52.52,0,0,1,.14-.36l.36-.35.36.35a.52.52,0,0,1,.14.36Zm5,0h-1v-.08a.52.52,0,0,1,.14-.36l.36-.35.35.35a.49.49,0,0,1,.15.36Zm2,0h-1v-.08a1.54,1.54,0,0,0-.44-1.07l-.72-.71a.5.5,0,0,0-.71,0l-.71.71a1.54,1.54,0,0,0-.44,1.07v.08h-2v-.08a1.54,1.54,0,0,0-.44-1.07l-.71-.71a.51.51,0,0,0-.72,0l-.71.71a1.54,1.54,0,0,0-.44,1.07v.08h-2v-.08A1.54,1.54,0,0,0,11,20.15l-.71-.71a.51.51,0,0,0-.72,0l-.71.71a1.54,1.54,0,0,0-.44,1.07v.08h-1v-3H22.58Z"/>
  </g>
</svg>
