<svg xmlns="http://www.w3.org/2000/svg" width="30" height="37" viewBox="0 0 30 37"><g><g><path fill="#bb8064" d="M14.465.008C6.995.266.788 5.998.071 13.316a14.601 14.601 0 0 0 .2 4.239s.024.16.101.462a14.625 14.625 0 0 0 1.01 2.927c1.503 3.504 4.98 9.365 12.782 15.742a1.32 1.32 0 0 0 1.666 0c7.802-6.37 11.279-12.23 12.79-15.75.44-.924.778-1.902 1.01-2.926a14.6 14.6 0 0 0 .37-3.26C30 6.422 22.992-.289 14.465.007z"/></g><g><path fill="#fff" d="M24.414 19.41h.593v1.586H4.993V19.41h.263v-4.198l.54-3.31h5.316L9.577 13.19v2.066l.766-.651v.255h.36v4.55h.353v-4.993h-.361v-.609h.439l3.618-2.89L18.5 13.74h.495v.608h-.32v5.06h.333v-4.617h.32v-.403l1.078.817V13.18l-1.67-1.278h5.14l.54 3.31zM7.627 17.59H5.839v1h1.788zm0-1.6H5.839v1.001h1.788zm2.529 2.6v-1H8.368v1zm0-1.599v-1H8.37v1zm3.956-4.108c0 .4.318.725.709.725a.717.717 0 0 0 .708-.725c0-.4-.317-.725-.708-.725a.718.718 0 0 0-.709.725zm3.587 1.465h-.222v-.166h-5.263v.235h-.342v4.992h.356v-4.57h5.078v4.57h.393zm3.42 3.138h-1.787v1.001h1.787zm0-1.6h-1.787v1h1.787zm2.53 1.6H21.86v1.001h1.788zm0-1.6H21.86v1h1.788zm-13.72-2.622l4.838-4.06h-.11V6.218h.229v.057c.25.111.855.323 1.196-.055.437-.484 1.2 0 1.2 0v1.378s-.618-.52-1.2 0c-.443.396-.97.19-1.196.068v1.54h-.118l5.304 4.059v1.154l-5.365-4.06-4.779 4.06z"/></g></g></svg>