<svg xmlns="http://www.w3.org/2000/svg" width="30" height="37" viewBox="0 0 30 37"><g><g><path fill="#bb8064" d="M14.465.008C6.995.266.788 5.998.072 13.316a14.604 14.604 0 0 0 .2 4.239s.023.159.1.462a14.62 14.62 0 0 0 1.01 2.927c1.503 3.504 4.98 9.365 12.783 15.742a1.32 1.32 0 0 0 1.665 0c7.802-6.37 11.279-12.23 12.79-15.75.44-.924.778-1.903 1.01-2.926a14.6 14.6 0 0 0 .37-3.26C30 6.422 22.992-.289 14.465.007z"/></g><g><path fill="#fff" d="M11.98 13.286v-2.275C11.98 9.351 13.344 8 15.018 8s3.036 1.351 3.036 3.011v2.275a.586.586 0 0 1-.588.584.586.586 0 0 1-.588-.584v-2.275a1.855 1.855 0 0 0-1.86-1.844c-1.026 0-1.86.827-1.86 1.844v2.275a.586.586 0 0 1-.588.584.586.586 0 0 1-.588-.584zm10.007-.444l-2.057 8.312c-.125.467-.62.846-1.107.846h-7.646c-.487 0-.983-.379-1.107-.846l-2.058-8.312c-.038-.156.062-.283.224-.283h3.157v.727c0 .644.528 1.167 1.176 1.167.649 0 1.177-.523 1.177-1.167v-.727h2.543v.727c0 .644.527 1.167 1.176 1.167.649 0 1.177-.523 1.177-1.167v-.727h3.121c.163 0 .263.127.224.283z"/></g></g></svg>