<svg xmlns="http://www.w3.org/2000/svg" width="30" height="37" viewBox="0 0 30 37"><g><g><path fill="#bb8064" d="M14.465.008C6.995.266.79 5.998.072 13.316a14.601 14.601 0 0 0 .2 4.239s.023.16.1.462a14.625 14.625 0 0 0 1.01 2.927c1.504 3.504 4.98 9.365 12.783 15.742a1.32 1.32 0 0 0 1.665 0c7.802-6.37 11.279-12.23 12.79-15.75.44-.924.779-1.902 1.01-2.926a14.6 14.6 0 0 0 .37-3.26C30 6.422 22.992-.289 14.465.007z"/></g><g><path fill="#fff" d="M4 11.852h2.294v6.296H4zM22.77 10v10h-3.908v-3.727h-7.724V20H7.23V10h3.908v3.727h7.724V10zm.936 1.852H26v6.296h-2.294z"/></g></g></svg>