<svg xmlns="http://www.w3.org/2000/svg" width="30" height="37" viewBox="0 0 30 37"><g><g><path fill="#bb8064" d="M14.465.008C6.995.266.788 5.998.071 13.316a14.601 14.601 0 0 0 .201 4.239s.023.159.1.462a14.625 14.625 0 0 0 1.01 2.927c1.503 3.504 4.98 9.365 12.782 15.742a1.32 1.32 0 0 0 1.666 0c7.802-6.37 11.279-12.23 12.79-15.75.44-.924.779-1.903 1.01-2.926a14.6 14.6 0 0 0 .37-3.26C30 6.422 22.992-.289 14.465.007z"/></g><g><path fill="#fff" d="M24.321 17.926a.584.584 0 0 1-.576.593.584.584 0 0 1-.574-.593c0-.247.146-.46.355-.549v-1.92l-1.913 1.211v1.67c-.01-.006-.026-.01-.039-.018.046.066.078.13.078.199 0 .757-2.979 1.375-6.652 1.375-3.674 0-6.65-.618-6.65-1.375a.35.35 0 0 1 .077-.2l-.04.02v-1.667L4.005 14.05 15 8.001l10.996 6.049-2.032 1.156v2.171a.591.591 0 0 1 .357.55zm-3.418.593c0-.47-2.644-.853-5.903-.853-3.26 0-5.902.383-5.902.853s2.641.853 5.902.853c3.26 0 5.903-.383 5.903-.853zm.567-3.57s-1.277-1.972-6.47-1.972c-5.192 0-6.469 1.973-6.469 1.973v.458c.438-.483 2.011-1.75 6.47-1.75 4.455 0 6.03 1.266 6.469 1.749zm2.846 3.69v2.662s-.578-.422-1.278.698l.24-3.36s.291.3 1.038 0z"/></g></g></svg>