<svg xmlns="http://www.w3.org/2000/svg" width="30" height="36.98"><defs><style>.b{fill:#fff}</style></defs><path d="M14.46 0A14.94 14.94 0 00.07 13.32a14.72 14.72 0 00.2 4.24 3.87 3.87 0 00.1.46 14.51 14.51 0 001 2.93c1.51 3.5 5 9.36 12.78 15.74a1.34 1.34 0 001.67 0c7.8-6.37 11.28-12.23 12.79-15.75a13.9 13.9 0 001-2.93 14.88 14.88 0 00.39-3.26A14.88 14.88 0 0014.46 0z" fill="#bb8064"/><path class="b" d="M19.52 14.58v-1.27l1.8 1.13.54-.87-6.38-4V7.1h1.12v-1h-1.12V5h-1v1.1H13.4v1h1.06v2.49l-6.33 4 .55.87 1.79-1.13v1.27l-4.25 2.5v5.44h17.56V17.1zM7.24 21.52v-3.84l3.23-1.92v5.76zm7.25 0V18a.51.51 0 111 0v3.52zm2 0V18a1.54 1.54 0 10-3.07 0v3.52h-2v-8.86l3.5-2.2 3.5 2.2v8.86zm6.23 0h-3.2v-5.76l3.24 1.92z"/><path class="b" d="M14.49 13h1v2h-1zm-6.11 5.31h1v1.93h-1zm12.22 0h1v1.93h-1z"/></svg>