<svg width="67" height="85" fill="none" xmlns="http://www.w3.org/2000/svg"><g clip-path="url(#clip0)"><path d="M32.311-.013C15.622.58 1.761 13.76.158 30.582a34.533 34.533 0 00.448 9.745s.052.366.224 1.063a34.28 34.28 0 002.256 6.73c3.36 8.052 11.125 21.528 28.553 36.19a2.884 2.884 0 003.72 0c17.427-14.644 25.194-28.12 28.57-36.208a32.84 32.84 0 002.255-6.73c.155-.68.224-1.063.224-1.063.402-2.12.604-4.274.603-6.432 0-19.142-15.654-34.57-34.7-33.89z" fill="#bb8064"/><path d="M32.337 16.136l11.328 7.838 2.9-3.543L50 16.244l-1.933-1.289-1.825 2.201-8.482-5.851-12.992 11.274v8.052l16.964 14.066.054 10.898-.43-.43c-.053-.053-3.382-3.06-7.3-5.797-.376-.269-.806-.59-1.235-.913-2.255-1.718-5.637-4.349-7.033-2.577-.805 1.02-1.557 1.986-2.362 2.953-2.201 2.738-4.134 5.1-5.852 7.945l.805.43c2.309-3.329 3.597-5.047 6.872-5.047h.268c.59 0 3.49 2.202 10.415 7.677.484.376.86.698 1.074.86l11.972-9.932V40.026L32.176 26.498l.161-10.362z" fill="#fff"/></g><defs><clipPath id="clip0"><path fill="#fff" d="M0 0h67v85H0z"/></clipPath></defs></svg>