<svg xmlns="http://www.w3.org/2000/svg" width="30" height="36.98"><path d="M14.46 0A14.94 14.94 0 00.07 13.32a14.72 14.72 0 00.2 4.24 3.87 3.87 0 00.1.46 14.51 14.51 0 001 2.93c1.51 3.5 5 9.36 12.78 15.74a1.34 1.34 0 001.67 0c7.8-6.37 11.28-12.23 12.79-15.75a13.9 13.9 0 001-2.93 14.88 14.88 0 00.39-3.26A14.88 14.88 0 0014.46 0z" fill="#bb8064"/><path d="M23.08 17.28h-1.54V9.67a.5.5 0 00-.5-.5h-.51V6.65a.5.5 0 10-1 0v.5h-1v-1.5a.5.5 0 00-.5-.51.51.51 0 00-.51.51v1.5h-1v-.5a.51.51 0 00-1 0v2.52H15a.5.5 0 00-.5.5v7.61H6.92a.5.5 0 00-.5.5v4a.5.5 0 00.5.5h16.16a.5.5 0 00.5-.5v-4a.5.5 0 00-.5-.5zm-6.57-9.12h3v1h-3zm-1 2h5v7.11h-5zm-5 11.13h-1v-.08a.52.52 0 01.14-.36l.36-.35.36.35a.52.52 0 01.14.36zm5 0h-1v-.08a.52.52 0 01.14-.36l.36-.35.36.35a.52.52 0 01.14.36zm5 0h-1v-.08a.52.52 0 01.14-.36l.36-.35.35.35a.49.49 0 01.15.36zm2 0h-1v-.08a1.54 1.54 0 00-.44-1.07l-.72-.71a.5.5 0 00-.71 0l-.71.71a1.54 1.54 0 00-.44 1.07v.08h-2v-.08a1.54 1.54 0 00-.44-1.07l-.71-.71a.51.51 0 00-.72 0l-.71.71a1.54 1.54 0 00-.44 1.07v.08h-2v-.08a1.54 1.54 0 00-.47-1.06l-.71-.71a.51.51 0 00-.72 0l-.71.71a1.54 1.54 0 00-.44 1.07v.08h-1v-3h15.16z" fill="#fff"/></svg>