<svg width="856" height="291" fill="none" xmlns="http://www.w3.org/2000/svg"><path d="M720.4 95.354l20.5 17.5 25.4-22.3-30.1-24-20.5 19.1-23.1-19.1-23.6 22.1 17.7 15.2v83.1l-14.6 13.3 41.6 26.5 21.3-23.8-18.6-11.8v-91.8l4-4zM557.8.754l-24.5 22.2.2.1 25.2 15.4 24.4-22.5-25.3-15.2zm-1.4 94.8l13.8-24.5H533v-47.5l-29.8 25.9v21l-18.6 25.1h18.6v91.8l-13.9 12.8 42.2 26.8 21.6-24.2-20.1-12.7v-94.5h23.4zm48.8-29l-23.6 22.1 9.2 7.9-23.6 20.5v74.8l-9.2 8.4 49.1 26.9 52.5-52.7v-62.3l-54.4-45.6zm24.6 137.5l-32.9-17.7v-84.5l32.9 28.3v73.9zm-275.8-2.7l-20.4-12.9v-76.3l-54.4-45.6-23.6 22.1 9.2 7.9 6.2 5.3 9.7 8.3.2.2-9.9 8.7-.3.3-28.2 24.8-1.3 1.3v46.3l-9.5 8.7 1.8 1.1 4.4 2.8 35.5 22.6 20.7-23.2 2-1.9 39.3 25.1 21.1-23.7-2.5-1.9zm-50.1-10.4l-10.2 9.3-1.4 1.2-21.3-13.5v-53.6l17.3-17.6 15.6 13.5v60.7zm-80.9 10.7l2 1.3-21.2 23.8-41.7-26.5 8.9-8.1v-96.3h-24.5l13.7-24.4 11-.4-.2-15.4 29.8-25.9v41.7h27.7l-13.9 24.4h-13.8v91.7l1 .6 21.2 13.5zm244.3-12.5v-91.8l-36.8-30.9-25.6 22-26.2-22-23.7 22.2 17.7 15.2v85.3l-10.4 11 32.7 26.6 23.4-23.8-16-13.3v-83.9l12.3-10.3 22.7 19.6v74.9l-9.6 10.2 31.2 26.6 24.9-23.8-16.6-13.8zm388.4-15.6l-.1-69-90.1-77.4v43.9l60.5 51.2v81.3l29.7-30z" fill="#352937"/><path d="M825.3 204.054l-22.9 23-38-20.8-.8-.4-10.3-5.6 10.3-9.4v-66.9l29.5-25.8v88.6l32.2 17.3zM70.5 46.154l46.3 31.1 27.4-29.5-7.1-5.1-8.3 8.5-35.8-24.9-52.2 45.4v32.8l68.1 57v44.1s-33.9-27.6-35.8-29c-9-7-22.1-17.4-28.7-11-3.9 3.8-36.7 36.3-44.3 43.8l5.5 4.4c11.5-11.9 27.9-31.4 38.5-23.3 10.2 7.7 11.6 8.9 46.3 35.9l48.3-40.2v-43.5l-68.2-54.8v-41.7zm167.4 230.2c-1.2-.6-2.7-.9-4.3-.9h-13.3v-7.1H240v-2.6h-23v24h16.5c1.3 0 2.4-.2 3.4-.5s1.9-.8 2.6-1.4c.7-.6 1.2-1.3 1.6-2.2.4-.9.6-1.9.6-3 0-1.5-.3-2.8-1-3.8-.6-1.1-1.6-1.9-2.8-2.5zm-.1 8.8c-.4.7-1 1.2-1.8 1.5-.8.3-1.7.5-2.9.5h-12.9v-9.1h12.9c1 0 2 .2 2.8.5.8.4 1.4.9 1.8 1.6.4.7.6 1.5.6 2.5.1 1-.1 1.8-.5 2.5zm18-19.4h-3.4v23.9h3.4v-23.9zm33.1 12c-.6-.2-1.3-.4-2-.5.4-.1.8-.2 1.1-.3.9-.3 1.6-.7 2.2-1.2.6-.5 1-1.1 1.3-1.7.3-.6.4-1.4.4-2.2 0-1-.3-2-.8-2.8-.5-.8-1.3-1.5-2.4-2-1.1-.5-2.4-.9-4-1.2-1.6-.3-3.4-.4-5.5-.4-2.5 0-4.7.3-6.5.8-1.8.5-3.2 1.3-4.2 2.4-1 1-1.7 2.3-2 3.9l3.2.7c.2-1.1.7-2.1 1.4-2.9.8-.8 1.8-1.4 3.1-1.8 1.3-.4 3-.6 4.9-.6 1.5 0 2.9.1 4 .3 1.1.2 2.1.5 2.8.8.8.4 1.3.8 1.7 1.3.4.5.6 1.1.6 1.8s-.2 1.3-.5 1.8-.8.9-1.5 1.2c-.6.3-1.4.6-2.2.7-.9.1-1.8.2-2.9.2H274v2.5h7.5c1.7 0 3.1.2 4.2.5s1.9.8 2.5 1.4c.5.6.8 1.4.8 2.4 0 .8-.2 1.4-.6 2-.4.6-1 1.1-1.9 1.5-.8.4-1.8.7-3 .9-1.2.2-2.6.3-4.2.3-2.1 0-3.8-.2-5.2-.6-1.4-.4-2.5-1-3.2-1.9-.7-.8-1.2-1.8-1.3-3l-3.4.6c.2 1.6.9 3 1.9 4.1 1 1.1 2.5 1.9 4.3 2.5 1.9.5 4.2.8 6.9.8 2.1 0 4-.1 5.7-.4 1.7-.3 3.1-.7 4.2-1.3 1.1-.6 2-1.3 2.6-2.2.6-.9.9-1.9.9-3 0-1.3-.3-2.4-1-3.3-.6-1-1.6-1.6-2.8-2.1zm38.1-1.8h-20v-10.2h-3.3v24h3.3v-11h20v11h3.3v-24H327v10.2zm19.3 2.8h17.3v-2.6h-17.3v-7.7h19.2v-2.7H343v24h22.7v-2.7h-19.4v-8.3zm51.3 5.8c-.9.9-2.1 1.6-3.5 2.1s-3.2.7-5.2.7c-1.4 0-2.7-.1-3.9-.4-1.2-.3-2.2-.7-3.1-1.2-.9-.5-1.7-1.2-2.3-2-.6-.8-1.1-1.6-1.4-2.7-.3-1-.5-2.1-.5-3.3 0-1.2.2-2.3.5-3.3s.8-1.9 1.4-2.7c.6-.8 1.4-1.4 2.3-2 .9-.5 1.9-.9 3.1-1.2 1.2-.3 2.5-.4 3.9-.4 2 0 3.6.2 5 .7 1.4.5 2.5 1.1 3.4 2 .9.9 1.5 2 1.8 3.3l3.5-.7c-.5-1.8-1.3-3.2-2.5-4.4-1.2-1.2-2.7-2.1-4.7-2.7-1.9-.6-4.1-.9-6.7-.9-1.8 0-3.5.2-5 .6-1.5.4-2.9.9-4.1 1.6-1.2.7-2.2 1.6-3 2.6-.8 1-1.5 2.2-1.9 3.4-.4 1.3-.7 2.7-.7 4.2 0 1.2.2 2.4.5 3.5s.7 2.1 1.3 3c.6.9 1.3 1.7 2.1 2.4s1.8 1.3 2.9 1.8c1.1.5 2.3.9 3.6 1.1 1.3.3 2.8.4 4.3.4 2.6 0 4.9-.3 6.8-.9 1.9-.6 3.5-1.6 4.7-2.8 1.2-1.2 2-2.7 2.4-4.5l-3.5-.7c0 1.3-.6 2.5-1.5 3.4zm59.6-18.8h-4.8l-16.8 11.8 17.2 12.2h5l-17.2-12.5 16.6-11.5zm-21.9 0H432v23.9h3.3v-23.9zm54.7 0h-19l-.1 4.4c0 2-.1 3.7-.2 5.2s-.2 2.8-.3 3.9c-.1 1.1-.2 2-.4 2.8-.1.8-.3 1.4-.5 1.9s-.5 1-.8 1.4c-.5.6-1 1-1.6 1.2-.6.3-1.4.4-2.2.5l.3 2.8c.9 0 1.8-.2 2.5-.3.7-.2 1.3-.4 1.9-.8.6-.3 1.1-.8 1.6-1.3.4-.5.8-1.1 1.1-1.7.3-.6.6-1.4.8-2.3.2-.9.4-1.9.5-3.1.1-1.2.3-2.7.3-4.3.1-1.7.2-3.6.2-5.7l.1-2H490v21.4h3.3v-24H490zm26.1 0l-13.3 24h3.5l3.5-6.5h15.7l3.6 6.5h3.7l-13.3-24h-3.4zm-4.8 14.8l6.4-11.7 6.4 11.7h-12.8zm51.5 4c-.9.9-2.1 1.6-3.5 2.1s-3.2.7-5.2.7c-1.4 0-2.7-.1-3.9-.4-1.2-.3-2.2-.7-3.1-1.2-.9-.5-1.7-1.2-2.3-2-.6-.8-1.1-1.6-1.4-2.7-.3-1-.5-2.1-.5-3.3 0-1.2.2-2.3.5-3.3s.8-1.9 1.4-2.7c.6-.8 1.4-1.4 2.3-2 .9-.5 1.9-.9 3.1-1.2 1.2-.3 2.5-.4 3.9-.4 2 0 3.6.2 5 .7 1.4.5 2.5 1.1 3.4 2 .9.9 1.5 2 1.8 3.3l3.5-.7c-.5-1.8-1.3-3.2-2.5-4.4-1.2-1.2-2.7-2.1-4.7-2.7-1.9-.6-4.1-.9-6.7-.9-1.8 0-3.5.2-5 .6-1.5.4-2.9.9-4.1 1.6-1.2.7-2.2 1.6-3 2.6-.8 1-1.5 2.2-1.9 3.4-.4 1.3-.7 2.7-.7 4.2 0 1.2.2 2.4.5 3.5s.7 2.1 1.3 3c.6.9 1.3 1.7 2.1 2.4s1.8 1.3 2.9 1.8c1.1.5 2.3.9 3.6 1.1 1.3.3 2.8.4 4.3.4 2.6 0 4.9-.3 6.8-.9 1.9-.6 3.5-1.6 4.7-2.8 1.2-1.2 2-2.7 2.4-4.5l-3.5-.7c0 1.3-.6 2.5-1.5 3.4zm18.9.9v-19.7h-3.3v24h3.3l19.8-19.7v19.7h3.3v-24h-3.3l-19.8 19.7zm60.9-19.7h-4.8l-16.8 11.8 17.2 12.2h5l-17.2-12.5 16.6-11.5zm-21.9 0h-3.3v23.9h3.3v-23.9zm56 24h3.7l-13.3-24h-3.5l-13.2 24h3.5l3.5-6.5h15.7l3.6 6.5zm-17.8-9.2l6.4-11.7 6.4 11.7h-12.8zm-248.8-4.5h14.1v3.1h-14.1v-3.1z" fill="#352937"/></svg>