<svg width="303" height="296" fill="none" xmlns="http://www.w3.org/2000/svg"><path d="M26.675 154.561l.11 1.154c1.296.941 2.834 1.251 8.896.662l3.03-.295 1.08 8.82-11.816 1.353.154 1.502-4.568.551-.22-1.742 3.03-.295-1.101-9.842-3.031.294-.22-1.742 4.656-.42zm.396 3.136l.772 6.947 10.168-1.12-.639-5.335-1.515.147c-3.602.293-5.557.352-6.985.064-.637-.242-1.273-.483-1.8-.703zm7.341 14.61c3.865-1.032 7.226.438 8.392 4.294 1.056 3.835-1.03 6.81-4.917 7.951-3.975 1.009-7.226-.438-8.37-4.404-1.165-3.857.92-6.832 4.895-7.841zm2.837 10.305c3.14-.838 4.787-2.77 3.996-5.646-.792-2.876-3.252-3.711-6.393-2.873-3.14.838-4.677 2.792-3.995 5.646.901 2.898 3.362 3.734 6.392 2.873zm9.053 5.56l2.44 5.471c1.033 2.246.529 4.182-1.47 5.024-1.361.518-2.68.252-3.734-.753.243 1.633-.394 3.09-1.997 3.672-1.998.842-3.888.009-4.987-2.476l-2.506-5.712 12.254-5.226zm-5.95 4.572l-4.129 1.771 1.737 3.859c.703 1.613 1.867 2.074 3.12 1.534 1.383-.626 1.668-2.04 1.03-3.414l-1.758-3.75zm5.27-2.333l-3.997 1.685 1.583 3.488c.637 1.373 1.78 1.943 3.032 1.403 1.251-.54 1.602-1.714.965-3.088l-1.583-3.488zm7.778 12.434l4.747 7.634-1.295.758-3.692-6.064-3.536 2.23 3.275 5.301-1.296.757-3.274-5.301-3.91 2.382 3.803 6.086-1.296.757-4.747-7.634 11.221-6.906zm-2.387 18.08l.725.939c1.581.092 3.053-.403 7.817-4.197l2.438-1.885 5.69 6.919-9.155 7.436 1.01 1.222-3.557 2.905-1.098-1.353 2.327-1.908-6.35-7.618-2.328 1.907-1.098-1.353 3.579-3.014zm2.043 2.336l4.505 5.436 7.926-6.439-3.494-4.212-1.207.888c-2.855 2.254-4.436 3.294-5.797 3.811-.637.325-1.362.518-1.933.516zm19.506 4.159l6.658 6.095-1.032 1.15-5.207-4.784-2.789 3.06 4.636 4.216-1.032 1.151-4.636-4.217-3.073 3.342 5.317 4.807-1.032 1.15-6.657-6.096 8.847-9.874zm10.986 9.571l1.516.985-3.227 4.669 6.327 4.331 3.227-4.669 1.516.984-7.463 10.946-1.516-.984 3.424-5.083-6.327-4.331-3.425 5.082-1.515-.984 7.463-10.946zm11.537 15.342c1.756-3.608 5.05-5.208 8.696-3.454 3.647 1.754 4.659 5.24 2.903 8.847-1.756 3.608-5.05 5.208-8.696 3.454-3.647-1.754-4.549-5.218-2.903-8.847zm9.951 4.495c1.383-2.89.855-5.373-1.847-6.71-2.724-1.228-4.92.027-6.303 2.917-1.382 2.891-.854 5.374 1.738 6.689 2.724 1.228 5.03-.005 6.412-2.896zm19.656 1.133l-4.591-1.039.307-1.522 11.027 2.562-.307 1.523-4.591-1.039-2.653 11.463-1.845-.485 2.653-11.463zm11.947.823l5.272.497c2.811.227 4.481 2.148 4.263 4.934-.307 2.655-2.327 4.171-5.226 3.813l-3.361-.337-.437 4.439-1.911-.159 1.4-13.187zm1.714 1.704l-.591 5.766 3.141.294c1.911.159 3.229-.707 3.36-2.492.153-1.893-.88-3.007-2.901-3.188l-3.009-.38zm20.63 8.798l-6.216.219-1.294 3.587-1.845.081 4.981-13.37 1.845-.081 5.825 13.058-1.955.059-1.341-3.553zm-.615-1.482l-2.66-6.082-2.282 6.218 4.942-.136zm8.763 3.012l1.186-.213c.834-1.304 1.141-2.826.195-8.903l-.529-3.049 8.873-1.494 2.135 11.523 1.537-.256.815 4.465-1.779.32-.551-2.94-9.839 1.751.551 2.941-1.779.32-.815-4.465zm3.075-.512l6.874-1.217-1.848-10.107-5.337.962.264 1.525c.528 3.615.727 5.466.551 6.902-.021.674-.263 1.305-.504 1.935zm13.129-14.671l1.713-.56 3.474 9.981 3.773-12.481 1.713-.561 4.332 12.531-1.713.561-3.474-9.982-3.883 12.46-1.713.56-4.222-12.509zm16.826-6.342l1.669-.909 5.561 10.402 6.522-3.439-5.561-10.402 1.669-.908 5.561 10.401 1.405-.735 2.154 4.056-1.537.822-1.407-2.66-9.596 5.083-6.44-11.711zm15.631-8.959l1.581-1.04 7.625 10.931-1.581 1.04-7.625-10.931zm21.46.137l-3.45-3.864-1.669 1.474.266 6.619-1.647 1.365-.244-6.727c-1.998 1.409-4.15 1.314-5.644-.345-1.67-1.921-1.43-4.25.634-5.984l4.282-3.664 8.833 10.043-1.361 1.083zm-4.373-4.956l-3.45-3.864-2.635 2.298c-1.251 1.106-1.426 2.542-.415 3.765 1.01 1.222 2.482 1.292 3.733.186l2.767-2.385zm1.842-10.834l1.361-1.649 10.105 2.036-3.914-9.503 1.34-1.541 10.282 8.524-1.054 1.259-8.327-6.885 3.518 8.632-1.054 1.258-9.226-1.859 8.327 6.885-1.054 1.259-10.304-8.416zm12.512-16.153l.878-1.52 9.227 5.255-5.364-11.947.878-1.521 11.578 6.635-.878 1.521-9.227-5.256 5.364 11.947-.878 1.521-11.578-6.635zm-186.92-83.629l1.098.222-1.645 8.157-1.098-.222 1.645-8.157zm5.271 1.063l1.318.265-5.226 3.248.066-.326 3.604 5.367-1.428-.288-3.45-4.997 5.116-3.269zm4.396.886l1.099.221-1.644 8.157-1.099-.221 1.645-8.157zm-.217 6.747l6.148-5.552-.329 1.632-6.147 5.551.328-1.631zm6.148-5.552l1.098.222-1.644 8.157-1.098-.221 1.644-8.158zm4.501-1.357l1.098.222-.24 1.196-1.099-.221.241-1.197zm.77 2.419l1.208.244-1.644 8.157-1.209-.244 1.645-8.157zm1.646-1.932l1.099.222-.242 1.196-1.098-.221.241-1.197zm3.622 2.994l1.099.222-1.644 8.157-1.099-.222 1.645-8.157zm4.814 8.44c-.285.282-.659.434-1.032.585-.483.129-.923.04-1.472-.071l-2.855-.575.175-.87 2.636.531c.33.066.68.024.922-.04.242-.065.484-.129.637-.325.154-.195.308-.391.373-.717.066-.326 0-.566-.066-.805-.066-.24-.263-.393-.571-.568a2.122 2.122 0 00-.835-.395l-2.746-.553.198-.979 2.636.531c.22.044.439.089.68.024.242-.064.352-.042.615-.216.132-.086.264-.173.418-.368.153-.196.175-.304.22-.522.065-.326-.001-.566-.067-.805-.066-.24-.264-.393-.462-.546-.197-.153-.527-.22-.856-.286l-2.636-.531.175-.871 2.856.576c.44.089.769.155.966.308.308.175.506.328.681.59.176.262.242.502.418.763.066.24.11.588.044.915-.044.217-.11.544-.263.739l-.461.586c-.154.196-.395.26-.637.325-.242.064-.483.128-.813.062l-.175-.262c.439.089.856.286 1.142.57.286.284.571.568.615.916.154.371.198.719.11 1.154-.087.435-.285.848-.57 1.13zm1.343 5.25l-35.474-7.15-.198.979 35.475 7.15.197-.979zm3.484-17.293l-35.474-7.15-.197.979 35.474 7.15.197-.979zm114.68 28.668l1.099.221-1.644 8.157-1.099-.221 1.644-8.157zm5.162 1.04l1.428.288-6.807 4.287-.374-.981 5.753-3.594zm-3.491 2.579l3.495 5.911-1.428-.288-3.011-4.908.944-.715zm9.795 4.12l-.834-.395-2.067-5.623 1.318.266 1.605 4.511-.33-.067 3.338-3.515 1.318.266-4.348 4.557zm-.835-.961l1.209.243-.746 3.698-1.208-.243.745-3.698zm8.153-2.998l1.208.244-1.645 8.157-1.208-.243 1.645-8.158zm6.786 8.838l-.329-.066 4.214-6.734 1.208.243-4.939 7.494-1.208-.244-1.65-8.821 1.208.243 1.496 7.885zm4.971 5.982l-35.474-7.151-.197.979 35.474 7.151.197-.979zm3.484-17.293l-35.474-7.151-.197.979 35.474 7.151.197-.979zM40.638 88.674l2.634-4.562c1.405-2.433 3.843-3.187 6.193-1.808 2.351 1.38 2.879 3.863 1.474 6.296l-1.712 2.824 3.889 2.255-.9 1.63-11.578-6.635zm2.328-.776l5.009 2.934 1.558-2.628c1.01-1.608.658-3.263-.88-4.14-1.647-.897-3.119-.402-4.128 1.206l-1.559 2.628zm7.042-13.973l3.513-4.386c1.822-2.236 3.93-2.49 5.908-.96 1.78 1.378 1.956 3.338.749 5.358l6.962.045-1.383 1.759-6.743-.001-1.405 1.867 4.153 3.214-1.208 1.454-10.546-8.35zm2.372-.428l3.955 3.061 2.151-2.735c1.076-1.368 1.142-2.826-.155-3.767-1.274-1.049-2.592-.749-3.8.706l-2.15 2.735zm13.066-7.551c-2.834-2.949-3.011-6.606-.069-9.295 2.942-2.69 6.632-2.285 9.357.64 2.724 2.927 3.011 6.606.07 9.296-2.943 2.689-6.523 2.307-9.358-.641zm7.992-7.33c-2.153-2.36-4.789-2.89-6.919-.83-2.13 2.061-1.843 4.609.442 6.88 2.154 2.359 4.68 2.868 6.92.83 2.02-2.084 1.733-4.632-.443-6.88zm12.74-4.225l-2.837-11.437 1.58-1.04 3.388 13.812-1.58 1.04-11.996-7.964 1.603-1.148 9.842 6.737zm4.931-15.984l8.015-4.043.748 1.395-6.347 3.135 1.89 3.664 5.6-2.833.725 1.504-5.6 2.833 2.045 4.034 6.478-3.222.747 1.396-8.125 4.021-6.176-11.884zm15.266-7.109l1.823-.538 10.743 7.938-3.518-10.33 1.581-.473 4.2 12.618-1.823.538-10.765-7.83 3.518 10.33-1.581.474-4.178-12.727zm27.694-6.981l6.062-.589c2.46-.296 4.173.841 4.328 2.91.176 1.394-.526 2.61-1.8 3.259 1.647.332 2.812 1.359 2.944 2.97.243 2.2-1.206 3.718-3.886 3.97l-6.281.545-1.367-13.065zm2.021 1.313l.397 4.268 3.844-.357c1.515-.147 2.393-1.102 2.305-2.365-.044-1.48-1.055-2.137-2.702-1.903l-3.844.357zm.552 5.77l.462 4.508 4.195-.4c1.757-.211 2.504-1.08 2.437-2.451-.154-1.503-1.384-2.203-3.009-2.078l-4.085.421zm18.231-.287l-4.571-7.938 2.152.094 3.517 6.368 4.061-5.972 2.042.072-5.202 7.666-.174 5.398-1.933-.05.108-5.637zm24.838-3.03l-4.569-1.147.417-1.5 11.005 2.67-.417 1.5-4.569-1.147-2.763 11.441-1.845-.485 2.741-11.332zm13.685 2.42l5.294 2.085c2.636 1.098 3.625 2.995 2.681 5.408-.877 2.087-2.634 2.864-4.897 2.182l1.979 6.624-2.108-.878-2.023-6.406-2.109-.878-1.909 4.935-1.692-.68 4.784-12.392zm1.187 2.05l-1.844 4.608 3.273 1.34c1.692.68 3.032.27 3.558-1.208.636-1.456-.023-2.72-1.714-3.401l-3.273-1.34zm17.404 17.43l-5.316-3.109-2.986 2.341-1.648-.898 11.374-8.8 1.648.899-1.95 14.208-1.647-.899.525-3.742zm.219-1.653l.986-6.593-5.292 4.14 4.306 2.453zm13.44-.914l3.735 3.017c3.449 2.732 3.648 6.281 1.08 9.385-2.569 3.104-5.995 3.659-9.444.926l-3.735-3.016 8.364-10.312zm3.343 11.2c1.975-2.431 1.931-5.044-.53-7.011l-2.263-1.814-6.41 7.989 2.262 1.814c2.483 1.858 5.097 1.367 6.941-.978zm11.264 1.365l1.34 1.29-9.529 9.284-1.34-1.29 9.529-9.284zm7.851 10.977l-2.923-3.645 1.23-.997 7.032 8.774-1.23.997-2.922-3.645-9.245 7.305-1.186-1.484 9.244-7.305zm9.093 9.869l1.055 1.57-11.243 7.016-1.055-1.571 11.243-7.015zm-.956 11.013c3.667-1.751 7.247-.803 8.918 2.816 1.781 3.64.2 6.944-3.467 8.695-3.667 1.751-7.248.803-8.918-2.816-1.781-3.641-.31-6.967 3.467-8.695zm4.66 9.767c2.898-1.34 4.15-3.578 2.875-6.325-1.297-2.638-3.823-3.147-6.744-1.698-2.899 1.34-4.15 3.577-2.853 6.215 1.275 2.747 3.823 3.148 6.722 1.808zm9.663 6.475l.549 1.809-8.364 10.311 10.541-2.968.484 1.569-12.847 3.635-.55-1.808 8.364-10.312-10.541 2.969-.484-1.569 12.848-3.636zm-3.836 21.298c-1.954.624-2.811 2.036-2.48 4.366.352 2.222 1.275 3.313 2.571 3.122 1.405-.17 1.756-1.344 1.909-3.237l.066-1.458c.174-2.568.679-4.504 3.117-4.692 2.218-.232 3.954 1.363 4.46 4.521.397 3.136-.679 5.07-3.336 5.779l-.44-1.786c1.823-.538 2.525-1.755 2.261-3.845-.287-1.982-1.231-2.965-2.527-2.773-1.516.147-1.669 1.474-1.844 3.476l-.065 1.458c-.175 2.568-.745 4.264-3.205 4.561-2.46.296-4.152-1.516-4.527-4.761-.462-3.375.635-5.418 3.534-6.192l.506 1.461zm-173.8-57.443l3.074-2.21c1.318-.867 2.57-.84 3.251.315.527.786.484 1.57-.021 2.373.988-.367 1.955-.059 2.592.749.791 1.178.55 2.374-.899 3.327l-3.206 2.297-4.79-6.851zm1.472.07l1.604 2.247 1.998-1.408c.79-.52.966-1.39.526-2.044-.549-.677-1.23-.7-2.02-.181L94.4 72.007zm2.131 3.033l1.692 2.378 2.13-1.495c.923-.606 1.076-1.367.527-2.044-.528-.785-1.45-.745-2.24-.225l-2.11 1.386zm12.545-3.245c-1.91.973-3.536.532-4.547-1.256l-2.505-4.58 1.032-.584 2.484 4.689c.659 1.264 1.845 1.617 3.009.946s1.603-1.714.834-3.001l-2.484-4.689 1.032-.584 2.506 4.58c1.098 1.919.44 3.484-1.361 4.48zm5.77-5.968c.681 1.156 1.67 1.356 3.031.838 1.362-.518 1.845-1.213 1.559-2.063-.286-.85-1.077-.896-2.263-.682l-.834.17c-1.56.366-2.899.209-3.427-1.143-.528-1.35.197-2.676 2.041-3.323 1.867-.756 3.273-.36 4.108 1.167l-1.032.585c-.593-1.025-1.45-1.311-2.702-.771-1.23.43-1.625 1.257-1.295 1.89.396.871 1.208.809 2.394.595l.835-.171c1.537-.256 2.789-.23 3.295 1.23.615 1.482-.329 2.763-2.195 3.519-1.999.842-3.404.445-4.437-1.234l.922-.607zm7.22-8.617l1.098-.344 2.507 7.975-1.098.345-2.507-7.975zm5.823-1.656l1.186-.213 6.152 5.767-1.386-6.73 1.076-.236 1.651 8.255-1.186.214-6.152-5.768 1.386 6.731-1.076.236-1.651-8.256zm11.947-2.006l5.688-.438.044.915-4.524.333.265 2.656 3.953-.335.044.914-3.953.335.22 2.875 4.525-.334.044.915-5.688.438-.618-8.274zm10.066 5.085c.198 1.285.989 1.898 2.461 1.968 1.471.07 2.152-.472 2.196-1.255.065-.892-.66-1.265-1.868-1.508l-.878-.178c-1.538-.31-2.68-.88-2.725-2.36.044-1.35 1.273-2.346 3.206-2.296 2.043.072 3.119.968 3.361 2.601l-1.164.105c-.22-1.176-.791-1.744-2.263-1.814-1.251-.026-1.932.516-1.976 1.3-.065.892.791 1.178 1.999 1.421l.879.177c1.538.31 2.68.88 2.593 2.447-.088 1.567-1.405 2.433-3.448 2.36-2.152-.093-3.339-1.012-3.559-2.754l1.186-.214zm9.946.534c.089 1.262.726 2.07 2.286 2.271 1.449.18 2.218-.232 2.261-1.015.066-.892-.527-1.352-1.713-1.704l-.857-.286c-1.494-.527-2.614-1.206-2.439-2.642.175-1.436 1.471-2.194 3.47-1.904 1.998.29 2.943 1.273 3.054 2.993l-1.142-.004c-.111-1.154-.66-1.83-2-1.988-1.23-.134-1.999.276-2.152 1.038-.066.892.659 1.265 1.846 1.617l.856.286c1.494.527 2.505 1.184 2.307 2.728-.197 1.545-1.602 2.28-3.711 1.969-2.108-.312-3.273-1.339-3.251-3.146l1.185-.213zm18.555-1.917c1.933.615 2.922 1.946 2.768 3.84l-1.23-.135c.044-1.35-.44-2.352-1.846-2.75-1.735-.462-3.052.404-3.689 2.427-.614 1.913-.02 3.504 1.715 3.967 1.406.397 2.526-.057 3.118-1.296l1.033.548c-.922 1.738-2.415 2.343-4.458 1.705-2.482-.727-3.318-2.82-2.594-5.277.856-2.544 2.81-3.734 5.183-3.03zm7.473 2.636l1.055.438-2.963 6.76 3.998 1.712-.417.934-5.052-2.15 3.379-7.694zm9.889 11.614l-3.383-1.927-1.91 1.539-1.032-.548 7.07-5.592 1.032.548-1.116 8.942-1.033-.547.372-2.415zm.088-1.001l.613-4.178-3.271 2.623 2.658 1.555zm4.896 3.477c-.571 1.13-.329 2.197.989 3.029 1.209.81 1.999.855 2.592.183.483-.695.175-1.437-.682-2.288l-.659-.7c-1.142-1.135-1.714-2.269-.902-3.463.813-1.195 2.306-1.233 4.02-.096 1.691 1.247 1.999 2.554 1.253 3.988l-1.032-.547c.548-1.022.263-1.872-.836-2.659-.989-.765-1.911-.725-2.394-.03-.505.804-.043 1.35.792 2.31l.659.7c1.142 1.135 1.626 2.138.792 3.441-.944 1.281-2.416 1.21-4.239.051-1.802-1.269-2.22-2.598-1.408-4.358l1.055.439zm7.825 5.99c-.68 1.108-.548 2.154.638 3.072 1.055 1.005 1.955 1.073 2.548.4.593-.672.285-1.414-.44-2.352l-.549-.677c-1.011-1.222-1.451-2.443-.551-3.506.9-1.064 2.482-.971 3.932.34 1.56 1.333 1.736 2.726.77 4.116l-1.01-.656c.658-1 .482-1.827-.463-2.81-.966-.874-1.867-.942-2.328-.356-.593.673-.175 1.436.55 2.375l.549.676c1.011 1.223 1.473 2.334.441 3.485-1.032 1.15-2.591.949-4.129-.493-1.648-1.464-1.934-2.88-.925-4.487l.967.873zm11.003 2.671l.856.852-6.191 5.77-.857-.852 6.192-5.77zm6.261 6.921c1.275 1.615 1.187 3.182.09 4.659l-.879-.743c.9-1.064 1.009-2.174.087-3.265-1.099-1.353-2.703-1.337-4.327-.08-1.625 1.257-2.064 2.866-.965 4.22.901 1.2 2.131 1.335 3.295.664l.593 1.025c-1.669.908-3.294.468-4.679-1.17-1.538-2.007-1.099-4.183.943-5.808 2.042-1.626 4.392-1.379 5.842.498zm-.019 9.73c-.966.824-1.076 1.934-.284 3.112.791 1.178 1.625 1.573 2.284 1.14.791-.52.703-1.217.241-2.329l-.286-.85c-.615-1.482-.704-2.745.592-3.502 1.186-.78 2.679-.252 3.712 1.427 1.033 1.68.858 3.116-.394 4.222l-.747-.83c.835-.737 1.01-1.607.329-2.763-.703-1.047-1.428-1.42-2.197-1.009-.79.52-.593 1.239-.153 2.459l.286.85c.616 1.482.726 2.636-.592 3.503-1.317.866-2.767.121-3.91-1.581-1.121-1.81-1.055-3.268.46-4.548l.659.7z" fill="#F5E6E0"/><path d="M277.726 172.908c-5.162-1.04-10.279 2.229-11.331 7.45 1.03-5.112-2.288-10.195-7.56-11.258 5.162 1.041 10.279-2.229 11.331-7.449-1.031 5.111 2.288 10.195 7.56 11.257zM43.685 125.733c-5.162-1.04-10.279 2.229-11.331 7.45 1.03-5.112-2.288-10.195-7.56-11.257 5.162 1.04 10.278-2.23 11.33-7.45-.92 5.134 2.399 10.217 7.56 11.257z" stroke="#E2D6D2" stroke-width="1.619" stroke-miterlimit="10"/><path d="M80.898 199.106l3.889 4.519-.703.651-3.164-3.581-1.8 1.561 1.758 2.053c1.12 1.244 1.055 2.702-.175 3.699-1.12 1.02-2.569.841-3.69-.404l-2.505-2.882 6.39-5.616zm-2.569 3.67l-2.349 2.017 1.67 1.921c.637.807 1.538.876 2.24.225.813-.628.769-1.543.131-2.35l-1.692-1.813zm9.115 3.535l.857.852-5.884 5.945-.857-.852 5.884-5.945zm.462 11.864c-1.67-1.355-1.956-2.771-.968-4.269l1.032.547c-.659.999-.614 1.914.55 2.941.967.874 2 .855 2.592.183.615-.782.439-1.61-.726-2.637l-.79-.612.592-.673.791.613c.879.743 1.867.942 2.46.269.593-.673.307-1.523-.55-2.375-.967-.873-1.999-.855-2.855-.009l-.725-.939c1.23-.997 2.723-1.035 4.173.276 1.472 1.202 1.868 2.64.968 3.703-.593.673-1.428.845-2.372.428.725.938.77 1.853.023 2.721-1.054 1.259-2.614 1.058-4.195-.167zm10.677-2.488l1.01.656-1.975 2.998 4.042 2.625 1.976-2.997 1.01.656-4.609 6.994-1.01-.656 2.128-3.193-4.042-2.626-2.13 3.193-1.01-.657 4.61-6.993zm9.441 5.864l5.075 2.608-.395.826-4.042-2.06-1.164 2.369 3.515 1.84-.395.826-3.515-1.841-1.316 2.565 4.042 2.059-.395.826-5.075-2.607 3.665-7.411zm11.115 4.957c1.911.725 2.768 2.142 2.505 4.014l-1.208-.244c.154-1.327-.22-2.308-1.582-2.922-1.582-.659-3.009.186-3.865 2.164-.724 1.891-.24 3.46 1.341 4.118 1.384.505 2.504.052 3.207-1.164l1.01.656c-1.009 1.607-2.591 2.081-4.502 1.356-2.328-.922-3.054-2.992-2.11-5.405.811-2.327 2.964-3.364 5.204-2.573zm4.813 5.611l3.141.859-.307.957-3.142-.86.308-.956zm7.18-1.609l1.099.221-.68 3.938 4.875-3.205 1.318.265-4.875 3.206 3.538 5.127-1.428-.288-3.472-4.887-.723 4.155-1.098-.222 1.446-8.31zm8.9 8.585c.439-.477.702-1.783 1.096-5.438l.175-1.436 6.062.543-.765 8.334-1.12-.113.678-7.333-3.822-.318-.022.675c-.481 4.091-.723 5.287-1.447 6.047-.439.477-1.032.584-1.823.538l-.022-1.024a1.738 1.738 0 001.01-.475zm16.165-.25l-3.91.117-.812 2.327-1.142-.004 3.182-8.413 1.142.003 3.583 8.306-1.252-.026-.791-2.31zm-.506-.894l-1.627-3.837-1.47 3.892 3.097-.055zm8.191-6.046c2.108-.254 3.426.578 4.086 2.408l-1.098.345c-.44-1.221-1.319-1.964-2.834-1.816-1.757.211-2.613 1.623-2.349 3.714.287 1.982 1.407 3.226 3.186 2.906 1.406-.17 2.284-1.125 2.218-2.496l1.23.135c-.044 1.915-1.317 3.13-3.316 3.406-2.46.296-4.217-1.19-4.504-3.737-.396-2.57 1.031-4.546 3.381-4.865zm6.809-.891l1.076-.236 1.672 6.449 3.028-7.652 1.076-.236 2.024 8.104-1.076.236-1.672-6.449-3.138 7.63-1.076.236-1.914-8.082zm10.522-2.859l1.098-.345 1.407 3.793 2.524-5.151 1.362-.518-2.546 5.259 5.777 2.523-1.361.518-5.448-2.456 1.495 3.923-1.098.344-3.21-7.89zm16.052-.274l-3.426 1.686.198 2.417-1.01.476-.706-8.971 1.032-.584 6.899 6.031-1.032.584-1.955-1.639zm-.791-.612l-3.208-2.797.419 4.159 2.789-1.362zM93.175 188.112c-.395.26-.68.542-.966.824l-.088-.131.088.131.966-.824z" fill="#F5E6E0"/><path d="M165.722 139.466l23.781-15.919 17.918-11.782-.857-1.417-41.743 27.917-1.339.975-72.155 48.386.88 1.309.087.131 1.054-.693 13.175-9.229.79-.519c2.899-1.906 8.785-1.059 12.785 3.482 5.207 5.916 24.412 28.01 24.412 28.01l34.938-17.405.746-.302 5.81-28.823-20.282-24.121zm-20.818 68.693s-16.897-19.365-22.83-26.22c-2.219-2.597-5.163-6.134-9.227-6.953l.527-.346 6.478-4.354c2.745.554 6.151 3.504 8.26 6.08.374.414 23.754 28.443 23.754 28.443l-6.962 3.35zm-10.118-41.088c-1.582-1.79-3.537-2.863-5.251-3.435l16.403-11.068 16.304 19.472-4.384 22.319c.11.022-20.941-24.821-23.072-27.288zm32.605 29.888l-5.226 2.682-2.747-3.383 4.626-23.515 9.025-3.388-5.568 27.626-.11-.022zm7.105-30.146l-17.886-21.261 7.531-5.047.132-.086 19.249 23.007-9.026 3.387zm29.586-60.022l-5.555 3.747c-2.24 1.473-5.249 1.093-7.029-.85l-20.435-22.795-38.276 18.091-5.02 24.907-.154.761.462.546 14.107 16.765-53.513 35.845.88 1.309 97.253-65.171 18.093-12.085-.813-1.07zm-64.896 19.177l-9.487 3.407 4.692-23.276 9.728-4.603-4.933 24.472zm13.777 15l-11.69-14.014 8.982-3.169 10.24 12.137-7.532 5.046zm8.959-5.89l-10.415-12.399 4.231-20.992 21.226 23.407-15.042 9.984zm16.403-11.068l-22.258-24.52.833-4.133 4.919-2.291 23.796 25.962-7.29 4.982z" fill="#F5E6E0"/><path d="M180.388 183.508c.988.199 1.295-1.324.306-1.523-1.01-.09-1.295 1.323-.306 1.523z" fill="#F5E6E0"/></svg>