<svg width="856" height="291" viewBox="0 0 856 291" fill="none" xmlns="http://www.w3.org/2000/svg">
<path d="M720.4 95.3543L740.9 112.854L766.3 90.5543L736.2 66.5543L715.7 85.6543L692.6 66.5543L669 88.6543L686.7 103.854V186.954L672.1 200.254L713.7 226.754L735 202.954L716.4 191.154V99.3543L720.4 95.3543Z" fill="#352937"/>
<path d="M557.8 0.754257L533.3 22.9543L533.5 23.0543L558.7 38.4543L583.1 15.9543L557.8 0.754257Z" fill="#352937"/>
<path d="M556.4 95.5543L570.2 71.0543H533V23.5543L503.2 49.4543V70.4543L484.6 95.5543H503.2V187.354L489.3 200.154L531.5 226.954L553.1 202.754L533 190.054V95.5543H556.4Z" fill="#352937"/>
<path d="M605.2 66.5543L581.6 88.6543L590.8 96.5543L567.2 117.054V191.854L558 200.254L607.1 227.154L659.6 174.454V112.154L605.2 66.5543ZM629.8 204.054L596.9 186.354V101.854L629.8 130.154V204.054Z" fill="#352937"/>
<path d="M354 201.354L333.6 188.454V112.154L279.2 66.5543L255.6 88.6543L264.8 96.5543L271 101.854L280.7 110.154L280.9 110.354L271 119.054L270.7 119.354L242.5 144.154L241.2 145.454V191.754L231.7 200.454L233.5 201.554L237.9 204.354L273.4 226.954L294.1 203.754L296.1 201.854L335.4 226.954L356.5 203.254L354 201.354ZM303.9 190.954L293.7 200.254L292.3 201.454L271 187.954V134.354L288.3 116.754L303.9 130.254V190.954Z" fill="#352937"/>
<path d="M223 201.654L225 202.954L203.8 226.754L162.1 200.254L171 192.154V95.8543H146.5L160.2 71.4543L171.2 71.0543L171 55.6543L200.8 29.7543V71.4543H228.5L214.6 95.8543H200.8V187.554L201.8 188.154L223 201.654Z" fill="#352937"/>
<path d="M467.3 189.154V97.3543L430.5 66.4543L404.9 88.4543L378.7 66.4543L355 88.6543L372.7 103.854V189.154L362.3 200.154L395 226.754L418.4 202.954L402.4 189.654V105.754L414.7 95.4543L437.4 115.054V189.954L427.8 200.154L459 226.754L483.9 202.954L467.3 189.154Z" fill="#352937"/>
<path d="M855.7 173.554L855.6 104.554L765.5 27.1543V71.0543L826 122.254V203.554L855.7 173.554Z" fill="#352937"/>
<path d="M825.3 204.054L802.4 227.054L764.4 206.254L763.6 205.854L753.3 200.254L763.6 190.854V123.954L793.1 98.1543V186.754L825.3 204.054Z" fill="#352937"/>
<path d="M70.5001 46.1543L116.8 77.2543L144.2 47.7543L137.1 42.6543L128.8 51.1543L93.0001 26.2543L40.8001 71.6543V104.454L108.9 161.454V205.554C108.9 205.554 75.0001 177.954 73.1001 176.554C64.1001 169.554 51.0001 159.154 44.4001 165.554C40.5001 169.354 7.7001 201.854 0.100098 209.354L5.6001 213.754C17.1001 201.854 33.5001 182.354 44.1001 190.454C54.3001 198.154 55.7001 199.354 90.4001 226.354L138.7 186.154V142.654L70.5001 87.8543V46.1543Z" fill="#352937"/>
<path d="M237.9 276.354C236.7 275.754 235.2 275.454 233.6 275.454H220.3V268.354H240V265.754H220.3H218.3H217V289.754H219H220.2H233.5C234.8 289.754 235.9 289.554 236.9 289.254C237.9 288.954 238.8 288.454 239.5 287.854C240.2 287.254 240.7 286.554 241.1 285.654C241.5 284.754 241.7 283.754 241.7 282.654C241.7 281.154 241.4 279.854 240.7 278.854C240.1 277.754 239.1 276.954 237.9 276.354ZM237.8 285.154C237.4 285.854 236.8 286.354 236 286.654C235.2 286.954 234.3 287.154 233.1 287.154H220.2V278.054H233.1C234.1 278.054 235.1 278.254 235.9 278.554C236.7 278.954 237.3 279.454 237.7 280.154C238.1 280.854 238.3 281.654 238.3 282.654C238.4 283.654 238.2 284.454 237.8 285.154Z" fill="#352937"/>
<path d="M255.8 265.754H252.4V289.654H255.8V265.754Z" fill="#352937"/>
<path d="M288.9 277.754C288.3 277.554 287.6 277.354 286.9 277.254C287.3 277.154 287.7 277.054 288 276.954C288.9 276.654 289.6 276.254 290.2 275.754C290.8 275.254 291.2 274.654 291.5 274.054C291.8 273.454 291.9 272.654 291.9 271.854C291.9 270.854 291.6 269.854 291.1 269.054C290.6 268.254 289.8 267.554 288.7 267.054C287.6 266.554 286.3 266.154 284.7 265.854C283.1 265.554 281.3 265.454 279.2 265.454C276.7 265.454 274.5 265.754 272.7 266.254C270.9 266.754 269.5 267.554 268.5 268.654C267.5 269.654 266.8 270.954 266.5 272.554L269.7 273.254C269.9 272.154 270.4 271.154 271.1 270.354C271.9 269.554 272.9 268.954 274.2 268.554C275.5 268.154 277.2 267.954 279.1 267.954C280.6 267.954 282 268.054 283.1 268.254C284.2 268.454 285.2 268.754 285.9 269.054C286.7 269.454 287.2 269.854 287.6 270.354C288 270.854 288.2 271.454 288.2 272.154C288.2 272.854 288 273.454 287.7 273.954C287.4 274.454 286.9 274.854 286.2 275.154C285.6 275.454 284.8 275.754 284 275.854C283.1 275.954 282.2 276.054 281.1 276.054H274V278.554H281.5C283.2 278.554 284.6 278.754 285.7 279.054C286.8 279.354 287.6 279.854 288.2 280.454C288.7 281.054 289 281.854 289 282.854C289 283.654 288.8 284.254 288.4 284.854C288 285.454 287.4 285.954 286.5 286.354C285.7 286.754 284.7 287.054 283.5 287.254C282.3 287.454 280.9 287.554 279.3 287.554C277.2 287.554 275.5 287.354 274.1 286.954C272.7 286.554 271.6 285.954 270.9 285.054C270.2 284.254 269.7 283.254 269.6 282.054L266.2 282.654C266.4 284.254 267.1 285.654 268.1 286.754C269.1 287.854 270.6 288.654 272.4 289.254C274.3 289.754 276.6 290.054 279.3 290.054C281.4 290.054 283.3 289.954 285 289.654C286.7 289.354 288.1 288.954 289.2 288.354C290.3 287.754 291.2 287.054 291.8 286.154C292.4 285.254 292.7 284.254 292.7 283.154C292.7 281.854 292.4 280.754 291.7 279.854C291.1 278.854 290.1 278.254 288.9 277.754Z" fill="#352937"/>
<path d="M327 275.954H307V265.754H303.7V289.754H307V278.754H327V289.754H330.3V265.754H327V275.954Z" fill="#352937"/>
<path d="M346.3 278.754H363.6V276.154H346.3V268.454H365.5V265.754H346.3H345.2H343V289.754H345.2H346.3H365.7V287.054H346.3V278.754Z" fill="#352937"/>
<path d="M397.6 284.554C396.7 285.454 395.5 286.154 394.1 286.654C392.7 287.154 390.9 287.354 388.9 287.354C387.5 287.354 386.2 287.254 385 286.954C383.8 286.654 382.8 286.254 381.9 285.754C381 285.254 380.2 284.554 379.6 283.754C379 282.954 378.5 282.154 378.2 281.054C377.9 280.054 377.7 278.954 377.7 277.754C377.7 276.554 377.9 275.454 378.2 274.454C378.5 273.454 379 272.554 379.6 271.754C380.2 270.954 381 270.354 381.9 269.754C382.8 269.254 383.8 268.854 385 268.554C386.2 268.254 387.5 268.154 388.9 268.154C390.9 268.154 392.5 268.354 393.9 268.854C395.3 269.354 396.4 269.954 397.3 270.854C398.2 271.754 398.8 272.854 399.1 274.154L402.6 273.454C402.1 271.654 401.3 270.254 400.1 269.054C398.9 267.854 397.4 266.954 395.4 266.354C393.5 265.754 391.3 265.454 388.7 265.454C386.9 265.454 385.2 265.654 383.7 266.054C382.2 266.454 380.8 266.954 379.6 267.654C378.4 268.354 377.4 269.254 376.6 270.254C375.8 271.254 375.1 272.454 374.7 273.654C374.3 274.954 374 276.354 374 277.854C374 279.054 374.2 280.254 374.5 281.354C374.8 282.454 375.2 283.454 375.8 284.354C376.4 285.254 377.1 286.054 377.9 286.754C378.7 287.454 379.7 288.054 380.8 288.554C381.9 289.054 383.1 289.454 384.4 289.654C385.7 289.954 387.2 290.054 388.7 290.054C391.3 290.054 393.6 289.754 395.5 289.154C397.4 288.554 399 287.554 400.2 286.354C401.4 285.154 402.2 283.654 402.6 281.854L399.1 281.154C399.1 282.454 398.5 283.654 397.6 284.554Z" fill="#352937"/>
<path d="M457.2 265.754H452.4L435.6 277.554L452.8 289.754H457.8L440.6 277.254L457.2 265.754Z" fill="#352937"/>
<path d="M435.3 265.754H432V289.654H435.3V265.754Z" fill="#352937"/>
<path d="M490 265.754H474.3H472.7H471L470.9 270.154C470.9 272.154 470.8 273.854 470.7 275.354C470.6 276.854 470.5 278.154 470.4 279.254C470.3 280.354 470.2 281.254 470 282.054C469.9 282.854 469.7 283.454 469.5 283.954C469.3 284.454 469 284.954 468.7 285.354C468.2 285.954 467.7 286.354 467.1 286.554C466.5 286.854 465.7 286.954 464.9 287.054L465.2 289.854C466.1 289.854 467 289.654 467.7 289.554C468.4 289.354 469 289.154 469.6 288.754C470.2 288.454 470.7 287.954 471.2 287.454C471.6 286.954 472 286.354 472.3 285.754C472.6 285.154 472.9 284.354 473.1 283.454C473.3 282.554 473.5 281.554 473.6 280.354C473.7 279.154 473.9 277.654 473.9 276.054C474 274.354 474.1 272.454 474.1 270.354L474.2 268.354H490V289.754H493.3V265.754H490.8H490Z" fill="#352937"/>
<path d="M516.1 265.754L502.8 289.754H506.3L509.8 283.254H525.5L529.1 289.754H532.8L519.5 265.754H516.1ZM511.3 280.554L517.7 268.854L524.1 280.554H511.3Z" fill="#352937"/>
<path d="M562.8 284.554C561.9 285.454 560.7 286.154 559.3 286.654C557.9 287.154 556.1 287.354 554.1 287.354C552.7 287.354 551.4 287.254 550.2 286.954C549 286.654 548 286.254 547.1 285.754C546.2 285.254 545.4 284.554 544.8 283.754C544.2 282.954 543.7 282.154 543.4 281.054C543.1 280.054 542.9 278.954 542.9 277.754C542.9 276.554 543.1 275.454 543.4 274.454C543.7 273.454 544.2 272.554 544.8 271.754C545.4 270.954 546.2 270.354 547.1 269.754C548 269.254 549 268.854 550.2 268.554C551.4 268.254 552.7 268.154 554.1 268.154C556.1 268.154 557.7 268.354 559.1 268.854C560.5 269.354 561.6 269.954 562.5 270.854C563.4 271.754 564 272.854 564.3 274.154L567.8 273.454C567.3 271.654 566.5 270.254 565.3 269.054C564.1 267.854 562.6 266.954 560.6 266.354C558.7 265.754 556.5 265.454 553.9 265.454C552.1 265.454 550.4 265.654 548.9 266.054C547.4 266.454 546 266.954 544.8 267.654C543.6 268.354 542.6 269.254 541.8 270.254C541 271.254 540.3 272.454 539.9 273.654C539.5 274.954 539.2 276.354 539.2 277.854C539.2 279.054 539.4 280.254 539.7 281.354C540 282.454 540.4 283.454 541 284.354C541.6 285.254 542.3 286.054 543.1 286.754C543.9 287.454 544.9 288.054 546 288.554C547.1 289.054 548.3 289.454 549.6 289.654C550.9 289.954 552.4 290.054 553.9 290.054C556.5 290.054 558.8 289.754 560.7 289.154C562.6 288.554 564.2 287.554 565.4 286.354C566.6 285.154 567.4 283.654 567.8 281.854L564.3 281.154C564.3 282.454 563.7 283.654 562.8 284.554Z" fill="#352937"/>
<path d="M581.7 285.454V265.754H578.4V289.754H581.7L601.5 270.054V289.754H604.8V265.754H601.5L581.7 285.454Z" fill="#352937"/>
<path d="M642.6 265.754H637.8L621 277.554L638.2 289.754H643.2L626 277.254L642.6 265.754Z" fill="#352937"/>
<path d="M620.7 265.754H617.4V289.654H620.7V265.754Z" fill="#352937"/>
<path d="M676.7 289.754H680.4L667.1 265.754H663.6L650.4 289.754H653.9L657.4 283.254H673.1L676.7 289.754ZM658.9 280.554L665.3 268.854L671.7 280.554H658.9Z" fill="#352937"/>
<path d="M410.1 276.054H424.2V279.154H410.1V276.054Z" fill="#352937"/>
</svg>
