<svg width="303" height="296" viewBox="0 0 303 296" fill="none" xmlns="http://www.w3.org/2000/svg">
<path d="M26.6747 154.561L26.785 155.715C28.0812 156.656 29.6188 156.966 35.6806 156.377L38.7114 156.082L39.791 164.902L27.9749 166.255L28.1293 167.757L23.561 168.308L23.3407 166.566L26.3716 166.271L25.2697 156.429L22.2389 156.723L22.0186 154.981L26.6747 154.561ZM27.0712 157.697L27.8426 164.644L38.0114 163.524L37.3724 158.189L35.857 158.336C32.255 158.629 30.3003 158.688 28.8725 158.4C28.2355 158.158 27.5985 157.917 27.0712 157.697Z" fill="#F5E6E0"/>
<path d="M34.4121 172.307C38.2774 171.275 41.6384 172.745 42.8039 176.601C43.8596 180.436 41.7741 183.411 37.887 184.552C33.9119 185.561 30.6607 184.114 29.5171 180.148C28.3516 176.291 30.437 173.316 34.4121 172.307ZM37.2493 182.612C40.3898 181.774 42.0364 179.842 41.2446 176.966C40.4528 174.09 37.9926 173.255 34.8521 174.093C31.7115 174.931 30.1748 176.885 30.8567 179.739C31.7583 182.637 34.2186 183.473 37.2493 182.612Z" fill="#F5E6E0"/>
<path d="M46.3021 188.172L48.7421 193.643C49.7753 195.889 49.2708 197.825 47.2724 198.667C45.9109 199.185 44.5929 198.919 43.5383 197.914C43.7805 199.547 43.1441 201.004 41.541 201.586C39.5426 202.428 37.6534 201.595 36.5543 199.11L34.0483 193.398L46.3021 188.172ZM40.3516 192.744L36.2231 194.515L37.9597 198.374C38.6631 199.987 39.8274 200.448 41.0791 199.908C42.4626 199.282 42.7476 197.868 42.1101 196.494L40.3516 192.744ZM45.6221 190.411L41.6253 192.096L43.208 195.584C43.8454 196.957 44.9878 197.527 46.2395 196.987C47.4912 196.447 47.8422 195.273 47.2048 193.899L45.6221 190.411Z" fill="#F5E6E0"/>
<path d="M53.4002 202.845L58.1472 210.479L56.8517 211.237L53.1595 205.173L49.6241 207.403L52.8987 212.704L51.6031 213.461L48.3286 208.16L44.4199 210.542L48.2219 216.628L46.9263 217.385L42.1793 209.751L53.4002 202.845Z" fill="#F5E6E0"/>
<path d="M51.0125 220.925L51.7377 221.864C53.3191 221.956 54.7905 221.461 59.5552 217.667L61.9925 215.782L67.6837 222.701L58.5276 230.137L59.5384 231.359L55.9813 234.264L54.8826 232.911L57.2101 231.003L50.8597 223.385L48.5322 225.292L47.4336 223.939L51.0125 220.925ZM53.056 223.261L57.5606 228.697L65.4872 222.258L61.9933 218.046L60.7857 218.934C57.9312 221.188 56.3502 222.228 54.9886 222.745C54.3518 223.07 53.6271 223.263 53.056 223.261Z" fill="#F5E6E0"/>
<path d="M72.5623 227.42L79.2196 233.515L78.1877 234.665L72.9805 229.881L70.1923 232.941L74.8282 237.157L73.7963 238.308L69.1604 234.091L66.0867 237.433L71.4037 242.24L70.3719 243.39L63.7146 237.294L72.5623 227.42Z" fill="#F5E6E0"/>
<path d="M83.5482 236.991L85.064 237.976L81.8371 242.645L88.1643 246.976L91.3912 242.307L92.9071 243.291L85.4435 254.237L83.9276 253.253L87.3521 248.17L81.0249 243.839L77.6004 248.921L76.0845 247.937L83.5482 236.991Z" fill="#F5E6E0"/>
<path d="M95.0851 252.333C96.8408 248.725 100.135 247.125 103.781 248.879C107.428 250.633 108.44 254.119 106.684 257.726C104.928 261.334 101.634 262.934 97.9876 261.18C94.3409 259.426 93.4391 255.962 95.0851 252.333ZM105.036 256.828C106.419 253.938 105.891 251.455 103.189 250.118C100.465 248.89 98.269 250.145 96.8864 253.035C95.5037 255.926 96.0318 258.409 98.624 259.724C101.348 260.952 103.654 259.719 105.036 256.828Z" fill="#F5E6E0"/>
<path d="M124.692 257.961L120.101 256.922L120.408 255.4L131.435 257.962L131.128 259.485L126.537 258.446L123.884 269.909L122.039 269.424L124.692 257.961Z" fill="#F5E6E0"/>
<path d="M136.639 258.784L141.911 259.281C144.722 259.508 146.392 261.429 146.174 264.215C145.867 266.87 143.847 268.386 140.948 268.028L137.587 267.691L137.15 272.13L135.239 271.971L136.639 258.784ZM138.353 260.488L137.762 266.254L140.903 266.548C142.814 266.707 144.132 265.841 144.263 264.056C144.416 262.163 143.383 261.049 141.362 260.868L138.353 260.488Z" fill="#F5E6E0"/>
<path d="M158.983 269.286L152.767 269.505L151.473 273.092L149.628 273.173L154.609 259.803L156.454 259.722L162.279 272.78L160.324 272.839L158.983 269.286ZM158.368 267.804L155.708 261.722L153.426 267.94L158.368 267.804Z" fill="#F5E6E0"/>
<path d="M167.131 270.816L168.317 270.603C169.151 269.299 169.458 267.777 168.512 261.7L167.983 258.651L176.856 257.157L178.991 268.68L180.528 268.424L181.343 272.889L179.564 273.209L179.013 270.269L169.174 272.02L169.725 274.961L167.946 275.281L167.131 270.816ZM170.206 270.304L177.08 269.087L175.232 258.98L169.895 259.942L170.159 261.467C170.687 265.082 170.886 266.933 170.71 268.369C170.689 269.043 170.447 269.674 170.206 270.304Z" fill="#F5E6E0"/>
<path d="M183.335 255.633L185.048 255.073L188.522 265.054L192.295 252.573L194.008 252.012L198.34 264.543L196.627 265.104L193.153 255.122L189.27 267.582L187.557 268.142L183.335 255.633Z" fill="#F5E6E0"/>
<path d="M200.161 249.291L201.83 248.382L207.391 258.784L213.913 255.345L208.352 244.943L210.021 244.035L215.582 254.436L216.987 253.701L219.141 257.757L217.604 258.579L216.197 255.919L206.601 261.002L200.161 249.291Z" fill="#F5E6E0"/>
<path d="M215.792 240.332L217.373 239.292L224.998 250.223L223.417 251.263L215.792 240.332Z" fill="#F5E6E0"/>
<path d="M237.252 240.469L233.802 236.605L232.133 238.079L232.399 244.698L230.752 246.063L230.508 239.336C228.51 240.745 226.358 240.65 224.864 238.991C223.194 237.07 223.434 234.741 225.498 233.007L229.78 229.343L238.613 239.386L237.252 240.469ZM232.879 235.513L229.429 231.649L226.794 233.947C225.543 235.053 225.368 236.489 226.379 237.712C227.389 238.934 228.861 239.004 230.112 237.898L232.879 235.513Z" fill="#F5E6E0"/>
<path d="M234.721 224.679L236.082 223.03L246.187 225.066L242.273 215.563L243.613 214.022L253.895 222.546L252.841 223.805L244.514 216.92L248.032 225.552L246.978 226.81L237.752 224.951L246.079 231.836L245.025 233.095L234.721 224.679Z" fill="#F5E6E0"/>
<path d="M247.233 208.526L248.111 207.006L257.338 212.261L251.974 200.314L252.852 198.793L264.43 205.428L263.552 206.949L254.325 201.693L259.689 213.64L258.811 215.161L247.233 208.526Z" fill="#F5E6E0"/>
<path d="M60.3125 124.897L61.4108 125.119L59.7665 133.276L58.6683 133.054L60.3125 124.897ZM65.5842 125.96L66.9021 126.225L61.676 129.473L61.7417 129.147L65.3458 134.514L63.918 134.226L60.4679 129.229L65.5842 125.96Z" fill="#F5E6E0"/>
<path d="M69.9805 126.846L71.0787 127.067L69.4345 135.224L68.3362 135.003L69.9805 126.846ZM69.7633 133.593L75.9111 128.041L75.5823 129.673L69.4345 135.224L69.7633 133.593ZM75.9111 128.041L77.0094 128.263L75.3652 136.42L74.2669 136.199L75.9111 128.041Z" fill="#F5E6E0"/>
<path d="M80.4121 126.684L81.5104 126.906L81.2692 128.102L80.171 127.881L80.4121 126.684ZM81.1817 129.103L82.3898 129.347L80.7456 137.504L79.5375 137.26L81.1817 129.103ZM82.8283 127.171L83.9266 127.393L83.6854 128.589L82.5871 128.368L82.8283 127.171Z" fill="#F5E6E0"/>
<path d="M86.4507 130.165L87.549 130.387L85.9048 138.544L84.8065 138.322L86.4507 130.165ZM91.2639 138.605C90.9785 138.887 90.6052 139.039 90.2319 139.19C89.7487 139.319 89.3094 139.23 88.7603 139.119L85.9048 138.544L86.0801 137.674L88.716 138.205C89.0455 138.271 89.3969 138.229 89.6385 138.165C89.88 138.1 90.1216 138.036 90.2753 137.84C90.429 137.645 90.5826 137.449 90.6484 137.123C90.7142 136.797 90.6482 136.557 90.5822 136.318C90.5162 136.078 90.3185 135.925 90.0109 135.75C89.8132 135.597 89.5056 135.421 89.1762 135.355L86.4305 134.802L86.6278 133.823L89.2636 134.354C89.4833 134.398 89.703 134.443 89.9445 134.378C90.1861 134.314 90.2959 134.336 90.5594 134.162C90.6912 134.076 90.8229 133.989 90.9766 133.794C91.1303 133.598 91.1522 133.49 91.1961 133.272C91.2618 132.946 91.1958 132.706 91.1299 132.467C91.0639 132.227 90.8662 132.074 90.6684 131.921C90.4707 131.768 90.1412 131.701 89.8117 131.635L87.1759 131.104L87.3513 130.233L90.2068 130.809C90.6461 130.898 90.9756 130.964 91.1733 131.117C91.4808 131.292 91.6786 131.445 91.8544 131.707C92.0302 131.969 92.0962 132.209 92.272 132.47C92.338 132.71 92.382 133.058 92.3162 133.385C92.2724 133.602 92.2066 133.929 92.053 134.124C91.8993 134.319 91.7456 134.515 91.5919 134.71C91.4383 134.906 91.1967 134.97 90.9551 135.035C90.7135 135.099 90.472 135.163 90.1425 135.097L89.9667 134.835C90.406 134.924 90.8234 135.121 91.109 135.405C91.3946 135.689 91.6803 135.973 91.7243 136.321C91.8782 136.692 91.9223 137.04 91.8346 137.475C91.7469 137.91 91.5494 138.323 91.2639 138.605Z" fill="#F5E6E0"/>
<path d="M92.607 143.855L57.1328 136.705L56.9355 137.684L92.4097 144.834L92.607 143.855Z" fill="#F5E6E0"/>
<path d="M96.0914 126.562L60.6172 119.412L60.4199 120.391L95.8941 127.541L96.0914 126.562Z" fill="#F5E6E0"/>
<path d="M210.771 155.23L211.87 155.451L210.226 163.608L209.127 163.387L210.771 155.23ZM215.933 156.27L217.361 156.558L210.554 160.845L210.18 159.864L215.933 156.27ZM212.442 158.849L215.937 164.76L214.509 164.472L211.498 159.564L212.442 158.849Z" fill="#F5E6E0"/>
<path d="M222.237 162.969L221.403 162.574L219.336 156.951L220.654 157.217L222.259 161.728L221.929 161.661L225.267 158.146L226.585 158.412L222.237 162.969ZM221.402 162.008L222.611 162.251L221.865 165.949L220.657 165.706L221.402 162.008Z" fill="#F5E6E0"/>
<path d="M229.555 159.01L230.763 159.254L229.118 167.411L227.91 167.168L229.555 159.01Z" fill="#F5E6E0"/>
<path d="M236.341 167.848L236.012 167.782L240.226 161.048L241.434 161.291L236.495 168.785L235.287 168.541L233.637 159.72L234.845 159.963L236.341 167.848Z" fill="#F5E6E0"/>
<path d="M241.312 173.83L205.838 166.679L205.641 167.658L241.115 174.809L241.312 173.83Z" fill="#F5E6E0"/>
<path d="M244.796 156.537L209.322 149.386L209.125 150.365L244.599 157.516L244.796 156.537Z" fill="#F5E6E0"/>
<path d="M40.6383 88.6742L43.2722 84.1119C44.677 81.6787 47.1147 80.925 49.4654 82.3043C51.816 83.6836 52.344 86.1668 50.9393 88.6001L49.2272 91.4241L53.1156 93.6792L52.2157 95.3088L40.6383 88.6742ZM42.9662 87.8984L47.975 90.8321L49.5334 88.2035C50.5432 86.5961 50.1911 84.9406 48.6533 84.0647C47.0057 83.1667 45.5343 83.6624 44.5246 85.2698L42.9662 87.8984Z" fill="#F5E6E0"/>
<path d="M50.0085 73.9246L53.5211 69.5394C55.3432 67.3035 57.4516 67.0494 59.4289 68.5798C61.2085 69.9571 61.385 71.9168 60.1777 73.9371L67.1403 73.9823L65.7572 75.7408L59.0143 75.7399L57.6093 77.6072L61.7617 80.821L60.5542 82.2753L50.0085 73.9246ZM52.3804 73.4972L56.335 76.558L58.4865 73.8226C59.5622 72.4548 59.6275 70.9966 58.3313 70.0563C57.057 69.0071 55.7393 69.3074 54.5318 70.7618L52.3804 73.4972Z" fill="#F5E6E0"/>
<path d="M65.4464 65.9456C62.6119 62.9974 62.4349 59.3398 65.377 56.6506C68.3191 53.9613 72.0092 54.3656 74.7338 57.2916C77.4584 60.2176 77.7453 63.8973 74.8032 66.5866C71.861 69.2758 68.2808 68.8937 65.4464 65.9456ZM73.4384 58.6151C71.2851 56.2569 68.6493 55.7256 66.5195 57.7863C64.3898 59.8471 64.6763 62.3949 66.9614 64.6664C69.1147 67.0245 71.6407 67.5337 73.8803 65.4951C75.9002 63.4122 75.6137 60.8644 73.4384 58.6151Z" fill="#F5E6E0"/>
<path d="M86.1781 54.3911L83.3405 42.9536L84.9215 41.9141L88.3091 55.7261L86.7281 56.7656L74.7329 48.8018L76.3358 47.6535L86.1781 54.3911Z" fill="#F5E6E0"/>
<path d="M91.1089 38.4073L99.1242 34.3638L99.8715 35.7594L93.5251 38.8943L95.4154 42.5577L101.015 39.725L101.74 41.2294L96.1407 44.0621L98.1849 48.0959L104.663 44.8744L105.41 46.27L97.2852 50.2914L91.1089 38.4073Z" fill="#F5E6E0"/>
<path d="M106.375 31.2984L108.198 30.7604L118.941 38.6982L115.423 28.3685L117.004 27.895L121.204 40.5125L119.381 41.0506L108.616 33.2215L112.134 43.5512L110.553 44.0248L106.375 31.2984Z" fill="#F5E6E0"/>
<path d="M134.069 24.3173L140.131 23.7282C142.591 23.4318 144.304 24.5695 144.459 26.6379C144.635 28.0316 143.933 29.2482 142.659 29.897C144.306 30.229 145.471 31.256 145.603 32.8673C145.846 35.0666 144.397 36.5854 141.717 36.8376L135.436 37.3824L134.069 24.3173ZM136.09 25.6302L136.487 29.8979L140.331 29.5408C141.846 29.3936 142.724 28.4388 142.636 27.1759C142.592 25.6956 141.581 25.0392 139.934 25.2731L136.09 25.6302ZM136.642 31.4004L137.104 35.9079L141.299 35.5084C143.056 35.2966 143.803 34.4285 143.736 33.0569C143.582 31.5544 142.352 30.8537 140.727 30.9788L136.642 31.4004Z" fill="#F5E6E0"/>
<path d="M154.873 31.1135L150.302 23.1747L152.454 23.269L155.971 29.637L160.032 23.6646L162.074 23.7368L156.872 31.4032L156.698 36.8009L154.765 36.7509L154.873 31.1135Z" fill="#F5E6E0"/>
<path d="M179.711 28.0832L175.142 26.9359L175.559 25.4353L186.564 28.1063L186.147 29.6069L181.578 28.4595L178.815 39.9L176.97 39.4149L179.711 28.0832Z" fill="#F5E6E0"/>
<path d="M193.396 30.5027L198.69 32.5884C201.326 33.6857 202.315 35.5828 201.371 37.9958C200.494 40.0826 198.737 40.8603 196.474 40.1779L198.453 46.8019L196.345 45.9241L194.322 39.5176L192.213 38.6398L190.304 43.5746L188.612 42.8941L193.396 30.5027ZM194.583 32.5528L192.739 37.1613L196.012 38.5002C197.704 39.1807 199.044 38.7716 199.57 37.2932C200.206 35.8369 199.547 34.5722 197.856 33.8917L194.583 32.5528Z" fill="#F5E6E0"/>
<path d="M211.987 49.9833L206.671 46.8744L203.685 49.2152L202.037 48.3172L213.411 39.5179L215.059 40.4159L213.109 54.6236L211.462 53.7255L211.987 49.9833ZM212.206 48.3297L213.192 41.7374L207.9 45.8772L212.206 48.3297Z" fill="#F5E6E0"/>
<path d="M225.646 47.4162L229.381 50.4327C232.83 53.1653 233.029 56.714 230.461 59.8181C227.892 62.9222 224.466 63.4767 221.017 60.7441L217.282 57.7276L225.646 47.4162ZM228.989 58.616C230.964 56.1847 230.92 53.5724 228.459 51.605L226.196 49.7907L219.786 57.7796L222.048 59.5939C224.531 61.4525 227.145 60.9606 228.989 58.616Z" fill="#F5E6E0"/>
<path d="M240.253 59.9813L241.593 61.2701L232.064 70.5545L230.724 69.2657L240.253 59.9813Z" fill="#F5E6E0"/>
<path d="M248.104 70.958L245.181 67.3129L246.411 66.3158L253.443 75.09L252.213 76.0872L249.291 72.4422L240.046 79.7467L238.86 78.2625L248.104 70.958Z" fill="#F5E6E0"/>
<path d="M257.197 80.827L258.252 82.3979L247.009 89.4127L245.954 87.8419L257.197 80.827Z" fill="#F5E6E0"/>
<path d="M256.241 91.8395C259.908 90.0886 263.488 91.0367 265.159 94.6557C266.94 98.2969 265.359 101.6 261.692 103.351C258.025 105.102 254.444 104.154 252.774 100.535C250.993 96.8936 252.464 93.5681 256.241 91.8395ZM260.901 101.607C263.799 100.267 265.051 98.0294 263.776 95.2823C262.479 92.6441 259.953 92.1349 257.032 93.5835C254.133 94.9233 252.882 97.1612 254.179 99.7994C255.454 102.546 258.002 102.947 260.901 101.607Z" fill="#F5E6E0"/>
<path d="M270.564 108.082L271.113 109.891L262.749 120.202L273.29 117.234L273.774 118.803L260.927 122.438L260.377 120.63L268.741 110.318L258.2 113.287L257.716 111.718L270.564 108.082Z" fill="#F5E6E0"/>
<path d="M266.728 129.38C264.774 130.004 263.917 131.416 264.248 133.746C264.6 135.968 265.523 137.059 266.819 136.868C268.224 136.698 268.575 135.524 268.728 133.631L268.794 132.173C268.968 129.605 269.473 127.669 271.911 127.481C274.129 127.249 275.865 128.844 276.371 132.002C276.768 135.138 275.692 137.072 273.035 137.781L272.595 135.995C274.418 135.457 275.12 134.24 274.856 132.15C274.569 130.168 273.625 129.185 272.329 129.377C270.813 129.524 270.66 130.851 270.485 132.853L270.42 134.311C270.245 136.879 269.675 138.575 267.215 138.872C264.755 139.168 263.063 137.356 262.688 134.111C262.226 130.736 263.323 128.693 266.222 127.919L266.728 129.38Z" fill="#F5E6E0"/>
<path d="M92.9281 71.9366L96.0022 69.7267C97.3197 68.8604 98.5717 68.8864 99.253 70.0424C99.7804 70.8278 99.7368 71.6113 99.2319 72.415C100.22 72.0483 101.187 72.3563 101.824 73.1638C102.615 74.3419 102.374 75.5383 100.925 76.4912L97.7188 78.7878L92.9281 71.9366ZM94.3997 72.0069L96.0039 74.2543L98.0021 72.8462C98.7926 72.3264 98.968 71.4563 98.5285 70.8018C97.9791 70.1252 97.2982 70.1011 96.5077 70.6209L94.3997 72.0069ZM96.5313 75.0398L98.2234 77.4181L100.353 75.9233C101.276 75.317 101.429 74.5556 100.88 73.879C100.352 73.0935 99.4298 73.134 98.6393 73.6537L96.5313 75.0398Z" fill="#F5E6E0"/>
<path d="M109.076 71.7953C107.166 72.7684 105.54 72.3275 104.529 70.5392L102.024 65.9596L103.056 65.3753L105.54 70.0637C106.199 71.3284 107.385 71.6807 108.549 71.0099C109.713 70.339 110.152 69.2956 109.383 68.0087L106.899 63.3203L107.931 62.7361L110.437 67.3157C111.535 69.235 110.877 70.8 109.076 71.7953Z" fill="#F5E6E0"/>
<path d="M114.846 65.8273C115.527 66.9833 116.516 67.1825 117.877 66.6647C119.239 66.1468 119.722 65.4519 119.436 64.602C119.15 63.7521 118.359 63.7059 117.173 63.9196L116.339 64.0909C114.779 64.4557 113.44 64.2988 112.912 62.9475C112.384 61.5961 113.109 60.2707 114.953 59.6239C116.82 58.8683 118.226 59.2649 119.061 60.7914L118.029 61.3757C117.436 60.3506 116.579 60.0647 115.327 60.6047C114.097 61.0359 113.702 61.8617 114.032 62.4941C114.428 63.3661 115.24 63.3036 116.426 63.0899L117.261 62.9186C118.798 62.6625 120.05 62.6885 120.556 64.1487C121.171 65.6309 120.227 66.912 118.361 67.6676C116.362 68.5098 114.957 68.1132 113.924 66.4337L114.846 65.8273Z" fill="#F5E6E0"/>
<path d="M122.066 57.2106L123.164 56.866L125.671 64.8414L124.573 65.1859L122.066 57.2106Z" fill="#F5E6E0"/>
<path d="M127.889 55.5545L129.075 55.3409L135.227 61.1082L133.841 54.3774L134.917 54.1416L136.568 62.397L135.382 62.6107L129.23 56.8434L130.616 63.5742L129.54 63.81L127.889 55.5545Z" fill="#F5E6E0"/>
<path d="M139.836 53.5481L145.524 53.1101L145.568 54.0245L141.044 54.3576L141.309 57.0141L145.262 56.6791L145.306 57.5935L141.353 57.9285L141.573 60.8025L146.098 60.4695L146.142 61.3839L140.454 61.8218L139.836 53.5481Z" fill="#F5E6E0"/>
<path d="M149.902 58.6335C150.1 59.9184 150.891 60.5306 152.363 60.6009C153.834 60.6711 154.515 60.1292 154.559 59.3457C154.624 58.4535 153.899 58.081 152.691 57.8375L151.813 57.6604C150.275 57.3505 149.133 56.7807 149.088 55.3003C149.132 53.9509 150.361 52.9537 152.294 53.0038C154.337 53.0759 155.413 53.972 155.655 55.6054L154.491 55.7103C154.271 54.5341 153.7 53.9663 152.228 53.896C150.977 53.87 150.296 54.4119 150.252 55.1954C150.187 56.0876 151.043 56.3735 152.251 56.617L153.13 56.7941C154.668 57.104 155.81 57.6738 155.723 59.2408C155.635 60.8078 154.318 61.6741 152.275 61.6019C150.123 61.5075 148.936 60.5893 148.716 58.8472L149.902 58.6335Z" fill="#F5E6E0"/>
<path d="M159.848 59.1666C159.937 60.4295 160.574 61.237 162.134 61.4382C163.583 61.6172 164.352 61.2062 164.395 60.4227C164.461 59.5305 163.868 59.0713 162.682 58.7191L161.825 58.4332C160.331 57.9057 159.211 57.2272 159.386 55.7911C159.561 54.355 160.857 53.5975 162.856 53.8873C164.854 54.177 165.799 55.1597 165.91 56.8797L164.768 56.8759C164.657 55.7218 164.108 55.0452 162.768 54.8883C161.538 54.7535 160.769 55.1645 160.616 55.9259C160.55 56.8181 161.275 57.1906 162.462 57.5429L163.318 57.8287C164.812 58.3562 165.823 59.0126 165.625 60.5575C165.428 62.1023 164.023 62.8376 161.914 62.5258C159.806 62.2139 158.641 61.187 158.663 59.3803L159.848 59.1666Z" fill="#F5E6E0"/>
<path d="M178.403 57.2492C180.336 57.8652 181.325 59.1963 181.171 61.0896L179.941 60.9549C179.985 59.6054 179.501 58.6025 178.095 58.2059C176.36 57.743 175.043 58.6092 174.406 60.6315C173.792 62.5449 174.386 64.136 176.121 64.5989C177.527 64.9955 178.647 64.5421 179.239 63.3034L180.272 63.8511C179.35 65.5894 177.857 66.1938 175.814 65.5557C173.332 64.829 172.496 62.7365 173.22 60.2792C174.076 57.7353 176.03 56.5446 178.403 57.2492Z" fill="#F5E6E0"/>
<path d="M185.876 59.8856L186.931 60.3245L183.968 67.0842L187.966 68.7955L187.549 69.7301L182.497 67.5799L185.876 59.8856Z" fill="#F5E6E0"/>
<path d="M195.765 71.4997L192.382 69.5728L190.472 71.1118L189.44 70.5642L196.51 64.972L197.542 65.5196L196.426 74.4623L195.393 73.9146L195.765 71.4997ZM195.853 70.4987L196.466 66.3214L193.195 68.9442L195.853 70.4987Z" fill="#F5E6E0"/>
<path d="M200.749 73.9757C200.178 75.1057 200.42 76.1731 201.738 77.0047C202.947 77.8142 203.737 77.8604 204.33 77.1876C204.813 76.4926 204.505 75.7515 203.648 74.8997L202.989 74.2009C201.847 73.0651 201.275 71.9313 202.087 70.7368C202.9 69.5423 204.393 69.5038 206.107 70.6415C207.798 71.888 208.106 73.1951 207.36 74.6292L206.328 74.0815C206.876 73.0603 206.591 72.2104 205.492 71.4231C204.503 70.6579 203.581 70.6983 203.098 71.3932C202.593 72.1969 203.055 72.7427 203.89 73.7033L204.549 74.4021C205.691 75.5378 206.175 76.5408 205.341 77.844C204.397 79.1251 202.925 79.0549 201.102 77.895C199.3 76.6264 198.882 75.2972 199.694 73.5368L200.749 73.9757Z" fill="#F5E6E0"/>
<path d="M208.574 79.9665C207.894 81.0744 208.026 82.1197 209.212 83.0379C210.267 84.0428 211.167 84.1111 211.76 83.4383C212.353 82.7655 212.045 82.0244 211.32 81.0859L210.771 80.4093C209.76 79.1869 209.32 77.9664 210.22 76.9029C211.12 75.8393 212.702 75.9317 214.152 77.2426C215.712 78.5757 215.888 79.9694 214.922 81.3593L213.912 80.7029C214.57 79.7038 214.394 78.876 213.449 77.8933C212.483 77.0193 211.582 76.951 211.121 77.5372C210.528 78.21 210.946 78.9732 211.671 79.9117L212.22 80.5883C213.231 81.8107 213.693 82.9224 212.661 84.0726C211.629 85.2228 210.07 85.0216 208.532 83.5798C206.884 82.1158 206.598 80.7 207.607 79.0926L208.574 79.9665Z" fill="#F5E6E0"/>
<path d="M219.577 82.6374L220.433 83.4892L214.242 89.2585L213.385 88.4067L219.577 82.6374Z" fill="#F5E6E0"/>
<path d="M225.838 89.5581C227.113 91.1732 227.025 92.7402 225.928 94.2167L225.049 93.4736C225.949 92.4101 226.058 91.3003 225.136 90.2088C224.037 88.8555 222.433 88.8719 220.809 90.1289C219.184 91.386 218.745 92.9953 219.844 94.3486C220.745 95.5488 221.975 95.6836 223.139 95.0127L223.732 96.0378C222.063 96.9464 220.438 96.5056 219.053 94.8683C217.515 92.8605 217.954 90.6853 219.996 89.0596C222.038 87.4339 224.388 87.6812 225.838 89.5581Z" fill="#F5E6E0"/>
<path d="M225.819 99.2882C224.853 100.112 224.743 101.222 225.535 102.4C226.326 103.578 227.16 103.973 227.819 103.54C228.61 103.02 228.522 102.323 228.06 101.211L227.774 100.361C227.159 98.8791 227.07 97.6163 228.366 96.8588C229.552 96.0792 231.045 96.6066 232.078 98.2862C233.111 99.9658 232.936 101.402 231.684 102.508L230.937 101.678C231.772 100.941 231.947 100.071 231.266 98.9147C230.563 97.8675 229.838 97.495 229.069 97.906C228.279 98.4258 228.476 99.1448 228.916 100.365L229.202 101.215C229.818 102.697 229.928 103.851 228.61 104.718C227.293 105.584 225.843 104.839 224.7 103.137C223.579 101.327 223.645 99.8686 225.16 98.5894L225.819 99.2882Z" fill="#F5E6E0"/>
<path d="M277.726 172.908C272.564 171.868 267.447 175.137 266.395 180.358C267.425 175.246 264.107 170.163 258.835 169.1C263.997 170.141 269.114 166.871 270.166 161.651C269.135 166.762 272.454 171.846 277.726 172.908Z" stroke="#E2D6D2" stroke-width="1.61883" stroke-miterlimit="10"/>
<path d="M43.6846 125.733C38.5227 124.693 33.4063 127.962 32.354 133.183C33.3844 128.071 30.066 122.988 24.7943 121.926C29.9562 122.966 35.0725 119.696 36.1248 114.476C35.2043 119.61 38.5227 124.693 43.6846 125.733Z" stroke="#E2D6D2" stroke-width="1.61883" stroke-miterlimit="10"/>
<path d="M80.8978 199.106L84.787 203.625L84.0844 204.276L80.9203 200.695L79.1199 202.256L80.8777 204.309C81.9983 205.553 81.933 207.011 80.7034 208.008C79.5836 209.028 78.134 208.849 77.0133 207.604L74.5084 204.722L80.8978 199.106ZM78.3294 202.776L75.98 204.793L77.65 206.714C78.2872 207.521 79.1877 207.59 79.8903 206.939C80.7028 206.311 80.6585 205.396 80.0212 204.589L78.3294 202.776Z" fill="#F5E6E0"/>
<path d="M87.4443 206.311L88.3012 207.163L82.4172 213.108L81.5602 212.256L87.4443 206.311Z" fill="#F5E6E0"/>
<path d="M87.9056 218.175C86.2358 216.82 85.9498 215.404 86.9376 213.906L87.9701 214.453C87.3115 215.452 87.3558 216.367 88.5203 217.394C89.487 218.268 90.5193 218.249 91.1121 217.577C91.7268 216.795 91.5507 215.967 90.3863 214.94L89.5953 214.328L90.1881 213.655L90.979 214.268C91.8579 215.011 92.8463 215.21 93.4391 214.537C94.0319 213.864 93.746 213.014 92.8891 212.162C91.9224 211.289 90.8901 211.307 90.0338 212.153L89.3087 211.214C90.5383 210.217 92.0318 210.179 93.4819 211.49C94.9539 212.692 95.3498 214.13 94.4497 215.193C93.8569 215.866 93.0223 216.038 92.0777 215.621C92.8029 216.559 92.8472 217.474 92.1007 218.342C91.0469 219.601 89.4874 219.4 87.9056 218.175Z" fill="#F5E6E0"/>
<path d="M98.583 215.687L99.5935 216.343L97.6179 219.341L101.66 221.966L103.636 218.969L104.646 219.625L100.037 226.619L99.0261 225.963L101.155 222.77L97.1131 220.144L94.9838 223.337L93.9732 222.68L98.583 215.687Z" fill="#F5E6E0"/>
<path d="M108.024 221.551L113.099 224.159L112.704 224.985L108.662 222.925L107.498 225.294L111.013 227.134L110.618 227.96L107.103 226.119L105.787 228.684L109.829 230.743L109.434 231.569L104.359 228.962L108.024 221.551Z" fill="#F5E6E0"/>
<path d="M119.139 226.508C121.05 227.233 121.907 228.65 121.644 230.522L120.436 230.278C120.59 228.951 120.216 227.97 118.854 227.356C117.272 226.697 115.845 227.542 114.989 229.52C114.265 231.411 114.749 232.98 116.33 233.638C117.714 234.143 118.834 233.69 119.537 232.474L120.547 233.13C119.538 234.737 117.956 235.211 116.045 234.486C113.717 233.564 112.991 231.494 113.935 229.081C114.746 226.754 116.899 225.717 119.139 226.508Z" fill="#F5E6E0"/>
<path d="M123.952 232.119L127.093 232.978L126.786 233.935L123.644 233.075L123.952 232.119Z" fill="#F5E6E0"/>
<path d="M131.132 230.51L132.231 230.731L131.551 234.669L136.426 231.464L137.744 231.729L132.869 234.935L136.407 240.062L134.979 239.774L131.507 234.887L130.784 239.042L129.686 238.82L131.132 230.51Z" fill="#F5E6E0"/>
<path d="M140.032 239.095C140.471 238.618 140.734 237.312 141.128 233.657L141.303 232.221L147.365 232.764L146.6 241.098L145.48 240.985L146.158 233.652L142.336 233.334L142.314 234.009C141.833 238.1 141.591 239.296 140.867 240.056C140.428 240.533 139.835 240.64 139.044 240.594L139.022 239.57C139.373 239.528 139.747 239.377 140.032 239.095Z" fill="#F5E6E0"/>
<path d="M156.197 238.845L152.287 238.962L151.475 241.289L150.333 241.285L153.515 232.872L154.657 232.875L158.24 241.181L156.988 241.155L156.197 238.845ZM155.691 237.951L154.064 234.114L152.594 238.006L155.691 237.951Z" fill="#F5E6E0"/>
<path d="M163.882 231.905C165.99 231.651 167.308 232.483 167.968 234.313L166.87 234.658C166.43 233.437 165.551 232.694 164.036 232.842C162.279 233.053 161.423 234.465 161.687 236.556C161.974 238.538 163.094 239.782 164.873 239.462C166.279 239.292 167.157 238.337 167.091 236.966L168.321 237.101C168.277 239.016 167.004 240.231 165.005 240.507C162.545 240.803 160.788 239.317 160.501 236.77C160.105 234.2 161.532 232.224 163.882 231.905Z" fill="#F5E6E0"/>
<path d="M170.691 231.014L171.767 230.778L173.439 237.227L176.467 229.575L177.543 229.339L179.567 237.443L178.491 237.679L176.819 231.23L173.681 238.86L172.605 239.096L170.691 231.014Z" fill="#F5E6E0"/>
<path d="M181.213 228.155L182.311 227.81L183.718 231.603L186.242 226.452L187.604 225.934L185.058 231.193L190.835 233.716L189.474 234.234L184.026 231.778L185.521 235.701L184.423 236.045L181.213 228.155Z" fill="#F5E6E0"/>
<path d="M197.265 227.881L193.839 229.567L194.037 231.984L193.027 232.46L192.321 223.489L193.353 222.905L200.252 228.936L199.22 229.52L197.265 227.881ZM196.474 227.269L193.266 224.472L193.685 228.631L196.474 227.269Z" fill="#F5E6E0"/>
<path d="M93.1755 188.112C92.7802 188.372 92.4948 188.654 92.2094 188.936L92.1215 188.805L92.2094 188.936L93.1755 188.112Z" fill="#F5E6E0"/>
<path d="M165.722 139.466L189.503 123.547L207.421 111.765L206.564 110.348L164.821 138.265L163.482 139.24L91.3271 187.626L92.2061 188.935L92.2941 189.066L93.348 188.373L106.523 179.144C106.786 178.971 107.05 178.798 107.313 178.625C110.212 176.719 116.098 177.566 120.098 182.107C125.305 188.023 144.51 210.117 144.51 210.117L179.448 192.712L180.194 192.41L186.004 163.587L165.722 139.466ZM144.904 208.159C144.904 208.159 128.007 188.794 122.074 181.939C119.855 179.342 116.911 175.805 112.847 174.986L113.374 174.64L119.852 170.286C122.597 170.84 126.003 173.79 128.112 176.366C128.486 176.78 151.866 204.809 151.866 204.809L144.904 208.159ZM134.786 167.071C133.204 165.281 131.249 164.208 129.535 163.636L145.938 152.568L162.242 172.04L157.858 194.359C157.968 194.381 136.917 169.538 134.786 167.071ZM167.391 196.959L162.165 199.641L159.418 196.258L164.044 172.743L173.069 169.355L167.501 196.981L167.391 196.959ZM174.496 166.813L156.61 145.552L164.141 140.505L164.273 140.419L183.522 163.426L174.496 166.813Z" fill="#F5E6E0"/>
<path d="M204.082 106.791L198.527 110.538C196.287 112.011 193.278 111.631 191.498 109.688L171.063 86.8934L132.787 104.984L127.767 129.891L127.613 130.652L128.075 131.198L142.182 147.963L88.6692 183.808L89.5482 185.117L186.802 119.946L204.895 107.861L204.082 106.791ZM139.186 125.968L129.699 129.375L134.391 106.099L144.119 101.496L139.186 125.968ZM152.963 140.968L141.273 126.954L150.255 123.785L160.495 135.922L152.963 140.968ZM161.922 135.078L151.507 122.679L155.738 101.687L176.964 125.094L161.922 135.078ZM178.325 124.01L156.067 99.4899L156.9 95.3568L161.819 93.066L185.615 119.028L178.325 124.01Z" fill="#F5E6E0"/>
<path d="M180.388 183.508C181.376 183.707 181.683 182.184 180.694 181.985C179.684 181.895 179.399 183.308 180.388 183.508Z" fill="#F5E6E0"/>
</svg>
