<svg class="arr_logo_svg" width="11" height="73" viewBox="0 0 11 73" fill="none" xmlns="http://www.w3.org/2000/svg">
<g class="arr">
<path d="M5.05326 71.7852L8.46932 68.4146L5.05326 68.4146L1.63721 68.4146L5.05326 71.7852Z" fill="#9A959E"/>
<path d="M5.05326 28.9137L5.05326 71.7852M5.05326 71.7852L8.46932 68.4146L1.63721 68.4146L5.05326 71.7852Z" stroke="#9A959E" stroke-width="0.683211"/>
</g>
<path d="M4.40356 2.65048L7.05208 4.53316C7.43044 4.79756 7.93644 4.74286 8.25554 4.40552L10.1063 2.46358L9.68692 2.11257L9.18548 2.6596C9.04416 2.81459 8.81168 2.83738 8.64301 2.71886L6.20419 0.995728L2.01032 4.77477L2.00576 6.9264L7.4897 11.3983L7.50793 15.2275C7.50793 15.2275 3.66507 12.0457 3.50553 11.918C3.07246 11.5716 2.55279 11.6627 2.2656 11.959C2.01944 12.2189 0 14.252 0 14.252L0.437621 14.6167L1.012 14.0332C1.3311 13.7004 1.84621 13.6275 2.28383 13.9785C3.08614 14.6258 5.98082 16.9507 5.98082 16.9507L9.84647 13.6184V10.4274L4.40356 5.88705V2.65048Z" fill="#706A75"/>
</svg>
