<svg width="149" height="149" fill="none" xmlns="http://www.w3.org/2000/svg"><path d="M70.885 60.082a21.775 21.775 0 1018.028 39.643 21.775 21.775 0 00-18.028-39.643zm27.63 11.347A20.45 20.45 0 0184.568 99.81 20.453 20.453 0 0162.51 69.12a20.454 20.454 0 018.917-7.843 20.506 20.506 0 0127.087 10.152z" fill="#706A75"/><path d="M105.002 63.498a30.068 30.068 0 00-33.283-12.493l-7.347-5.245-.876 8.985a30.067 30.067 0 00-12.46 33.295l-5.276 7.38 9.022.878a30.069 30.069 0 0033.29 12.49l7.348 5.244.873-8.992a30.062 30.062 0 0012.463-33.287l5.276-7.38-9.03-.875zm-13.414 42.109a28.228 28.228 0 11-23.37-51.39 28.228 28.228 0 0123.37 51.39zM61.023 24.881l-10.215 4.645 6.022 13.241 1.99-.905-5.244-11.534 6.232-2.834 5.245 11.533 1.991-.905-6.021-13.24z" fill="#706A75"/></svg>