<svg width="27" height="26" fill="none" xmlns="http://www.w3.org/2000/svg"><circle cx="13.574" cy="13" r="12.239" stroke="#9A959E" stroke-width=".927"/><path d="M18.485 16.105l-1.425 1.413c-.21.216-.489.289-.76.289-1.2-.036-2.335-.625-3.266-1.23-1.53-1.113-2.932-2.492-3.812-4.16-.338-.698-.734-1.59-.697-2.37.004-.293.083-.581.29-.77l1.424-1.424c.296-.252.582-.165.77.128l1.147 2.173a.63.63 0 01-.129.717l-.524.525a.258.258 0 00-.054.15c.201.779.81 1.496 1.35 1.99.538.495 1.117 1.164 1.868 1.322.093.026.207.035.273-.027l.61-.62c.21-.16.515-.238.74-.107h.01l2.067 1.22c.303.19.335.558.117.781z" fill="#CE8163"/></svg>