<svg class="hover-logo" viewBox="0 0 156.12 156.12" xmlns="http://www.w3.org/2000/svg"><path class="hover-logo__r" d="M103.432 52.342l-.69-.69-20.86 21.21-.69.7-36.05 36.66.65.64-.01.01.09.05c.15-.18.32-.37.49-.57l6.68-6.81c.13-.13.27-.26.39-.39 1.44-1.43 4.93-1.64 7.78.56 3.68 2.84 17.39 13.48 17.39 13.48l18.13-14.27.37-.29v-17.48l-14.5-11.71 11.87-12.1zm-24.84 63.61s-12.01-9.3-16.25-12.59c-1.6-1.23-3.73-3-6.13-3h-.03l.28-.29 3.24-3.29c1.66-.01 3.95 1.33 5.47 2.57.24.19 17.04 13.76 17.04 13.76zm-10.62-22.77c-1.11-.89-2.36-1.24-3.41-1.36l8.21-8.38 11.71 9.44.07 13.51s-15.08-12.01-16.58-13.21zm22.29 13.59l-2.73 2.15-2-1.65-.08-14.28 4.81-3.06zm5.46-21.48l-4.86 3.1-12.8-10.33.03-.03 3.76-3.83.06-.06z"/><path class="hover-logo__l" d="M44.062 109.132l48.57-49.42 9.03-9.15-.69-.69-2.77 2.82a3.145 3.145 0 01-4.14.31l-14.45-10.81-20 15.04-.01 15.13v.48l.36.29 10.13 8.14-26.72 27.18zm35.83-37.82l-7.47-6v-12.75l14.96 11.13zm-7.5-22.48l2.58-1.93 16.76 12.37-3.65 3.72-15.69-11.66zm-6.7 19.87l-5.11 3.11.01-14.09 5.1-3.83zm1.34.33l4.84-2.93 7.34 5.9-3.77 3.83z"/></svg>