<svg width="155" height="27" fill="none" xmlns="http://www.w3.org/2000/svg"><g clip-path="url(#clip0)" fill="#C2BFC4"><path d="M55.268 16.517c.205.027.384.043.537.048.153.005.332.008.537.008a4.2 4.2 0 001.327-.208 3.23 3.23 0 001.09-.605 2.86 2.86 0 00.734-.964c.18-.38.27-.809.27-1.29 0-.517-.083-.957-.25-1.32a2.275 2.275 0 00-.702-.885 2.919 2.919 0 00-1.081-.492 5.902 5.902 0 00-1.388-.153c-.296 0-.518.047-.666.14a.762.762 0 00-.315.397c-.062.17-.093.375-.093.612v4.712zm.59.69h-.255c-.116 0-.227-.003-.335-.009v2.378c0 .3-.004.558-.012.772a4.73 4.73 0 01-.044.53l1.525-.08v.73h-4.052v-.537c.313-.011.547-.067.703-.169a.822.822 0 00.33-.417c.065-.177.098-.387.101-.63.003-.243.005-.51.005-.799v-7.1c0-.225.004-.437.012-.638.008-.2.023-.384.044-.55l-1.195.073v-.73c.582-.01 1.179-.017 1.792-.02.614-.002 1.246-.004 1.897-.004 1.603 0 2.822.267 3.656.802.893.582 1.34 1.435 1.34 2.557 0 .23-.026.484-.077.762a3.034 3.034 0 01-.31.862c-.157.296-.37.58-.642.85s-.614.505-1.025.705c-.412.2-.903.36-1.473.481-.57.12-1.232.18-1.986.18zm9.711-3.504c-.646 0-1.179.188-1.598.563-.42.376-.697.985-.831 1.826h4.212c0-.287-.032-.574-.097-.859a2.435 2.435 0 00-.31-.767 1.73 1.73 0 00-.553-.551c-.226-.141-.5-.212-.823-.212zm3.341 2.982l-5.82.097a8.458 8.458 0 00.146 1.719c.102.514.264.953.485 1.317.22.364.504.645.85.844.348.197.764.297 1.248.297.258 0 .522-.035.791-.105a4.16 4.16 0 00.779-.287c.25-.12.48-.266.69-.435.21-.17.384-.35.525-.544l.403.328a3.723 3.723 0 01-.787.87 4.628 4.628 0 01-.928.581 4.48 4.48 0 01-1.868.425 4.14 4.14 0 01-1.594-.304 3.678 3.678 0 01-1.28-.874 4.131 4.131 0 01-.851-1.371c-.207-.534-.31-1.136-.31-1.804 0-.578.098-1.129.298-1.655a4.38 4.38 0 01.847-1.4 4.1 4.1 0 011.316-.97 3.95 3.95 0 011.703-.36c.457 0 .889.075 1.295.224a3 3 0 011.07.674c.306.299.548.677.726 1.134.177.457.266.99.266 1.6zm5.598-2.733a1.647 1.647 0 00-.638.116 2.52 2.52 0 00-.633.365c-.207.16-.402.352-.585.577a4.599 4.599 0 00-.493.745l.016 4.033c0 .22-.002.413-.007.581a3.862 3.862 0 01-.057.533l1.041-.048v.674h-3.39v-.49c.253 0 .445-.049.577-.148a.83.83 0 00.287-.412c.059-.177.093-.388.101-.634.008-.246.012-.516.012-.81v-3.752c0-.17.002-.343.008-.517.005-.174.024-.354.056-.54l-1.17.047V13.6h.509c.236 0 .433-.012.589-.037a1.69 1.69 0 00.391-.1c.105-.042.193-.089.263-.14.07-.05.137-.105.201-.164h.476c.017.17.031.383.045.637.013.254.025.581.036.982.124-.203.283-.407.476-.613a3.845 3.845 0 011.437-.954 2.45 2.45 0 01.864-.156c.15 0 .297.02.44.06a.97.97 0 01.625.509c.065.128.097.283.097.465a.817.817 0 01-.19.505.83.83 0 01-.254.2.815.815 0 01-.38.08.698.698 0 01-.334-.08.765.765 0 01-.395-.493.883.883 0 01-.021-.348zm7.201-4.025a.634.634 0 00-.327-.225 1.295 1.295 0 00-.384-.064c-.258 0-.47.058-.637.173a1.223 1.223 0 00-.396.453 2.166 2.166 0 00-.206.629 4.13 4.13 0 00-.06.701v1.724h2.228v.641l-2.228.04.016 5.79c0 .218-.002.412-.008.58a3.234 3.234 0 01-.065.533l1.042-.048v.674h-3.366v-.49c.253 0 .445-.049.577-.148a.825.825 0 00.287-.412c.059-.177.091-.388.096-.634.006-.246.009-.516.009-.81l-.017-5.002-1.355.024v-.738h1.355v-.345c0-.609.053-1.155.158-1.64.105-.483.275-.893.512-1.23.237-.336.545-.595.925-.777.379-.182.84-.273 1.384-.273.177 0 .37.023.577.068.207.046.398.118.573.217.174.099.321.224.44.376a.868.868 0 01.177.55.758.758 0 01-.194.537.643.643 0 01-.492.208.726.726 0 01-.339-.068.674.674 0 01-.335-.397.753.753 0 01-.016-.412.897.897 0 01.069-.205zm4.865 3.776c-.646 0-1.179.188-1.598.563-.42.376-.697.985-.832 1.826h4.213c0-.287-.032-.574-.097-.859a2.443 2.443 0 00-.31-.767 1.729 1.729 0 00-.553-.551c-.226-.141-.5-.212-.823-.212zm3.341 2.982l-5.82.097a8.474 8.474 0 00.146 1.719c.102.514.264.953.484 1.317.22.364.505.645.852.844.347.197.763.297 1.247.297.258 0 .522-.035.79-.105.27-.07.53-.165.78-.287.25-.12.48-.266.69-.435.21-.17.384-.35.524-.544l.404.328a3.723 3.723 0 01-.787.87 4.628 4.628 0 01-.928.581 4.48 4.48 0 01-1.868.425 4.14 4.14 0 01-1.594-.304 3.675 3.675 0 01-1.28-.874 4.125 4.125 0 01-.851-1.371c-.207-.534-.31-1.136-.31-1.804 0-.578.099-1.129.298-1.655a4.38 4.38 0 01.847-1.4 4.1 4.1 0 011.316-.97 3.949 3.949 0 011.703-.36c.457 0 .888.075 1.295.224a3 3 0 011.07.674c.306.299.548.677.726 1.134.177.457.266.99.266 1.6zm6.809-2.11a1.073 1.073 0 00-.331-.46 1.769 1.769 0 00-.472-.27 2.088 2.088 0 00-.509-.123 3.965 3.965 0 00-.424-.029 2.367 2.367 0 00-1.897.898c-.236.294-.423.66-.56 1.099-.137.438-.206.94-.206 1.507 0 .545.069 1.049.206 1.511.137.463.33.86.577 1.195.247.334.546.594.896.781.35.188.737.28 1.162.28.258 0 .514-.035.767-.107s.492-.173.718-.3c.226-.13.434-.279.626-.45a3.05 3.05 0 00.488-.553l.427.329c-.22.342-.472.634-.754.878a4.488 4.488 0 01-.888.6c-.31.159-.621.275-.936.35a3.862 3.862 0 01-.892.112c-.56 0-1.087-.095-1.582-.285a3.794 3.794 0 01-1.3-.826 3.877 3.877 0 01-.88-1.327c-.214-.523-.322-1.119-.322-1.787 0-.38.047-.754.141-1.123a4.734 4.734 0 011.054-1.984 4.181 4.181 0 011.909-1.23 4.03 4.03 0 011.206-.177c.457 0 .874.056 1.25.168.377.113.7.262.97.45.268.186.475.402.621.645.145.243.218.498.218.765a.953.953 0 01-.198.606c-.132.168-.322.255-.569.26a.714.714 0 01-.363-.068.713.713 0 01-.363-.433.818.818 0 01-.04-.236c0-.107.017-.22.052-.337a.813.813 0 01.198-.329zm1.991-1.257c.29-.005.554-.084.79-.236a2.58 2.58 0 00.627-.57 3.63 3.63 0 00.455-.741 5.58 5.58 0 00.291-.754h.565c0 .439-.001.848-.004 1.227-.003.38-.004.738-.004 1.074h2.784v.642l-2.784.032c-.006.71-.008 1.317-.008 1.82a206.967 206.967 0 01-.008 2.056c0 .195-.002.344-.004.445l-.005.196v.052c0 .375.021.705.061.99.041.287.109.527.206.722.097.195.225.342.383.441.159.099.36.149.602.149.285 0 .567-.086.847-.257s.527-.414.743-.73l.443.361a4.17 4.17 0 01-.722.854c-.239.206-.467.36-.682.465-.215.104-.416.17-.601.196a3.45 3.45 0 01-.489.04 3.36 3.36 0 01-.512-.04 1.933 1.933 0 01-.516-.156 1.73 1.73 0 01-.477-.329 1.992 1.992 0 01-.391-.549 3.234 3.234 0 01-.266-.818c-.065-.32-.095-.7-.09-1.138l.033-4.746-1.267.008v-.706zm-65.316.547a.667.667 0 01-.67-.665c0-.366.3-.664.67-.664.37 0 .669.298.669.664 0 .367-.3.665-.67.665zm-19.464 0a.667.667 0 01-.669-.665c0-.366.3-.664.67-.664.369 0 .668.298.668.664 0 .367-.3.665-.669.665zm9.732-1.213a.667.667 0 01-.67-.665c0-.367.3-.665.67-.665.37 0 .67.298.67.665 0 .367-.3.665-.67.665z"/><path d="M38.843 16.567s-1.49-.628-4.15-1.318c-2.988-.776-7.228-1.116-11.026-1.123-3.799.007-8.012.46-11.027 1.123-2.492.548-4.149 1.318-4.149 1.318l-2.993-3.144s3.26.447 4.889-.223c1.63-.67 2.406-3.632 2.406-3.632s3.622 2.769 5.753 2.642c2.13-.128 5.12-4.17 5.12-4.17s2.99 4.042 5.122 4.17c2.13.127 5.753-2.642 5.753-2.642s.777 2.962 2.406 3.632c1.63.67 4.889.223 4.889.223l-2.993 3.144zm-.834 1.66c-.184.613-.474 4.071-.81 4.86-.822-.658-6.679-2.12-13.513-2.12h-.038c-6.834 0-12.691 1.462-13.514 2.12-.335-.789-.6-4.255-.809-4.86-.1-.287.082-.54.082-.54.948-1.28 6.918-2.793 14.161-2.793h.197c7.244 0 13.214 1.514 14.161 2.793 0 0 .16.282.083.54zm-14.255 7.105h-.174c-6.664 0-11.666-.85-12.717-1.4C11.518 23.31 16.733 22 23.58 22h.174c6.845 0 12.062 1.31 12.717 1.932-1.051.55-6.053 1.4-12.717 1.4zM47.179 9.937c-.158-.211-2.287.276-2.92.178-.526-.19-.824-.78-1.294-.796-.623-.02-1.08.387-1.08.983 0 .072.008.142.022.21-.401 1.091-2.237 2.013-3.408 1.833-1.732-.265-2.092-1.631-2.412-2.765-.153-.546.703-.395.833-1.173.107-.64-.257-1.16-1.099-1.388.427-.127.736-.468.736-.873 0-.511-.097-1.186-.832-1.324-.667-.125-1.357.813-1.357 1.324 0 .312.183.588.462.756-1.264.025-2.217.41-2.118 1.222.036.294.246.529.16.744-.086.214-2.176 2.057-3.552 2.057-1.495 0-3.605-1.868-3.77-2.562-.033-.001.93-.534 1.001-1.093.129-1.026-.789-1.83-1.885-2.137a1.15 1.15 0 00.183-.624c0-.625-.521-1.898-1.126-1.898-.019 0-.037.005-.056.007-.02-.002-.038-.007-.057-.007-.604 0-1.125 1.273-1.125 1.898 0 .231.068.445.183.624-1.097.306-2.014 1.111-1.885 2.137.07.559 1.034 1.092 1 1.093-.165.694-2.274 2.562-3.77 2.562-1.375 0-3.465-1.843-3.551-2.057-.086-.215.124-.45.16-.744.098-.811-.854-1.197-2.119-1.223.28-.167.463-.443.463-.755 0-.511-.69-1.449-1.358-1.324-.735.138-.831.813-.831 1.324 0 .405.308.746.736.873-.842.229-1.207.749-1.1 1.388.13.778.987.627.834 1.173-.32 1.134-.68 2.5-2.413 2.765-1.17.18-3.006-.742-3.407-1.833.014-.068.022-.138.022-.21 0-.596-.458-1.004-1.08-.982-.47.015-.768.606-1.295.795-.632.098-2.762-.39-2.92-.178 0 0-.142.152-.142.371 0 .172 7.704 6.503 8.295 7.284.572.758 1.282 5.461 1.6 6.432a.669.669 0 00.14.323c.876 1.096 7.704 1.833 13.533 1.833h.174c5.828 0 12.657-.737 13.533-1.833a.654.654 0 00.139-.323c.318-.971 1.029-5.674 1.601-6.432.59-.78 8.294-7.112 8.294-7.284 0-.219-.142-.371-.142-.371z"/><path d="M23.667 15.811c-1.004 0-1.818.934-1.818 2.084s.814 2.083 1.818 2.083 1.818-.933 1.818-2.083c0-1.15-.814-2.084-1.818-2.084zm8.096 5.059c.831.232 1.73-.374 2.008-1.355.278-.98-.17-1.965-1.001-2.197-.832-.231-1.731.375-2.01 1.356-.277.98.172 1.964 1.003 2.196zm-16.193 0c-.83.232-1.73-.374-2.007-1.355-.278-.98.17-1.965 1.002-2.197.831-.231 1.73.375 2.008 1.356.278.98-.17 1.964-1.002 2.196zm104.898.095h-.452c-.183 0-.425.032-.726.096a7.218 7.218 0 00-1.058.329c-.172.064-.36.123-.564.176a7.904 7.904 0 01-.626.136 9.087 9.087 0 01-.634.089 5.837 5.837 0 01-.589.032 6.31 6.31 0 01-2.276-.397 5.027 5.027 0 01-1.775-1.139 5.114 5.114 0 01-1.155-1.811c-.274-.714-.411-1.52-.411-2.418a7.6 7.6 0 01.157-1.535c.105-.51.264-.997.476-1.459.213-.462.478-.893.795-1.29a5.162 5.162 0 012.563-1.728 5.933 5.933 0 011.763-.249c.296 0 .598.021.904.064.307.043.608.103.904.18.296.078.581.173.856.285.274.112.527.238.758.377l-.072-.786h.912v3.76h-.598a3.751 3.751 0 00-.347-1.374 3.092 3.092 0 00-.762-1.013 3.32 3.32 0 00-1.098-.627 4.075 4.075 0 00-1.344-.217c-.586 0-1.138.13-1.654.39a4.15 4.15 0 00-1.348 1.083 5.322 5.322 0 00-.908 1.652 6.357 6.357 0 00-.335 2.106c0 .776.107 1.492.323 2.147.215.655.518 1.22.908 1.693.39.473.857.843 1.4 1.11a4.005 4.005 0 001.792.402c.22 0 .452-.016.694-.048.242-.032.485-.08.73-.144a5.04 5.04 0 00.727-.253 4.34 4.34 0 00.682-.373V16.62l-1.162.064v-.722h3.736v.537c-.204 0-.377.04-.516.117a1.01 1.01 0 00-.339.297 1.4 1.4 0 00-.198.4 2.595 2.595 0 00-.097.437c-.019.144-.029.28-.032.405-.003.125-.004.226-.004.3v2.51zm6.705-6.983a1.64 1.64 0 00-.637.116 2.512 2.512 0 00-.634.364c-.207.16-.402.353-.585.578a4.64 4.64 0 00-.493.746l.017 4.032c0 .22-.003.413-.008.581a4.012 4.012 0 01-.057.533l1.041-.048v.674h-3.389v-.49c.252 0 .445-.049.576-.148a.833.833 0 00.287-.413c.059-.176.093-.387.101-.633.008-.246.012-.516.012-.81v-3.752c0-.17.003-.343.008-.517s.024-.354.056-.541l-1.17.048v-.673h.509c.236 0 .433-.012.589-.036.156-.024.286-.058.391-.1.105-.043.192-.09.263-.141.069-.05.137-.105.201-.164h.477c.016.17.03.383.044.637.013.254.025.581.036.982.124-.203.283-.407.476-.613.194-.206.412-.39.654-.553.242-.163.503-.297.783-.4a2.45 2.45 0 01.863-.157c.151 0 .298.02.441.06.142.04.266.103.371.188a.974.974 0 01.254.32c.064.13.097.284.097.466a.802.802 0 01-.19.505.822.822 0 01-.254.2.814.814 0 01-.379.08.703.703 0 01-.336-.08.777.777 0 01-.395-.493.897.897 0 01-.02-.348zm5.467-.272c-.436 0-.809.096-1.118.288a2.35 2.35 0 00-.763.77c-.199.322-.346.69-.44 1.108a5.9 5.9 0 00-.141 1.3c0 .509.053 1.004.158 1.485.104.482.264.908.48 1.28.215.372.485.67.811.895.325.225.706.337 1.142.337.436 0 .803-.097 1.101-.292.299-.196.541-.454.727-.775a3.54 3.54 0 00.4-1.1c.08-.412.121-.834.121-1.268 0-.492-.046-.979-.138-1.46a4.644 4.644 0 00-.435-1.292c-.2-.38-.456-.688-.771-.924-.315-.235-.693-.353-1.134-.353zm0-.626a4.19 4.19 0 011.63.316 4.09 4.09 0 011.32.875c.374.37.669.812.888 1.322.217.51.326 1.062.326 1.656 0 .636-.106 1.232-.319 1.788a4.534 4.534 0 01-.879 1.45 4.135 4.135 0 01-1.324.975 3.828 3.828 0 01-1.642.357 4.25 4.25 0 01-1.626-.31 4.008 4.008 0 01-1.316-.861 4.021 4.021 0 01-.884-1.319 4.284 4.284 0 01-.323-1.68c0-.646.106-1.248.319-1.807a4.543 4.543 0 01.876-1.451 4.04 4.04 0 011.315-.963 3.88 3.88 0 011.639-.348zm11.085 2.423c0-.268.006-.497.017-.687.01-.19.032-.378.064-.566l-1.186.049v-.674h.508c.237 0 .438-.012.605-.036.167-.024.309-.057.428-.1a1.46 1.46 0 00.509-.305h.476l-.016 6.205c0 .086-.002.194-.004.325a20.894 20.894 0 01-.033.834 9.403 9.403 0 01-.028.38l1.187-.063v.69h-2.365c-.027-.188-.05-.36-.069-.518a9.568 9.568 0 01-.044-.469c-.173.17-.363.333-.573.485a4.31 4.31 0 01-1.389.665c-.247.067-.492.1-.734.1-.452 0-.848-.06-1.186-.18a1.88 1.88 0 01-.848-.597c-.226-.278-.395-.645-.508-1.103-.113-.456-.17-1.024-.17-1.703v-2.918c0-.171.003-.345.008-.521a4.05 4.05 0 01.057-.546l-1.138.049v-.674h.516c.232 0 .431-.012.597-.036.167-.024.31-.057.428-.1a1.46 1.46 0 00.509-.305h.476v5.008c0 .476.032.89.097 1.24.064.35.168.642.311.875.142.233.327.404.552.514.226.11.503.164.832.164.21 0 .415-.035.617-.105.202-.069.394-.163.577-.28.183-.118.354-.252.513-.402.158-.15.294-.31.407-.482v-4.213zm7.033-1.621a2.1 2.1 0 00-.565.076 2.964 2.964 0 00-1.388.847c0 .043.001.092.004.148.003.056.004.151.004.285v.566c0 .243-.001.57-.004.98a468.629 468.629 0 00-.012 3.744c.274.203.575.36.904.473a3.16 3.16 0 001.033.168c.392 0 .745-.093 1.057-.28.312-.188.578-.449.799-.783.221-.335.39-.73.508-1.188.119-.458.178-.959.178-1.505 0-.444-.047-.877-.141-1.3a3.73 3.73 0 00-.444-1.132 2.41 2.41 0 00-.779-.798c-.318-.2-.702-.301-1.154-.301zm-3.366 1.435c0-.171.003-.345.009-.521.005-.177.024-.358.056-.546l-1.17.065v-.69c.36 0 .653-.012.879-.036.226-.024.408-.057.545-.1.138-.043.244-.09.319-.14.075-.051.143-.106.202-.165h.484a27.155 27.155 0 01.065.882 4.074 4.074 0 011.872-.914 3.47 3.47 0 013.228 1.014c.334.35.6.778.799 1.283.199.505.299 1.076.299 1.712a5.3 5.3 0 01-.157 1.315 4.87 4.87 0 01-.44 1.134 4.364 4.364 0 01-.674.926 4.107 4.107 0 01-1.857 1.13 3.895 3.895 0 01-1.085.153c-.764 0-1.423-.18-1.978-.537l-.007 2.717c0 .22-.003.413-.008.582a4.022 4.022 0 01-.057.533l1.041-.048v.673h-3.373v-.489c.252 0 .445-.05.577-.148a.802.802 0 00.282-.413c.057-.177.089-.388.097-.634.008-.245.015-.515.02-.81l.032-7.928z"/></g><defs><clipPath id="clip0"><path fill="#fff" d="M0 0h155v26.303H0z"/></clipPath></defs></svg>