<svg width="189" height="63" fill="none" xmlns="http://www.w3.org/2000/svg"><path fill="#2F2536" d="M0 .12h188.64V53.4H0z"/><path d="M94 62.04l-9.976-12.96h19.953L94 62.04z" fill="#2F2536"/><path d="M29.119 30.76h3.902c2.367 0 3.436-1.178 3.436-2.74 0-1.575-1.104-2.465-2.113-2.52v-.1c.934-.238 1.715-.874 1.715-2.147 0-1.506-1.044-2.675-3.212-2.675H29.12V30.76zm1.536-1.318v-3.26h2.272c1.233 0 2.003.795 2.003 1.764 0 .855-.581 1.496-2.058 1.496h-2.217zm0-4.459v-3.097h2.098c1.218 0 1.8.641 1.8 1.486 0 .985-.806 1.611-1.84 1.611h-2.058zm9.16-4.405h-1.536V30.76h1.536V20.578zm1.467 12.643h1.471V30.76h6.836v2.446h1.472v-3.749h-1.154v-8.879h-6.279l-.238 4.3c-.155 2.834-.756 4.003-1.437 4.58h-.671v3.763zm2.48-3.763c.582-.93.975-2.427 1.1-4.58l.158-2.977h3.416v7.556h-4.674zm8.69 3.763h1.471V30.76h6.836v2.446h1.472v-3.749h-1.154v-8.879h-6.279l-.239 4.3c-.154 2.834-.755 4.003-1.436 4.58h-.671v3.763zm2.48-3.763c.582-.93.975-2.427 1.1-4.58l.158-2.977h3.416v7.556h-4.674zm10.518-8.88h-1.537V30.76h1.537V20.578zm1.466 10.182h.438c2.317 0 2.874-1.72 3.008-4.992l.159-3.887h3.475v8.879h1.516V20.578h-6.438l-.174 4.783c-.11 2.948-.467 4.027-1.685 4.057l-.299.01v1.332zm22.498-10.182H81.56V30.76h1.531v-8.87h4.793v8.87h1.531V20.578zm2.35 10.182h1.535v-3.58h2.088c2.362 0 3.53-1.426 3.53-3.306 0-1.874-1.158-3.296-3.525-3.296h-3.629V30.76zm1.535-4.882v-3.982h1.93c1.52 0 2.142.825 2.142 1.978 0 1.154-.621 2.004-2.123 2.004H93.3zm16.264-.209c0-3.256-1.949-5.23-4.584-5.23-2.645 0-4.589 1.974-4.589 5.23 0 3.252 1.944 5.23 4.589 5.23 2.635 0 4.584-1.974 4.584-5.23zm-1.522 0c0 2.48-1.312 3.828-3.062 3.828-1.755 0-3.063-1.347-3.063-3.828 0-2.48 1.308-3.828 3.063-3.828 1.75 0 3.062 1.347 3.062 3.828zm2.666 7.552h1.472V30.76h6.836v2.446h1.472v-3.749h-1.154v-8.879h-6.279l-.239 4.3c-.154 2.834-.755 4.003-1.436 4.58h-.672v3.763zm2.481-3.763c.582-.93.975-2.427 1.099-4.58l.159-2.977h3.416v7.556h-4.674zm9.841 1.302l.935-2.695h3.977l.93 2.695h1.631l-3.664-10.182h-1.775l-3.664 10.182h1.63zm1.383-3.987l1.501-4.345h.08l1.501 4.345h-3.082zm14.162-6.195h-1.521v4.405h-1.178l-2.526-4.405h-1.879l3.033 4.852-3.262 5.33h1.775l2.595-4.345h1.442v4.345h1.521v-4.345h1.457l2.56 4.345h1.795l-3.241-5.32 3.022-4.862h-1.874l-2.506 4.405h-1.213v-4.405zm8.852 0h-1.536V30.76h1.536V20.578zm2.238 10.182h3.902c2.367 0 3.436-1.178 3.436-2.74 0-1.575-1.104-2.465-2.113-2.52v-.1c.934-.238 1.715-.874 1.715-2.147 0-1.506-1.044-2.675-3.212-2.675h-3.728V30.76zm1.536-1.318v-3.26h2.272c1.233 0 2.003.795 2.003 1.764 0 .855-.581 1.496-2.058 1.496H151.2zm0-4.459v-3.097h2.098c1.218 0 1.799.641 1.799 1.486 0 .985-.805 1.611-1.839 1.611H151.2z" fill="#FFF0E0"/></svg>