<svg width="241" height="104" fill="none" xmlns="http://www.w3.org/2000/svg"><path fill="#2F2536" d="M0 .812h240.48v93.6H0z"/><path d="M120.24 103.052l-9.353-9.72h18.706l-9.353 9.72z" fill="#2F2536"/><g clip-path="url(#clip0)" fill="#CE8163"><path d="M76.679 70.972h.624v4.65h-.624v-4.65zm.245 0h4.154v.518h-4.154v-.518zm3.766 2.06c.236.109.418.268.546.477a1.4 1.4 0 01.192.746c0 .219-.035.413-.109.582a1.163 1.163 0 01-.31.427c-.137.115-.3.204-.49.264-.193.06-.409.094-.65.094h-2.797v-.497h2.714a1.4 1.4 0 00.55-.1.72.72 0 00.344-.293.95.95 0 00.113-.477.878.878 0 00-.123-.483.751.751 0 00-.349-.303 1.267 1.267 0 00-.53-.104h-2.719v-.498h2.797c.305 0 .585.055.821.164zm3.428-2.06h-.644v4.65h.644v-4.65zm6.915 3.939a1.265 1.265 0 01-.496.433 2.912 2.912 0 01-.807.259 6.01 6.01 0 01-1.09.084c-.532 0-.974-.055-1.333-.159-.354-.104-.634-.269-.83-.482a1.427 1.427 0 01-.36-.796l.659-.12c.025.23.108.428.25.587.143.165.345.284.61.363.266.08.605.125 1.003.125.3 0 .57-.02.797-.065.23-.045.422-.104.584-.179a.976.976 0 00.36-.283.643.643 0 00.117-.383.678.678 0 00-.157-.458c-.103-.12-.265-.209-.477-.273-.211-.065-.482-.095-.811-.095h-1.44v-.492h1.41c.212 0 .399-.015.561-.045.162-.03.305-.075.428-.134a.714.714 0 00.28-.244.627.627 0 00.098-.348.559.559 0 00-.108-.343.829.829 0 00-.324-.259 1.95 1.95 0 00-.546-.154 4.96 4.96 0 00-.767-.055c-.374 0-.688.035-.944.115a1.29 1.29 0 00-.6.343 1.08 1.08 0 00-.275.562l-.624-.14c.059-.298.187-.547.383-.75.202-.205.472-.359.811-.463.34-.105.757-.154 1.24-.154.397 0 .751.025 1.051.08.305.054.56.134.762.238.202.105.354.234.457.388a.98.98 0 01.153.537c0 .154-.03.294-.084.418a.957.957 0 01-.255.328 1.433 1.433 0 01-.433.239 2.47 2.47 0 01-.61.134l-.098-.12c.344.01.64.06.885.15.24.09.423.219.546.383.123.164.181.378.181.636a.965.965 0 01-.157.592zm2.277-3.939h.644v4.65h-.643v-4.65zm.443 1.98h4.193v.532h-4.193v-.532zm4.031-1.98h.649v4.65h-.649v-4.65zm3.072 0h.64v4.65h-.64v-4.65zm.418 0h3.899v.518h-3.899v-.518zm0 2.01h3.54v.517h-3.54v-.517zm0 2.123h3.938v.517h-3.938v-.517zm5.698-2.611a2.124 2.124 0 01.943-1.163 2.99 2.99 0 01.787-.314c.295-.075.614-.11.964-.11.491 0 .919.06 1.283.185.363.12.663.298.894.527.231.229.389.517.477.855l-.668.135a1.354 1.354 0 00-.354-.637 1.62 1.62 0 00-.659-.393c-.27-.09-.59-.134-.969-.134a3.02 3.02 0 00-.757.084 2.104 2.104 0 00-.599.24c-.172.104-.32.233-.443.382-.123.15-.211.328-.27.522a2.029 2.029 0 00-.094.637c0 .229.03.442.094.636.064.195.152.368.27.513.118.149.266.273.443.383a2.1 2.1 0 00.599.243c.227.055.482.085.757.085.384 0 .718-.045.993-.14.276-.094.502-.228.679-.407.177-.18.29-.403.339-.667l.664.14a1.824 1.824 0 01-.467.875 2.19 2.19 0 01-.905.542c-.373.124-.806.184-1.303.184-.299 0-.575-.025-.83-.075a2.934 2.934 0 01-.698-.218 2.407 2.407 0 01-.556-.353 1.934 1.934 0 01-.403-.473 2.321 2.321 0 01-.251-.587 2.56 2.56 0 01-.088-.681c0-.299.039-.567.128-.816zm10.436-1.522h.639v4.65h-.639v-4.65zm3.903 0h.935l-3.324 2.318-.019-.194 3.451 2.526h-.964l-3.294-2.372 3.215-2.278zm2.818 4.058a.74.74 0 00.314-.243c.059-.07.109-.16.153-.264.044-.104.078-.228.103-.378.025-.149.049-.328.069-.547.019-.213.034-.467.049-.76.015-.294.025-.632.034-1.015l.02-.85h.644l-.025.91c-.014.422-.024.79-.044 1.114-.015.323-.039.601-.064.835a5.953 5.953 0 01-.103.612 2.048 2.048 0 01-.152.438 1.534 1.534 0 01-.207.328 1.558 1.558 0 01-.305.253 1.406 1.406 0 01-.363.15 2.523 2.523 0 01-.472.064l-.059-.552c.147-.01.285-.045.408-.094zm1.066-4.058h3.496v.532h-3.545l.049-.532zm3.338 0h.635v4.65h-.635v-4.65zm5.211.413h.216l-2.29 4.237h-.679l2.547-4.65h.663l2.562 4.65h-.718l-2.301-4.237zm-1.484 2.467h3.21l.142.517h-3.485l.133-.517zm5.884-1.358a2.106 2.106 0 01.944-1.163c.231-.135.491-.24.786-.314.295-.075.615-.11.964-.11.491 0 .919.06 1.283.185.364.12.663.298.895.527.231.229.388.517.476.855l-.668.135a1.354 1.354 0 00-.354-.637 1.62 1.62 0 00-.659-.393 3.08 3.08 0 00-.968-.134c-.276 0-.526.025-.757.084a2.1 2.1 0 00-.6.24c-.172.104-.32.233-.443.382a1.52 1.52 0 00-.27.522 2.029 2.029 0 00-.093.637c0 .229.029.442.093.636.064.195.152.368.27.513.118.149.266.273.443.383.172.104.373.189.6.243.226.055.481.085.757.085.383 0 .717-.045.993-.14.275-.094.501-.228.678-.407.177-.18.29-.403.339-.667l.664.14a1.824 1.824 0 01-.467.875 2.19 2.19 0 01-.905.542c-.368.12-.806.184-1.302.184-.3 0-.576-.025-.831-.075a2.934 2.934 0 01-.698-.218 2.429 2.429 0 01-.556-.353 1.913 1.913 0 01-.398-.473 2.321 2.321 0 01-.251-.587 2.56 2.56 0 01-.088-.681 2.393 2.393 0 01.123-.816zm7.364-1.522h.629v4.65h-.629v-4.65zm.609 3.85l3.81-3.845.02.806-3.81 3.844-.02-.805zm3.81-3.85h.63v4.65h-.63v-4.65zm3.059 0h.639v4.65h-.639v-4.65zm3.909 0h.934l-3.324 2.318-.019-.194 3.456 2.526h-.964l-3.299-2.372 3.216-2.278zm5.165.413h.216l-2.291 4.237h-.678l2.546-4.65h.664l2.561 4.65h-.718l-2.3-4.237zm-1.485 2.467h3.21l.143.517h-3.486l.133-.517zm16.498-35.968l3.938 3.402 4.877-4.327-5.781-4.66-3.923 3.71-4.435-3.71-4.527 4.292 3.392 2.95v16.128l-2.807 2.586 7.993 5.143 4.075-4.63-3.554-2.273V38.66l.752-.776zm-31.191-18.352l-4.685 4.317.03.02 4.842 2.98 4.665-4.368-4.852-2.949zm-.27 18.392l2.655-4.74h-7.138v-9.23l-5.707 5.028v4.078l-3.565 4.864h3.565v17.83l-2.68 2.467 8.102 5.222 4.134-4.7-3.849-2.467V37.924h4.483zm9.364-5.625l-4.527 4.292 1.759 1.532-4.527 3.984v14.512l-1.76 1.621 9.414 5.218 10.068-10.22V41.151l-10.427-8.853zm4.719 26.687l-6.307-3.441V39.152l6.307 5.491v14.343zm-52.901-.526l-3.913-2.507V41.147l-10.427-8.848-4.527 4.292 1.76 1.532 1.18 1.03 1.853 1.616.034.03-1.893 1.68-.059.055-5.407 4.805-.241.248v8.992L83.33 58.26l.344.224.836.542 6.809 4.387 3.962-4.501.378-.368 7.532 4.869 4.046-4.596-.443-.358zm-9.616-2.02l-1.956 1.805-.26.24-4.09-2.622v-10.41l3.308-3.416 2.998 2.611V56.44zM81.67 58.524l.383.244-4.075 4.63-7.994-5.148 1.71-1.571v-18.69h-4.709l2.62-4.745 2.12-.06-.03-2.989 5.707-5.028v8.082h5.305l-2.655 4.74h-2.65v17.8l.187.119 4.08 2.616zm46.853-2.432V38.287l-7.064-5.988-4.916 4.267-5.024-4.267-4.533 4.292 3.392 2.954v16.547l-1.986 2.144 6.268 5.162 4.493-4.625-3.067-2.582V39.918l2.364-2.009 4.366 3.805v14.542l-1.839 1.98 5.993 5.157 4.773-4.62-3.22-2.681zm74.518-3.029l-.02-13.398-17.285-15.025v8.514l11.597 9.932v15.781l5.708-5.804z"/><path d="M197.205 58.996l-4.386 4.462-7.3-4.044-.147-.08-1.972-1.094 1.972-1.815V43.45l5.653-5.023V55.63l6.18 3.367zM52.404 28.34l8.883 6.043 5.26-5.72-1.352-.994-1.588 1.656-6.882-4.854-10.058 8.842-.01 6.337 13.16 11.056.044 8.564s-6.612-5.352-6.96-5.625c-1.736-1.358-4.243-3.377-5.512-2.129-.757.741-7.05 7.048-8.51 8.505l1.048.85c2.207-2.317 5.349-6.097 7.384-4.53 1.952 1.502 2.227 1.725 8.878 6.957l9.272-7.798v-8.435L52.404 36.437V28.34z"/></g><defs><clipPath id="clip0"><path fill="#fff" transform="translate(38.88 19.532)" d="M0 0h164.16v56.16H0z"/></clipPath></defs></svg>