<svg class="logo-site" width="220" height="75" fill="none" xmlns="http://www.w3.org/2000/svg"><path class="logo-letter--big" d="M18.126 11.77l11.904 8.062 7.044-7.648-1.825-1.322-2.134 2.204-9.204-6.455-13.42 11.77v8.503L27.998 41.66v11.433s-8.716-7.156-9.205-7.519c-2.314-1.814-5.681-4.51-7.378-2.851-1.003.985-9.436 9.41-11.39 11.355l1.414 1.14c2.957-3.085 7.173-8.14 9.899-6.04 2.622 1.996 2.982 2.307 11.903 9.307L35.66 48.064V36.787L18.126 22.58V11.77zm39.207 40.313l.514.337-5.45 6.17-10.721-6.87 2.288-2.1V24.654h-6.299l3.522-6.325 2.828-.104-.051-3.992 7.662-6.715v10.81h7.121l-3.574 6.326h-3.547v23.773l.257.156 5.45 3.5zm33.68-.078l-5.245-3.345V28.88L71.782 17.058l-6.067 5.73 2.365 2.048 1.594 1.374 2.494 2.151.051.052-2.545 2.256-.077.078-7.25 6.429-.335.337v12.003l-2.442 2.256.463.285 1.13.725 9.128 5.86 5.322-6.015.514-.493 10.104 6.508 5.425-6.145-.643-.492zm-12.88-2.696l-2.623 2.41-.36.312-5.476-3.5V34.635l4.448-4.562 4.01 3.5v15.736zm42.01-.467V25.043l-9.462-8.01-6.581 5.703-6.736-5.704-6.094 5.756 4.55 3.94v22.114l-2.673 2.852 8.407 6.896 6.016-6.17-4.113-3.448V27.22l3.162-2.67 5.836 5.08v19.42l-2.468 2.645 8.022 6.896 6.401-6.17-4.267-3.578z" fill="#CE8163"/><path d="M143.41 0l-6.299 5.755.052.026 6.478 3.993 6.274-5.833L143.41 0zm-.36 24.576l3.548-6.351h-9.564V5.911l-7.662 6.714v5.444l-4.782 6.508h4.782v23.798l-3.573 3.319 10.849 6.947 5.554-6.273-5.168-3.293V24.576h6.016zm12.547-7.518l-6.068 5.73 2.365 2.048-6.067 5.314v19.392l-2.366 2.178 12.624 6.973 13.498-13.662V28.88l-13.986-11.822zm6.324 35.647l-8.458-4.589V26.21l8.458 7.336v19.159zm23.293-28.18l5.271 4.537 6.53-5.782-7.738-6.222-5.271 4.952-5.939-4.952-6.067 5.73 4.55 3.94v21.544l-3.753 3.448 10.695 6.87 5.476-6.17-4.782-3.06V25.563l1.028-1.037z" fill="#CE8163"/><g class="logo-letter--big" fill="#CE8163"><path d="M220 44.798l-.026-17.888L196.81 6.844v11.381l15.554 13.273v21.077L220 44.798z"/><path d="M212.184 52.705l-5.887 5.962-9.77-5.392-.206-.103-2.648-1.452 2.648-2.437V31.939l7.585-6.688V48.22l8.278 4.485z"/></g><g class="word-small"><path class="logo-letter-small" d="M61.164 71.448c-.309-.155-.694-.233-1.106-.233H56.64v-1.84h5.065V68.7H55.79v6.222h4.242c.334 0 .617-.052.874-.13.257-.077.488-.207.668-.362.18-.156.309-.337.412-.57.102-.234.154-.493.154-.778 0-.39-.077-.726-.257-.986-.154-.285-.412-.492-.72-.648zm-.026 2.282a.864.864 0 01-.463.389 2.03 2.03 0 01-.745.13h-3.317v-2.36h3.317c.257 0 .514.052.72.13.205.103.36.233.462.414.103.182.155.39.155.649.025.259-.026.466-.129.648zm4.628-5.03h-.874v6.196h.874V68.7zm8.51 3.111a2.98 2.98 0 00-.514-.13c.103-.025.206-.051.283-.077.231-.078.411-.182.565-.311.155-.13.257-.285.335-.44.077-.156.102-.364.102-.571 0-.26-.077-.519-.205-.726a1.388 1.388 0 00-.617-.519 4.419 4.419 0 00-1.029-.31c-.411-.079-.874-.104-1.414-.104a6.26 6.26 0 00-1.67.207c-.464.13-.824.337-1.08.622-.258.26-.438.596-.515 1.011l.823.182c.051-.285.18-.545.36-.752.205-.207.462-.363.797-.467.334-.103.771-.155 1.26-.155.385 0 .745.026 1.028.077.283.052.54.13.72.208.206.103.334.207.437.337.103.13.154.285.154.466a.901.901 0 01-.128.467.795.795 0 01-.386.311 1.81 1.81 0 01-.566.182 6.295 6.295 0 01-.745.052h-1.826v.648h1.929a4.1 4.1 0 011.08.13c.282.077.488.207.642.362a.95.95 0 01.206.622.881.881 0 01-.154.519 1.093 1.093 0 01-.489.389 2.723 2.723 0 01-.771.233 6.586 6.586 0 01-1.08.078c-.54 0-.977-.052-1.337-.156-.36-.103-.643-.259-.823-.492a1.34 1.34 0 01-.334-.778l-.874.156c.051.414.231.777.488 1.063.258.285.643.492 1.106.648.488.13 1.08.207 1.774.207.54 0 1.028-.026 1.465-.104.438-.078.797-.181 1.08-.337.283-.155.514-.337.669-.57a1.38 1.38 0 00.231-.778c0-.337-.077-.622-.257-.855-.154-.26-.411-.415-.72-.545zm9.796-.466H78.93V68.7h-.849v6.222h.849V72.07h5.141v2.852h.849V68.7h-.849v2.645zm4.962.725h4.447v-.673h-4.447V69.4h4.936v-.7h-5.785v6.222h5.836v-.7h-4.987v-2.151zm13.189 1.504c-.232.234-.54.415-.9.545-.36.13-.823.181-1.337.181-.36 0-.694-.026-1.003-.104a3.206 3.206 0 01-.797-.31 1.907 1.907 0 01-.591-.52 1.999 1.999 0 01-.36-.7 2.98 2.98 0 01-.129-.855c0-.31.052-.596.129-.855.077-.26.206-.493.36-.7.154-.208.36-.363.591-.519.231-.13.489-.233.797-.31a4.108 4.108 0 011.003-.105c.514 0 .925.052 1.285.182.36.13.643.285.874.518.232.234.386.519.463.856l.9-.181a2.484 2.484 0 00-.643-1.141c-.308-.311-.694-.545-1.208-.7-.489-.156-1.054-.233-1.723-.233-.462 0-.9.051-1.285.155a4.266 4.266 0 00-1.054.415 2.963 2.963 0 00-1.26 1.556 3.7 3.7 0 00-.18 1.088c0 .311.051.622.129.908.077.285.18.544.334.777.154.234.334.441.54.622.205.182.463.337.745.467.283.13.592.233.926.285.334.078.72.104 1.105.104.669 0 1.26-.078 1.749-.233.488-.156.9-.415 1.208-.726.309-.311.514-.7.617-1.167l-.9-.181c0 .337-.154.648-.385.881zm15.323-4.874h-1.234l-4.32 3.06 4.423 3.162h1.285l-4.422-3.24 4.268-2.982z" fill="#CE8163"/></g><g class="word-small"><path class="logo-letter-small" d="M111.915 68.7h-.848v6.196h.848V68.7zm14.064 0h-4.885l-.026 1.141c0 .519-.025.96-.051 1.348-.026.389-.052.726-.077 1.011a5 5 0 01-.103.726 1.916 1.916 0 01-.129.493 1.64 1.64 0 01-.205.362c-.129.156-.257.26-.412.312-.154.077-.36.103-.565.13l.077.725c.231 0 .463-.052.643-.078.179-.052.334-.103.488-.207.154-.078.283-.207.411-.337.103-.13.206-.285.283-.44a2.72 2.72 0 00.206-.597c.051-.233.103-.493.128-.804.026-.31.078-.7.078-1.114.025-.441.051-.934.051-1.478l.026-.519h4.062v5.548h.848V68.7h-.848zm6.71 0l-3.419 6.222h.899l.9-1.685h4.037l.925 1.685h.952l-3.42-6.222h-.874zm-1.234 3.837l1.645-3.033 1.646 3.033h-3.291zm13.24 1.037a2.394 2.394 0 01-.899.545c-.36.13-.823.181-1.337.181-.36 0-.694-.026-1.003-.104a3.207 3.207 0 01-.797-.31 1.907 1.907 0 01-.591-.52 1.986 1.986 0 01-.36-.7 2.987 2.987 0 01-.129-.855c0-.31.052-.596.129-.855.077-.26.205-.493.36-.7.154-.208.36-.363.591-.519.231-.13.489-.233.797-.31a4.113 4.113 0 011.003-.105c.514 0 .925.052 1.285.182.36.13.643.285.874.518.232.234.386.519.463.856l.9-.181a2.493 2.493 0 00-.643-1.141c-.308-.311-.694-.545-1.208-.7-.489-.156-1.054-.233-1.723-.233-.462 0-.9.051-1.285.155a4.251 4.251 0 00-1.054.415 2.795 2.795 0 00-.772.674c-.205.26-.385.57-.488.881-.103.337-.18.7-.18 1.09 0 .31.051.621.128.907.078.285.18.544.335.777.154.234.334.441.54.622.205.182.462.337.745.467s.592.233.926.285c.334.078.72.104 1.105.104.669 0 1.26-.078 1.749-.233a2.974 2.974 0 001.208-.726c.308-.311.514-.7.617-1.167l-.9-.181c0 .337-.154.648-.386.881zm4.86.234V68.7h-.849v6.222h.849l5.09-5.107v5.107h.849V68.7h-.849l-5.09 5.108zm15.657-5.108h-1.234l-4.319 3.06 4.422 3.162h1.285l-4.422-3.24 4.268-2.982zm-5.63 0h-.849v6.196h.849V68.7zm14.397 6.222h.951l-3.419-6.222h-.9l-3.393 6.222h.899l.9-1.685h4.037l.925 1.685zm-4.576-2.385l1.645-3.033 1.646 3.033h-3.291zm-63.967-1.167h3.625v.804h-3.625v-.803z" fill="#CE8163"/></g></svg>