<svg class="logo-site" width="220" height="75" viewBox="0 0 213 73" fill="none" xmlns="http://www.w3.org/2000/svg"><g class="word-small"><path class="logo-letter-small" d="M49.045 66.865h.81v6.044h-.81v-6.044zm.319 0h5.39v.672h-5.39v-.672zm4.886 2.676c.306.143.542.35.708.621.166.271.249.595.249.97 0 .284-.045.536-.14.756a1.53 1.53 0 01-.403.556 1.84 1.84 0 01-.637.343c-.25.077-.53.122-.842.122h-3.63v-.646h3.521c.28 0 .517-.045.715-.13a.935.935 0 00.446-.38 1.24 1.24 0 00.147-.621c0-.246-.051-.46-.16-.627a.975.975 0 00-.452-.395 1.64 1.64 0 00-.69-.135h-3.527v-.647h3.63c.395 0 .759.071 1.065.213zm4.446-2.676h-.836v6.044h.836v-6.044zm8.974 5.12a1.642 1.642 0 01-.644.562 3.77 3.77 0 01-1.046.337c-.415.077-.887.11-1.416.11-.689 0-1.263-.072-1.729-.207-.459-.136-.822-.35-1.078-.628a1.857 1.857 0 01-.465-1.034l.855-.155c.031.297.14.556.325.763.185.213.446.368.79.472.345.103.785.161 1.302.161.39 0 .74-.025 1.033-.084.3-.058.549-.135.76-.232.204-.104.363-.227.465-.369a.836.836 0 00.153-.498.88.88 0 00-.204-.594c-.134-.156-.344-.272-.619-.356-.274-.084-.625-.123-1.052-.123h-1.87v-.64h1.831c.275 0 .517-.02.728-.058.21-.039.395-.097.555-.175a.927.927 0 00.363-.316.817.817 0 00.128-.453.727.727 0 00-.14-.446 1.075 1.075 0 00-.422-.336 2.523 2.523 0 00-.708-.2 6.418 6.418 0 00-.995-.072c-.484 0-.893.046-1.224.15-.332.096-.594.245-.778.445-.185.2-.307.44-.358.73l-.81-.18c.077-.388.243-.712.498-.977.261-.265.612-.465 1.052-.6.44-.136.982-.201 1.608-.201.516 0 .975.032 1.365.103.395.071.727.175.988.31.262.136.46.304.593.505.128.2.198.433.198.698 0 .2-.038.381-.108.543a1.244 1.244 0 01-.332.427 1.856 1.856 0 01-.561.31 3.195 3.195 0 01-.791.175l-.128-.156c.447.013.83.078 1.148.194.313.117.549.285.708.498.16.213.236.491.236.828.013.29-.057.55-.204.769zm2.954-5.12h.835v6.044h-.835v-6.044zm.574 2.573h5.44v.692h-5.44v-.692zm5.23-2.573h.842v6.044h-.842v-6.044zm3.987 0h.829v6.044h-.83v-6.044zm.542 0h5.058v.672h-5.058v-.672zm0 2.612h4.593v.672h-4.593v-.672zm0 2.76h5.11v.672h-5.11v-.672zm7.393-3.394a2.763 2.763 0 011.224-1.513c.3-.174.638-.31 1.02-.407a5.078 5.078 0 011.251-.142c.638 0 1.193.077 1.665.239.472.155.861.388 1.16.685.3.298.505.673.62 1.112l-.868.175a1.758 1.758 0 00-.46-.828 2.094 2.094 0 00-.854-.51c-.35-.117-.765-.175-1.257-.175a3.91 3.91 0 00-.982.11 2.734 2.734 0 00-.778.31 2.261 2.261 0 00-.574.498 1.94 1.94 0 00-.35.679c-.084.252-.122.53-.122.827 0 .298.038.576.121.828.083.252.198.478.351.666.153.194.344.355.574.497.223.136.485.246.778.317.294.071.625.11.983.11.497 0 .93-.058 1.288-.18.357-.124.65-.298.88-.531.23-.233.377-.524.44-.866l.862.18a2.368 2.368 0 01-.606 1.138c-.3.31-.69.544-1.174.705-.485.162-1.046.24-1.69.24-.39 0-.747-.033-1.079-.098a3.818 3.818 0 01-.905-.284 3.139 3.139 0 01-.721-.459 2.51 2.51 0 01-.523-.614 3.012 3.012 0 01-.325-.763 3.337 3.337 0 01-.115-.886c0-.388.05-.737.166-1.06z" fill="#CE8163"/></g><g class="word-small"><path class="logo-letter-small" d="M101.891 66.865h.83v6.044h-.83v-6.044zm5.065 0h1.212l-4.312 3.013-.026-.253 4.478 3.284h-1.25l-4.274-3.083 4.172-2.961zm3.655 5.275a.97.97 0 00.408-.317 1.31 1.31 0 00.198-.342c.057-.136.102-.298.134-.492a9.33 9.33 0 00.089-.71c.026-.279.045-.608.064-.99.019-.381.032-.82.045-1.319l.025-1.105h.836l-.032 1.183c-.019.55-.032 1.028-.058 1.448-.019.42-.051.782-.082 1.086-.039.31-.083.576-.134.795-.051.22-.122.414-.198.57a2.03 2.03 0 01-.268.426c-.128.136-.255.24-.396.33-.14.084-.299.148-.472.194a3.252 3.252 0 01-.612.084l-.076-.718c.191-.013.37-.058.529-.123zm1.384-5.275h4.535v.692h-4.599l.064-.692zm4.331 0h.823v6.044h-.823v-6.044zm6.762.536h.28l-2.972 5.508h-.88l3.304-6.044h.861l3.323 6.044h-.931l-2.985-5.508zm-1.927 3.207h4.165l.185.672h-4.522l.172-.672zm7.635-1.765c.109-.323.268-.614.472-.866.205-.259.453-.472.753-.647.3-.174.638-.31 1.021-.407a5.071 5.071 0 011.25-.142c.638 0 1.193.077 1.665.239a2.92 2.92 0 011.161.685c.299.298.503.673.618 1.112l-.867.175a1.76 1.76 0 00-.459-.828 2.099 2.099 0 00-.855-.51c-.351-.117-.766-.175-1.257-.175a3.91 3.91 0 00-.982.11 2.734 2.734 0 00-.778.31 2.258 2.258 0 00-.574.498 1.94 1.94 0 00-.351.679c-.083.252-.121.53-.121.827 0 .298.038.576.121.828.083.252.198.478.351.666.153.194.344.355.574.497.223.136.485.246.778.317.293.071.625.11.982.11.498 0 .932-.058 1.289-.18a2.23 2.23 0 00.88-.531 1.63 1.63 0 00.44-.866l.861.18a2.366 2.366 0 01-.606 1.138c-.3.31-.689.544-1.173.705-.479.155-1.047.24-1.691.24a5.62 5.62 0 01-1.078-.098 3.818 3.818 0 01-.905-.284 3.114 3.114 0 01-.721-.459 2.49 2.49 0 01-.517-.614 3.004 3.004 0 01-.325-.763 3.316 3.316 0 01-.115-.886 3.151 3.151 0 01.159-1.06zm9.556-1.978h.816v6.044h-.816v-6.044zm.791 5.004l4.943-4.998.025 1.048-4.943 4.997-.025-1.047zm4.943-5.004h.816v6.044h-.816v-6.044zm3.967 0h.829v6.044h-.829v-6.044zm5.071 0h1.212l-4.312 3.013-.025-.253 4.484 3.284h-1.25l-4.28-3.083 4.171-2.961zm6.704.536h.281l-2.972 5.508h-.881l3.304-6.044h.862l3.323 6.044h-.931l-2.986-5.508zm-1.926 3.207h4.165l.185.672h-4.522l.172-.672z" fill="#CE8163"/></g><path class="logo-letter--big" d="M17.547 11.449l11.527 7.855 6.825-7.435-1.754-1.293-2.06 2.153-8.93-6.31-13.051 11.495-.013 8.236 17.075 14.37.058 11.132s-8.58-6.956-9.032-7.311c-2.252-1.765-5.505-4.39-7.15-2.767-.983.963-9.148 9.16-11.042 11.054l1.359 1.106c2.864-3.013 6.94-7.926 9.58-5.89 2.533 1.953 2.89 2.244 11.52 9.045l12.03-10.137V35.789L17.548 21.974V11.449zM55.52 50.684l.497.317-5.288 6.018-10.372-6.69 2.22-2.044V23.991h-6.11l3.4-6.168 2.748-.077-.038-3.885 7.406-6.536V17.83h6.882l-3.444 6.16h-3.438v23.138l.242.155 5.294 3.4zm32.6-.084l-5.077-3.259V28.096l-13.53-11.501-5.874 5.58 2.284 1.99 1.53 1.338 2.405 2.102.045.038-2.456 2.185-.076.072-7.017 6.244-.313.324v11.688l-2.366 2.185.447.291 1.084.705 8.834 5.701 5.141-5.85.492-.479 9.772 6.33 5.25-5.974-.575-.465zm-12.477-2.625l-2.538 2.347-.338.31-5.307-3.407v-13.53l4.293-4.442 3.89 3.394v15.328zm40.67-.453V24.38l-9.166-7.784-6.378 5.547-6.52-5.547-5.88 5.58 4.401 3.84v21.507l-2.577 2.787 8.133 6.71 5.83-6.012-3.98-3.355V26.499l3.068-2.612 5.664 4.946v18.903l-2.386 2.573 7.776 6.704 6.193-6.006-4.178-3.485z" fill="#CE8163"/><path d="M138.836 0l-6.078 5.611.038.026 6.283 3.873 6.053-5.676L138.836 0zm-.351 23.907l3.445-6.161h-9.262V5.747l-7.405 6.536v5.301l-4.625 6.323h4.625v23.176l-3.477 3.206 10.512 6.788 5.365-6.109-4.995-3.206V23.907h5.817z" fill="#CE8163"/><path class="logo-letter--big" d="M150.637 16.595l-5.875 5.58 2.283 1.99-5.874 5.178v18.865l-2.284 2.107 12.215 6.782 13.063-13.285v-15.71l-13.528-11.507zm6.123 34.69l-8.184-4.474V25.503l8.184 7.138v18.644zm22.548-27.43l5.11 4.422 6.327-5.625-7.501-6.057-5.09 4.823-5.754-4.823-5.874 5.58 4.401 3.833v20.965l-3.642 3.362 10.371 6.684 5.288-6.018-4.612-2.955V24.863l.976-1.008z" fill="#CE8163"/><g class="logo-letter--big" fill="#CE8163"><path d="M213 43.585l-.026-17.416-22.427-19.53v11.068l15.047 12.91V51.13L213 43.585z"/><path d="M205.429 51.298l-5.69 5.799-9.472-5.256-.192-.104-2.557-1.422 2.557-2.36V31.09l7.336-6.53v22.362l8.018 4.377z"/></g></svg>